<svg id="Capa_1" data-name="Capa 1" xmlns="http://www.w3.org/2000/svg" viewBox="0 0 958.83 665"><defs><style>.cls-1{fill:#fff;}</style></defs><title>Education</title><path class="cls-1" d="M480.44-830.56c1.49,1,2.9,2.13,4.47,3q234.34,122.7,468.71,245.38c1.59.83,3.11,1.8,5.21,3-8,4.25-15.44,8.23-22.9,12.17l-425,224.4c-9.13,4.82-18.33,9.52-27.35,14.53-3,1.66-5.27,1.59-8.28,0Q378.19-379.56,281-430.82L5.28-576.38c-1.57-.83-3.11-1.72-5.28-2.92,2.42-1.33,4.27-2.38,6.16-3.36L474.85-828.08a35.74,35.74,0,0,0,3.59-2.48Z" transform="translate(0 830.56)"/><path class="cls-1" d="M453.44-165.56q-13.68-1-27.35-2c-47-3.32-93.39-10.05-138.22-25.2-20.6-7-40.36-15.75-57.77-29.07-13.93-10.66-25.18-23.37-28.94-41.18a58.14,58.14,0,0,1-1.24-11.9q.12-91.24.41-182.5c0-1,.08-2,.16-3.77,2,.93,3.55,1.6,5.06,2.39q134.31,70.92,268.58,141.92c3.74,2,6.56,2.2,10.46.13q134.2-71.13,268.56-142c1.45-.76,2.94-1.44,5-2.42.12,2,.3,3.57.3,5.12.21,59.84.3,119.67.64,179.5.1,17.84-7,32.26-19.41,44.46-15.74,15.5-35,25.37-55.19,33.43-36,14.33-73.62,22.21-111.91,26.81-21,2.53-42.14,3.62-63.22,5.4-1.64.13-3.26.53-4.89.8Z" transform="translate(0 830.56)"/><path class="cls-1" d="M67.93-530.86c13.61,7.21,26.58,13.94,39.36,21,1.28.71,1.9,3.6,1.91,5.48q.17,53.46.08,107v101.45l-1,.45L88.46-334.91l-19.8,39.37-.76-.29Z" transform="translate(0 830.56)"/></svg>