<svg id="Layer_1" data-name="Layer 1" xmlns="http://www.w3.org/2000/svg" viewBox="0 0 191.67 184.3"><defs><style>.cls-1{fill:#fff;}</style></defs><title>Ind_insu_white</title><path id="sdvdf" class="cls-1" d="M566.18-145.45c-3.93-10.49-9.13-20.21-17.12-28.23-9.65-9.68-21-13.51-34.51-9.94a1.91,1.91,0,0,1-2.34-.8c-16-19.88-36.37-27.32-61.36-21.87-.89.19-1.62.43-2.39-.64-9.19-12.8-21.91-16.25-36.82-13.55-7.47,1.35-14.36,4.28-21.43,8.13,2.14.26,3.83.41,5.5.67,15.92,2.56,29.75,9,40.12,21.76a47.52,47.52,0,0,1,7.45,12.71c.65,1.66,1.34,1.75,2.86,1.27a55.7,55.7,0,0,1,13.15-2.77,18.93,18.93,0,0,1,2.38.08c1.12.08,1.64.43,1.33,1.79-.86,3.75-.79,3.74-4.59,4a56.4,56.4,0,0,0-16,4c-1.56.6-1.93.4-2.39-1.26-3.49-12.56-11.4-21.65-22.57-28-11.7-6.67-24.55-8.93-37.81-9.44-1.36-.05-2.73-.08-4.39-.12a99.22,99.22,0,0,1,9.78-8.88,170,170,0,0,1,39.51-24.74c17-7.46,34.64-11.43,53.33-9a72.64,72.64,0,0,1,17.66,4.51c1.32.53,1.79.37,2.27-1,2.51-7.19,5.13-14.34,7.71-21.51a3.71,3.71,0,0,1,4.56-2.55,3.63,3.63,0,0,1,2,4.79c-2.47,7.13-4.87,14.28-7.47,21.36-.69,1.86-.21,2.45,1.45,3.24,23.91,11.33,41.72,28.72,52.24,53.19,5.83,13.56,8.27,27.85,8.55,42.56,0,.29,0,.57,0,.86C566.26-144.49,566.23-145,566.18-145.45Z" transform="translate(-375.27 271.04)"/><path class="cls-1" d="M468.57-88.82c-7.06,3.39-13.63,2.6-18.31-2.19-5.16-5.29-6.6-11.35-4.09-18.38q17.06-47.83,34-95.71a4.14,4.14,0,0,1,3.59-2.86c1.38-.22,2.18.58,2.87,1.63s.28,1.85-.05,2.79q-9.73,27.51-19.44,55l-14.87,42.05c-1.8,5.11.62,10.89,5.29,12.58a10.64,10.64,0,0,0,13.36-5.83c.82-2.12,2.2-2.93,3.92-2.29a3.63,3.63,0,0,1,1.86,4.59C475.61-94,472.41-90.67,468.57-88.82Z" transform="translate(-375.27 271.04)"/><path class="cls-1" d="M483-135.93c-.23-3-.36-6.06-.73-9.07-.56-4.45,4.53-9.43,10.45-9.12,3.89.2,7.82,0,11.74,0,4.82,0,10,4.32,9.66,8.29-.53,6.82-1.24,13.62-1.83,20.44-.06.71-.26,1.19-1.23,1-2-.32-2,.63-2.06,1.84-.13,7.18-.38,14.37-.45,21.55,0,1.52-.59,1.84-2.34,1.8-5.43-.09-10.87-.08-16.31,0-1.55,0-1.91-.38-1.94-1.59-.21-7.36-.55-14.72-.76-22.09,0-1.25-.26-2-2-1.45-1.25.36-1.23-.32-1.28-1C483.57-128.82,483.26-132.38,483-135.93Z" transform="translate(-375.27 271.04)"/><path class="cls-1" d="M531.36-98.78c-4.06,0-8.11,0-12.17,0-1.18,0-1.61-.1-1.36-1.21,1.33-6,2.48-11.93,3.81-17.89.23-1,.13-1.55-1.34-1.41-2.29.22-2.84-.6-2.79-2.33.14-4.68.1-9.36,0-14-.14-4.46,4.89-8.06,9.66-7.7,3.3.24,6.66,0,10,0,4.39,0,9,3.26,9.07,6.75.15,5.36,0,10.73,0,16.1,0,1.09-.75,1-1.67,1-2.94,0-2.93,0-2.51,2.33,1,5.6,2,11.19,3,16.78.24,1.22-.15,1.54-1.71,1.5-4-.09-8,0-12,0Z" transform="translate(-375.27 271.04)"/><path class="cls-1" d="M550.24-104.06c0-.82,0-1.65,0-2.47,0-.52.36-1.2-1.29-1-.56.06-.51-.26-.55-.48-.43-2.53-1-5-1.28-7.58-.23-1.86,2.67-3.58,5.83-3.6,2.22,0,4.45,0,6.67,0,3.69,0,6.54,2,6,4.12-.54,2.32-1,4.64-1.54,7-.1.42.14,1-1.2.85-.71-.08-.48.36-.51.58-.21,1.78-.47,3.55-.53,5.33,0,.81-.49,1-1.74.94-2.72-.06-5.45-.1-8.17,0-1.59,0-1.87-.3-1.76-1.11a18.65,18.65,0,0,0,0-2.48Z" transform="translate(-375.27 271.04)"/><path class="cls-1" d="M498.07-158.32a8.5,8.5,0,0,1-8.41-8.48,8.53,8.53,0,0,1,8.62-8.5,8.51,8.51,0,0,1,8.4,8.49A8.48,8.48,0,0,1,498.07-158.32Z" transform="translate(-375.27 271.04)"/><path class="cls-1" d="M531.84-147.13a7.64,7.64,0,0,1-7.65-7.57,7.66,7.66,0,0,1,7.76-7.68,7.57,7.57,0,0,1,7.5,7.69A7.56,7.56,0,0,1,531.84-147.13Z" transform="translate(-375.27 271.04)"/><path class="cls-1" d="M561.43-126.7a5,5,0,0,1-4.95,5,5,5,0,0,1-5-4.94,5,5,0,0,1,4.94-5A5,5,0,0,1,561.43-126.7Z" transform="translate(-375.27 271.04)"/></svg>