<svg xmlns="http://www.w3.org/2000/svg" width="147.509" height="52" viewBox="0 0 147.509 52">
  <g id="Josh_Logo_-_black_text_-_2021" data-name="Josh Logo - black text - 2021" transform="translate(8965 -4352)">
    <rect id="Rectangle_38607" data-name="Rectangle 38607" width="147.509" height="50.954" transform="translate(-8965 4353)" fill="#fff" opacity="0"/>
    <g id="JOSH_logo" data-name="JOSH logo" transform="translate(-8964 4352)">
      <g id="Group_338" data-name="Group 338" transform="translate(24.892 34.845)">
        <g id="Path_900" data-name="Path 900" transform="translate(0.66 2.289)" fill="#fff">
          <path d="M 89.14284515380859 12.5214786529541 L 6.391375541687012 12.5214786529541 C 3.005011081695557 12.5214786529541 0.2499992251396179 9.768996238708496 0.2499992251396179 6.385737419128418 C 0.2499992251396179 3.00247859954834 3.005011081695557 0.2499962449073792 6.391375541687012 0.2499962449073792 L 89.14284515380859 0.2499962449073792 C 92.52921295166016 0.2499962449073792 95.28421020507812 3.00247859954834 95.28421020507812 6.385737419128418 C 95.28421020507812 9.768996238708496 92.52921295166016 12.5214786529541 89.14284515380859 12.5214786529541 Z" stroke="none"/>
          <path d="M 6.391365051269531 0.5 C 3.142852783203125 0.5 0.4999923706054688 3.140324592590332 0.4999923706054688 6.385737419128418 C 0.4999923706054688 9.631150245666504 3.142852783203125 12.27147483825684 6.391365051269531 12.27147483825684 L 89.14284515380859 12.27147483825684 C 92.391357421875 12.27147483825684 95.03420257568359 9.631150245666504 95.03420257568359 6.385737419128418 C 95.03420257568359 3.140324592590332 92.391357421875 0.5 89.14284515380859 0.5 L 6.391365051269531 0.5 M 6.391365051269531 0 L 89.14284515380859 0 C 92.67269134521484 0 95.53420257568359 2.858987808227539 95.53420257568359 6.385737419128418 C 95.53420257568359 9.912474632263184 92.67269134521484 12.77147483825684 89.14284515380859 12.77147483825684 L 6.391365051269531 12.77147483825684 C 2.861518859863281 12.77147483825684 -7.62939453125e-06 9.912474632263184 -7.62939453125e-06 6.385737419128418 C -7.62939453125e-06 2.858987808227539 2.861518859863281 0 6.391365051269531 0 Z" stroke="none" fill="#57c24f"/>
        </g>
        <g id="shield" transform="translate(0 0)">
          <g id="Group_337" data-name="Group 337">
            <path id="Path_887" data-name="Path 887" d="M48.34,4.416c-.021-.451-.021-.882-.021-1.313a.6.6,0,0,0-.616-.615A8.254,8.254,0,0,1,41.564.169a.634.634,0,0,0-.862,0,8.254,8.254,0,0,1-6.139,2.318.6.6,0,0,0-.616.615c0,.431,0,.862-.021,1.313-.082,4.308-.205,10.216,7,12.7l.205.041.205-.041C48.525,14.632,48.422,8.744,48.34,4.416Zm-7.7,5.97a.663.663,0,0,1-.431.164h-.021a.578.578,0,0,1-.431-.205L37.848,8.231l.924-.821,1.5,1.662L43.6,5.913l.842.9Z" transform="translate(-33.908 0)" fill="#57c24f"/>
          </g>
        </g>
        <path id="Path_898" data-name="Path 898" d="M-28.424-9.039v6.047h1.137V-9.039Zm2.16,4.308a2.128,2.128,0,0,0,2.423,1.818c1.557,0,2.353-.76,2.353-1.818,0-.821-.359-1.486-2.1-1.9-1.006-.236-1.294-.428-1.294-.9s.35-.734.953-.734c.813,0,1.067.411,1.146.839h1.146c-.087-.848-.708-1.7-2.256-1.7-1.408,0-2.152.725-2.152,1.721,0,.83.437,1.389,2,1.765,1.1.253,1.391.516,1.391,1.04,0,.489-.324.821-1.1.821a1.21,1.21,0,0,1-1.364-.952Zm8.519-4.4a2.862,2.862,0,0,0-2.93,3.111A2.811,2.811,0,0,0-17.824-2.9a2.876,2.876,0,0,0,2.93-3.137A2.8,2.8,0,0,0-17.746-9.126Zm-.052.935c1.2,0,1.723.97,1.723,2.167,0,1.153-.464,2.185-1.705,2.185-1.154,0-1.723-.979-1.723-2.2S-18.987-8.191-17.8-8.191Zm9.839,5.2.14-.918h-2.825c.114-.323.446-.69,1.189-1.232,1.058-.769,1.417-1.153,1.417-2a1.671,1.671,0,0,0-1.915-1.7,1.855,1.855,0,0,0-2,1.783H-10.9c.087-.568.332-.926.945-.926a.763.763,0,0,1,.822.865c0,.542-.254.76-1.1,1.389a3.313,3.313,0,0,0-1.705,2.674v.07Zm.7-5.75v.909h2.8a11.992,11.992,0,0,0-2.1,4.841h1.12a12.292,12.292,0,0,1,2.1-4.928v-.821Zm6.752-.1c-1.627,0-2.169,1.442-2.169,2.98,0,1.555.49,2.98,2.143,2.98C1.137-2.887,1.61-4.381,1.61-5.9,1.61-7.483,1.076-8.846-.507-8.846Zm0,.874c.831,0,.988.961.988,2.071C.481-4.748.35-3.769-.524-3.769s-1.023-1.04-1.023-2.106C-1.548-7.125-1.338-7.973-.507-7.973Zm5.134-.874C3-8.846,2.458-7.4,2.458-5.867c0,1.555.49,2.98,2.143,2.98,1.671,0,2.143-1.494,2.143-3.015C6.744-7.483,6.21-8.846,4.627-8.846Zm0,.874c.831,0,.988.961.988,2.071,0,1.153-.131,2.132-1.006,2.132S3.586-4.809,3.586-5.875C3.586-7.125,3.8-7.973,4.627-7.973ZM9.743-2.992V-8.759H8.965a2.9,2.9,0,0,1-1.417.8v.821a3.763,3.763,0,0,0,1.093-.332v4.483Z" transform="translate(46.291 14.691)" fill="#1a1a1a"/>
        <path id="Path_899" data-name="Path 899" d="M-19.523-3.323a.925.925,0,0,1-.939.684c-.86,0-1.15-.786-1.15-1.531,0-.793.321-1.518,1.126-1.518a.9.9,0,0,1,.963.7h.787a1.583,1.583,0,0,0-1.72-1.325,1.964,1.964,0,0,0-1.968,2.172,1.892,1.892,0,0,0,1.932,2.129,1.646,1.646,0,0,0,1.756-1.307ZM-15.2-4.576h-2.028V-5.6h2.119v-.653H-18v4.186h2.906l.1-.647h-2.234v-1.21H-15.2Zm2.361.774c.7,0,.836.23.836.732V-3a3,3,0,0,0,.079.926h.751a3.248,3.248,0,0,1-.061-.811v-.194c0-.744-.309-.974-.563-1.053a.982.982,0,0,0,.648-.986c0-.653-.478-1.143-1.374-1.143H-14.3v4.186h.775V-3.8Zm-.684-1.821h.842c.49,0,.733.212.733.587,0,.393-.218.6-.763.6h-.811Zm4.105,3.551h.787V-5.6h1.3v-.653h-3.379V-5.6h1.3Zm2.658-4.186v4.186h.787V-6.258Zm1.835,4.186h.769V-3.813h1.944v-.653H-4.156V-5.6h2.077v-.653H-4.925Zm3.53-4.186v4.186h.787V-6.258ZM3.238-4.576H1.209V-5.6H3.328v-.653H.44v4.186H3.347l.1-.647H1.209v-1.21H3.238Zm.9,2.5H5.714A1.983,1.983,0,0,0,7.748-4.213a1.9,1.9,0,0,0-2-2.045H4.14Zm.787-3.545h.751a1.25,1.25,0,0,1,1.259,1.41c0,.859-.394,1.494-1.259,1.494H4.927Z" transform="translate(82.003 12.841)" fill="#1a1a1a"/>
      </g>
      <g id="Josh-Software-Logo-cc2234ad5ea2747b3b4611978e873127_1_" data-name="Josh-Software-Logo-cc2234ad5ea2747b3b4611978e873127 (1)" transform="translate(0 0)">
        <g id="Group_724" data-name="Group 724" transform="translate(0 13.804)">
          <path id="Path_984" data-name="Path 984" d="M61.093,58.5a1.938,1.938,0,0,0-1.39.581,1.884,1.884,0,0,0-.6,1.41V67.87a5.952,5.952,0,0,1-.228,1.576,4.632,4.632,0,0,1-.746,1.534,3.931,3.931,0,0,1-1.41,1.162,4.949,4.949,0,0,1-2.26.455H37.744a5.269,5.269,0,0,1-1.638-.248,4.3,4.3,0,0,1-1.327-.684,3.823,3.823,0,0,1-.892-.954,2,2,0,0,1-.332-1.1,1.98,1.98,0,0,0-3.38-1.411,1.889,1.889,0,0,0-.6,1.411,6.34,6.34,0,0,0,.56,2.592,7.512,7.512,0,0,0,1.514,2.24A7.373,7.373,0,0,0,33.866,76a6.326,6.326,0,0,0,2.675.581H55.287a6.4,6.4,0,0,0,3.235-.83,8.334,8.334,0,0,0,2.467-2.136,10.1,10.1,0,0,0,2.095-6.076V60.488A1.983,1.983,0,0,0,61.093,58.5Z" transform="translate(-29.574 -58.496)"/>
          <path id="Path_985" data-name="Path 985" d="M285.171,67.162a5.585,5.585,0,0,0-1.763-1.182,5.462,5.462,0,0,0-2.177-.435H258.3a1.542,1.542,0,0,1-1.1-.457,1.441,1.441,0,0,1-.478-1.079,1.419,1.419,0,0,1,.478-1.1,1.58,1.58,0,0,1,1.1-.436h25.258a1.991,1.991,0,1,0,0-3.982H258.379a5.32,5.32,0,0,0-2.157.436,5.6,5.6,0,0,0-2.923,2.924,5.561,5.561,0,0,0,0,4.313,5.6,5.6,0,0,0,2.923,2.924,5.347,5.347,0,0,0,2.157.435H281.4a1.478,1.478,0,0,1,1.079.457,1.526,1.526,0,0,1,.456,1.119,1.408,1.408,0,0,1-.456,1.058,1.513,1.513,0,0,1-1.079.436H256.1a1.991,1.991,0,1,0,0,3.982h25.133a5.694,5.694,0,0,0,2.177-.415A5.293,5.293,0,0,0,285.172,75a5.63,5.63,0,0,0,1.182-1.742,5.32,5.32,0,0,0,.434-2.157,5.472,5.472,0,0,0-.434-2.177A5.586,5.586,0,0,0,285.171,67.162Z" transform="translate(-177.3 -58.494)"/>
          <path id="Path_986" data-name="Path 986" d="M397.137,59.078a1.991,1.991,0,0,0-3.4,1.41v6.387a9.871,9.871,0,0,0-2.467-1,10.551,10.551,0,0,0-2.592-.331H374.284a7.735,7.735,0,0,1-1.617-.187,5.1,5.1,0,0,1-1.639-.664,3.945,3.945,0,0,1-1.286-1.327,4.126,4.126,0,0,1-.518-2.177v-.705a1.991,1.991,0,1,0-3.982,0v14.1a1.991,1.991,0,1,0,3.982,0V68.2a9.818,9.818,0,0,0,2.467,1,10.491,10.491,0,0,0,2.592.331h14.392a8.586,8.586,0,0,1,1.576.166,4.825,4.825,0,0,1,1.618.622,4.161,4.161,0,0,1,1.286,1.266,3.884,3.884,0,0,1,.58,2.052v.954a1.991,1.991,0,1,0,3.982,0v-14.1A1.919,1.919,0,0,0,397.137,59.078Z" transform="translate(-251.649 -58.496)"/>
          <path id="Path_987" data-name="Path 987" d="M174.111,64.427a9.908,9.908,0,0,0-1.431-2.861,8.327,8.327,0,0,0-2.261-2.136,6.062,6.062,0,0,0-3.027-.933h-2.048l-2.915,3.982h3.678a4.656,4.656,0,0,1,2.322.518,4.281,4.281,0,0,1,1.431,1.265,4.447,4.447,0,0,1,.7,1.639,7.288,7.288,0,0,1,0,3.276,4.448,4.448,0,0,1-.7,1.639,4.269,4.269,0,0,1-1.431,1.264,4.654,4.654,0,0,1-2.322.518H149.351a4.631,4.631,0,0,1-2.343-.518,4.326,4.326,0,0,1-1.41-1.264,4.427,4.427,0,0,1-.705-1.639,7.29,7.29,0,0,1,0-3.276,4.431,4.431,0,0,1,.705-1.639A4.334,4.334,0,0,1,147.008,63a4.631,4.631,0,0,1,2.343-.518h4.577L150.981,58.5h-2.5a6.18,6.18,0,0,0-3.194.83,8.248,8.248,0,0,0-2.405,2.136,9.674,9.674,0,0,0-1.514,2.9,9.969,9.969,0,0,0-.021,6.283,9.906,9.906,0,0,0,1.431,2.861,8.284,8.284,0,0,0,2.261,2.136,6.049,6.049,0,0,0,3.027.933h18.912a6.172,6.172,0,0,0,3.194-.83,8.269,8.269,0,0,0,2.406-2.136,9.7,9.7,0,0,0,1.514-2.9,9.964,9.964,0,0,0,.02-6.283Z" transform="translate(-103.192 -58.495)"/>
        </g>
        <g id="Group_723" data-name="Group 723" transform="translate(44.318 0)">
          <path id="Path_988" data-name="Path 988" d="M182.653,68.869l4.764-6.351h-9.528Z" transform="translate(-172.015 -47.352)" fill="#cf4338"/>
          <path id="Path_989" data-name="Path 989" d="M194.449,26.044l4.937,6.653,0,.005,0-.005,4.925-6.549L199.292,19.5Z" transform="translate(-182.971 -18.892)" fill="#691c00"/>
          <path id="Path_990" data-name="Path 990" d="M183.46,41.7l-4.409,5.871h8.818Z" transform="translate(-172.784 -33.577)" fill="#9a281e"/>
          <path id="Path_991" data-name="Path 991" d="M165.469,31.508,175.838,17.7H165.687l-5.155,7.337Z" transform="translate(-160.532 -17.703)" fill="#cf4338"/>
        </g>
      </g>
    </g>
  </g>
</svg>
