<svg xmlns="http://www.w3.org/2000/svg" xmlns:xlink="http://www.w3.org/1999/xlink" width="168.434" height="56.264" viewBox="0 0 168.434 56.264">
  <defs>
    <clipPath id="clip-path">
      <rect id="Rectangle_3" data-name="Rectangle 3" width="28.055" height="19.454" fill="none"/>
    </clipPath>
    <clipPath id="clip-path-3">
      <rect id="Rectangle_1" data-name="Rectangle 1" width="4.511" height="4.648" fill="none"/>
    </clipPath>
  </defs>
  <g id="Josh_logo" data-name="Josh logo" transform="translate(-1864 128.26)">
    <g id="Josh_Logo_-_black_text_-_2021" data-name="Josh Logo - black text - 2021" transform="translate(10829 -4475.997)">
      <rect id="Rectangle_38607" data-name="Rectangle 38607" width="147.509" height="50.954" transform="translate(-8965 4353)" fill="#fff" opacity="0"/>
      <g id="JOSH_logo-2" data-name="JOSH logo" transform="translate(-8964 4352)">
        <g id="Group_338" data-name="Group 338" transform="translate(24.892 34.845)">
          <g id="Path_900" data-name="Path 900" transform="translate(0.66 2.289)">
            <path id="Path_38" data-name="Path 38" d="M89.143,12.521H6.391A6.136,6.136,0,1,1,6.391.25H89.143a6.136,6.136,0,1,1,0,12.272Z" fill="#fff"/>
            <path id="Path_39" data-name="Path 39" d="M6.391.5a5.886,5.886,0,1,0,0,11.771H89.143A5.886,5.886,0,1,0,89.143.5H6.391m0-.5H89.143a6.386,6.386,0,1,1,0,12.771H6.391A6.386,6.386,0,1,1,6.391,0Z" fill="#57c24f"/>
          </g>
          <g id="shield">
            <g id="Group_337" data-name="Group 337">
              <path id="Path_887" data-name="Path 887" d="M48.34,4.416c-.021-.451-.021-.882-.021-1.313a.6.6,0,0,0-.616-.615A8.254,8.254,0,0,1,41.564.169a.634.634,0,0,0-.862,0,8.254,8.254,0,0,1-6.139,2.318.6.6,0,0,0-.616.615c0,.431,0,.862-.021,1.313-.082,4.308-.205,10.216,7,12.7l.205.041.205-.041C48.525,14.632,48.422,8.744,48.34,4.416Zm-7.7,5.97a.663.663,0,0,1-.431.164h-.021a.578.578,0,0,1-.431-.2L37.848,8.231l.924-.821,1.5,1.662L43.6,5.913l.842.9Z" transform="translate(-33.908)" fill="#57c24f"/>
            </g>
          </g>
          <path id="Path_898" data-name="Path 898" d="M-28.424-9.039v6.047h1.137V-9.039Zm2.16,4.308a2.128,2.128,0,0,0,.831,1.416,2.128,2.128,0,0,0,1.592.4c1.557,0,2.353-.76,2.353-1.818,0-.821-.359-1.486-2.1-1.9-1.006-.236-1.294-.428-1.294-.9s.35-.734.953-.734c.813,0,1.067.411,1.146.839h1.146c-.087-.848-.708-1.7-2.256-1.7-1.408,0-2.152.725-2.152,1.721,0,.83.437,1.389,2,1.765,1.1.253,1.391.516,1.391,1.04,0,.489-.324.821-1.1.821a1.21,1.21,0,0,1-1.364-.952Zm8.519-4.4a2.862,2.862,0,0,0-2.162.9,2.862,2.862,0,0,0-.768,2.212,2.811,2.811,0,0,0,.719,2.206,2.811,2.811,0,0,0,2.132.914,2.876,2.876,0,0,0,2.168-.912,2.876,2.876,0,0,0,.762-2.225,2.8,2.8,0,0,0-.728-2.189,2.8,2.8,0,0,0-2.124-.9ZM-17.8-8.2c1.2,0,1.723.97,1.723,2.167,0,1.153-.464,2.185-1.7,2.185-1.154,0-1.723-.979-1.723-2.2s.515-2.147,1.7-2.147ZM-7.958-3l.14-.918h-2.825c.114-.323.446-.69,1.189-1.232,1.058-.769,1.417-1.153,1.417-2a1.671,1.671,0,0,0-.561-1.3,1.671,1.671,0,0,0-1.354-.4,1.855,1.855,0,0,0-1.381.465,1.855,1.855,0,0,0-.619,1.318H-10.9c.087-.568.332-.926.945-.926a.763.763,0,0,1,.619.235.763.763,0,0,1,.2.63c0,.542-.254.76-1.1,1.389a3.313,3.313,0,0,0-1.7,2.674v.07Zm.7-5.75v.909h2.8A11.992,11.992,0,0,0-6.558-3h1.12a12.292,12.292,0,0,1,2.1-4.928v-.821Zm6.752-.1c-1.627,0-2.169,1.442-2.169,2.98,0,1.555.49,2.98,2.143,2.98,1.669,0,2.142-1.5,2.142-3.014,0-1.583-.534-2.946-2.117-2.946Zm0,.874c.831,0,.988.961.988,2.071C.481-4.748.35-3.769-.524-3.769s-1.023-1.04-1.023-2.106c0-1.25.209-2.1,1.04-2.1Zm5.134-.874C3-8.846,2.458-7.4,2.458-5.867c0,1.555.49,2.98,2.143,2.98,1.671,0,2.143-1.494,2.143-3.015,0-1.581-.534-2.944-2.117-2.944Zm0,.874c.831,0,.988.961.988,2.071,0,1.153-.131,2.132-1.006,2.132S3.586-4.809,3.586-5.875c0-1.25.214-2.1,1.041-2.1Zm5.115,4.98V-8.759H8.965a2.9,2.9,0,0,1-1.417.8v.821A3.763,3.763,0,0,0,8.641-7.47v4.483Z" transform="translate(46.291 14.691)" fill="#1a1a1a"/>
          <path id="Path_899" data-name="Path 899" d="M-19.523-3.323a.925.925,0,0,1-.939.684c-.86,0-1.15-.786-1.15-1.531,0-.793.321-1.518,1.126-1.518a.9.9,0,0,1,.963.7h.787a1.583,1.583,0,0,0-1.72-1.325,1.964,1.964,0,0,0-1.47.645,1.964,1.964,0,0,0-.5,1.527,1.892,1.892,0,0,0,.476,1.509,1.892,1.892,0,0,0,1.456.62,1.646,1.646,0,0,0,1.756-1.307ZM-15.2-4.576h-2.028V-5.6h2.119v-.653H-18v4.186h2.906l.1-.647h-2.234v-1.21H-15.2Zm2.361.774c.7,0,.836.23.836.732V-3a3,3,0,0,0,.079.926h.751a3.248,3.248,0,0,1-.061-.811v-.194c0-.744-.309-.974-.563-1.053a.982.982,0,0,0,.648-.986c0-.653-.478-1.143-1.374-1.143H-14.3v4.186h.775V-3.8Zm-.684-1.821h.842c.49,0,.733.212.733.587,0,.393-.218.6-.763.6h-.811Zm4.105,3.551h.787V-5.6h1.3v-.653H-10.71V-5.6h1.3ZM-6.76-6.258v4.186h.787V-6.258Zm1.835,4.186h.769V-3.813h1.944v-.653H-4.156V-5.6h2.077v-.653H-4.925Zm3.53-4.186v4.186h.787V-6.258ZM3.238-4.576H1.209V-5.6H3.328v-.653H.44v4.186H3.347l.1-.647H1.209v-1.21H3.238Zm.9,2.5H5.714a1.983,1.983,0,0,0,1.493-.615,1.983,1.983,0,0,0,.541-1.522,1.9,1.9,0,0,0-.536-1.476,1.9,1.9,0,0,0-1.464-.569H4.14Zm.787-3.545h.751a1.25,1.25,0,0,1,.952.417,1.25,1.25,0,0,1,.307.993c0,.859-.394,1.494-1.259,1.494H4.927Z" transform="translate(82.003 12.841)" fill="#1a1a1a"/>
        </g>
        <g id="Josh-Software-Logo-cc2234ad5ea2747b3b4611978e873127_1_" data-name="Josh-Software-Logo-cc2234ad5ea2747b3b4611978e873127 (1)">
          <g id="Group_724" data-name="Group 724" transform="translate(0 13.804)">
            <path id="Path_984" data-name="Path 984" d="M61.093,58.5a1.938,1.938,0,0,0-1.39.581,1.884,1.884,0,0,0-.6,1.41V67.87a5.952,5.952,0,0,1-.228,1.576,4.632,4.632,0,0,1-.746,1.534,3.931,3.931,0,0,1-1.41,1.162,4.949,4.949,0,0,1-2.26.455H37.744a5.269,5.269,0,0,1-1.638-.248,4.3,4.3,0,0,1-1.327-.684,3.823,3.823,0,0,1-.892-.954,2,2,0,0,1-.332-1.1,1.98,1.98,0,0,0-3.38-1.411,1.889,1.889,0,0,0-.6,1.411,6.34,6.34,0,0,0,.56,2.592,7.512,7.512,0,0,0,1.514,2.24A7.373,7.373,0,0,0,33.866,76a6.326,6.326,0,0,0,2.675.581H55.287a6.4,6.4,0,0,0,3.235-.83,8.334,8.334,0,0,0,2.467-2.136,10.1,10.1,0,0,0,2.095-6.076V60.488A1.983,1.983,0,0,0,61.093,58.5Z" transform="translate(-29.574 -58.496)"/>
            <path id="Path_985" data-name="Path 985" d="M285.171,67.162a5.585,5.585,0,0,0-1.763-1.182,5.462,5.462,0,0,0-2.177-.435H258.3a1.542,1.542,0,0,1-1.1-.457,1.441,1.441,0,0,1-.478-1.079,1.419,1.419,0,0,1,.478-1.1,1.58,1.58,0,0,1,1.1-.436h25.258a1.991,1.991,0,0,0,0-3.982H258.379a5.32,5.32,0,0,0-2.157.436,5.52,5.52,0,0,0,0,10.161,5.347,5.347,0,0,0,2.157.435H281.4a1.478,1.478,0,0,1,1.079.457,1.526,1.526,0,0,1,.456,1.119,1.408,1.408,0,0,1-.456,1.058,1.513,1.513,0,0,1-1.079.436H256.1a1.991,1.991,0,0,0,0,3.982h25.133a5.694,5.694,0,0,0,2.177-.415A5.293,5.293,0,0,0,285.172,75a5.63,5.63,0,0,0,1.182-1.742,5.32,5.32,0,0,0,.434-2.157,5.472,5.472,0,0,0-.434-2.177,5.586,5.586,0,0,0-1.183-1.762Z" transform="translate(-177.3 -58.494)"/>
            <path id="Path_986" data-name="Path 986" d="M397.137,59.078a1.991,1.991,0,0,0-3.4,1.41v6.387a9.872,9.872,0,0,0-2.467-1,10.552,10.552,0,0,0-2.592-.331H374.284a7.735,7.735,0,0,1-1.617-.187,5.1,5.1,0,0,1-1.639-.664,3.945,3.945,0,0,1-1.286-1.327,4.126,4.126,0,0,1-.518-2.177v-.705a1.991,1.991,0,1,0-3.982,0v14.1a1.991,1.991,0,1,0,3.982,0V68.2a9.818,9.818,0,0,0,2.467,1,10.491,10.491,0,0,0,2.592.331h14.392a8.586,8.586,0,0,1,1.576.166,4.825,4.825,0,0,1,1.618.622,4.161,4.161,0,0,1,1.286,1.266,3.884,3.884,0,0,1,.58,2.052v.954a1.991,1.991,0,1,0,3.982,0v-14.1a1.919,1.919,0,0,0-.58-1.413Z" transform="translate(-251.649 -58.496)"/>
            <path id="Path_987" data-name="Path 987" d="M174.111,64.427a9.908,9.908,0,0,0-1.431-2.861,8.327,8.327,0,0,0-2.261-2.136,6.062,6.062,0,0,0-3.027-.933h-2.048l-2.915,3.982h3.678a4.656,4.656,0,0,1,2.322.518,4.281,4.281,0,0,1,1.431,1.265,4.447,4.447,0,0,1,.7,1.639,7.288,7.288,0,0,1,0,3.276,4.448,4.448,0,0,1-.7,1.639,4.269,4.269,0,0,1-1.431,1.264,4.654,4.654,0,0,1-2.322.518H149.351a4.631,4.631,0,0,1-2.343-.518,4.326,4.326,0,0,1-1.41-1.264,4.427,4.427,0,0,1-.705-1.639,7.29,7.29,0,0,1,0-3.276,4.431,4.431,0,0,1,.7-1.639A4.334,4.334,0,0,1,147.008,63a4.631,4.631,0,0,1,2.343-.518h4.577L150.981,58.5h-2.5a6.18,6.18,0,0,0-3.194.83,8.248,8.248,0,0,0-2.4,2.136,9.674,9.674,0,0,0-1.514,2.9,10.273,10.273,0,0,0,1.41,9.144,8.284,8.284,0,0,0,2.261,2.136,6.049,6.049,0,0,0,3.027.933h18.912a6.172,6.172,0,0,0,3.194-.83,8.269,8.269,0,0,0,2.406-2.136,9.7,9.7,0,0,0,1.514-2.9,9.964,9.964,0,0,0,.02-6.283Z" transform="translate(-103.192 -58.495)"/>
          </g>
          <g id="Group_723" data-name="Group 723" transform="translate(44.318)">
            <path id="Path_988" data-name="Path 988" d="M182.653,68.869l4.764-6.351h-9.528Z" transform="translate(-172.015 -47.352)" fill="#cf4338"/>
            <path id="Path_989" data-name="Path 989" d="M194.449,26.044l4.937,6.653v0l4.925-6.549L199.292,19.5Z" transform="translate(-182.971 -18.892)" fill="#691c00"/>
            <path id="Path_990" data-name="Path 990" d="M183.46,41.7l-4.409,5.871h8.818Z" transform="translate(-172.784 -33.577)" fill="#9a281e"/>
            <path id="Path_991" data-name="Path 991" d="M165.469,31.508,175.838,17.7H165.687l-5.155,7.337Z" transform="translate(-160.532 -17.703)" fill="#cf4338"/>
          </g>
        </g>
      </g>
    </g>
    <g id="Group_9" data-name="Group 9" transform="translate(2006.242 -128.26) rotate(21)">
      <g id="Group_6" data-name="Group 6" clip-path="url(#clip-path)">
        <g id="Group_5" data-name="Group 5">
          <g id="Group_4" data-name="Group 4" clip-path="url(#clip-path)">
            <path id="Path_1" data-name="Path 1" d="M41.167,3.219S44.755-1.163,49.063.3s7.462,12.862,9,14.047c.385.549-.23,1.646-1.346,1.646S47.14,8.914,47.14,8.914Z" transform="translate(-33.162 0)" fill="#d22129"/>
            <path id="Path_2" data-name="Path 2" d="M59.72,27.829a3.19,3.19,0,0,1-1.869.311c-.692-.231-.231-1.615-.577-1.731a6.384,6.384,0,0,1-3.231-4.269c-.808-3.577-5.423-4.27-8.77-3.923a5.667,5.667,0,0,0-1.075.175l5.383,5.133S58.043,30.6,59.159,30.6s1.73-1.1,1.346-1.646a3.811,3.811,0,0,1-.785-1.127" transform="translate(-35.604 -14.61)" fill="#bf1d29"/>
            <path id="Path_3" data-name="Path 3" d="M120.937,72.4a3.037,3.037,0,0,1,1.267.4c.411.32.933.843.971,1.179s-.187.224-.187.224a1.143,1.143,0,0,1,.522,1.045l-.112.635a1.51,1.51,0,0,0-.3-.373s.373,1.082-.261,1.53-1.792.933-2.426.6l.224-.224a1.3,1.3,0,0,1-1.418-.112,1.622,1.622,0,0,1-.672-1.53l.186.149a1.513,1.513,0,0,1-.2-1.157,8.546,8.546,0,0,1,.507-1.813l.012.482s.879-1.279,1.881-1.032" transform="translate(-95.468 -58.299)" fill="#fff"/>
            <path id="Path_4" data-name="Path 4" d="M119.593,77.719a1.6,1.6,0,0,0,2.137-.836c-.018.165.144.4-.111.525,1.137-.379.84-1.68.6-2.74.408.321.916.833.953,1.165s-.187.224-.187.224a1.143,1.143,0,0,1,.523,1.045l-.112.635a1.5,1.5,0,0,0-.3-.373s.373,1.082-.261,1.53-1.792.933-2.426.6l.224-.224a1.3,1.3,0,0,1-1.418-.112,1.623,1.623,0,0,1-.672-1.53l.187.149a1.506,1.506,0,0,1-.2-1.143,2.015,2.015,0,0,0,1.057.31c-.779.312.312.467,0,.779" transform="translate(-95.47 -60.148)" fill="#eae9d8"/>
            <path id="Path_5" data-name="Path 5" d="M7.971,21.915s-1.1-4.188,2.209-6.119,4.421-3.58,6.847-3.58,6.077,1.929,6.847,4.559.846,5.184.462,6.176S9.455,25.579,7.971,21.915" transform="translate(-6.28 -9.841)" fill="#d22129"/>
            <path id="Path_6" data-name="Path 6" d="M21.627,20.627c-.465-.1-.554,1.021-.448,1.552.462,1.846,2.192,3.924.346,5.077-4.082,2.363-9.263,2.026-13.684.2a6.607,6.607,0,0,0,.166,1.23c1.484,3.665,15.979,2.028,16.364,1.036s.308-3.547-.462-6.176a5.794,5.794,0,0,0-2.283-2.918" transform="translate(-6.317 -16.612)" fill="#bf1d29"/>
            <path id="Path_7" data-name="Path 7" d="M.9,59.76a.689.689,0,0,1,.791-.418c2.176.494,10.234,2.069,16.171-.134,1.385-.607,1.039,1.543,1.269,2.6s.949,1.875-.2,2.669-8.468,2.768-18,0c-2.192-.938.243-2.263-.1-3.071A1.939,1.939,0,0,1,.9,59.76" transform="translate(-0.001 -47.609)" fill="#fff"/>
            <path id="Path_8" data-name="Path 8" d="M16.1,78.983c.088.022.174.047.26.073-.011-.044-.078-.073-.26-.073" transform="translate(-12.97 -63.624)" fill="#eae9d8"/>
            <path id="Path_9" data-name="Path 9" d="M35.424,81.863a2.592,2.592,0,0,0,.852.333.845.845,0,0,0-.852-.333" transform="translate(-28.536 -65.926)" fill="#eae9d8"/>
            <path id="Path_10" data-name="Path 10" d="M19.132,62.008c-.184-.843,0-2.376-.619-2.661.138,1.511-1.283,2.459-2.086,3.529a4.162,4.162,0,0,0,1.879.144c-.867,2.746-4.047,1.156-6.07,1.734a.75.75,0,0,0,.578.289c-.723,0-1.59.289-2.312-.289-.879-.659-1.842-.483-2.761-.679a1.643,1.643,0,0,1,.3.534c-1.783.274-3.046-.883-4.653-1.372.024.1-.215.262-.116.361a1.219,1.219,0,0,1-1.012-.289A11.5,11.5,0,0,0,.8,62.034c-.3.8-1.716,1.857.122,2.643,9.533,2.768,16.847.793,18,0s.435-1.609.2-2.669" transform="translate(0 -47.807)" fill="#eae9d8"/>
            <g id="Group_3" data-name="Group 3" transform="translate(5.06 3.896)" opacity="0.2" style="mix-blend-mode: soft-light;isolation: isolate">
              <g id="Group_2" data-name="Group 2">
                <g id="Group_1" data-name="Group 1" clip-path="url(#clip-path-3)">
                  <path id="Path_11" data-name="Path 11" d="M28.983,20.137s-4.637,2.767-2.305,4.318,5.947-5.32,2.305-4.318" transform="translate(-26.022 -20.036)" fill="#fff"/>
                </g>
              </g>
            </g>
          </g>
        </g>
      </g>
    </g>
  </g>
</svg>
