<svg xmlns="http://www.w3.org/2000/svg" xmlns:xlink="http://www.w3.org/1999/xlink" width="233" height="53" viewBox="0 0 233 53"><defs><style>.a{fill:#fff;stroke:#707070;}.b{clip-path:url(#a);}.c{fill:#efefef;}.d{fill:#03232d;}.e{fill:#691c00;}.f{fill:#9a281e;}.g{fill:#cf4338;}</style><clipPath id="a"><rect class="a" width="233" height="53" transform="translate(130 0)"/></clipPath></defs><g transform="translate(-130 0)"><g class="b"><path class="c" d="M61.545,891.607H92.267c18.908,0,36.195,10.161,44.659,26.251h0c8.464,16.089,25.751,26.251,44.659,26.251H313.409c18.908,0,36.195-10.161,44.659-26.251h0c8.464-16.09,25.751-26.251,44.66-26.251H433.45" transform="translate(-61.545 -891.607)"/></g><g transform="translate(160.296 20.266)"><path class="d" d="M49.976,58.5a1.254,1.254,0,0,0-.9.376,1.22,1.22,0,0,0-.389.913v4.778a3.853,3.853,0,0,1-.148,1.02,3,3,0,0,1-.483.993,2.544,2.544,0,0,1-.913.752,3.2,3.2,0,0,1-1.463.295H34.862a3.41,3.41,0,0,1-1.06-.161,2.783,2.783,0,0,1-.859-.443,2.475,2.475,0,0,1-.577-.617,1.293,1.293,0,0,1-.215-.711,1.281,1.281,0,0,0-2.188-.913,1.223,1.223,0,0,0-.389.913,4.1,4.1,0,0,0,.362,1.677,4.862,4.862,0,0,0,.98,1.45,4.773,4.773,0,0,0,1.436,1.007,4.1,4.1,0,0,0,1.732.376H46.218a4.142,4.142,0,0,0,2.094-.537,5.394,5.394,0,0,0,1.6-1.383,6.54,6.54,0,0,0,1.356-3.933V59.785A1.284,1.284,0,0,0,49.976,58.5Z" transform="translate(-29.574 -49.561)"/><path class="d" d="M273.776,64.1a3.615,3.615,0,0,0-1.141-.765,3.535,3.535,0,0,0-1.409-.281H256.38a1,1,0,0,1-.711-.3.933.933,0,0,1-.309-.7.919.919,0,0,1,.309-.711,1.023,1.023,0,0,1,.711-.282h16.349a1.289,1.289,0,1,0,0-2.577H256.434a3.442,3.442,0,0,0-1.4.282,3.623,3.623,0,0,0-1.892,1.893,3.6,3.6,0,0,0,0,2.792,3.623,3.623,0,0,0,1.892,1.893,3.46,3.46,0,0,0,1.4.281h14.9a.957.957,0,0,1,.7.3.988.988,0,0,1,.3.725.912.912,0,0,1-.3.685.979.979,0,0,1-.7.282H254.958a1.289,1.289,0,1,0,0,2.577h16.268a3.686,3.686,0,0,0,1.409-.269,3.427,3.427,0,0,0,1.141-.752,3.642,3.642,0,0,0,.765-1.128,3.442,3.442,0,0,0,.281-1.4,3.541,3.541,0,0,0-.281-1.409A3.614,3.614,0,0,0,273.776,64.1Z" transform="translate(-203.954 -49.559)"/><path class="d" d="M385.887,58.873a1.289,1.289,0,0,0-2.2.913V63.92a6.389,6.389,0,0,0-1.6-.645,6.828,6.828,0,0,0-1.678-.214h-9.316a5.006,5.006,0,0,1-1.046-.121,3.3,3.3,0,0,1-1.061-.43,2.554,2.554,0,0,1-.832-.859,2.67,2.67,0,0,1-.335-1.409v-.456a1.289,1.289,0,1,0-2.577,0v9.127a1.289,1.289,0,1,0,2.577,0V64.778a6.356,6.356,0,0,0,1.6.645,6.79,6.79,0,0,0,1.677.214h9.316a5.561,5.561,0,0,1,1.02.108,3.124,3.124,0,0,1,1.047.4,2.7,2.7,0,0,1,.832.819,2.514,2.514,0,0,1,.375,1.328v.617a1.289,1.289,0,1,0,2.577,0V59.785A1.242,1.242,0,0,0,385.887,58.873Z" transform="translate(-291.717 -49.561)"/><path class="d" d="M162.378,62.335a6.411,6.411,0,0,0-.926-1.852,5.39,5.39,0,0,0-1.463-1.383,3.924,3.924,0,0,0-1.96-.6H156.7l-1.887,2.577H157.2a3.014,3.014,0,0,1,1.5.336,2.771,2.771,0,0,1,.926.819,2.878,2.878,0,0,1,.456,1.061,4.717,4.717,0,0,1,0,2.121,2.879,2.879,0,0,1-.456,1.061,2.763,2.763,0,0,1-.926.818,3.013,3.013,0,0,1-1.5.335H146.352a3,3,0,0,1-1.517-.335,2.8,2.8,0,0,1-.913-.818,2.865,2.865,0,0,1-.456-1.061,4.717,4.717,0,0,1,0-2.121,2.867,2.867,0,0,1,.456-1.061,2.8,2.8,0,0,1,.913-.819,3,3,0,0,1,1.517-.336h2.963L147.407,58.5h-1.619a4,4,0,0,0-2.067.537,5.339,5.339,0,0,0-1.557,1.383,6.261,6.261,0,0,0-.98,1.879,6.453,6.453,0,0,0-.014,4.067,6.412,6.412,0,0,0,.926,1.852A5.364,5.364,0,0,0,143.56,69.6a3.915,3.915,0,0,0,1.96.6h12.241a4,4,0,0,0,2.067-.537,5.352,5.352,0,0,0,1.557-1.383,6.278,6.278,0,0,0,.98-1.879,6.449,6.449,0,0,0,.013-4.067Z" transform="translate(-116.475 -49.56)"/><path class="d" d="M180.973,66.629l3.083-4.111h-6.167Z" transform="translate(-145.401 -52.702)"/><path class="e" d="M194.449,23.736l3.2,4.306,0,0,0,0,3.188-4.239-3.254-4.3Z" transform="translate(-158.334 -19.106)"/><path class="f" d="M181.9,41.7l-2.854,3.8h5.708Z" transform="translate(-146.309 -36.441)"/><path class="g" d="M163.728,26.639l6.712-8.936h-6.571l-3.336,4.749Z" transform="translate(-131.847 -17.703)"/></g></g></svg>