<svg id="Layer_1" data-name="Layer 1" xmlns="http://www.w3.org/2000/svg" viewBox="0 0 157.52 193.32"><defs><style>.cls-1{fill:#fff;}</style></defs><title>Ind_Media_white</title><path class="cls-1" d="M284.44-76.21h3.27c-1.18,2.69-2.18,5.48-3.58,8-8.66,15.93-28.37,52.56-28.37,52.56s40.65-.08,51-.08c20.06,0,26.59,9.57,26.59,23.05,0,21.44.49,63.35.49,85.15,0,14.63-13.61,24.58-29,24.58q-51.52,0-103,0c-13.55,0-25.46-11.8-25.47-25.23q0-40.48,0-81c0-15.24,10.72-26.32,25.87-26.56,9.81-.16,49.21.05,49.21.05S224.89-43,213.76-54.24l2.2-2.13,36.75,38C264.09-39.11,274.26-57.66,284.44-76.21ZM238.55-3.08c-11.73,0-23.46-.13-35.19,0-10,.15-15.69,5.76-15.77,15.81q-.21,30.27,0,60.55c.06,10.49,5.68,16.1,16.31,16.16q34.78.19,69.56,0c10.93-.07,16.72-5.71,16.85-16.7q.33-29.86,0-59.73c-.13-10.46-6-15.95-16.54-16.09C262-3.2,250.28-3.08,238.55-3.08ZM315.85,74c-.1-4.26-2.24-6.75-6.5-6.8s-6.66,2.47-6.69,6.61c0,3.79,2.31,6.08,6.11,6.32C313,80.4,315.42,78.26,315.85,74Zm0-41.41c-.2-4.14-2.36-6.55-6.52-6.55s-6.68,2.33-6.68,6.43,2.49,6.61,6.56,6.6S315.72,36.88,315.86,32.59Zm0,20.19c-.57-4.23-2.91-6.41-7.18-6.13-3.91.26-6.05,2.7-6,6.4.05,4.12,2.44,6.63,6.74,6.55S315.69,56.92,315.87,52.78Z" transform="translate(-176.3 76.21)"/></svg>