<svg id="Capa_1" data-name="Capa 1" xmlns="http://www.w3.org/2000/svg" viewBox="0 0 451.66 280.8"><defs><style>.cls-1{fill:#fff;}</style></defs><title>public sector</title><path class="cls-1" d="M293.44-174.27v46.77c0,3.28-.69,4-4,4-4.69,0-9.39.08-14.09,0-1.62,0-2.16.53-2.28,2-.39,5.09-.86,10.17-1.31,15.26q-1,11.47-2.06,23L268-64.67q-1,11.6-2,23.26c-.45,4.93-.9,9.86-1.32,14.79-.19,2.23-1.1,3.13-3.36,3.12q-28.5-.2-57-.42c-1.44,0-2.89-.11-4.33-.18a2.69,2.69,0,0,1-2.92-2.46,2.62,2.62,0,0,1,0-.28c-.56-6.62-1.06-13.26-1.6-19.89q-.86-10.79-1.74-21.58-.67-8.49-1.34-17c-.59-7.29-1.19-14.59-1.76-21.89-.37-4.63-.73-9.25-1-13.88-.17-2.44-.16-2.49-2.6-2.49H171.31c-2.58,0-3.46-.88-3.46-3.44v-94.77c0-2.64.84-3.64,3.53-3.89,6.67-.65,13.35-1.21,20-1.8l23.11-2c5.14-.45,10.27-1.2,15.41-1.28a130.59,130.59,0,0,1,13.25,1c6.53.56,13,1.15,19.57,1.73L286-226c1.28.11,2.57.19,3.85.35,2.82.36,3.58,1.26,3.58,4.16Q293.46-197.87,293.44-174.27Z" transform="translate(-0.05 304.3)"/><path class="cls-1" d="M159-171.08v43.51a13.63,13.63,0,0,0,2.61,8.57,4,4,0,0,1,.68,2.57c-.82,9.56-1.74,19.11-2.59,28.66-.69,7.65-1.33,15.31-2,23-.43,5-.85,10-1.35,14.94-.23,2.33-.86,2.86-3.17,2.84q-25-.16-50-.37c-2.4,0-3.2-.84-3.39-3.25Q98.26-69.81,96.72-89c-.77-9.81-1.5-19.64-2.27-29.46-.27-3.49-.63-7-.86-10.48-.07-1.1-.55-1.39-1.55-1.38H78.72c-2.42,0-3.15-.73-3.15-3.14v-78.61c0-2.45.86-3.36,3.29-3.56l40.84-3.51c2.52-.22,5-.69,7.54-.74a61.48,61.48,0,0,1,6.77.5c7.75.69,15.51,1.43,23.27,2,1.49.12,1.74.76,1.73,2.05Q159-193.18,159-171.08Z" transform="translate(-0.05 304.3)"/><path class="cls-1" d="M376.15-172.77v39c0,2.77-.6,3.36-3.37,3.36-3.87,0-7.75.07-11.61,0-1.45,0-1.91.54-2,1.83-.52,6.12-1.07,12.23-1.61,18.35q-1.19,13.41-2.39,26.81-1,11.17-2,22.35c-.33,3.81-.64,7.61-1,11.41-.19,1.92-1,2.62-2.95,2.61q-25.25-.16-50.48-.38c-2.2,0-3-.91-3.21-3.11q-1.36-17.28-2.75-34.55-1.09-13.65-2.17-27.31c-.18-2.17-.17-2.29,2.09-2.7,3.42-.61,6.28-2.19,7.72-5.31a18.22,18.22,0,0,0,1.79-7.39c.12-29.06.08-58.13.08-87.2,0-2.9,0-3,2.87-3.26,6.11-.61,12.21-1.36,18.34-1.61,3.62-.14,7.28.58,10.93.9l24.05,2.09c4.93.43,9.87.84,14.8,1.31,2.07.2,2.87,1.2,2.87,3.46Z" transform="translate(-0.05 304.3)"/><path class="cls-1" d="M451.71-163.23v30.66c0,2.56-.49,3-3.1,3h-8.68c-1.08,0-1.58.36-1.67,1.47-.46,5.35-1,10.69-1.44,16q-1.35,14.94-2.69,29.89c-.47,5.19-.93,10.38-1.35,15.57-.21,2.69-.58,3.1-3.28,3.09-7.95,0-15.9,0-23.84-.08-5.06,0-10.12-.16-15.17-.26-2,0-2.5-.6-2.66-2.6q-1.2-14.88-2.41-29.77c-.77-9.71-1.47-19.43-2.31-29.15-.13-1.51.31-3.23-1-4.54-.15-.15,0-.59,0-.89.13-1.74.4-3.48.4-5.22v-59.93c0-2.21,0-2.23,2.25-2.44,8.32-.77,16.63-1.61,25-2.25a38.93,38.93,0,0,1,6.47.51l31.59,2.76c.62.06,1.23.17,1.84.24a2.1,2.1,0,0,1,2,2.17s0,.07,0,.11v4Z" transform="translate(-0.05 304.3)"/><path class="cls-1" d="M69.13-164.63v30.2a6,6,0,0,0,0,1.69c1.24,4,.11,7.89-.18,11.8-.57,7.66-1.35,15.31-2,23s-1.38,15.3-2.06,23c-.27,3.08-.53,6.16-.76,9.25-.18,2.38-.66,2.9-3,2.88q-19.6-.27-39.13-.41c-2.07,0-2.57-.59-2.73-2.7-.79-9.92-1.61-19.83-2.4-29.75-.56-7-1.08-14.09-1.64-21.13-.28-3.6-.64-7.19-.88-10.79-.08-1.15-.68-1.34-1.62-1.33H3c-2.36,0-2.92-.56-2.92-2.94v-61.62c0-2.23.44-2.8,2.61-3,6.62-.63,13.25-1.2,19.87-1.8,5.44-.48,10.88-1.08,16.34-1.4a62.18,62.18,0,0,1,8.63.26c6.63.52,13.25,1.2,19.88,1.71,1.42.11,1.83.6,1.82,2C69.11-185.37,69.13-175,69.13-164.63Z" transform="translate(-0.05 304.3)"/><path class="cls-1" d="M230.37-237.24a33.53,33.53,0,0,1-33.43-33.63,33.53,33.53,0,0,1,33.63-33.43A33.53,33.53,0,0,1,264-270.67v.15a33.43,33.43,0,0,1-33.58,33.28Z" transform="translate(-0.05 304.3)"/><path class="cls-1" d="M323.69-225.16a28,28,0,0,1-27.9-28,28,28,0,0,1,28-27.9,28,28,0,0,1,27.9,27.95A28,28,0,0,1,323.69-225.16Z" transform="translate(-0.05 304.3)"/><path class="cls-1" d="M127.86-281a27.93,27.93,0,0,1,27.77,28.09,27.92,27.92,0,0,1-28.09,27.77,27.93,27.93,0,0,1-27.77-28A28,28,0,0,1,127.86-281Z" transform="translate(-0.05 304.3)"/><path class="cls-1" d="M432.22-226.84a22.2,22.2,0,0,1-22.28,22.12A22.21,22.21,0,0,1,387.82-227a22.2,22.2,0,0,1,22.28-22.12h.12a22.09,22.09,0,0,1,22,22.2Z" transform="translate(-0.05 304.3)"/><path class="cls-1" d="M63.57-226.43a22.18,22.18,0,0,1-22,22.29,22.18,22.18,0,0,1-22.29-22.05,22.18,22.18,0,0,1,22.05-22.29h0a22.09,22.09,0,0,1,22.24,22Z" transform="translate(-0.05 304.3)"/></svg>