<svg xmlns="http://www.w3.org/2000/svg" viewBox="0 0 657.293 67.45">
  <defs>
    <style>
      .cls-1 {
        fill: #fff;
      }

      .cls-2 {
        fill: none;
        stroke: #333;
        stroke-linecap: round;
        stroke-linejoin: round;
        stroke-width: 2px;
      }
    </style>
  </defs>
  <g id="stick-clients" transform="translate(-0.027 -0.01)">
    <path id="Path_2335" data-name="Path 2335" class="cls-1" d="M471.79-255.32c.37,2.11.85,4.22,1.07,6.35.37,3.57-1.1,5-4.62,4.5a46.332,46.332,0,0,1-5.1-1.27c0-.38,0-.77,0-1.16l7.7-1-6.7-23.81-13.36,2.8c-2.5,6-.37,13-5.28,18.31,1,1.62,2.38,3.66.25,5.5s-4.35.73-6.26-.7c-4.89,2.64-4.89,2.74-8.25-.81.26-1,.55-2.05.87-3.21-5-1.64-5.57-6.19-6.36-10.31-.72-3.85-4.08-7.7-.24-11.88-3.53-2.34-7.43-2-11.31-2.47,0-2.25-.78-4.61,2.58-4.89l.36.24-.38-.22.64-2.51,12,7.44,5.35-7.93h0c1.78-2.54,4-2.6,6.55-1.25,1.17.62,2.38,1.18,3.51,1.89,4.88,3,5.11,4,2.18,9.43,5.24,1,9.55.17,13.28-4,2.8-3.13,5.51-6.19,6.81-10.25-3.69-3.74-4.44-7.35-2.34-11a7.86,7.86,0,0,1,5.358-3.735,7.86,7.86,0,0,1,6.331,1.605c3.38,2.94,2.47,8.84-1.83,11.39a51.661,51.661,0,0,1-4.92,2.27c.93,3.25,1.81,6.36,2.79,9.81l-5.72,3.85a91.538,91.538,0,0,0,6.5,13.77c.66,1.18,2.33,1.78,3.5,2.7,2,1.61,4.08,3.26,6.18,4.94-.6,2-1.05,3.59-1.51,5.17a11,11,0,0,1-6.73.12c1.46-2.64,5.54-.67,5.37-4.59-2.06-2.45-4.62-4.64-8.33-5.08-.11-.4-.22-.8,0-.08C471.27-255.95,471.53-255.64,471.79-255.32Zm-32,5-.24.36.22-.39.23-.33Zm-6-25,1-2c5.74-1.58,7-1.15,10,3.74l2.23-4-8.79-5-3.46,5.28-1,2-1,1-1,1.82.61.22.33-2.06ZM472-299.38a32.205,32.205,0,0,0-3.7,1.6,5.28,5.28,0,0,0-1.66,6.92c1.12,1.78,4.55,2.13,6.61.51a7.17,7.17,0,0,0,3.19-5.79Zm-30.6,27.74c.72-3.07-.62-4-3.34-4.36l-3.81,4.36Zm-8.81,2.82h-6.28c.7,3.76.84,3.82,6.13,2.75,0-.71.04-1.49.11-2.75Zm7.69,4.33c.11-1.55.2-2.86.33-4.9L435-267.83c.12,1.23.19,2,.29,3.05Zm3-4.51v4.6c1.69-1.44,4.34-.13,4.3-3.1a5.45,5.45,0,0,0-.5-1.5Zm-13.6,12.17c.89,3.63.89,3.63,4.54,2.79-1.09-3.1-1.09-3.1-4.57-2.79Zm10.05,3.33c-.24-3.28-.24-3.28-3.28-3.27.23,1.26.45,2.49.7,3.89Zm-12.13-8.67c1.6,2.47,3.49,1.87,5.89,1.44-1.67-2.36-3.23-2.97-5.92-1.44Zm13.26.18c-2.36-.1-4.18-1.13-4.95,1.75,1.91.9,3.42,1.18,4.92-1.76Zm27.54-20c-1.47,3.35-1.47,3.35-.65,6.06,3.25-1.42,1.17-3.49.62-6.07ZM442.5-259.7a12.63,12.63,0,0,0,2.95-.24c.46-.18.73-.84,1.21-1.45C444.81-262.67,443.69-262.54,442.5-259.7Zm1,6c2-.43,2.42-1.44,1.81-2.87a1.3,1.3,0,0,0-1.21-.43c-1.69.65-1.34,1.83-.63,3.31ZM464.32-277c-1.15,1.21-2,2.1-2.84,3C463.14-274.19,464.81-274.33,464.32-277ZM442.8-249l-.79.58,1.21,1.89,1.09-.74Zm-8.46,1.33a4.345,4.345,0,0,1-.07.95l2.07-.36-.11-.59Z" transform="translate(174.39 310.32)"/>
    <path id="Path_2336" data-name="Path 2336" class="cls-1" d="M-51.17-275.1c-2.61-5.63-7.13-8.89-11.83-12-4.19,5.6-2.45,27.33,3,38.74l4.44-1.73c-.91,3.18-.91,3.18-4.4,5.47-2.77-1.89-2.77-1.89-5.57-12.19-1,4.29-1.87,8-2.75,11.79a5.85,5.85,0,0,1-7.51-.07c1.1-2.36,3.5-.45,5.31-2.29,2.6-8,4.72-16.73,2.69-26.07-.58-2.67-.09-5.56-.09-8.37-5.66,1.85-5.66,1.85-9.25.5l3.28-6.94-16.38,2.84,3-3.88-4.76-3.26c8.47-1.66,16.26-3.5,24.71-4.4l-3-3.83h4.12l4-6.54c3.4,0,6.06,1.51,8.51,3.07,1,.67,1.21,2.67,2,4.58l15.41-.8,1.4,7.24c-4.16,1.63-9,.64-13.63,1.19s-9.12,1.17-14.39,1.85c3,2.38,5.52,4,7.59,6.13,3.36,3.42,6.93,6.81,9.46,10.81,2.87,4.55,2.15,9.72-1,14.06-1.74,2.45-3,4.31-.48,6.89a2.81,2.81,0,0,1,.37,2.37,6,6,0,0,1-1.85,3.18c-.57.38-2-.42-3-.92-.52-.27-.77-1-1.27-1.76l1.76-5C-58-263.16-58.06-268.38-51.17-275.1Zm-5.73-23.29c2.34-3.49,2.31-3.64-1.07-4.94h0l-3-1.8-3,6c1.18.67,2,1.16,2.85,1.62.43.23,1,.66,1.32.55a20.539,20.539,0,0,0,2.7-1.34Zm6.9,37.83c1.53-3.67,3.34-6.74.47-10.75C-51.39-267.62-52.7-264.51-50-260.56Zm-16.23-28.15c-4.76-.12-5.07.17-6.89,6.26,2.96-1.37,6.12-2.04,6.84-6.26Zm1.6-7.86c.91,4.53,1,4.58,4.55,2.53Zm-16.52,4.92c2.18,2.78,3.46,1.14,5.16.56-1.64-2.75-3.08-1.09-5.21-.56Zm41.78-3.45,1-1.42a20.645,20.645,0,0,0-2.49-1.33,3.47,3.47,0,0,0-.69,1,27.563,27.563,0,0,0,2.13,1.75Zm-32,1.75-1.64-.45-.5,2.91,1.3.29Zm27.8-2.22c-.8-.73-1.22-1.41-1.65-1.42a1.61,1.61,0,0,0-1.28,1,1.65,1.65,0,0,0,1,1.3c.34.09.93-.43,1.88-.88Zm-7.46-1.5-.61.79,1.74,1.55a8.459,8.459,0,0,0,.68-1.07,20.989,20.989,0,0,0-1.86-1.27ZM-67.67-294c-1.21,1.85-.8,2.57,1.35,2.27ZM-84-289.45c.36-.46.82-.8.85-1.16s-.44-.67-.69-1l-1.32,1.13Zm28.86-6.3a1.652,1.652,0,0,0,.36.11s.07-.18.11-.27a1.279,1.279,0,0,0-.35-.11,1.856,1.856,0,0,0-.16.27Zm1.52,2-.54-.17a.477.477,0,0,0,.08.27,2.137,2.137,0,0,0,.42-.14Z" transform="translate(174.39 310.32)"/>
    <path id="Path_2337" data-name="Path 2337" class="cls-1" d="M352.79-282.3c-1.92,1.32-3.76,2.76-5.77,3.92-3.64,2.1-5.65,1.32-7.38-2.66-.33-.76-.61-1.53-1-2.52l-2.27-.59-2.23-.66c-.08-3.84,0-4.15,2.36-8.18,4.22.31,4,4.09,5,6.69,5.11,1.6,7.8.35,9.45-4.28,1.95-5.47,3.85-11,5.84-16.41a25.387,25.387,0,0,1,1.62-3.14c3.73-.1,6.85,1.19,9.91,2.86.08,7.67-4.22,13.56-7.27,20.17,3.2,6.36,6.78,12.35,15.53,12.05a22.56,22.56,0,0,1,3.61,12.12l-16.14,5.4a37.921,37.921,0,0,1-4.55-11.82c3.37-1,4.5-3.45,5.1-6.68-2-2.91-2.85-7-6.71-9.42a12.83,12.83,0,0,0-1.9,8.3,67.511,67.511,0,0,0,2.28,10.65c1.68,5.4,3.72,10.68,5.67,16,.45,1.23,1.11,2.38,1.74,3.71l8.56,1c-3.48,3.21-6.54,1.47-9.8,1.44-4.34-7.07-5.74-15.4-9.68-22.84.35,3.88.92,7.75,1,11.63s.92,7.89-.73,12l-7.83-1.06-.06-1.18,6.38-1a61.007,61.007,0,0,0-.06-8.34,67.09,67.09,0,0,1,0-19.35c.37-2.52-.42-5.2-.67-7.81l.25-.33Zm15,13c-2.12,0-4.21.07-5.77,2.07,1,2.33,2,4.51,3.13,7l5.52-2.48-4.83-1.72c.65-1.63,3.45-2.53,1.93-4.91l.23-.35Zm2.35-1.45c-.47,3.4,2.1,2.73,3.47,3.4l-2.2,4.91,6.07-2.26c.28-3.49-.73-5.84-3.59-7.41Zm-7.59-35.07,2.89,3.19c-.47-4.32-.59-4.4-6.09-4.4l-2.24,5.27,3.54,1.4-1.53-3.39Zm-19.12,26.7,6.15-3.9-.42-.89c-1.16.38-2.3.85-3.48,1.11s-2.44.33-4.05.52Zm14.4-18.9c1.72,3.27,1.89,3.28,4.62.31Zm-2.58,2.1c-.74,2-1.28,3.53-2.16,6,2.52-1.88,3.91-3.08,2.16-6Zm6,3.47-1-.71-1.46,2.77.77.45Zm5.09,19.27.3.73,3.18-1a2.1,2.1,0,0,0-2-.65,6.31,6.31,0,0,0-1.45.92Zm-2-27.39c-.27-.1-.59-.36-.77-.28s-.25.48-.36.74c.26.11.58.36.78.29s.25-.48.37-.75Zm-9.73,13.48-.77-.69c-.25.49-.51,1-.74,1.46a1.191,1.191,0,0,0,.29.3c.44-.34.84-.7,1.24-1.07Z" transform="translate(174.39 310.32)"/>
    <path id="Path_2338" data-name="Path 2338" class="cls-1" d="M-151.87-300.57c5.84-4.24,11.85-1.36,14,6.82-2.17,1.74-4.45,3.6-6.77,5.41s-2.81,3.76-1.43,6.06a65.37,65.37,0,0,0,4.1,5.62,16.76,16.76,0,0,0,6.65-5.5c2.5-3.47,6.41-4.63,10.65-4.17a4.91,4.91,0,0,1,4.6,3.94c.48,2.12-.37,4-3,5.11a13.31,13.31,0,0,0-6.17,4.62c-1.57,2.26-4.56,2.08-6.54.07a25.251,25.251,0,0,1-2.2-3.13l-4.54,1.86-5.06-5.91c-3,6.78.75,22.42,7.92,32.92l5.63-1.42c-.92,3.51-3.59,3.34-5.51,3.87s-2.86-1-3.57-2.67a64,64,0,0,0-4.7-9.26l1.11,10.91c-4.11,2.43-5.93,2.28-10.44-1h8.26c-1.89-12-3.58-23.46-1.46-35.22h-10.82l1.26,4.33-.75.5-7.37-9c.5-1.7-.37-3.76-2.81-5.63-3.29-2.51-4.49-6-2.71-10.16a3.72,3.72,0,0,1,4.3,2.54,57.439,57.439,0,0,1,2.32,6.56c2.1,8.63,8,10.24,15.57,8a2.88,2.88,0,0,0,1.98-1.414,2.88,2.88,0,0,0,.19-2.426c-.49-2-1.39-4-1.85-6a61.837,61.837,0,0,1-.84-6.23Zm16.9,23.24c.4-.12.79-.25.08,0,.55-.52.25-.24-.05.05l-.22.35Zm6-6c-2,.34-3.73.95-4.65,2.67l4.66,1.3-1.72,3.16c1.13-.82,3.48-1.16,1.69-3.14v-4h.11c.62-.4.27-.18-.07.04Zm-19.52-12.55c-.74,2.76-.38,4.65,2.1,5.08,1.77.3,3.13-.59,3.16-2.88Zm22.66,11.94c.67,1.7,1.18,3,1.86,4.74,1.85-3.13,1.85-3.13-1.84-4.71Z" transform="translate(174.39 310.32)"/>
    <path id="Path_2339" data-name="Path 2339" class="cls-1" d="M212.75-286.77c-.72,5.74-3.77,9.22-5.59,12.26l-8.53,2.65-7.15-3.42c-2.72,6.21,3,10.35,3.22,15.82l-3.06,2.26,3.19,9.72h6.92c-2.5,3-5.44,2.45-8.48,3.38-1.44-4.4-2.82-8.57-4.25-12.92h-3.51a4.38,4.38,0,0,0-.62,1.36c-.11,2.66-.09,5.33-.21,8-.19,4.11-1.36,4.91-5.41,3.74-1.36-.39-3-.44-3.44-2.69h6.37c.1-1.77.24-3.52.29-5.27s0-3.63,0-5.55l-4.45-2.15c1.22-5.94,5.27-11.4,2.9-18-.83.3-1.72.61-2.6,1a4.77,4.77,0,0,1-5.88-1.29c-2.31-2.72-4.6-5.43-8.44-6.44,5-2.13,10.11,1.36,15.06-.59l.45-6.46c-.79-.29-1.41-.47-2-.75-2.9-1.42-3.25-4.26-.73-6.2,3.49-2.69,7.54-3.12,11.68-2.44,3,.49,4.21,3.24,2.84,6a17.448,17.448,0,0,1-1.32,2c1.57,6.44,1.57,6.44-1.06,11.35a76,76,0,0,0,6,4.89c2.73,1.83,4.7,1.54,7.12-.77s4.93-5,7.44-7.39a24.341,24.341,0,0,1,3.25-2.1Zm-31.29,26.16a44.269,44.269,0,0,0,10.78-.07c-2.06-4.49-4.05-8.25-4.05-12.75,0-2.33-1.11-2.65-3.63-2.15-1.02,4.91-2,9.66-3.1,14.97Zm3.4-23.73c2.33.1,3.69-1,3.67-3a2.58,2.58,0,0,0-.725-2.041,2.58,2.58,0,0,0-2.025-.769c-2.08-.14-3.87,1.11-4,2.77-.14,1.83.99,2.94,3.08,3.04Zm-2.07-14-4.93,3.18c3.7-.26,7-.44,10.33-.8.41,0,.72-1.06,1.2-1.81ZM173.55-282l-.64.86c1.32.78,1.73,3.17,4.82,2-1.12-.89-1.82-1.49-2.58-2a13.53,13.53,0,0,0-1.6-.86Zm13.17-10.67V-293h-1.17v.32Zm-.42,12.44-.18-.37c-.08.1-.22.2-.23.31s.1.24.16.37Z" transform="translate(174.39 310.32)"/>
    <path id="Path_2340" data-name="Path 2340" class="cls-1" d="M92.63-285.3c-4.4.39-7.55,2.06-8.26,7-.29,2-1.48,3.86-2.49,6.37-1-3.29.05-10.48,2.25-12.07,3.17-2.3,6.89-3.85,10.73-5.91a29.07,29.07,0,0,1-1.24-4.26c-.71-4.63,2.28-8.42,6.34-8.22,3.48.17,6.68,3.62,6.8,7.34.12,4-2.08,6.46-6.23,6.84-1,.09-1.94,0-3.44,0,1,3.7,1.94,7,2.79,10.05,5.82,3.26,9.78,2.77,13.9-1.53,2.07-2.14,3.93-2.45,6.66-.73,2.93,1.86,5.77,3.88,8.57,5.94a3.71,3.71,0,0,1,1.29,4.86,18.49,18.49,0,0,1-1.57,3.11c-3.34,4.72-6.75,9.38-10,13.91-6.44-.52-10.5-4.31-14.55-7.94-2.43-2.19-.76-4.58.45-6.78h0c.35-1.69.7-3.38,1.16-5.58-6-1.39-9.93-4.45-9.45-11.4l-1.41.68c-.73,2.8-1.66,5.56-2.11,8.4-.18,1.13.54,2.52,1.16,3.61a16.721,16.721,0,0,0,2.56,3,50.71,50.71,0,0,1,9.16,14.09,44.277,44.277,0,0,0,3.27,5.15l5.63-2.56c-.34,2.94-.34,2.94-5.59,5.17-2.57-1.57-4.07-4-5.43-6.75-2.35-4.7-4.11-9.86-9-12.83l-.32-.24.35.21c2,5.86.44,10.58-4.47,14.3a12.2,12.2,0,0,0-1.84,2.33c1.51,3,1.51,3,5,3.33-1,2.12-1,2.12-5.22,1.83l-2.82-5.69,8.25-8.8c-.44-2-.53-3.94-1.27-5.54-2.86-6.15-2.28-12.19,0-18.3a11,11,0,0,0,.34-2.45l.23-.36Zm24.27,5.79-11.49,16c3.4,4.4,6.85,7.73,12.54,8.15,3.2-5.69,8.42-9.9,10.62-16.36Zm-16.53-11a4.21,4.21,0,0,0,3.054-1.373,4.21,4.21,0,0,0,1.086-3.167c-.14-2.41-2.56-5-4.62-5-2.37.06-4.32,2.57-4.06,5.23a4.55,4.55,0,0,0,4.54,4.27Zm7.1,18.81c.92-.46,1.4-.58,1.4-.72a5.85,5.85,0,0,0-.26-1.35c-.29.47-.61.99-1.14,2.03Z" transform="translate(174.39 310.32)"/>
    <path id="Path_2341" data-name="Path 2341" class="cls-1" d="M43.52-266.81l-6.24,1.17c-1.56-2.73-.09-6.48-3.74-9.21-.14,1.63-.61,2.77-.25,3.5,2.09,4.23,3.69,8.51,3.65,13.35,0,1.09,1.13,2.32,2,3.24,1,1.08,2.39,1.8,3.48,2.82,3.81,3.56,3,6.14-3.34,8.1l3-4.32c-2.27-2.36-5.18-4.42-6.69-7.23-1.41-2.61-1.33-6-2-9.61-4.88,6.28-3.26,13.93-6.14,20.09-4,.73-4,.73-7.17-1.93,1.52-2.52,3.2-.07,5.43-.21.57-2.63,1.51-5.42,1.69-8.27a22.44,22.44,0,0,1,3-9.41,9.44,9.44,0,0,0,.83-6.18c-.42-3.13.3-6.42.52-9.48-1.86-.25-4.51,0-6.42-1.05S21.77-285,19.91-287H12.2c.76-5.3,4.62-5.47,8.58-5.45.31-3.5.56-6.76.9-10,.18-1.79,1-3.42,2.95-3.46,2.23,0,3.08,1.54,3.07,3.69a15.609,15.609,0,0,0,.45,2.94c.47,2.7,1,5.39,1.53,8.66a6.259,6.259,0,0,0,2.29-.74c.76-.55,1.06-1.73,1.82-2.31,1.45-1.11,3-2.14,5-.91,2.21,1.39,3.3,3.67,2.45,5.92A43.82,43.82,0,0,1,38.79-284C43.54-279.32,43.92-273.3,43.52-266.81ZM33-284.76c-1.23-1.16-1.81-2.2-2.54-2.32a11.25,11.25,0,0,0-7.52.87l4,4Zm6.63-5.77c-3.34-1.93-3.91-1.84-5.06.35-1,2-.82,2.38,2.15,3.75Zm-12.87-.6c-.51-3.69-1-7.39-1.57-11.45-1.25,4.27-2.42,8.15,1.61,11.45Zm9,8.51c-.7,2.26-1.09,3.54-1.68,5.5l5.79-1Z" transform="translate(174.39 310.32)"/>
    <path id="Path_2342" data-name="Path 2342" class="cls-1" d="M248.79-252.3a9.239,9.239,0,0,1-1.49,0c-.29,0-.54-.32-1-.62,2.21-3.69,6-5.63,9.24-8.08,2.8-2.14,5.46-4.2,7.09-7.36A9,9,0,0,0,263.7-271c.37-2.61.3-5.31.92-7.85a62.675,62.675,0,0,1,2.94-7.69c-2.73-1.12-5.31-2.45-4.83-6a5,5,0,0,1,3.48-4.46c3.42-1.17,6.12-.12,8.58,3.75-.47-4,1.31-5.83,3.33-7.58.27.26.5.41.48.47-1.3,4.42.3,8.8.14,13.19a53.774,53.774,0,0,1-1.2,7.06L272-281.64c0,1.72-.34,3.42.05,4.94,2.37,9,4.43,18,3.9,27.6l6.43,1.9c-2.22,1.93-2.22,1.93-7.81.23-2-4.19.17-9.1-1.92-14.55-.73,2.49-1.24,4.06-1.64,5.66s-.64,3.25-1,4.86c-1.17,4.76-3.8,5.86-9.46,3.34l6.64-1.43c1.6-8.62,5.53-17.11,2.44-27a10.381,10.381,0,0,0-1.32,2.17c-1.87,8.08-6.95,14.82-9.38,22.68-.77,2.5-1.57,5.35-4.65,7.12-.2-1.32-.34-2.24-.47-3.16l.24-.36-.22.39-3.21,1,3.19-6,1.78-1.87-.64-.45-1.11,2.34L248-248.82c.39-1.8.57-2.65.76-3.51l1-1,1-1,.25-.33-.23.35-1,1Zm23-36-1.41,1.21.61.46.78-1.69.22-.34Zm.57-5c-1.76-.81-2.93-1.82-4-1.7a5,5,0,0,0-3,2.11,2.67,2.67,0,0,0,.46,2.55,5.3,5.3,0,0,0,3.66.28c1.01-.37,1.64-1.73,2.88-3.2Zm3.52,2.55c-1.06,2.38-1.86,3.92-2.38,5.54-.12.39.72,1.09,1.27,1.85,1.99-2.15,2.13-4.16,1.11-7.35Zm-8.41,12.54-.08-.36-.21.46Zm.83-3.48c-.07.1-.19.19-.2.3s.08.23.12.35c.08-.1.2-.19.21-.3s-.08-.19-.13-.31Z" transform="translate(174.39 310.32)"/>
    <path id="Path_2343" data-name="Path 2343" class="cls-1" d="M434.77-282.31l-.37-.22.39.21Z" transform="translate(174.39 310.32)"/>
    <path id="Path_2344" data-name="Path 2344" class="cls-1" d="M104.62-267.31l-.37-.23.38.22Z" transform="translate(174.39 310.32)"/>
    <path id="Path_2345" data-name="Path 2345" class="cls-1" d="M-57-298.25l-.33-.29.47.15Z" transform="translate(174.39 310.32)"/>
    <path id="Path_2346" data-name="Path 2346" class="cls-1" d="M-58-303.33l-.21.38.24-.35Z" transform="translate(174.39 310.32)"/>
    <path id="Path_2347" data-name="Path 2347" class="cls-2" d="M270.28-283.32c.11,3.23-.9,6.55,1.42,9.57.7.92.4,2.6.58,3.93.45,3.27-.34,6.81,2.43,9.58.5.5.07,1.92.07,2.92v9.82l7.5.68" transform="translate(174.39 310.32)"/>
    <path id="Path_2348" data-name="Path 2348" class="cls-2" d="M111.12-274.82c.12,2-1.35,3.14-2.46,4.53-1.74,2.16-3.26,4.49-5,6.86,4,4.82,8.11,8.86,14.61,9.64,3.49-6.12,9.2-10.92,11.62-18.23-3.84-2.81-7.5-5.67-11.39-8.19-.66-.43-2.46.28-3.38,1-1.5,1.1-2.53,2.91-4.11,3.82-1,.59-2.64.11-4.55.11l.61,5.5" transform="translate(174.39 310.32)"/>
    <path id="Path_2349" data-name="Path 2349" class="cls-2" d="M361.78-294.32c-1.17.34-2.76.31-3.41,1.08-1.16,1.39-2.37,3.22-2.47,4.93-.3,4.82-2.15,9.57-.7,14.52a6.33,6.33,0,0,1-.47,4c-1.64,3.83-.88,7.64-.5,11.53.42,4.31.46,8.66.67,13h-7.62" transform="translate(174.39 310.32)"/>
    <path id="Path_2350" data-name="Path 2350" class="cls-2" d="M97.62-289.82c6.26,1.16,8-.36,8-6.62l-5-4.88c-5.33,0-7.71,3.77-5,9.5a13.411,13.411,0,0,0,1.48,2" transform="translate(174.39 310.32)"/>
    <path id="Path_2351" data-name="Path 2351" class="cls-2" d="M93.12-268.82c-.57,2.47.55,4.69,1,7,.2,1,.47,2,.58,2.42l-8.77,8.77c1.29,1.95,2,3.72,3.26,4.72s3.16,1.7,3.92-.91" transform="translate(174.39 310.32)"/>
    <path id="Path_2352" data-name="Path 2352" class="cls-2" d="M355.78-268.82c1.67,4.17,3.41,8.31,5,12.52.84,2.27,1.21,4.71,2.07,7,1.26,3.34,3.62,4.69,7.46,4.5a25.681,25.681,0,0,0,3-.49" transform="translate(174.39 310.32)"/>
    <path id="Path_2353" data-name="Path 2353" class="cls-2" d="M444.78-271.82c2.83-3.6,2.83-3.6,3-6.76L438-284l-8.24,11.2" transform="translate(174.39 310.32)"/>
    <path id="Path_2354" data-name="Path 2354" class="cls-2" d="M32.62-266.32c-3.66,4.53-3.93,10.14-5,15.5-.38,1.9-.93,3.77-1.48,5.95l-4.51-1.95" transform="translate(174.39 310.32)"/>
    <path id="Path_2355" data-name="Path 2355" class="cls-2" d="M-58.46-293.32l-5.61,2.89c-.22.78-.5,2-.9,3.11s-1.36,2.32-1.42,3.51a103.492,103.492,0,0,0,0,11c.19,4.51,1.52,9.18.68,13.45-.68,3.47-1.86,7-2.73,10.55-.25,1-.62,2-1.09,3.5h-5.9" transform="translate(174.39 310.32)"/>
    <path id="Path_2356" data-name="Path 2356" class="cls-2" d="M37.62-285.32l3.46-5.1L38-294c-3.31,1.2-3.31,1.2-6.06,5.4.35.52.74,1.14,1.17,1.74s1,1.34,1.59,2.13c-1,3.56-2.45,7.17-2.95,10.89-.3,2.23.16,5.23,1.5,6.86,2.62,3.18,2.22,6.62,2.4,10.68l8.38,8.34-3.93,4.1" transform="translate(174.39 310.32)"/>
    <path id="Path_2357" data-name="Path 2357" class="cls-2" d="M94.62-285.32c-1.92,3.24-2.45,6.88-3,10.51a5.53,5.53,0,0,0,2,5.47c5.07,4,8.12,9.42,11,15,1.2,2.33,2.68,4.52,4.06,6.82,1.94-1.1,3.42-2,4.91-2.81" transform="translate(174.39 310.32)"/>
    <path id="Path_2358" data-name="Path 2358" class="cls-2" d="M469.28-287.82c5.3-1.2,5.87-1.7,8.63-7.77-1.59-2.94-4-5-7.62-4.66-2.64.26-5.15,3.28-5.51,5.93-.45,3.31.43,4.74,4,6.5" transform="translate(174.39 310.32)"/>
    <path id="Path_2359" data-name="Path 2359" class="cls-2" d="M271.78-262.32c-2.22,3.15-1.64,7.07-2.89,10.55-1.54,4.3-1.18,4.43-5.61,4.45h-2" transform="translate(174.39 310.32)"/>
    <path id="Path_2360" data-name="Path 2360" class="cls-2" d="M467.78-283.82a12.38,12.38,0,0,0-2.22,8.52c.26,3.95,1.58,7.37,2.64,11,1.48,5.07,2.45,10.3,3.54,15.48.16.77-.27,1.66-.53,3l-7.93-.54" transform="translate(174.39 310.32)"/>
    <path id="Path_2361" data-name="Path 2361" class="cls-2" d="M475.28-246.32H480l1.91-3.67c-3.07-4-7.57-6.12-11.63-8.83" transform="translate(174.39 310.32)"/>
    <path id="Path_2362" data-name="Path 2362" class="cls-2" d="M184.12-278.32l5.5.55c0,2.94-.54,6.08.15,8.92s2.66,5.64,4.16,8.64c-4.72,2.42-9.26,1.37-14.17.59-.7-3.86,2.65-6.37,2.85-9.7.18-3,.25-6,.39-9.81l-2.38-1.19" transform="translate(174.39 310.32)"/>
    <path id="Path_2363" data-name="Path 2363" class="cls-2" d="M96.62-289.32c-1,2.08-3.28,1.76-5,2.53-2.76,1.25-6.3,1.51-7.48,5-1,2.94-1.7,6-2.54,9" transform="translate(174.39 310.32)"/>
    <path id="Path_2364" data-name="Path 2364" class="cls-2" d="M271.78-285.32c2.34-2.59,2.18-5.48,1-8.5-.91-2.34-2.91-2.6-5-2.47-1.62.1-3.8,2.31-4,4a3.26,3.26,0,0,0,.566,2.7,3.26,3.26,0,0,0,2.434,1.3c.67.12,1.33.33,2,.49" transform="translate(174.39 310.32)"/>
    <path id="Path_2365" data-name="Path 2365" class="cls-2" d="M184.12-258.32c-.16,2.34-.38,4.67-.48,7-.08,2,0,4,0,6.34-2.81.27-5,.34-7-1.35" transform="translate(174.39 310.32)"/>
    <path id="Path_2366" data-name="Path 2366" class="cls-2" d="M190.12-258.32,194-245.6l6.08-1.22" transform="translate(174.39 310.32)"/>
    <path id="Path_2367" data-name="Path 2367" class="cls-2" d="M-149-256.82c.4,1.83-.18,3.61.77,5.61a5.07,5.07,0,0,1-1.49,6.55l-5.78-1.16" transform="translate(174.39 310.32)"/>
    <path id="Path_2368" data-name="Path 2368" class="cls-2" d="M-135.46-279.32c2.23-4.41,5.46-6.35,10-6,1.45.12,1.45.12,4.53,3.53,0,3-2.32,3.44-4.42,4.09-2-2.05-2-4.27-1.11-6.62" transform="translate(174.39 310.32)"/>
    <path id="Path_2369" data-name="Path 2369" class="cls-2" d="M-146.46-257.82c1.59,4.65,4.12,9.82,6.64,12.66,1.58-.69,3.22-1.42,4.86-2.16" transform="translate(174.39 310.32)"/>
    <path id="Path_2370" data-name="Path 2370" class="cls-2" d="M95.12-286.82c1.07,1.91,2.4,3.51,2.68,6,.3,2.68,1.51,5.55,5.32,5.59,1,0,2,.92,3,1.42" transform="translate(174.39 310.32)"/>
    <path id="Path_2371" data-name="Path 2371" class="cls-2" d="M-64-288.82a32.11,32.11,0,0,1,14,13c.45.77.45,2.13,1,2.42,2.93,1.41,3.11,4.24,2.81,6.56-.4,3.17-.56,6.89-4.35,8.51" transform="translate(174.39 310.32)"/>
    <path id="Path_2372" data-name="Path 2372" class="cls-2" d="M359.28-287.82c1.6-1.69,3.76-3.08,3.06-6-.09-.4.61-1,.94-1.49a20.15,20.15,0,0,0,3.81-11.41l-8-2.59c-1.28,2.88-2.39,5.4-3.45,7.78,1.84,3.57,6.12,1,8.12,3.72" transform="translate(174.39 310.32)"/>
    <path id="Path_2373" data-name="Path 2373" class="cls-2" d="M278.28-300.82c-.33,1-.38,2.3-1,2.95a4.65,4.65,0,0,0-.78,5.44c2.5,3.79,1.28,7.11-.35,10.63-2.26.2-3.7-2.83-6.32-2" transform="translate(174.39 310.32)"/>
    <path id="Path_2374" data-name="Path 2374" class="cls-2" d="M-49.46-273.32c-3.24,1.46-4.22,4.32-4.47,7.51a10.05,10.05,0,0,0,2.41,7.54c2,2.4,1.87,5.48,1.56,8.45" transform="translate(174.39 310.32)"/>
    <path id="Path_2375" data-name="Path 2375" class="cls-2" d="M33.62-282.82l-6.8,1.7a23.429,23.429,0,0,1-3.14-3.23,6.91,6.91,0,0,1-1.45-3.95,37.15,37.15,0,0,0,0-7.53c-.25-2.44.43-5,.95-7.47.14-.63,1.22-1.06,1.88-1.59,1.89,3,2.61,7.49,2.54,15.57" transform="translate(174.39 310.32)"/>
    <path id="Path_2376" data-name="Path 2376" class="cls-2" d="M-172-299.32a61.2,61.2,0,0,0,8,15.54,59.1,59.1,0,0,1,3.55,7" transform="translate(174.39 310.32)"/>
    <path id="Path_2377" data-name="Path 2377" class="cls-2" d="M464.78-278.82l-7.27,7.12a49.683,49.683,0,0,1-6.24,1.32,17.25,17.25,0,0,1-5.48-.49c-1.94-.44-2.73-1.8-3.21-3.9-.29-1.25-2.58-2-4.24-3.22-2.14,2.63-5.26,3.93-4.56,7.67" transform="translate(174.39 310.32)"/>
    <path id="Path_2378" data-name="Path 2378" class="cls-2" d="M340.28-283.82c.61,2.05.16,4.67,3.29,5.59,2.95-1.08,6.07-2.26,7.71-5.59" transform="translate(174.39 310.32)"/>
    <path id="Path_2379" data-name="Path 2379" class="cls-2" d="M-70.46-294.32c.17,1.17.87,3.05.42,3.39-3,2.22-3.15,6.06-5.76,8.79,1.84.7,3.18,1.43,4.9-.11,1-.88,2.61-1.07,3.94-1.57" transform="translate(174.39 310.32)"/>
    <path id="Path_2380" data-name="Path 2380" class="cls-2" d="M-54.46-298.32l1-4.4c-1.05-.48-2.3-1-3.48-1.61s-2.31-1.39-3.67-2.22c-2.58,2-3.36,5.11-4.84,7.73" transform="translate(174.39 310.32)"/>
    <path id="Path_2381" data-name="Path 2381" class="cls-2" d="M364.78-270.82l-4.3,2.58,3.92,9.38,14.23-4.75c1.05-4.26-1.31-7.18-3.35-10.21l-10,3" transform="translate(174.39 310.32)"/>
    <path id="Path_2382" data-name="Path 2382" class="cls-2" d="M-65-258.82c1,3.34,1.94,6.69,3,10a15.481,15.481,0,0,0,2,2.92l4.09-3.42" transform="translate(174.39 310.32)"/>
    <path id="Path_2383" data-name="Path 2383" class="cls-2" d="M-148.46-261.32l1.72,2.5-2.06,1.66c-.32-.32-.63-.49-.64-.66a60.349,60.349,0,0,1,0-7.49c.3-2.58-1.16-4.84-.68-7.53.57-3.14-.48-6.56,2.41-9.92-2-.24-3.71-1-4.73-.45-3,1.53-5.71.91-8.57-.06-.4-.14-1,.29-1.49.45" transform="translate(174.39 310.32)"/>
    <path id="Path_2384" data-name="Path 2384" class="cls-2" d="M-148-281.82l6.09,6.62,4.41-2.12" transform="translate(174.39 310.32)"/>
    <path id="Path_2385" data-name="Path 2385" class="cls-2" d="M164.12-284.32c1.67.17,3.36.23,5,.54a2.44,2.44,0,0,1,2.08,1.94,7.22,7.22,0,0,0,2,3c2.93,2.93,4.77,2.08,6-2.46.29-1,1.39-1.85,2.18-2.85l2.75,1.83" transform="translate(174.39 310.32)"/>
    <path id="Path_2386" data-name="Path 2386" class="cls-2" d="M427.28-271.32c-2.41.88-3.38,3.19-2.37,4.93,2.33,4,2.24,8.5,3.88,12.57a11.5,11.5,0,0,0,.84,1.46l5.15,1.54" transform="translate(174.39 310.32)"/>
    <path id="Path_2387" data-name="Path 2387" class="cls-2" d="M183.12-279.32c1.11-1.42,1-3.69,4-3.68,2.08,0,3-2.81,2.49-5.31a7.57,7.57,0,0,0-.51-1.5c-.25-.54-.59-1-1.09-1.89.86-1.58,1.85-3.42,2.94-5.45-.89-1.86-1.92-3.92-4.9-1.76-.37.26-1.67-.77-2.91-1.39-1.4,2.68-6.29,1.25-6.85,5.82,1.16,2.31,4,.38,6,1.79-1.34,2.78-2.61,5.68-1.18,8.87" transform="translate(174.39 310.32)"/>
    <path id="Path_2388" data-name="Path 2388" class="cls-2" d="M359.78-286.32c1.67,2.67,3.07,5.56,5.08,7.94,1.69,2,2,3.35,0,5.13-.24.21.27,1.27.44,1.93" transform="translate(174.39 310.32)"/>
    <path id="Path_2389" data-name="Path 2389" class="cls-2" d="M-149-298.32c-.92,3-2.59,6,1,8.57a2.89,2.89,0,0,1,.48,2.42,28.248,28.248,0,0,1-1.44,4" transform="translate(174.39 310.32)"/>
    <path id="Path_2390" data-name="Path 2390" class="cls-2" d="M443.78-250.32c1.23,1.26,3,2.33,1.48,4.53-2.79,1.74-4.33-.3-5.93-2.07-3.5,3.38-3.5,3.38-7.08,1l1.53-2.48" transform="translate(174.39 310.32)"/>
    <path id="Path_2391" data-name="Path 2391" class="cls-2" d="M449.28-269.32c-.71,4.16-2.11,8.21-2,12.51.06,2.8-1.89,4.22-4.16,5.6-2.45-2.71-4.29-.27-6.33.89" transform="translate(174.39 310.32)"/>
    <path id="Path_2392" data-name="Path 2392" class="cls-2" d="M190.12-277.32l8.8,3.77a23.82,23.82,0,0,0,12.7-12.27" transform="translate(174.39 310.32)"/>
    <path id="Path_2393" data-name="Path 2393" class="cls-2" d="M354.28-284.32l-5.14-1.38c-3.13,1.92-6.87,3.41-10.36-.62" transform="translate(174.39 310.32)"/>
    <path id="Path_2394" data-name="Path 2394" class="cls-2" d="M356.78-299.32a13.46,13.46,0,0,0-4.5,10.5" transform="translate(174.39 310.32)"/>
    <path id="Path_2395" data-name="Path 2395" class="cls-2" d="M31.62-288.82a46.859,46.859,0,0,1-10.53-.86c-2.65-.62-5.79-.76-8,1.86" transform="translate(174.39 310.32)"/>
    <path id="Path_2396" data-name="Path 2396" class="cls-2" d="M-139.46-294.82c-.5.34-1.29.57-1.45,1-1.05,2.89-3.21,4.32-6.05,5" transform="translate(174.39 310.32)"/>
    <path id="Path_2397" data-name="Path 2397" class="cls-2" d="M39.12-274.32l2.21-4c-1.62-1.89-3.13-3.71-4.73-5.46-.31-.34-1-.36-1.48-.53" transform="translate(174.39 310.32)"/>
    <path id="Path_2398" data-name="Path 2398" class="cls-2" d="M336.78-292.82c.39,1.83.78,3.65,1.11,5.21l-2.11,1" transform="translate(174.39 310.32)"/>
    <path id="Path_2399" data-name="Path 2399" class="cls-2" d="M179.12-281.82c-2.52-.17-4.75-2.52-7.5-1" transform="translate(174.39 310.32)"/>
    <path id="Path_2400" data-name="Path 2400" class="cls-2" d="M257.78-257.32a11.46,11.46,0,0,1,0,3c-.9,3.2-2,6.35-3,9.51" transform="translate(174.39 310.32)"/>
    <path id="Path_2401" data-name="Path 2401" class="cls-2" d="M441.28-269.82c-1-.16-2.11-.7-3-.43a9.81,9.81,0,0,1-8-1.07" transform="translate(174.39 310.32)"/>
    <path id="Path_2402" data-name="Path 2402" class="cls-2" d="M-69-300.32c4.17,2.34,8.32,4.7,12.52,7,.91.5,2.17,1.22,2.95.94,5.23-1.85,10.79-.48,16-1.92" transform="translate(174.39 310.32)"/>
    <path id="Path_2403" data-name="Path 2403" class="cls-2" d="M417.28-276.32c.5.17,1.05.56,1.49.47,3.8-.78,6.66.66,9,3.51.29.34,1,.36,1.47.52" transform="translate(174.39 310.32)"/>
    <path id="Path_2404" data-name="Path 2404" class="cls-2" d="M469.28-287.32c-.45,1.3-1.67,2.29-.58,4.05,1.21,1.95,1.81,4.27,2.8,6.76l-4.72,2.19" transform="translate(174.39 310.32)"/>
    <path id="Path_2405" data-name="Path 2405" class="cls-2" d="M-127-277.32l-4.16,4.17-7.38-3.63,3-3,.57,1.14,5.93-.64" transform="translate(174.39 310.32)"/>
    <path id="Path_2406" data-name="Path 2406" class="cls-2" d="M426.78-263.82c2.67-.93,5.2-.83,7.42.88.49,3.79,1,7.43,1.55,11.93.46.59,1.5,1.89,2.53,3.19" transform="translate(174.39 310.32)"/>
    <path id="Path_2407" data-name="Path 2407" class="cls-2" d="M441.28-263.32l-6.5.5" transform="translate(174.39 310.32)"/>
    <path id="Path_2408" data-name="Path 2408" class="cls-2" d="M-75-289.82a22.63,22.63,0,0,1-6.5,1.21c-2.65-.06-5.33,1.46-8,2.29" transform="translate(174.39 310.32)"/>
    <path id="Path_2409" data-name="Path 2409" class="cls-2" d="M252.78-256.32a17.2,17.2,0,0,0-3,1,41.939,41.939,0,0,0-3.52,2.46" transform="translate(174.39 310.32)"/>
    <path id="Path_2410" data-name="Path 2410" class="cls-2" d="M446.28-258.32h-11.5" transform="translate(174.39 310.32)"/>
    <path id="Path_2411" data-name="Path 2411" class="cls-2" d="M-73-288.82c-3-.44-1.2-3.81-3.36-5.23-4.91.05-9.88,2.31-15.14,2.23" transform="translate(174.39 310.32)"/>
    <path id="Path_2412" data-name="Path 2412" class="cls-2" d="M372.28-273.32c-1-2.59-3.28-2.5-5.5-2.5" transform="translate(174.39 310.32)"/>
    <path id="Path_2413" data-name="Path 2413" class="cls-2" d="M443.78-271.32c-.67.67-1.89,1.32-1.91,2-.16,5.49-.09,11-.09,16.49" transform="translate(174.39 310.32)"/>
    <path id="Path_2414" data-name="Path 2414" class="cls-2" d="M434.28-269.32c-.33,1.84-.67,3.67-1,5.5" transform="translate(174.39 310.32)"/>
    <path id="Path_2415" data-name="Path 2415" class="cls-2" d="M-35.46-293.82a7.54,7.54,0,0,1-2.62-5.43l-9.88.61v4.32" transform="translate(174.39 310.32)"/>
    <path id="Path_2416" data-name="Path 2416" class="cls-2" d="M-69.46-290.82l5.19.63c-.35-2.82-3.87-4.49-1.19-7.13" transform="translate(174.39 310.32)"/>
    <path id="Path_2417" data-name="Path 2417" class="cls-2" d="M-51.46-293.32l-2.51-5c-1.7.85-3.76,1.4-3.49,4" transform="translate(174.39 310.32)"/>
    <path id="Path_2418" data-name="Path 2418" class="cls-2" d="M272.78-290.82l-4,3.36c.19,1.14.35,2.14.52,3.14" transform="translate(174.39 310.32)"/>
    <path id="Path_2419" data-name="Path 2419" class="cls-2" d="M359.28-303.32a12.22,12.22,0,0,1,6.5,2" transform="translate(174.39 310.32)"/>
    <path id="Path_2420" data-name="Path 2420" class="cls-2" d="M368.78-270.82c1.22,1.26-.15,3.17,1.39,4.62.93.87.78,2.88,1.11,4.38" transform="translate(174.39 310.32)"/>
    <path id="Path_2421" data-name="Path 2421" class="cls-2" d="M362.28-305.82a8.13,8.13,0,0,1-1,6" transform="translate(174.39 310.32)"/>
    <path id="Path_2422" data-name="Path 2422" class="cls-2" d="M355.28-289.32c-2.49-.1-3.79,1.32-4.5,3.5" transform="translate(174.39 310.32)"/>
  </g>
</svg>
