<svg xmlns="http://www.w3.org/2000/svg" width="40" height="40" viewBox="0 0 40 40"><defs><style>.a{fill:none;}.b{fill:#b06328;}.c{fill:#b0c4d8;}.d{fill:#99b4cd;}.e{fill:#c4d7e5;}.f{fill:#70b7e5;}.g{fill:#92c5eb;}.h{fill:#4c9cd6;}.i{fill:#b0c9db;}.j{fill:#e2e7f0;}.k{fill:#a35425;}.l{fill:#c97629;}</style></defs><g transform="translate(-601.422 -212.422)"><rect class="a" width="40" height="40" transform="translate(601.422 212.422)"/><g transform="translate(606 217)"><path class="b" d="M319.537,317.083h0a2.484,2.484,0,0,1-2.453,2.453h0a2.546,2.546,0,0,1-1.823-.771l-7.851-8.552a.678.678,0,0,1,0-.981l1.823-1.823a.678.678,0,0,1,.981,0l8.552,7.921A2.389,2.389,0,0,1,319.537,317.083Z" transform="translate(-288.694 -288.693)"/><rect class="c" width="1.963" height="2.944" transform="translate(20.311 18.923) rotate(135)"/><path class="d" d="M281.726,281.726l.35.35.7-.7-2.1-2.1-1.4,1.4,1.052,1.051h0A.937.937,0,0,1,281.726,281.726Z" transform="translate(-262.448 -262.449)"/><path class="e" d="M10.515,0A10.515,10.515,0,1,0,21.03,10.515,10.5,10.5,0,0,0,10.515,0Zm0,18.927a8.412,8.412,0,1,1,8.412-8.412A8.437,8.437,0,0,1,10.515,18.927Z"/><circle class="f" cx="8.412" cy="8.412" r="8.412" transform="translate(2.103 2.103)"/><path class="g" d="M72.986,77.484A5.95,5.95,0,0,1,78.1,72.367h.07a1.032,1.032,0,0,0,.14-2.033,7.063,7.063,0,0,0-2.1-.07,6.246,6.246,0,0,0-5.257,5.257,5.273,5.273,0,0,0,.07,2.1,1.028,1.028,0,0,0,2.033-.14C72.986,77.554,72.986,77.484,72.986,77.484Z" transform="translate(-66.607 -65.988)"/><path class="h" d="M35.61,44.023a8.437,8.437,0,0,1,8.412-8.412,8.783,8.783,0,0,1,5.608,2.1,8.316,8.316,0,0,0-6.309-2.8,8.437,8.437,0,0,0-8.412,8.412,8.566,8.566,0,0,0,2.8,6.309A8.783,8.783,0,0,1,35.61,44.023Z" transform="translate(-32.806 -32.807)"/><path class="i" d="M174.545,185.061h0a10.5,10.5,0,0,0,10.515-10.515h0a.7.7,0,0,0-.7.7,9.535,9.535,0,0,1-2.8,6.169,9.877,9.877,0,0,1-6.309,2.944A.7.7,0,0,0,174.545,185.061Z" transform="translate(-164.03 -164.031)"/><path class="j" d="M10.515,0h0A10.5,10.5,0,0,0,0,10.515H0a.7.7,0,0,0,.7-.7A9.49,9.49,0,0,1,3.295,3.855,10.293,10.293,0,0,1,9.814.7.7.7,0,0,0,10.515,0Z"/><path class="k" d="M324.165,349.708l-.421-.351a2.45,2.45,0,0,1,.561,1.542h0a1.007,1.007,0,0,1-1.753.631l-7.36-7.36a1.016,1.016,0,0,0-1.472,0l-.7.7,7.641,8.2a2.814,2.814,0,0,0,1.542.841,2.455,2.455,0,0,0,2.734-2.734A2.183,2.183,0,0,0,324.165,349.708Z" transform="translate(-294.162 -323.14)"/><path class="l" d="M344.829,323a.421.421,0,0,1-.28-.07l-1.753-1.753a.347.347,0,1,1,.491-.491l1.753,1.753a.339.339,0,0,1,0,.491C345.039,323,344.9,323,344.829,323Z" transform="translate(-322.047 -301.269)"/></g></g></svg>