<svg xmlns="http://www.w3.org/2000/svg" width="34.999" height="34.999" viewBox="0 0 34.999 34.999"><defs><style>.a{fill:none;}.b{fill:#9c9c9c;}</style></defs><rect class="a" width="34.999" height="34.999"/><path class="b" d="M1.011,22.219a1.011,1.011,0,1,1,0-2.021h20.2a1.011,1.011,0,0,1,0,2.021Zm1.262-2.626a1.011,1.011,0,0,1,0-2.021h.253V8.483H2.272a.505.505,0,0,1,0-1.01H19.947a.505.505,0,0,1,0,1.01h-.253v9.088h.253a1.011,1.011,0,0,1,0,2.021Zm12.373-2.021h3.03V8.483h-3.03Zm-5.052,0h3.031V8.483H9.593Zm-5.048,0h3.03V8.483H4.545ZM21.21,6.564H1.011A1.009,1.009,0,0,1,.6,4.634L10.7.089a1.012,1.012,0,0,1,.83,0L21.547,4.6a1.01,1.01,0,0,1-.328,1.965Z" transform="translate(6.384 6.39)"/></svg>