<svg xmlns="http://www.w3.org/2000/svg" width="36" height="36" viewBox="0 0 36 36"><defs><style>.a{fill:none;}.b{fill:#cf4338;}</style></defs><g transform="translate(-449.839 -1148.716)"><rect class="a" width="36" height="36" transform="translate(449.839 1148.716)"/><path class="b" d="M0,18.9a6.953,6.953,0,0,1,4.013-6.031A6.952,6.952,0,0,1,0,6.835C0,2.967,3.138,0,7.3,0a7.831,7.831,0,0,1,3.052.618V6.369l-2.6,1.3a.785.785,0,0,0,0,1.348l4.682,2.341-1.667.833a.785.785,0,0,0,0,1.349l1.667.834L7.754,16.714a.785.785,0,0,0,0,1.349l2.6,1.3v5.751a7.837,7.837,0,0,1-3.052.618C3.138,25.731,0,22.764,0,18.9Zm11.86,0a.754.754,0,0,0-.417-.674l-1.667-.833,4.682-2.341a.785.785,0,0,0,0-1.348l-1.667-.834,1.667-.833a.754.754,0,0,0,0-1.349L9.777,8.342l1.667-.834a.754.754,0,0,0,.417-.674V1.409C14.3,2.96,16.62,5.754,19.57,9.25c.828.981,1.709,2.025,2.66,3.121a.755.755,0,0,1,0,.988c-.95,1.1-1.832,2.14-2.66,3.121-2.95,3.5-5.269,6.289-7.71,7.841Z" transform="translate(480.705 1155.509) rotate(90)"/></g></svg>