<svg xmlns="http://www.w3.org/2000/svg" width="40" height="40" viewBox="0 0 40 40"><defs><style>.a{fill:none;}.b{fill:#ffee6e;}.c{fill:#fdbf00;}.d{fill:#06ccab;}.e{fill:#1cadb5;}.f{fill:#ff5b5b;}.g{fill:#ff193d;}.h{fill:#1b3b6b;}.i{fill:#001035;}.j{fill:#12254c;}</style></defs><g transform="translate(-603 -530.384)"><rect class="a" width="40" height="40" transform="translate(603 530.384)"/><g transform="translate(606.609 532.344)"><path class="b" d="M35.123,220.871H29.49a1.087,1.087,0,0,0-1.087,1.087V240.3a1.087,1.087,0,0,0,1.087,1.087h5.633A1.087,1.087,0,0,0,36.21,240.3V221.958a1.087,1.087,0,0,0-1.087-1.087Zm0,0" transform="translate(-26.401 -205.306)"/><path class="c" d="M86.614,220.871H83.8v20.516h2.816A1.087,1.087,0,0,0,87.7,240.3V221.958a1.087,1.087,0,0,0-1.087-1.087Zm0,0" transform="translate(-77.892 -205.306)"/><path class="d" d="M332.7,133.648h-5.633a1.088,1.088,0,0,0-1.087,1.087v24.488a1.088,1.088,0,0,0,1.087,1.087H332.7a1.088,1.088,0,0,0,1.087-1.087V134.735A1.088,1.088,0,0,0,332.7,133.648Zm0,0" transform="translate(-303.005 -124.23)"/><path class="e" d="M384.188,133.648h-2.817v26.663h2.817a1.088,1.088,0,0,0,1.087-1.087V134.735a1.088,1.088,0,0,0-1.087-1.087Zm0,0" transform="translate(-354.496 -124.23)"/><path class="f" d="M183.912,249.211h-5.633a1.088,1.088,0,0,0-1.087,1.087v16.344a1.088,1.088,0,0,0,1.087,1.087h5.633A1.088,1.088,0,0,0,185,266.642V250.3A1.088,1.088,0,0,0,183.912,249.211Zm0,0" transform="translate(-164.705 -231.649)"/><path class="g" d="M235.4,249.211h-2.817v18.519H235.4a1.088,1.088,0,0,0,1.087-1.087V250.3a1.088,1.088,0,0,0-1.087-1.087Zm0,0" transform="translate(-216.196 -231.649)"/><path class="h" d="M31.694,483.315H1.088a1.087,1.087,0,0,1,0-2.175H31.694a1.087,1.087,0,0,1,0,2.175Zm0,0" transform="translate(0 -447.235)"/><path class="h" d="M111.983,0H107.69a1.087,1.087,0,0,0,0,2.175h1.666A30.2,30.2,0,0,1,98.565,8.868a24.254,24.254,0,0,1-5.311,1.315,1.087,1.087,0,0,0,.1,2.17c.032,0,.064,0,.1,0a25.759,25.759,0,0,0,5.774-1.406A32.388,32.388,0,0,0,110.9,3.71V5.38a1.087,1.087,0,1,0,2.175,0V1.087A1.087,1.087,0,0,0,111.983,0Zm0,0" transform="translate(-85.761)"/><path class="i" d="M242.421,0h-4.293a1.087,1.087,0,0,0,0,2.175h1.666a29.876,29.876,0,0,1-7.2,5.141V9.737a32.162,32.162,0,0,0,8.743-6.026v1.67a1.087,1.087,0,0,0,2.175,0V1.087A1.087,1.087,0,0,0,242.421,0Zm0,0" transform="translate(-216.199 0)"/><path class="j" d="M247.893,481.141h-15.3v2.175h15.3a1.087,1.087,0,1,0,0-2.175Zm0,0" transform="translate(-216.199 -447.235)"/></g></g></svg>