<svg xmlns="http://www.w3.org/2000/svg" width="34.999" height="34.999" viewBox="0 0 34.999 34.999"><defs><style>.a{fill:none;}.b{fill:#9c9c9c;}</style></defs><rect class="a" width="34.999" height="34.999" transform="translate(0)"/><path class="b" d="M27.809,12.462a4.988,4.988,0,0,0-2.851-.8c-1.779,0-3.264.743-3.609,1.731H21.2c-.337-.994-1.826-1.744-3.613-1.744a4.974,4.974,0,0,0-2.852.8v8.363a3.775,3.775,0,0,1-7.549,0,.833.833,0,0,1,1.665,0,2.112,2.112,0,0,0,4.218,0V12.466a4.974,4.974,0,0,0-2.853-.8c-1.779,0-3.264.743-3.609,1.731H6.462c-.337-.994-1.826-1.744-3.613-1.744A4.984,4.984,0,0,0,0,12.448C.544,6.519,6.123,1.805,13.073,1.454V.832a.833.833,0,0,1,1.665,0v.622C21.693,1.806,27.276,6.527,27.809,12.462Z" transform="translate(3.595 5.228)"/></svg>