<svg xmlns="http://www.w3.org/2000/svg" width="34.999" height="34.999" viewBox="0 0 34.999 34.999"><defs><style>.a{fill:none;}.b{fill:#9c9c9c;stroke:rgba(0,0,0,0);}</style></defs><rect class="a" width="34.999" height="34.999"/><path class="b" d="M18.073,22.651V0h7.706V22.651Zm1.187-2.1h3.888V18.123H19.26Zm0-4.454h3.888V13.669H19.26Zm0-4.294h3.888V9.374H19.26ZM13.508,22.651l-3.149-7.865,3.149-.943L10.359,5.968l3.149-.62V0h3.356v22.65ZM.012,22.1,0,22.033a5.091,5.091,0,0,0,1.427-1.077.975.975,0,0,0,.226-.649,2.562,2.562,0,0,0-.225-.825A4.939,4.939,0,0,0,.9,18.661,2.04,2.04,0,0,1,.389,17.7a.854.854,0,0,1,.194-.63,1.123,1.123,0,0,1,.512-.338,1.657,1.657,0,0,1,1.05,0V16.8a5.908,5.908,0,0,0-.842.39.7.7,0,0,0-.375.51,1.342,1.342,0,0,0,.152.842,3.251,3.251,0,0,0,.641.732,1.8,1.8,0,0,1,.54.945,1.364,1.364,0,0,1-.3,1.166A2.377,2.377,0,0,1,.012,22.1Zm2.763-3.3V15.641H9.931L11.046,18.8ZM.665,11.771l-.013-.064a4.8,4.8,0,0,0,.915-.81.645.645,0,0,0,.146-.373A2.06,2.06,0,0,0,1.6,9.973a2.213,2.213,0,0,0-.35-.588A1.448,1.448,0,0,1,.842,8.7a.641.641,0,0,1,.15-.491.823.823,0,0,1,.39-.249,1.055,1.055,0,0,1,.762.061v.065c-.214.129-.411.223-.554.331a.5.5,0,0,0-.209.285.794.794,0,0,0,.051.569,1.738,1.738,0,0,0,.46.494,1.218,1.218,0,0,1,.427.68,1.016,1.016,0,0,1-.216.889,1.538,1.538,0,0,1-1.437.434Zm2.111-1.623V6.99H9.931l1.115,3.158Z" transform="translate(28.825 4.61) rotate(90)"/></svg>