<svg xmlns="http://www.w3.org/2000/svg" width="34.999" height="34.999" viewBox="0 0 34.999 34.999"><defs><style>.a{fill:none;}.b{fill:#9c9c9c;}</style></defs><rect class="a" width="34.999" height="34.999"/><path class="b" d="M25.888,0H.454A.454.454,0,0,0,0,.454V20.437a.454.454,0,0,0,.454.454H25.888a.454.454,0,0,0,.454-.454V.454A.454.454,0,0,0,25.888,0ZM4.542,19.983H.907V15.9H4.542Zm0-5H.907V10.9H4.542Zm0-5H.907V5.9H4.542Zm0-5H.907V.909H4.542ZM16.593,10.83l-5,3.179a.454.454,0,0,1-.7-.384V7.269a.454.454,0,0,1,.7-.383l5,3.179a.454.454,0,0,1,.139.627.449.449,0,0,1-.139.139Zm8.84,9.153H21.8V15.9h3.635Zm0-5H21.8V10.9h3.635Zm0-5H21.8V5.9h3.635Zm0-5H21.8V.909h3.635Z" transform="translate(4.329 7.054)"/></svg>