<svg xmlns="http://www.w3.org/2000/svg" width="40" height="40" viewBox="0 0 40 40"><defs><style>.a{fill:none;}.b{fill:#868491;}.c{fill:#5c546a;}.d{fill:#ffcd00;}.e{fill:#ffe671;}.f{fill:#fff;}.g{fill:#b4b6bc;}</style></defs><g transform="translate(-602.001 -352.004)"><rect class="a" width="40" height="40" transform="translate(602.001 352.004)"/><g transform="translate(535.81 352.262)"><g transform="translate(83.725 35.784)"><path class="b" d="M228.329,464.008h-3.7a.617.617,0,0,0-.617.617v.617a2.468,2.468,0,1,0,4.936,0v-.617A.617.617,0,0,0,228.329,464.008Z" transform="translate(-224.01 -464.008)"/></g><g transform="translate(83.725 35.784)"><path class="c" d="M226.477,464.008h-1.85a.617.617,0,0,0-.617.617v.617a2.47,2.47,0,0,0,2.467,2.468v-3.7Z" transform="translate(-224.01 -464.008)"/></g><g transform="translate(72.002 0)"><path class="d" d="M95.907,3.848A14.079,14.079,0,0,0,85.285.029a14.189,14.189,0,0,0-5.924,26.6,3.676,3.676,0,0,1,1.895,3.226v4.7a2.47,2.47,0,0,0,2.468,2.468H88.66a2.47,2.47,0,0,0,2.468-2.468v-4.7a3.692,3.692,0,0,1,1.91-3.234,14.189,14.189,0,0,0,2.87-22.771Z" transform="translate(-72.002 0)"/></g><g transform="translate(76.32 4.319)"><circle class="e" cx="9.871" cy="9.871" r="9.871"/></g><g transform="translate(81.257 15.424)"><g transform="translate(0)"><path class="f" d="M199.1,202.476a1.937,1.937,0,0,1-1.545-.827c-.269-.307-.377-.407-.617-.407s-.346.1-.614.406a1.853,1.853,0,0,1-3.087,0c-.268-.307-.375-.406-.614-.406a.617.617,0,1,1,0-1.234,1.958,1.958,0,0,1,1.543.828c.268.307.375.406.614.406s.346-.1.615-.406a1.958,1.958,0,0,1,1.543-.828,1.937,1.937,0,0,1,1.545.827c.269.307.377.407.617.407s.347-.1.616-.406a1.961,1.961,0,0,1,1.545-.828.617.617,0,0,1,0,1.234c-.24,0-.348.1-.617.407A1.96,1.96,0,0,1,199.1,202.476Z" transform="translate(-192.009 -200.008)"/></g></g><g transform="translate(80.639 14.19)"><g transform="translate(0)"><path class="c" d="M187.707,199.424a.618.618,0,0,1-.6-.486l-3.085-14.19a.617.617,0,1,1,1.206-.263l3.085,14.19a.616.616,0,0,1-.6.748Z" transform="translate(-184.005 -184)"/></g></g><g transform="translate(87.426 14.19)"><path class="c" d="M272.623,199.426a.616.616,0,0,1-.6-.748l3.085-14.19a.617.617,0,0,1,1.206.263l-3.085,14.19A.618.618,0,0,1,272.623,199.426Z" transform="translate(-272.005 -184.002)"/></g><g transform="translate(81.15 28.998)"><path class="g" d="M190.633,376.008a3.7,3.7,0,0,1,.106.855v4.7a2.47,2.47,0,0,0,2.468,2.468h4.936a2.47,2.47,0,0,0,2.468-2.468v-4.7a3.682,3.682,0,0,1,.107-.855Z" transform="translate(-190.633 -376.008)"/></g><g transform="translate(81.15 28.998)"><path class="b" d="M195.674,376.008h-5.041a3.7,3.7,0,0,1,.106.855v4.7a2.47,2.47,0,0,0,2.468,2.468h2.467Z" transform="translate(-190.633 -376.008)"/></g><g transform="translate(86.192 30.848)"><g transform="translate(0)"><rect class="b" width="4.936" height="1.234"/></g></g><g transform="translate(86.192 33.316)"><g transform="translate(0)"><rect class="b" width="4.936" height="1.234"/></g></g><g transform="translate(81.256 30.848)"><g transform="translate(0)"><rect class="c" width="4.936" height="1.234"/></g></g><g transform="translate(81.256 33.316)"><g transform="translate(0)"><rect class="c" width="4.936" height="1.234"/></g></g></g></g></svg>