<svg xmlns="http://www.w3.org/2000/svg" width="40" height="40" viewBox="0 0 40 40">
  <g id="Technology_Stack" data-name="Technology Stack" transform="translate(-153 -8.5)">
    <rect id="Rectangle_2437" data-name="Rectangle 2437" width="40" height="40" transform="translate(153 8.5)" fill="none"/>
    <g id="configuration" transform="translate(156.105 10)">
      <path id="Path_4106" data-name="Path 4106" d="M35.721,20.324V15.4H33.565a2.2,2.2,0,0,1-2.119-1.542A14.069,14.069,0,0,0,30.3,11.094a2.2,2.2,0,0,1,.4-2.6l1.526-1.526L28.748,3.489,27.222,5.015a2.2,2.2,0,0,1-2.6.4,14.055,14.055,0,0,0-2.761-1.143,2.193,2.193,0,0,1-1.542-2.118V0H15.4V2.156a2.2,2.2,0,0,1-1.542,2.119,14.069,14.069,0,0,0-2.761,1.143,2.2,2.2,0,0,1-2.6-.4L6.973,3.49,3.489,6.974,5.014,8.5a2.2,2.2,0,0,1,.4,2.6,14.055,14.055,0,0,0-1.143,2.761A2.195,2.195,0,0,1,2.156,15.4H0v4.927H2.156a2.2,2.2,0,0,1,2.119,1.542,14.071,14.071,0,0,0,1.143,2.761,2.2,2.2,0,0,1-.4,2.6L3.49,28.748l3.484,3.484L8.5,30.706a2.2,2.2,0,0,1,2.6-.4,14.055,14.055,0,0,0,2.761,1.143A2.193,2.193,0,0,1,15.4,33.565v2.156h4.927V33.565a2.2,2.2,0,0,1,1.542-2.119A14.071,14.071,0,0,0,24.627,30.3a2.2,2.2,0,0,1,2.6.4l1.526,1.526,3.484-3.484-1.526-1.526a2.2,2.2,0,0,1-.4-2.6,14.055,14.055,0,0,0,1.143-2.761,2.193,2.193,0,0,1,2.118-1.542Z" transform="translate(-0.965 1.279)" fill="#ebba16" opacity="0.28"/>
      <path id="Path_4101" data-name="Path 4101" d="M33.411,19.01V14.4H31.395a2.053,2.053,0,0,1-1.982-1.442,13.159,13.159,0,0,0-1.069-2.582,2.056,2.056,0,0,1,.377-2.427l1.427-1.427L26.889,3.263,25.462,4.69a2.056,2.056,0,0,1-2.427.376A13.146,13.146,0,0,0,20.452,4,2.051,2.051,0,0,1,19.01,2.016V0H14.4V2.016A2.053,2.053,0,0,1,12.959,4a13.159,13.159,0,0,0-2.582,1.069,2.057,2.057,0,0,1-2.427-.376L6.522,3.264,3.263,6.523,4.69,7.949a2.057,2.057,0,0,1,.377,2.427A13.146,13.146,0,0,0,4,12.959,2.053,2.053,0,0,1,2.016,14.4H0V19.01H2.016A2.053,2.053,0,0,1,4,20.452a13.161,13.161,0,0,0,1.069,2.582,2.057,2.057,0,0,1-.376,2.427L3.264,26.889l3.259,3.259L7.95,28.721a2.056,2.056,0,0,1,2.427-.376,13.146,13.146,0,0,0,2.582,1.069A2.052,2.052,0,0,1,14.4,31.395v2.016H19.01V31.395a2.053,2.053,0,0,1,1.442-1.982,13.161,13.161,0,0,0,2.582-1.069,2.057,2.057,0,0,1,2.427.376l1.427,1.427,3.259-3.259-1.427-1.427a2.056,2.056,0,0,1-.376-2.427,13.146,13.146,0,0,0,1.069-2.582,2.052,2.052,0,0,1,1.981-1.442Z" transform="translate(0.19)" fill="#ebba16"/>
      <path id="Path_4105" data-name="Path 4105" d="M34.611,19.692V14.918H32.522a2.127,2.127,0,0,1-2.053-1.494,13.632,13.632,0,0,0-1.108-2.675,2.13,2.13,0,0,1,.39-2.515L31.23,6.756,27.855,3.381,26.376,4.859a2.129,2.129,0,0,1-2.515.39,13.618,13.618,0,0,0-2.675-1.108,2.125,2.125,0,0,1-1.494-2.052V0H14.918V2.089a2.127,2.127,0,0,1-1.494,2.053,13.632,13.632,0,0,0-2.675,1.108,2.13,2.13,0,0,1-2.515-.39L6.756,3.381,3.381,6.757,4.859,8.235a2.131,2.131,0,0,1,.39,2.515,13.618,13.618,0,0,0-1.108,2.675,2.126,2.126,0,0,1-2.053,1.494H0v4.774H2.089a2.127,2.127,0,0,1,2.053,1.494,13.634,13.634,0,0,0,1.108,2.675,2.13,2.13,0,0,1-.39,2.515L3.381,27.855,6.757,31.23l1.478-1.478a2.129,2.129,0,0,1,2.515-.39,13.618,13.618,0,0,0,2.675,1.108,2.125,2.125,0,0,1,1.494,2.052v2.089h4.774V32.522a2.127,2.127,0,0,1,1.494-2.053,13.634,13.634,0,0,0,2.675-1.108,2.13,2.13,0,0,1,2.515.39l1.478,1.478,3.376-3.376-1.478-1.478a2.129,2.129,0,0,1-.39-2.515,13.618,13.618,0,0,0,1.108-2.675,2.125,2.125,0,0,1,2.052-1.494Z" transform="translate(-0.41 0.555)" fill="#ffcc20" opacity="0.28"/>
      <circle id="Ellipse_509" data-name="Ellipse 509" cx="8.641" cy="8.641" r="8.641" transform="translate(8.254 8.065)" fill="#fff"/>
      <g id="Group_1616" data-name="Group 1616" transform="translate(10.558 12.096)">
        <path id="Path_4102" data-name="Path 4102" d="M161.774,217.622a.574.574,0,0,1-.407-.169l-2.3-2.3a.575.575,0,0,1,0-.815l2.3-2.3a.576.576,0,0,1,.814.815l-1.9,1.9,1.9,1.9a.576.576,0,0,1-.407.983Z" transform="translate(-158.894 -210.132)" fill="#dd352e"/>
        <path id="Path_4103" data-name="Path 4103" d="M300.712,217.621a.576.576,0,0,1-.407-.983l1.9-1.9-1.9-1.9a.576.576,0,1,1,.814-.815l2.3,2.3a.575.575,0,0,1,0,.815l-2.3,2.3A.574.574,0,0,1,300.712,217.621Z" transform="translate(-290.919 -210.131)" fill="#dd352e"/>
        <path id="Path_4104" data-name="Path 4104" d="M230.091,194a.577.577,0,0,1-.551-.746l2.3-7.489a.576.576,0,0,1,1.1.339l-2.3,7.489A.576.576,0,0,1,230.091,194Z" transform="translate(-224.906 -185.36)" fill="#dd352e"/>
      </g>
    </g>
  </g>
</svg>
