<svg xmlns="http://www.w3.org/2000/svg" width="35" height="35" viewBox="0 0 33.122 26.79">
  <g id="domain-travel-logo-default" transform="translate(-517.934 -3497.663)" opacity="0.8">
    <path id="Path_1643" data-name="Path 1643" d="M-2076.665-1531.123l.922-1.155-.283-.244-.941,1.18Zm-3.5,9.672c.024.5.048,1,.071,1.5l.371-.033c-.022-.493-.044-.979-.066-1.468Zm11.623-16.02-1.415.534.148.343,1.384-.523-.117-.353Zm-8.081,25.669-.819-1.227-.32.192.837,1.255Zm2.781-22.805-1.136.992.258.271,1.113-.973Zm8.3-3.172c-.017-.119-.033-.235-.052-.37l-1.487.273.084.362Zm7.436.276-.114.355,1.388.513.146-.343Zm-21.783,19.049.339,1.469.36-.1c-.111-.482-.22-.956-.331-1.436Zm.785-8.91-.464,1.434.362.1.454-1.4Zm27.2-6.051.256-.27-1.142-.988-.233.292Zm-27.825,10.486c.066-.489.13-.972.2-1.462l-.369-.065c-.066.5-.132,1-.2,1.493Zm.646,7.38.6,1.384.336-.163-.585-1.352Zm17.976-22.244,1.457.256c.025-.114.051-.23.08-.364l-1.49-.261C-2061.083-1538.023-2061.1-1537.906-2061.112-1537.794Zm7.09,2.235-1.3-.77-.175.328,1.274.753Zm-23.458,5.667-.322-.19-.715,1.33.338.159Zm6.154-6.386-1.3.778.208.308,1.268-.759Zm7.255-1.638h1.484v-.364h-1.5C-2064.081-1538.15-2064.075-1538.033-2064.07-1537.916Z" transform="translate(2598.104 5035.943)" fill="#9c9c9c"/>
    <path id="Path_1644" data-name="Path 1644" d="M-385.036-1262.988a.173.173,0,0,1-.2.1.987.987,0,0,1-.587-.3c-.273-.273-.548-.544-.82-.819a.152.152,0,0,0-.143-.051c-.963.118-1.926.233-2.889.35a.162.162,0,0,1-.153-.052c-.109-.116-.225-.224-.348-.345l2.362-1.054a7.14,7.14,0,0,1-.74-.811c-.305.062-.618.123-.931.189a.124.124,0,0,1-.131-.04c-.085-.09-.176-.174-.273-.27.038-.018.065-.033.094-.045.327-.139.655-.276.98-.419a.208.208,0,0,0,.1-.1c.144-.325.281-.652.422-.979.012-.027.024-.054.041-.092.106.107.206.2.3.308a.111.111,0,0,1,.01.083c-.059.3-.121.6-.182.9,0,.017,0,.033-.006.055a1.217,1.217,0,0,1,.418.34c.13.125.251.256.388.4l1.06-2.355c.02.017.038.028.052.042a1.774,1.774,0,0,0,.184.178.4.4,0,0,1,.152.435c-.12.907-.224,1.816-.337,2.724a.122.122,0,0,0,.043.115c.22.217.434.44.659.652a1.362,1.362,0,0,1,.48.74Z" transform="translate(936.092 4770.128)" fill="#9c9c9c"/>
    <path id="Path_1645" data-name="Path 1645" d="M-1720-1227.375a10.82,10.82,0,0,1,3.9-8.319,10.643,10.643,0,0,1,4.324-2.237,10.894,10.894,0,0,1,3.387-.327,10.817,10.817,0,0,1,4.733,1.386,10.881,10.881,0,0,1,4.08,3.993,10.678,10.678,0,0,1,1.362,3.754,10.689,10.689,0,0,1,.11,2.614,10.65,10.65,0,0,1-2.085,5.579,10.835,10.835,0,0,1-6.137,4.138,10.61,10.61,0,0,1-3.428.312,10.768,10.768,0,0,1-6.232-2.464,10.761,10.761,0,0,1-3.7-5.87A10.8,10.8,0,0,1-1720-1227.375Zm16.456-1.154c-.166.095-.319.2-.485.274a4,4,0,0,1-.515.177,2.462,2.462,0,0,0-.853.4.55.55,0,0,1-.248.075,1.817,1.817,0,0,1-.215,0c-.06,0-.076-.027-.077-.08,0-.146-.009-.292-.006-.439,0-.254.016-.507.023-.761a.227.227,0,0,0-.081-.2.642.642,0,0,0-.862.028,1.487,1.487,0,0,0-.5.917c0,.02-.024.053-.037.053-.141,0-.281,0-.438,0l.058-.061c.111-.111.223-.222.333-.334.042-.043.08-.092.024-.149q-.164-.169-.331-.334a.1.1,0,0,0-.162,0c-.116.122-.241.235-.355.359a.251.251,0,0,0-.062.144,1.963,1.963,0,0,0,.013.3c.005.056-.013.083-.068.089l-.074.01-.88.092-.407.042c0-.056,0-.1,0-.144a.526.526,0,0,1,.167-.447.949.949,0,0,0,.171-.251,1.388,1.388,0,0,0,.132-.626.381.381,0,0,1,.26-.4,3.145,3.145,0,0,1,.532-.144,2.009,2.009,0,0,1,.658-.023.47.47,0,0,1,.073-.123,4.212,4.212,0,0,1,.5-.418,5.808,5.808,0,0,1,.662-.336.3.3,0,0,0,.2-.255c.012-.153.009-.307.006-.462,0-.1-.015-.206-.023-.312.037,0,.062-.007.086-.007.447,0,.894.005,1.341.013a1.354,1.354,0,0,0,.6-.078l.532-.248a1.94,1.94,0,0,0,.571-.39c.348-.355.689-.715,1.032-1.074.066-.069.13-.141.194-.212a9.549,9.549,0,0,0-14.436.566.8.8,0,0,1,.089.044.342.342,0,0,1,.084.066,1.752,1.752,0,0,1,.383.787c.034.184-.04.269-.226.282a.258.258,0,0,0-.245.177c-.025.067-.045.136-.065.2a.393.393,0,0,1-.354.321.065.065,0,0,0-.067.075c0,.339,0,.679,0,1.018a.115.115,0,0,0,.064.089.844.844,0,0,1,.423.26.746.746,0,0,0,.4.192,1.634,1.634,0,0,0,.84-.129c.183-.07.195-.091.174-.289a.5.5,0,0,1-.012-.123.3.3,0,0,1,.052-.167,1.646,1.646,0,0,1,.742-.433.487.487,0,0,1,.631.342,1.878,1.878,0,0,0,.113.3,5.191,5.191,0,0,0,.853,1.244.614.614,0,0,1,.083.1.162.162,0,0,1-.059.259.894.894,0,0,1-.3.1.531.531,0,0,0-.412.256,1.428,1.428,0,0,0-.234.637c-.027.238-.125.308-.364.282a.32.32,0,0,1-.057-.01c-.18-.052-.359-.109-.539-.157a.816.816,0,0,0-.774.135c-.058.047-.124.083-.182.128a1.363,1.363,0,0,1-.579.2.423.423,0,0,0-.388.416s-.006.008-.015.018l-.94-.466v.094c0,.232,0,.464,0,.7a.373.373,0,0,1-.116.281c-.063.062-.131.119-.189.185a.478.478,0,0,1-.4.17,3.509,3.509,0,0,0-.364.025,9.6,9.6,0,0,0,3.838,6.045c.056-.2.115-.39.156-.58a7.123,7.123,0,0,0,.151-.828c.026-.275-.039-.345-.3-.44a.624.624,0,0,1-.28-.2,2,2,0,0,1-.339-.584c-.271-.749-.688-1.429-1.006-2.156a.918.918,0,0,0-.484-.486c-.2-.089-.392-.189-.584-.292a.176.176,0,0,1-.087-.116c-.009-.13,0-.261,0-.395h.116c.764,0,1.529-.006,2.293,0a1.8,1.8,0,0,0,.923-.166.247.247,0,0,1,.094-.029,1.419,1.419,0,0,1,.221-.009.157.157,0,0,1,.14.123.708.708,0,0,1,.024.1.977.977,0,0,0,.861.888l.073.015a.257.257,0,0,1,.228.219c.02.147.026.3.033.444s0,.31.015.462c.026.229.132.314.364.314h1.313c-.044.22-.072.425-.126.623a1.669,1.669,0,0,1-.591,1,.591.591,0,0,0-.272.655.531.531,0,0,1-.223.551c-.054.042-.11.083-.167.121-.161.107-.324.209-.483.318s-.321.232-.482.348c-.083.059-.171.111-.253.172a.7.7,0,0,0-.295.461.107.107,0,0,0,.068.138,9.582,9.582,0,0,0,3.8,1.081,9.508,9.508,0,0,0,3.251-.327,9.445,9.445,0,0,0,3.713-2.011,9.463,9.463,0,0,0,2.949-4.738.237.237,0,0,0,0-.112,1.134,1.134,0,0,0-.284-.5,3.192,3.192,0,0,1-.281-.346c-.116-.173-.087-.233.116-.288a1.488,1.488,0,0,0-.657-.387,4.278,4.278,0,0,0-1.192-.081.4.4,0,0,0-.136.033.131.131,0,0,0-.083.193.7.7,0,0,0,.108.165c.071.083.074.089,0,.167l-.833.829a.527.527,0,0,1-.043.036c-.061-.061-.117-.122-.18-.176-.174-.148-.344-.3-.53-.434-.141-.1-.216-.058-.255.124l-.187-.445a1.837,1.837,0,0,0-.354-.573,1.7,1.7,0,0,1-.212-.285.982.982,0,0,1-.179-.608.109.109,0,0,1,.045-.078c.016-.008.054.016.077.033a.3.3,0,0,1,.064.075c.081.131.167.26.238.4a.093.093,0,0,0,.135.055q.37-.129.743-.253c.2-.066.391-.13.6-.2C-1703.24-1227.924-1703.4-1228.236-1703.544-1228.53Z" transform="translate(2243.897 4740.909)" fill="#9c9c9c"/>
    <path id="Path_1646" data-name="Path 1646" d="M-1886.457-1189.1l-.3-.219.941-1.18.284.244Z" transform="translate(2407.896 4693.921)" fill="#9c9c9c"/>
    <path id="Path_1647" data-name="Path 1647" d="M-2080.17-521.78h.376c.022.49.044.975.066,1.468l-.371.033C-2080.122-520.779-2080.146-521.275-2080.17-521.78Z" transform="translate(2598.104 4036.272)" fill="#9c9c9c"/>
    <path id="Path_1648" data-name="Path 1648" d="M-1462.135-1489.46l.117.354-1.384.523c-.046-.106-.093-.215-.148-.343Z" transform="translate(1991.692 4987.932)" fill="#9c9c9c"/>
    <path id="Path_1649" data-name="Path 1649" d="M-1933.861-11.922l-.3.22-.837-1.256.32-.192Z" transform="translate(2455.337 3536.062)" fill="#9c9c9c"/>
    <path id="Path_1650" data-name="Path 1650" d="M-1765.594-1316.54l.234.29-1.112.973-.258-.271Z" transform="translate(2289.854 4817.874)" fill="#9c9c9c"/>
    <path id="Path_1651" data-name="Path 1651" d="M-1288.391-1530.08l-1.454.266-.085-.362,1.487-.273C-1288.424-1530.315-1288.408-1530.2-1288.391-1530.08Z" transform="translate(1820.947 5028.243)" fill="#9c9c9c"/>
    <path id="Path_1652" data-name="Path 1652" d="M-754.546-1491.44l1.42.525c-.052.123-.1.233-.145.343l-1.388-.513Z" transform="translate(1294.538 4989.878)" fill="#9c9c9c"/>
    <path id="Path_1653" data-name="Path 1653" d="M-2063.6-344.724l.369-.066.331,1.436-.361.1Z" transform="translate(2581.809 3862.212)" fill="#9c9c9c"/>
    <path id="Path_1654" data-name="Path 1654" d="M-2043.746-879l.351.13-.454,1.4-.362-.1Z" transform="translate(2562.739 4387.578)" fill="#9c9c9c"/>
    <path id="Path_1655" data-name="Path 1655" d="M-439.531-1319.222l-1.119-.966.233-.292,1.142.988Z" transform="translate(985.727 4821.749)" fill="#9c9c9c"/>
    <path id="Path_1656" data-name="Path 1656" d="M-2075.848-701.793l-.372-.033c.066-.5.131-.99.2-1.494l.369.065C-2075.719-702.766-2075.783-702.282-2075.848-701.793Z" transform="translate(2594.219 4214.806)" fill="#9c9c9c"/>
    <path id="Path_1657" data-name="Path 1657" d="M-2014.74-173.129l.349-.131.585,1.352-.336.163Z" transform="translate(2533.757 3693.522)" fill="#9c9c9c"/>
    <path id="Path_1658" data-name="Path 1658" d="M-929-1530.821l.048-.369,1.49.261-.08.364Z" transform="translate(1465.992 5028.971)" fill="#9c9c9c"/>
    <path id="Path_1659" data-name="Path 1659" d="M-588.611-1419.66l-.2.311-1.274-.753.175-.328Z" transform="translate(1132.693 4920.044)" fill="#9c9c9c"/>
    <path id="Path_1660" data-name="Path 1660" d="M-1979.313-1042.89l-.7,1.3-.338-.159.715-1.329Z" transform="translate(2499.936 4548.941)" fill="#9c9c9c"/>
    <path id="Path_1661" data-name="Path 1661" d="M-1622.964-1417.36l.179.327-1.267.759-.208-.308Z" transform="translate(2149.742 4917.025)" fill="#9c9c9c"/>
    <path id="Path_1662" data-name="Path 1662" d="M-1108.683-1537.916c-.005-.117-.011-.234-.017-.364h1.5v.364Z" transform="translate(1642.717 5035.943)" fill="#9c9c9c"/>
    <path id="Path_1663" data-name="Path 1663" d="M-1376.406-1012.813l-.091-.033c-.36-.121-.72-.242-1.081-.361a.6.6,0,0,1-.38-.331c-.053-.115-.116-.226-.171-.34a2.181,2.181,0,0,0-.595-.753,5.634,5.634,0,0,1-.438-.414.348.348,0,0,1-.1-.288c.006-.068,0-.138,0-.207a.1.1,0,0,0-.1-.112.784.784,0,0,0-.1-.009h-3.567a.123.123,0,0,0-.08.028,4.91,4.91,0,0,0-.774.965.678.678,0,0,0,.057.837q.182.22.385.421a1.508,1.508,0,0,1,.349.555c.06.16.116.321.184.478a.787.787,0,0,0,.71.5,7.764,7.764,0,0,0,.917,0,1.245,1.245,0,0,0,.59-.163c.007.052.017.1.02.149a3.582,3.582,0,0,0,.024.454c.076.406.166.81.255,1.213a4.409,4.409,0,0,1,.167.933.66.66,0,0,0,.141.423,3.144,3.144,0,0,0,.254.271c.146.143.3.279.444.421a.333.333,0,0,0,.25.106c.234,0,.469,0,.7,0,.078,0,.1-.03.107-.1,0-.033,0-.066,0-.1,0-.21-.009-.42,0-.629a6.018,6.018,0,0,1,.086-.762c.043-.222.13-.274.355-.3l.066-.008c.161-.019.207-.068.208-.228,0-.2.045-.25.24-.292.144-.031.19-.08.2-.229a2.509,2.509,0,0,0-.067-.8,1.042,1.042,0,0,0-.221-.447c-.182-.213-.138-.324.141-.37A1.686,1.686,0,0,0-1376.406-1012.813Zm-11.9-9.026a.583.583,0,0,1,.381.261,1.262,1.262,0,0,1,.127.2c.137.3.27.609.4.914a.372.372,0,0,1,.03.136c0,.206,0,.414,0,.62a.5.5,0,0,0,.126.365q.126.132.248.265a.11.11,0,0,0,.173.013c.046-.04.091-.08.134-.123.2-.2.389-.4.595-.587a.515.515,0,0,0,.168-.46c-.014-.166-.021-.331-.029-.5,0-.1.029-.137.126-.147.05-.005.1,0,.149,0,.08,0,.16,0,.24-.008a.6.6,0,0,0,.423-.2.917.917,0,0,1,.54-.294.935.935,0,0,0,.339-.141.266.266,0,0,0,.05-.405,1.266,1.266,0,0,0-.133-.136c-.18-.162-.359-.326-.545-.483s-.345-.282-.524-.417a1.436,1.436,0,0,0-.865-.285c-.295,0-.59,0-.885-.005-.05,0-.09.017-.093.072a.642.642,0,0,1-.2.392c-.171.187-.352.364-.534.541-.143.137-.294.265-.451.407Zm7.151,2.358.013.01c.114-.116.222-.237.343-.345a.37.37,0,0,0,.125-.316c-.009-.267-.01-.535-.016-.8a.8.8,0,0,0-.063-.469,1.95,1.95,0,0,1-.073.3c-.1.242-.211.478-.318.716,0,0-.009,0-.024.006v-.935a4.116,4.116,0,0,0-.457.963,1.062,1.062,0,0,0-.028.3c0,.071.059.11.128.119a1.167,1.167,0,0,0,.214.016.8.8,0,0,0,.166-.046l-.006-.019.114.061C-1381.082-1019.773-1381.12-1019.627-1381.159-1019.482Zm-1.915.974c.211-.105.407-.2.6-.3a.125.125,0,0,0,.051-.094c.005-.177,0-.355,0-.533l-.027,0c-.012.01-.024.019-.035.029-.143.138-.263.3-.481.34a.136.136,0,0,0-.08.1C-1383.062-1018.823-1383.065-1018.674-1383.073-1018.508Z" transform="translate(1917.698 4529.439)" fill="#9c9c9c"/>
    <path id="Path_1664" data-name="Path 1664" d="M-1119.9-561.988a1.685,1.685,0,0,1-.892.479c-.28.047-.323.157-.141.371a1.04,1.04,0,0,1,.221.447,2.513,2.513,0,0,1,.067.8.211.211,0,0,1-.2.229c-.195.042-.238.1-.24.292,0,.16-.047.21-.208.228l-.066.008c-.225.023-.312.076-.355.3a5.843,5.843,0,0,0-.086.762c-.014.209,0,.419,0,.629,0,.033,0,.066,0,.1,0,.069-.029.1-.107.1-.234-.005-.469,0-.7,0a.333.333,0,0,1-.25-.105c-.146-.142-.3-.279-.444-.421a3.183,3.183,0,0,1-.254-.271.658.658,0,0,1-.141-.423,4.389,4.389,0,0,0-.167-.933c-.09-.4-.179-.807-.255-1.213a3.583,3.583,0,0,1-.024-.454c0-.048-.013-.1-.02-.149a1.243,1.243,0,0,1-.59.163,7.723,7.723,0,0,1-.917,0,.785.785,0,0,1-.709-.5c-.068-.156-.124-.318-.184-.478a1.511,1.511,0,0,0-.349-.555,5.555,5.555,0,0,1-.385-.421.678.678,0,0,1-.057-.837,4.883,4.883,0,0,1,.774-.965.123.123,0,0,1,.08-.028q1.783,0,3.567,0a.8.8,0,0,1,.1.009.1.1,0,0,1,.1.112c0,.069,0,.138,0,.207a.348.348,0,0,0,.1.288,5.545,5.545,0,0,0,.438.414,2.182,2.182,0,0,1,.595.753c.055.114.118.224.171.34a.6.6,0,0,0,.38.331c.361.118.721.24,1.082.361Z" transform="translate(1661.192 4078.614)" fill="#9c9c9c"/>
    <path id="Path_1665" data-name="Path 1665" d="M-1388.31-1021.829c.157-.141.308-.269.451-.407.182-.176.364-.354.534-.541a.644.644,0,0,0,.2-.392c0-.055.044-.072.094-.071.295,0,.59,0,.885.005a1.439,1.439,0,0,1,.865.285q.268.2.524.417c.185.156.364.32.545.483a1.241,1.241,0,0,1,.132.136.265.265,0,0,1-.049.405.934.934,0,0,1-.339.141.917.917,0,0,0-.54.294.6.6,0,0,1-.423.2c-.08,0-.16.005-.24.008-.049,0-.1,0-.149,0-.1.01-.131.05-.126.147.007.166.015.331.029.5a.514.514,0,0,1-.168.46c-.206.188-.4.391-.595.587-.043.043-.088.083-.134.123a.11.11,0,0,1-.173-.013q-.123-.134-.248-.265a.5.5,0,0,1-.126-.365c0-.207,0-.414,0-.62a.377.377,0,0,0-.03-.136c-.133-.306-.265-.611-.4-.914a1.3,1.3,0,0,0-.127-.2A.579.579,0,0,0-1388.31-1021.829Z" transform="translate(1917.698 4529.43)" fill="#9c9c9c"/>
    <path id="Path_1666" data-name="Path 1666" d="M-986.071-909.759c.038-.146.077-.291.116-.441l-.114-.061.006.019a.783.783,0,0,1-.166.046,1.176,1.176,0,0,1-.214-.016c-.071-.009-.127-.048-.128-.119a1.062,1.062,0,0,1,.028-.3,4.1,4.1,0,0,1,.457-.963v.936c.016,0,.023,0,.024-.006.107-.238.219-.474.318-.716a1.93,1.93,0,0,0,.073-.3.805.805,0,0,1,.063.469c.007.267.007.534.017.8a.37.37,0,0,1-.125.316c-.121.108-.229.229-.343.345Z" transform="translate(1522.61 4419.717)" fill="#9c9c9c"/>
    <path id="Path_1667" data-name="Path 1667" d="M-1072-792.168c.009-.167.012-.315.028-.463a.138.138,0,0,1,.08-.1c.218-.035.339-.2.481-.34.011-.011.024-.02.035-.029l.027,0c0,.178,0,.355,0,.533a.125.125,0,0,1-.051.094C-1071.594-792.367-1071.789-792.273-1072-792.168Z" transform="translate(1606.625 4303.1)" fill="#9c9c9c"/>
  </g>
</svg>
