<svg xmlns="http://www.w3.org/2000/svg" xmlns:xlink="http://www.w3.org/1999/xlink" width="28.161" height="24.854" viewBox="0 0 28.161 24.854">
  <defs>
    <linearGradient id="linear-gradient" y1="0.5" x2="1" y2="0.5" gradientUnits="objectBoundingBox">
      <stop offset="0" stop-color="#65ba03"/>
      <stop offset="1" stop-color="#2c9200"/>
    </linearGradient>
  </defs>
  <path id="insurance" d="M28.161,12.62a5.052,5.052,0,0,0-2.887-.806c-1.8,0-3.305.752-3.655,1.753h-.148C21.13,12.56,19.622,11.8,17.813,11.8a5.037,5.037,0,0,0-2.888.809v8.468a3.823,3.823,0,0,1-7.644,0,.843.843,0,0,1,1.686,0,2.139,2.139,0,0,0,4.272,0V12.624a5.037,5.037,0,0,0-2.889-.81c-1.8,0-3.305.752-3.655,1.753h-.15C6.2,12.56,4.7,11.8,2.886,11.8a5.047,5.047,0,0,0-2.886.8C.551,6.6,6.2,1.828,13.239,1.473V.842a.843.843,0,0,1,1.686,0v.63C21.968,1.829,27.621,6.609,28.161,12.62Z" fill="url(#linear-gradient)"/>
</svg>
