<svg xmlns="http://www.w3.org/2000/svg" xmlns:xlink="http://www.w3.org/1999/xlink" width="25.914" height="25.906" viewBox="0 0 25.914 25.906">
  <defs>
    <linearGradient id="linear-gradient" y1="0.5" x2="1" y2="0.5" gradientUnits="objectBoundingBox">
      <stop offset="0" stop-color="#0058b9"/>
      <stop offset="1" stop-color="#008bc0"/>
    </linearGradient>
  </defs>
  <path id="sports" d="M8.087.948A12.952,12.952,0,1,0,22.1,22.123l.014-.015a12.94,12.94,0,0,0,.015-18.3l-.015-.015A12.97,12.97,0,0,0,8.087.948ZM3.245,18.4a8.884,8.884,0,0,1-1.707-1.374,12.209,12.209,0,0,1-.393-6.8,10.92,10.92,0,0,1,.829-1.374c.1-.136.185-.277.291-.408l2.923,1.729v.073a22.514,22.514,0,0,0,.47,4.67.03.03,0,0,0,0,.018L3.394,18.487A1.572,1.572,0,0,1,3.245,18.4Zm8.69,6.01a11.158,11.158,0,0,0,1.556.652A12.141,12.141,0,0,1,6.92,23.471l4.9.873C11.857,24.368,11.9,24.391,11.935,24.411Zm-.018-.885L6.136,22.5a18.07,18.07,0,0,1-1.805-2.62c-.133-.236-.282-.466-.394-.712L6.2,15.611l.169.043a37.55,37.55,0,0,0,4.309.86c.085.012.155.022.216.029l2.714,4.693q-.707.994-1.434,1.972C12.092,23.319,12,23.423,11.917,23.526Zm9.619-2a12.05,12.05,0,0,1-1.461,1.246,11.094,11.094,0,0,0-.438-1.991l2.9-5.4a13.512,13.512,0,0,0,2.282-1.286,1.032,1.032,0,0,0,.233-.221,12.066,12.066,0,0,1-3.512,7.656Zm-.129-7.007q.162.308.321.624l-2.8,5.218-.048.009a25.484,25.484,0,0,1-4.574.44L11.52,15.984q.652-1.21,1.292-2.427c.291-.55.575-1.1.859-1.656l5.778-.593a32.354,32.354,0,0,1,1.958,3.213ZM20.236,8.331c-.274.724-.568,1.441-.86,2.159l-5.628.578c-.068-.089-.137-.175-.21-.26q-1-1.129-2-2.251c.006-.008.012-.013.018-.02l-.809-.808,1.567-4.717a2.22,2.22,0,0,1,.327-.065c.852-.087,1.7-.185,2.559-.233A12.592,12.592,0,0,1,16.78,2.7l3.877,4.367C20.521,7.5,20.39,7.92,20.236,8.331Zm1.3-3.96a12.08,12.08,0,0,1,2.483,3.6,12.316,12.316,0,0,0-2.313-1.243c-.127-.052-.257-.1-.388-.144L17.5,2.282a5.122,5.122,0,0,0,.046-.56,12.072,12.072,0,0,1,3.988,2.651ZM9.076,1.5c.015.011.022.02.031.023A9.7,9.7,0,0,1,11.52,2.791L10.056,7.2l-.022.007c-.3.124-.6.233-.9.369a25.849,25.849,0,0,0-3.515,1.9L2.731,7.764A.865.865,0,0,1,2.782,7.5c.194-.517.385-1.037.6-1.543a11.558,11.558,0,0,1,.572-1.136c.137-.152.28-.3.427-.449A12.057,12.057,0,0,1,9.1,1.453Z" fill="url(#linear-gradient)"/>
</svg>
