<svg id="Layer_1" data-name="Layer 1" xmlns="http://www.w3.org/2000/svg" viewBox="0 0 240 240"><defs><style>.cls-1{fill:#ccc;}.cls-2{fill:#fff;stroke:#999;}.cls-2,.cls-3{stroke-miterlimit:10;stroke-width:3px;}.cls-3{fill:none;stroke:#666;}</style></defs><title>client-face</title><rect class="cls-1" width="240" height="240"/><path class="cls-2" d="M1.5,239.21V216.8s8.57-5.05,13.09-7.31c1.29-.65,2.71-1.07,4-1.65,3.38-1.49,6.72-3,10.09-4.53.84-.37,1.76-.6,2.6-1,3.61-1.55,7.16-3.21,10.82-4.65,7.53-3,15.12-5.79,22.68-8.69a51.67,51.67,0,0,0,4.9-2.06,4.07,4.07,0,0,0,1.88-1.78c1.55-3.83,3.51-7.52,4-11.7a5.49,5.49,0,0,1,5.06-5.18c1.73-.27,2.12-.87,2.32-2.51.22-1.85.52-3.7.76-5.55.09-.71.07-1.43.16-2.15.29-2.42.45-4.87,1-7.25a3.59,3.59,0,0,0-1.08-3.7,29.25,29.25,0,0,1-5.77-7.8A34.48,34.48,0,0,1,74.42,128a15.5,15.5,0,0,0-2.17-7A37.5,37.5,0,0,1,68,112.45a11,11,0,0,1-.49-2.74c-.33-3.79-.58-7.59-.94-11.37-.24-2.44.43-3.59,3-4.36a2,2,0,0,0,1.64-1.85c0-.71.06-1.44.06-2.15,0-10.58,0-21.16,0-31.74,0-7.66,3.29-14.12,8.93-19.57A49.06,49.06,0,0,1,90,31.41a110.41,110.41,0,0,1,13.61-6.18c4.66-1.9,9.64-2.87,14.56-4,3.48-.81,6.92-1.8,10.45-2.36,4.59-.72,9.25-1.1,13.88-1.6a3.23,3.23,0,0,1,1.16.07,2.92,2.92,0,0,1,2.45,2c-1.37,1.22-2.79,2.43-4.14,3.71-1.93,1.83-1.59,4.35.83,5.63a82.84,82.84,0,0,1,13.87,9.78,40.39,40.39,0,0,1,8.84,10.51,12.19,12.19,0,0,1,1.9,6.78,44.08,44.08,0,0,0,.18,4.74c.17,2.07.59,4.12.65,6.19.12,3.38.08,6.76,0,10.14-.06,4-.27,8-.29,12.08,0,1.77.29,3.54.45,5.31,2.52.57,3.06,2.22,3.11,4a41.73,41.73,0,0,1-.2,5.59c-.29,2.78-.9,5.54-1.05,8.32a14.35,14.35,0,0,1-1.93,6.15c-1.49,2.81-3.43,5.4-4,8.62a46.77,46.77,0,0,1-4.83,13.67,30,30,0,0,1-3,4.34,6,6,0,0,0-1.73,3.69c0,5.76,0,11.52,0,17.27a2.24,2.24,0,0,0,1.6,2.39c2.88.95,3.75,3.18,3.93,5.62a13.79,13.79,0,0,0,1.37,5,35.05,35.05,0,0,1,2.17,4.77A5.54,5.54,0,0,0,169,188a2.48,2.48,0,0,1,.65.25c4.1,1.56,8.19,3.14,12.31,4.67,4.56,1.69,9.19,3.23,13.7,5,6.51,2.59,12.94,5.35,19.41,8,2.27.93,4.65,1.68,6.85,2.74,5.11,2.46,9.13,5.05,14.21,7.57a19.94,19.94,0,0,0,2.17.76V240"/><path class="cls-3" d="M238.34,240"/></svg>