<svg xmlns="http://www.w3.org/2000/svg" width="129.001" height="54.5" viewBox="0 0 129.001 54.5"><defs><style>.a{fill:#cf4338;}.b{fill:#7e170f;}.c{fill:#ff1300;}</style></defs><g transform="translate(-7 -556.5)"><rect class="a" width="105" height="31" rx="15.5" transform="translate(19 567)"/><path class="b" d="M4938.5,1272h-74a15.509,15.509,0,0,1-14.3-21.5,15.474,15.474,0,0,0,14.3,9.5h74a15.476,15.476,0,0,0,14.3-9.5,15.5,15.5,0,0,1-14.3,21.5Z" transform="translate(-4830 -673)"/><path class="c" d="M4938.5,1272h-74a15.5,15.5,0,0,1-15.5-15.5,15.655,15.655,0,0,1,.2-2.5,15.429,15.429,0,0,0,15.3,13h74a15.43,15.43,0,0,0,15.3-13,15.676,15.676,0,0,1,.2,2.5,15.5,15.5,0,0,1-15.5,15.5Z" transform="translate(4973 1840.501) rotate(180)"/></g></svg>