<svg xmlns="http://www.w3.org/2000/svg" xmlns:xlink="http://www.w3.org/1999/xlink" width="194.026" height="120.212" viewBox="0 0 194.026 120.212"><defs><style>.a{fill:none;}.b{clip-path:url(#a);}.c{opacity:0.618;fill:url(#b);}.d{opacity:0.461;fill:url(#c);}.e{fill:url(#d);}</style><clipPath id="a"><rect class="a" width="194.026" height="120.212"/></clipPath><linearGradient id="b" x1="0.5" x2="0.5" y2="1" gradientUnits="objectBoundingBox"><stop offset="0" stop-color="#6b6b6b"/><stop offset="1"/></linearGradient><linearGradient id="c" x1="0.5" x2="0.5" y2="1" gradientUnits="objectBoundingBox"><stop offset="0" stop-color="#828282"/><stop offset="1"/></linearGradient><linearGradient id="d" x1="0.5" x2="0.5" y2="1" gradientUnits="objectBoundingBox"><stop offset="0" stop-color="#fff" stop-opacity="0"/><stop offset="1" stop-color="#fff" stop-opacity="0.129"/></linearGradient></defs><g class="b"><path class="c" d="M16,0H178.026a16,16,0,0,1,16,16v88.212a16,16,0,0,1-16,16H16a16,16,0,0,1-16-16V16A16,16,0,0,1,16,0Z"/><path class="d" d="M168.381,110.628H16a16,16,0,0,1-16-16V16A16,16,0,0,1,16,0H168.381a16,16,0,0,1,16,16V94.628a16,16,0,0,1-16,16ZM16.841.849a16,16,0,0,0-16,16V92.93a16,16,0,0,0,16,16h150.7a16,16,0,0,0,16-16V16.849a16,16,0,0,0-16-16Z" transform="translate(4.822 4.792)"/><path class="e" d="M0,103.729V16A16,16,0,0,1,16,0H177.247a16,16,0,0,1,16,16V39.484c-12.108-.417-25.651-1.35-40.471-2.28-21.353-1.339-40.823-.544-64.713-6.945-9.255-2.48-28.026,18.058-46.6,38.6C25.61,86.376,9.9,103.9.362,107.127A16.067,16.067,0,0,1,0,103.729Z" transform="translate(0.39 1.715)"/></g></svg>