<svg id="Group_368" data-name="Group 368" xmlns="http://www.w3.org/2000/svg" viewBox="0 0 216 47.199">
  <defs>
    <style>
      .cls-1 {
        fill: #1a1a1a;
      }

      .cls-2 {
        fill: #ef4135;
      }

      .cls-3 {
        fill: #7a1600;
      }

      .cls-4 {
        fill: #b32317;
      }
    </style>
  </defs>
  <path id="Path_274" data-name="Path 274" class="cls-1" d="M46.62,91.7a2.814,2.814,0,0,0-2.048.868,2.778,2.778,0,0,0-.891,2.093V105.57a8.971,8.971,0,0,1-.334,2.338,6.75,6.75,0,0,1-1.113,2.271,5.755,5.755,0,0,1-2.093,1.714,7.37,7.37,0,0,1-3.34.668H12.089a7.8,7.8,0,0,1-2.427-.356,6.5,6.5,0,0,1-1.959-1,5.174,5.174,0,0,1-1.314-1.4,2.9,2.9,0,0,1-.49-1.625,2.84,2.84,0,0,0-.868-2.093,2.84,2.84,0,0,0-2.093-.868,2.813,2.813,0,0,0-2.048.868A2.778,2.778,0,0,0,0,108.175,9.266,9.266,0,0,0,.824,112a10.927,10.927,0,0,0,2.249,3.317,10.593,10.593,0,0,0,3.273,2.293,9.274,9.274,0,0,0,3.963.868H38.026a9.4,9.4,0,0,0,4.787-1.224,12.453,12.453,0,0,0,3.651-3.161,15.063,15.063,0,0,0,3.095-8.994V94.683a2.84,2.84,0,0,0-.868-2.093A2.765,2.765,0,0,0,46.62,91.7Z" transform="translate(0 -71.284)"/>
  <path id="Path_275" data-name="Path 275" class="cls-1" d="M549.6,104.446a8.091,8.091,0,0,0-2.6-1.737,8.193,8.193,0,0,0-3.228-.646H509.859a2.311,2.311,0,0,1-1.625-.668,2.147,2.147,0,0,1-.712-1.6,2.125,2.125,0,0,1,.712-1.625,2.347,2.347,0,0,1,1.625-.646h37.358a2.961,2.961,0,0,0,0-5.922H509.971a7.977,7.977,0,0,0-3.184.646A8.3,8.3,0,0,0,504.2,94a8.7,8.7,0,0,0-1.759,2.583,8.1,8.1,0,0,0,1.759,8.95,8.7,8.7,0,0,0,2.583,1.759,7.977,7.977,0,0,0,3.184.646h34.041a2.281,2.281,0,0,1,2.271,2.315,2.054,2.054,0,0,1-.668,1.558,2.255,2.255,0,0,1-1.6.646h-37.4a2.961,2.961,0,0,0,0,5.922h37.158a8.259,8.259,0,0,0,3.228-.623,7.691,7.691,0,0,0,2.6-1.714,8.7,8.7,0,0,0,1.759-2.583,7.976,7.976,0,0,0,.646-3.184,8.274,8.274,0,0,0-.646-3.228A8.527,8.527,0,0,0,549.6,104.446Z" transform="translate(-390.082 -71.207)"/>
  <path id="Path_276" data-name="Path 276" class="cls-1" d="M801.5,92.568a2.961,2.961,0,0,0-5.054,2.093v9.44a14.931,14.931,0,0,0-3.651-1.469,15.185,15.185,0,0,0-3.829-.49H767.68a11.65,11.65,0,0,1-2.382-.267,7.421,7.421,0,0,1-2.427-.98,5.711,5.711,0,0,1-1.892-1.959,6.134,6.134,0,0,1-.757-3.228V94.661a2.961,2.961,0,0,0-5.922,0v20.861a2.961,2.961,0,0,0,5.922,0v-9.44a14.931,14.931,0,0,0,3.651,1.469,15.185,15.185,0,0,0,3.829.49h21.262a13.471,13.471,0,0,1,2.338.245,6.88,6.88,0,0,1,2.382.913,5.83,5.83,0,0,1,1.892,1.87,5.718,5.718,0,0,1,.868,3.028v1.4a2.961,2.961,0,0,0,5.922,0V94.639A2.757,2.757,0,0,0,801.5,92.568Z" transform="translate(-586.367 -71.284)"/>
  <g id="Group_366" data-name="Group 366" transform="translate(55.681)">
    <path id="Path_277" data-name="Path 277" class="cls-1" d="M299.28,100.472a14.776,14.776,0,0,0-2.115-4.23,12.207,12.207,0,0,0-3.339-3.161,8.978,8.978,0,0,0-4.475-1.38h-3.028L282,97.578h5.432a6.858,6.858,0,0,1,3.429.757,6.266,6.266,0,0,1,3.161,4.3,12.237,12.237,0,0,1,.267,2.427,12.414,12.414,0,0,1-.267,2.427,6.542,6.542,0,0,1-1.046,2.427,6.434,6.434,0,0,1-2.115,1.87,6.858,6.858,0,0,1-3.429.757H262.679a6.924,6.924,0,0,1-3.473-.757,6.579,6.579,0,0,1-2.093-1.87,6.389,6.389,0,0,1-1.046-2.427,12.237,12.237,0,0,1-.267-2.427,12.413,12.413,0,0,1,.267-2.427,6.322,6.322,0,0,1,3.139-4.3,6.811,6.811,0,0,1,3.473-.757h6.768L265.083,91.7h-3.7a9.043,9.043,0,0,0-4.72,1.224,12.4,12.4,0,0,0-3.562,3.161,14.4,14.4,0,0,0-2.249,4.3,15.124,15.124,0,0,0-.757,4.7,15.314,15.314,0,0,0,.735,4.609,14.776,14.776,0,0,0,2.115,4.23,12.207,12.207,0,0,0,3.34,3.161,8.978,8.978,0,0,0,4.475,1.38h27.963a9.044,9.044,0,0,0,4.72-1.224,12.4,12.4,0,0,0,3.562-3.161,14.4,14.4,0,0,0,2.249-4.3,15.124,15.124,0,0,0,.757-4.7A15.313,15.313,0,0,0,299.28,100.472Z" transform="translate(-250.1 -71.284)"/>
    <path id="Path_278" data-name="Path 278" class="cls-2" d="M340.435,110.1l7.057-9.4H333.4Z" transform="translate(-314.855 -78.281)"/>
    <path id="Path_279" data-name="Path 279" class="cls-3" d="M370.6,13.685l7.3,9.84h0l7.3-9.685L377.769,4Z" transform="translate(-343.773 -3.109)"/>
    <path id="Path_280" data-name="Path 280" class="cls-4" d="M342.523,53.9,336,62.583h13.046Z" transform="translate(-316.876 -41.9)"/>
    <path id="Path_281" data-name="Path 281" class="cls-2" d="M301.7,20.416,317.02,0H302.014L294.4,10.842Z" transform="translate(-284.537)"/>
  </g>
</svg>
