<svg xmlns="http://www.w3.org/2000/svg" width="453.873" height="64.074" viewBox="0 0 453.873 64.074"><defs><style>.a{fill:#efefef;}.b{fill:#03232d;}.c{fill:#691c00;}.d{fill:#9a281e;}.e{fill:#cf4338;}</style></defs><g transform="translate(-101.472 0)"><path class="a" d="M61.545,891.607H99.038c23.076,0,44.172,12.4,54.5,32.037h0c10.329,19.636,31.427,32.037,54.5,32.037H368.921c23.076,0,44.172-12.4,54.5-32.037h0c10.329-19.636,31.427-32.037,54.5-32.037h37.493" transform="translate(39.927 -891.607)"/><g transform="translate(253.472 21.051)"><path class="b" d="M61.751,58.5a1.978,1.978,0,0,0-1.419.593,1.924,1.924,0,0,0-.614,1.439v7.536a6.076,6.076,0,0,1-.233,1.608,4.728,4.728,0,0,1-.762,1.566,4.012,4.012,0,0,1-1.44,1.187,5.052,5.052,0,0,1-2.307.465H37.914a5.379,5.379,0,0,1-1.672-.254,4.39,4.39,0,0,1-1.355-.7,3.9,3.9,0,0,1-.911-.974,2.039,2.039,0,0,1-.339-1.121,2.021,2.021,0,0,0-3.45-1.44,1.928,1.928,0,0,0-.614,1.44,6.473,6.473,0,0,0,.571,2.646,7.669,7.669,0,0,0,1.545,2.286,7.528,7.528,0,0,0,2.265,1.587,6.459,6.459,0,0,0,2.731.593H55.824a6.532,6.532,0,0,0,3.3-.847,8.508,8.508,0,0,0,2.519-2.181,10.314,10.314,0,0,0,2.138-6.2v-7.2A2.025,2.025,0,0,0,61.751,58.5Z" transform="translate(-29.574 -44.404)"/><path class="b" d="M285.845,67.343a5.7,5.7,0,0,0-1.8-1.207,5.575,5.575,0,0,0-2.222-.444H258.409a1.574,1.574,0,0,1-1.121-.466,1.471,1.471,0,0,1-.487-1.1A1.449,1.449,0,0,1,257.288,63a1.613,1.613,0,0,1,1.121-.445h25.785a2.032,2.032,0,1,0,0-4.065h-25.7a5.429,5.429,0,0,0-2.2.445,5.715,5.715,0,0,0-2.984,2.985,5.676,5.676,0,0,0,0,4.4,5.715,5.715,0,0,0,2.984,2.985,5.457,5.457,0,0,0,2.2.444h23.5a1.509,1.509,0,0,1,1.1.466,1.558,1.558,0,0,1,.465,1.143,1.438,1.438,0,0,1-.465,1.08,1.544,1.544,0,0,1-1.1.445H256.167a2.033,2.033,0,1,0,0,4.065h25.657a5.813,5.813,0,0,0,2.222-.424,5.4,5.4,0,0,0,1.8-1.185,5.744,5.744,0,0,0,1.207-1.778,5.429,5.429,0,0,0,.444-2.2,5.584,5.584,0,0,0-.444-2.222A5.7,5.7,0,0,0,285.845,67.343Z" transform="translate(-175.724 -44.402)"/><path class="b" d="M397.8,59.09a2.033,2.033,0,0,0-3.473,1.439V67.05a10.076,10.076,0,0,0-2.519-1.017,10.77,10.77,0,0,0-2.646-.338H374.472a7.9,7.9,0,0,1-1.65-.191,5.209,5.209,0,0,1-1.673-.677,4.028,4.028,0,0,1-1.312-1.355,4.211,4.211,0,0,1-.529-2.222v-.72a2.032,2.032,0,1,0-4.065,0V74.924a2.032,2.032,0,1,0,4.065,0V68.4a10.025,10.025,0,0,0,2.519,1.017,10.71,10.71,0,0,0,2.646.338h14.693a8.772,8.772,0,0,1,1.609.17,4.927,4.927,0,0,1,1.651.635,4.25,4.25,0,0,1,1.312,1.292,3.964,3.964,0,0,1,.592,2.095v.974a2.032,2.032,0,1,0,4.065,0V60.529A1.959,1.959,0,0,0,397.8,59.09Z" transform="translate(-249.281 -44.404)"/><path class="b" d="M174.8,64.55a10.111,10.111,0,0,0-1.461-2.921,8.5,8.5,0,0,0-2.308-2.181,6.189,6.189,0,0,0-3.091-.953h-2.09l-2.976,4.065h3.755A4.753,4.753,0,0,1,169,63.09a4.37,4.37,0,0,1,1.461,1.291,4.54,4.54,0,0,1,.72,1.673,7.44,7.44,0,0,1,0,3.344,4.541,4.541,0,0,1-.72,1.673A4.358,4.358,0,0,1,169,72.362a4.751,4.751,0,0,1-2.371.529h-17.1a4.727,4.727,0,0,1-2.392-.529,4.415,4.415,0,0,1-1.439-1.291,4.519,4.519,0,0,1-.72-1.673,7.44,7.44,0,0,1,0-3.344,4.522,4.522,0,0,1,.72-1.673,4.424,4.424,0,0,1,1.439-1.291,4.727,4.727,0,0,1,2.392-.529H154.2L151.193,58.5h-2.553a6.308,6.308,0,0,0-3.261.847,8.421,8.421,0,0,0-2.455,2.181,9.874,9.874,0,0,0-1.545,2.964,10.177,10.177,0,0,0-.021,6.414,10.112,10.112,0,0,0,1.461,2.921A8.46,8.46,0,0,0,145.125,76a6.175,6.175,0,0,0,3.091.953h19.306a6.3,6.3,0,0,0,3.26-.847,8.442,8.442,0,0,0,2.456-2.181,9.9,9.9,0,0,0,1.545-2.963,10.172,10.172,0,0,0,.021-6.414Z" transform="translate(-102.407 -44.403)"/><path class="b" d="M182.753,69l4.863-6.483h-9.727Z" transform="translate(-126.65 -47.036)"/><path class="c" d="M194.449,26.181l5.04,6.792,0,.005,0-.005,5.028-6.686L199.393,19.5Z" transform="translate(-137.49 -18.879)"/><path class="d" d="M183.552,41.7l-4.5,5.994h9Z" transform="translate(-127.411 -33.408)"/><path class="e" d="M165.572,31.8,176.157,17.7H165.794l-5.262,7.49Z" transform="translate(-115.29 -17.703)"/></g></g></svg>