<svg id="Layer_1" data-name="Layer 1" xmlns="http://www.w3.org/2000/svg" viewBox="0 0 194.43 168.98"><defs><style>.cls-1{fill:#fff;}</style></defs><title>Ind_sports_white</title><path class="cls-1" d="M202.86-132.71c-1.13.06-2.28.05-3.38.19a55,55,0,0,0-6.24,1.14c-2,.5-4,1.11-5.88,1.78s-3.72,1.42-5.46,2.2-3.4,1.63-5,2.48-2.81,1.72-4.2,2.59A44.14,44.14,0,0,0,203-111.18c.11,0,.22,0,.34,0l-.5-21.5Z" transform="translate(-156.41 260.8)"/><path class="cls-1" d="M202.67-134c-1.13.08-2.3.05-3.47.18a64.14,64.14,0,0,0-6.36,1.16,53.06,53.06,0,0,0-6,1.81,56.19,56.19,0,0,0-5.62,2.21c-1.77.76-3.49,1.61-5.06,2.46s-2.87,1.69-4.33,2.59A43.89,43.89,0,0,1,156.73-152a.87.87,0,0,0,.36.05c3.53.43,7.78.85,12.54,1.26s10.12.76,15.75,1c5.36.2,11.09.28,16.91.21Z" transform="translate(-156.41 260.8)"/><path class="cls-1" d="M202.41-150.73c-5.87.07-11.59,0-17-.2-5.62-.24-10.94-.59-15.75-1s-9.06-.83-12.59-1.26a1.14,1.14,0,0,1-.36,0c-.13-1.28-.26-2.55-.28-3.88a43.1,43.1,0,0,1,9-27.36c.15.2.26.35.42.6a50.81,50.81,0,0,0,4.18,4.46A44.49,44.49,0,0,0,175.6-175c1,.69,2.17,1.33,3.36,2s2.42,1.22,3.71,1.76,2.68,1,4.12,1.39a37.69,37.69,0,0,0,4.51,1c1.59.27,3.23.44,5,.56s3.52.08,5.36,0c.15,0,.26-.06.36-.06Z" transform="translate(-156.41 260.8)"/><path class="cls-1" d="M202-169.62c-.15,0-.25.06-.35.06-1.84.09-3.58.07-5.21,0a48.22,48.22,0,0,1-4.87-.56,37.09,37.09,0,0,1-4.36-1,33.84,33.84,0,0,1-4-1.4,38.8,38.8,0,0,1-3.67-1.76c-1.13-.64-2.22-1.28-3.21-2a43.78,43.78,0,0,1-5.45-4.42,49.19,49.19,0,0,1-4-4.46,5.37,5.37,0,0,0-.42-.61A44.1,44.1,0,0,1,201-203.71h.15Z" transform="translate(-156.41 260.8)"/><path class="cls-1" d="M234.64-122.9a44.46,44.46,0,0,1-30,11.79l0-21.49c1.07-.05,2.09-.15,3.22-.1a38.21,38.21,0,0,1,6.74.71,43.14,43.14,0,0,1,6.89,1.84,29.8,29.8,0,0,1,3.47,1.43,29.59,29.59,0,0,1,3.47,1.74,33.75,33.75,0,0,1,3.48,2.09C232.8-124.28,233.72-123.56,234.64-122.9Z" transform="translate(-156.41 260.8)"/><path class="cls-1" d="M250-153.59a43.38,43.38,0,0,1-14.6,29.41c-.92-.66-1.84-1.37-2.81-2-1.17-.76-2.35-1.48-3.52-2.09s-2.4-1.23-3.58-1.74a35.43,35.43,0,0,0-3.57-1.43,44.63,44.63,0,0,0-7.05-1.83,46.72,46.72,0,0,0-6.94-.72c-1.12-.05-2.2,0-3.27.1l0-15.47h.77c3.06,0,6.17,0,9.34-.1s6.28-.26,9.45-.46,6.28-.46,9.39-.82,6.23-.81,9.24-1.38C245.26-152.51,247.66-153,250-153.59Z" transform="translate(-156.41 260.8)"/><path class="cls-1" d="M250.22-158c0,1.07-.11,2.1-.21,3.12q-3.52.84-7.2,1.53c-3,.51-6.13,1-9.24,1.33s-6.23.61-9.39.81-6.34.41-9.45.46-6.28.16-9.34.11h-.77l-.05-17.62a40.18,40.18,0,0,0,5.1-.41,46.09,46.09,0,0,0,5-1.07,45.07,45.07,0,0,0,4.59-1.58,46.42,46.42,0,0,0,4.19-2,34.31,34.31,0,0,0,3.83-2.29c1.23-.82,2.35-1.69,3.47-2.56s2.1-1.78,3-2.7,1.89-1.89,2.71-2.81a41.29,41.29,0,0,0,2.6-3.22A43.32,43.32,0,0,1,250.22-158Z" transform="translate(-156.41 260.8)"/><path class="cls-1" d="M237.5-189c-.79,1.08-1.48,2.17-2.43,3.26-.8,1-1.65,1.93-2.54,2.87s-1.86,1.82-2.91,2.77-2.11,1.78-3.26,2.62-2.37,1.63-3.63,2.37-2.62,1.44-4,2.08a42.26,42.26,0,0,1-4.41,1.68,35.73,35.73,0,0,1-4.82,1.17,38.48,38.48,0,0,1-4.9.52l-.82-34.1A44.14,44.14,0,0,1,237.5-189Z" transform="translate(-156.41 260.8)"/><path class="cls-1" d="M326.05-113.7c-1,.34-1.87.65-3.26,1a77.89,77.89,0,0,1-8.39,1.81c-1.59.25-3.3.46-5.06.61s-3.58.26-5.48.28-3.86,0-5.86-.18-4.07-.39-6.15-.75a59.92,59.92,0,0,1-6.33-1.45,58.32,58.32,0,0,1-6.43-2.29,57.64,57.64,0,0,1-6.45-3.2,58.29,58.29,0,0,1-6.39-4.23,66.39,66.39,0,0,1-5.66-4.91,44.51,44.51,0,0,0,43.73,35.16A44.9,44.9,0,0,0,323-95.89a39.81,39.81,0,0,0,1.71-4.38,35.48,35.48,0,0,0,1.11-4.37,30.37,30.37,0,0,0,.46-4.12,26.68,26.68,0,0,0-.06-3.81c0-.39-.11-.75-.16-1.14Z" transform="translate(-156.41 260.8)"/><path class="cls-1" d="M261.31-149.07a45.76,45.76,0,0,0-1.44,12.3,43.09,43.09,0,0,0,.91,8.86,64.81,64.81,0,0,0,5.66,4.92,61.84,61.84,0,0,0,6.39,4.23,57.64,57.64,0,0,0,6.45,3.2,58.32,58.32,0,0,0,6.43,2.29,62.51,62.51,0,0,0,6.33,1.45c2.08.36,4.14.6,6.14.75s4,.2,5.87.18,3.72-.12,5.48-.28,3.46-.36,5.06-.61a78.2,78.2,0,0,0,8.38-1.81c1.39-.38,2.23-.69,3.27-1-.11-.81-.2-1.63-.37-2.4a29.62,29.62,0,0,0-.88-3.22,31.16,31.16,0,0,0-1.17-2.92,31.15,31.15,0,0,0-2.82-4.89,32.13,32.13,0,0,0-2.89-3.58,24.14,24.14,0,0,0-3.14-2.92s-1.27.2-3.49.43-5.33.5-8.88.64c-1.78.07-3.67.12-5.61.1s-3.93-.11-5.92-.26-4-.39-5.89-.72a42,42,0,0,1-5.52-1.27,29.19,29.19,0,0,1-5-2.11,36.36,36.36,0,0,1-4.51-2.82,44.8,44.8,0,0,1-4-3.26c-1.23-1.12-2.35-2.25-3.37-3.36-.53-.58-1-1.32-1.52-1.88Z" transform="translate(-156.41 260.8)"/><path class="cls-1" d="M323.54-156.23c-.7,1.36-1.34,2.7-1.91,4s-1.12,2.73-1.59,4a71.76,71.76,0,0,0-2.16,7c-.51,2-.83,3.71-1,4.88s-.27,1.84-.27,1.84a23.88,23.88,0,0,1,3,2.95,33.34,33.34,0,0,1,2.78,3.63,31.79,31.79,0,0,1,2.72,5,27.78,27.78,0,0,1,1.13,3,28.75,28.75,0,0,1,.86,3.26,30.57,30.57,0,0,1,.5,3.58,31,31,0,0,1,.06,3.87,34.43,34.43,0,0,1-.44,4.16,37.37,37.37,0,0,1-1.07,4.43,42.77,42.77,0,0,1-1.66,4.43A43.57,43.57,0,0,0,340.11-109c0-.07,0-.13,0-.2a58,58,0,0,0,.76-5.88,51.78,51.78,0,0,0,.08-6.5,45.57,45.57,0,0,0-.88-6.9c-.25-1.17-.55-2.34-.91-3.52a37.16,37.16,0,0,0-1.27-3.52,66.14,66.14,0,0,0-3.07-6.46,58.14,58.14,0,0,0-3.29-5.31,52.17,52.17,0,0,0-3.3-4.25q-1.63-1.87-3.14-3.28c-.57-.54-1.07-.92-1.59-1.37Z" transform="translate(-156.41 260.8)"/><path class="cls-1" d="M323.88-157.68c.54.44,1.06.82,1.65,1.35,1,.94,2.13,2,3.25,3.25a50.81,50.81,0,0,1,3.42,4.19,56.87,56.87,0,0,1,3.41,5.25,62.17,62.17,0,0,1,3.18,6.38,36.84,36.84,0,0,1,1.31,3.48c.37,1.16.69,2.32.95,3.48a42.14,42.14,0,0,1,.9,6.82,47.08,47.08,0,0,1-.08,6.42,53.92,53.92,0,0,1-.78,5.8l0,.2a43.27,43.27,0,0,0,9.79-27.33A43.67,43.67,0,0,0,335-172c-.61.56-1.28,1.09-1.85,1.67a51.68,51.68,0,0,0-3.59,4c-1.1,1.37-2.11,2.78-3,4.19s-1.77,2.83-2.54,4.23c0,.07-.06.14-.1.2Z" transform="translate(-156.41 260.8)"/><path class="cls-1" d="M319.87-181a32.22,32.22,0,0,0-4.77,2.15,34.74,34.74,0,0,0-4.4,2.94,40.3,40.3,0,0,0-3.87,3.51,44.58,44.58,0,0,0-3.42,4,52,52,0,0,0-3,4.28c-.93,1.47-1.78,3-2.57,4.48s-1.52,3.05-2.19,4.56c-1.33,3-2.44,6-3.34,8.8s-1.58,5.37-2.1,7.57c-.43,1.77-.35,1.75-.58,2.94.76.08,1.5.22,2.27.28,2,.16,3.93.24,5.84.26s3.77,0,5.53-.1c3.5-.13,6.58-.4,8.76-.65s3.49-.44,3.44-.44.08-.67.28-1.85.53-2.87,1.06-4.93a71.52,71.52,0,0,1,2.2-7c.48-1.31,1-2.67,1.63-4.06s1.29-2.8,2-4.24,1.59-2.88,2.51-4.32,1.91-2.87,3-4.28a51.75,51.75,0,0,1,3.54-4.11c.56-.59,1.22-1.13,1.82-1.71a43.86,43.86,0,0,0-13.71-8Z" transform="translate(-156.41 260.8)"/><path class="cls-1" d="M269.52-143.73c.36.29.68.6,1.05.88A37,37,0,0,0,275-140a28.81,28.81,0,0,0,4.93,2.14,41.25,41.25,0,0,0,5.47,1.29c1.16.2,2.36.31,3.55.45.23-1.19.15-1.16.58-2.93.53-2.19,1.21-4.76,2.11-7.53a88.72,88.72,0,0,1,3.36-8.76c.67-1.51,1.4-3,2.19-4.54s1.65-3,2.57-4.46,1.93-2.89,3-4.26a46.13,46.13,0,0,1,3.43-4,39.05,39.05,0,0,1,3.89-3.49,34.79,34.79,0,0,1,4.41-2.93,31.86,31.86,0,0,1,4.79-2.14,43.72,43.72,0,0,0-14.75-2.58,43,43,0,0,0-11.91,1.78c-.36.22-.76.4-1.12.64a34.53,34.53,0,0,0-3.87,3.07,42.59,42.59,0,0,0-3.45,3.53c-1.08,1.25-2.1,2.57-3.05,3.92s-1.83,2.73-2.65,4.14-1.59,2.84-2.3,4.26a86.32,86.32,0,0,0-3.59,8.29c-1,2.64-1.75,5.11-2.35,7.21-.54,1.87-.49,1.92-.76,3.11Z" transform="translate(-156.41 260.8)"/><path class="cls-1" d="M268.9-143.9c.28-1.2.23-1.25.78-3.13.61-2.11,1.4-4.59,2.39-7.24a88.35,88.35,0,0,1,3.6-8.32c.71-1.43,1.47-2.86,2.29-4.27s1.7-2.79,2.64-4.14,1.95-2.66,3-3.91a40.42,40.42,0,0,1,3.4-3.52,33.62,33.62,0,0,1,3.81-3c.34-.24.73-.42,1.09-.64a44.07,44.07,0,0,0-30.15,30.65c.45.58.67,1,1.18,1.59,1,1.14,2,2.32,3.19,3.48.85.86,1.81,1.67,2.76,2.49Z" transform="translate(-156.41 260.8)"/><path class="cls-1" d="M307.66-256.76a99.9,99.9,0,0,0-18.73-3.69,59.17,59.17,0,0,0-17.57.71,235.65,235.65,0,0,0-11.52,22c-.07.15-.12.35-.19.52l9.28,3a13.63,13.63,0,0,1,5.11-6.48,5.91,5.91,0,0,1,2.36,0c2.15.64-.61,3.54-.61,3.54a7.53,7.53,0,0,0-1.84,1.49l3.75,1.22a14,14,0,0,1,3.46-3.42,6,6,0,0,1,2.38,0c2.16.64-.6,3.55-.6,3.55a7.12,7.12,0,0,0-1.44,1.08l3.19,1,1-3c1.1-1.18,1.87-1.52,2.42-1.41,1.21.25,1.33,2.62,1.33,2.62l-1.05,3,2.92.94,1-3.13c1.1-1.18,1.86-1.51,2.42-1.39,1.21.24,1.33,2.6,1.33,2.6l-1.1,3.11,3.8,1.24.92-2.78c1.11-1.18,1.89-1.5,2.44-1.38,1.21.24,1.33,2.6,1.33,2.6l-1,2.76,2.82.91.92-2.77c1.1-1.18,1.88-1.5,2.43-1.38,1.21.24,1.31,2.59,1.31,2.59l-.95,2.76L313-223a7.41,7.41,0,0,0-.6-2.2s-.49-3.68,1.36-3.3a5.12,5.12,0,0,1,2.16,1.45,14,14,0,0,1,.81,5.26l3.15,1a7,7,0,0,0-.64-2.53s-.53-4,1.59-3.22a5.91,5.91,0,0,1,1.92,1.37,13.5,13.5,0,0,1,.29,8.45l9.78,3.17c0-.08,0-.18.06-.25a232.36,232.36,0,0,0,4-24.77c-.51-.46-1-.91-1.57-1.32C329-244.7,323-252,307.66-256.76Zm35.63,25.87a75.29,75.29,0,0,1-4.09,19.4l11,3.56c.06-.23.09-.46.13-.69a21.31,21.31,0,0,0-1.44-11.27,58,58,0,0,0-5.57-11Zm-82.12-26a54.15,54.15,0,0,0-14.73,8.15,11.67,11.67,0,0,0-3.64,6l10.46,3.38a77.21,77.21,0,0,1,7.91-17.54Zm-18.61,15.08a16.73,16.73,0,0,0-.54,3.48c0,1.36,2.91,11,6.55,16.81.21.34.48.75.78,1.2A96,96,0,0,1,253-238.41l-10.4-3.37Zm16.77,5.43c-1.68,5.47-2.84,17.87-3.36,24.39,8.4,9.08,23.3,20.74,45.09,22a102.88,102.88,0,0,0,19.06-.41c3.42-5.37,10.53-16.83,12.39-22.32l-9.84-3.18a12.88,12.88,0,0,1-5,5.85s-5,0-1.64-3.46a11.5,11.5,0,0,0,1.95-2l-2.85-.93a13.44,13.44,0,0,1-4.3,4.51s-5.06,0-1.65-3.44a11.35,11.35,0,0,0,2.17-2.29L307.17-219l-1.33,3.79c-3.8,3.92-3.47-1.35-3.47-1.35l1.19-3.61-2.92-.94-1.33,3.79c-3.8,3.91-3.47-1.35-3.47-1.35l1.19-3.61-3.91-1.27-1.2,3.44c-3.8,3.91-3.47-1.35-3.47-1.35l1.07-3.25-3-1-1.26,3.58c-3.8,3.92-3.47-1.35-3.47-1.35l1.12-3.4L279.27-228a11.47,11.47,0,0,0,.39,3.57c.76,4.78-3.35,1.82-3.35,1.82a13.26,13.26,0,0,1-.78-6.6l-3.39-1.1a12,12,0,0,0,.4,3c.76,4.78-3.37,1.84-3.37,1.84a12.75,12.75,0,0,1-.51-7.86l-9.33-3Zm79.55,25.76a94.87,94.87,0,0,1-8.73,18.05c7.61-2.51,12.51-6.43,17.21-10.74a9.8,9.8,0,0,0,2.51-3.75l-11-3.56Z" transform="translate(-156.41 260.8)"/><path class="cls-1" d="M213.62-248.69a17.42,17.42,0,0,0-11.23,4.1l0,.05s-.22.65-.32,1.07a.6.6,0,0,1-.48.46l-1.23.41A17.89,17.89,0,0,0,196-230.84a17.9,17.9,0,0,0,4.22,11.58.43.43,0,0,1,.16.11l.08.16c.32.37.66.73,1,1.07l.91.16c.61.24.08.4.08.4l-.49-.1A17.36,17.36,0,0,0,213.62-213a17.45,17.45,0,0,0,11.92-4.72c-.53.08-1.09.19-1.09.19s-.53-.15.08-.39l1.23-.21a.59.59,0,0,0,.44-.47l.33-.71a.29.29,0,0,1,.49,0,17.87,17.87,0,0,0,4.21-11.55,17.93,17.93,0,0,0-4.56-12,.23.23,0,0,1-.11.07l-1.25-.41a.61.61,0,0,1-.48-.46c-.1-.42-.32-1.07-.32-1.07a.22.22,0,0,1,.08-.11,17.4,17.4,0,0,0-11-3.89ZM224-244.5c.08,0,.18.06.3.26l.29,1s.06.27.6.4l.91.32s.4.24,0,.42l-1.39-.47a.7.7,0,0,1-.53-.56c-.12-.48-.36-1.25-.36-1.25s.07-.16.2-.16Zm1,0,.22.74s.05.23.54.34l.57.19A16,16,0,0,0,225-244.46Zm-22,.19c.13,0,.2.16.2.16s-.25.77-.36,1.25a.69.69,0,0,1-.53.55l-1.39.47c-.42-.18,0-.41,0-.41l.91-.32c.55-.13.6-.41.6-.41l.3-1c.12-.2.22-.26.3-.26Zm-1.11.14a13.77,13.77,0,0,0-1,1l.31-.1c.49-.11.54-.34.54-.34l.17-.56Zm21.06.4c.1,0,.22.07.37.29l.35,1.16s.07.31.73.45l1.09.36s.48.26,0,.47l-1.68-.54a.82.82,0,0,1-.64-.61c-.14-.54-.43-1.4-.43-1.4s.08-.19.23-.19Zm-18.95.15c.15,0,.23.18.23.18s-.29.86-.43,1.4a.82.82,0,0,1-.64.62l-1.67.53c-.51-.21,0-.47,0-.47l1.09-.36c.66-.14.73-.44.73-.44l.36-1.17c.15-.22.26-.29.36-.29Zm18.09,1.39c.1,0,.25,0,.46.22l.63,1.13s.14.3.9.3l1.27.14s.58.16.06.48l-1.94-.18a.91.91,0,0,1-.83-.5c-.27-.53-.77-1.35-.77-1.35s0-.21.22-.24Zm-17.29.15c.22,0,.28.24.28.24s-.5.83-.76,1.36a.91.91,0,0,1-.84.49l-1.94.18c-.52-.32.06-.48.06-.48l1.28-.13c.76,0,.89-.31.89-.31l.63-1.12a.64.64,0,0,1,.4-.23Zm16.38,1.4c.11,0,.25,0,.45.23l.64,1.13s.14.3.89.3l1.28.14s.58.16.06.48l-2-.18a.91.91,0,0,1-.83-.5c-.26-.53-.76-1.35-.76-1.35s.05-.21.22-.25Zm-15.47.15c.22,0,.29.25.29.25s-.51.83-.77,1.36a.89.89,0,0,1-.83.49l-1.95.18c-.52-.32.06-.48.06-.48l1.28-.14c.75,0,.9-.3.9-.3l.63-1.13a.71.71,0,0,1,.39-.23Zm15,1.94a.74.74,0,0,1,.37.14l.87,1s.2.27.93.1l1.28-.15s.6,0,.17.46l-1.94.25a.91.91,0,0,1-.92-.3c-.37-.45-1-1.15-1-1.15s0-.32.28-.31Zm-14.52.15c.27,0,.28.31.28.31s-.68.7-1.05,1.15a.91.91,0,0,1-.92.3l-1.94-.25c-.43-.43.17-.46.17-.46l1.28.15c.73.17.93-.1.93-.1l.87-1a.77.77,0,0,1,.38-.14Zm14.18,1.91a.64.64,0,0,1,.39.11l1,1s.24.29.94,0l1.24-.34s.6,0,.23.52l-1.88.53a.81.81,0,0,1-1-.24c-.43-.49-1.19-1.22-1.19-1.22s0-.36.23-.38Zm-13.92.15c.36,0,.31.39.31.39s-.77.72-1.2,1.21a.81.81,0,0,1-1,.24l-1.88-.53c-.37-.55.23-.52.23-.52l1.24.34c.7.28.94,0,.94,0l1-1a.93.93,0,0,1,.32-.11Zm13.64,2.6a.69.69,0,0,1,.34.07l1.24,1s.3.31.91-.19l1.12-.66s.56-.17.35.59l-1.68,1a.7.7,0,0,1-1-.09c-.55-.51-1.48-1.26-1.48-1.26s-.16-.52.19-.54Zm-13.3.14c.37,0,.2.56.2.56s-.92.74-1.47,1.25a.7.7,0,0,1-1,.09l-1.69-1c-.21-.76.35-.58.35-.58l1.13.66c.6.49.9.19.9.19l1.25-1a1,1,0,0,1,.24-.08Zm16.71,2.27c.15,0,.33.09.25.57l-1.56,1.23a.7.7,0,0,1-1,0c-.6-.45-1.61-1.09-1.61-1.09s-.33-.77.48-.53l1.34.9s.33.27.88-.29l1-.78a.54.54,0,0,1,.17,0Zm-20.11.15a.54.54,0,0,1,.17,0l1,.78c.55.56.89.29.89.29l1.34-.9c.81-.23.47.53.47.53s-1,.64-1.61,1.09a.7.7,0,0,1-1,0l-1.56-1.23c-.08-.48.1-.57.25-.57Zm20.15,2c.15,0,.33.08.26.57l-1.55,1.25a.7.7,0,0,1-1,0c-.61-.44-1.62-1.07-1.62-1.07s-.34-.75.47-.53l1.35.89s.34.26.89-.3l1-.8a.54.54,0,0,1,.17,0Zm-20.19.15a.54.54,0,0,1,.17,0l1,.8c.55.56.89.3.89.3l1.35-.89c.81-.22.47.54.47.54s-1,.62-1.62,1.06a.7.7,0,0,1-1,0l-1.55-1.24C203-228.91,203.22-229,203.37-229Zm20.6,2.17h.1c.12,0,.25.1.26.41L223-225.26a.81.81,0,0,1-1,.14c-.68-.26-1.8-.61-1.8-.61s-.46-.53.38-.46l1.5.5s.37.16.82-.35l.89-.74a.46.46,0,0,1,.16-.05Zm-21.1.15a.6.6,0,0,1,.26.05l.88.74c.45.51.83.35.83.35l1.49-.5c.84-.07.38.47.38.47s-1.11.35-1.79.61a.8.8,0,0,1-1-.15l-1.34-1.16c0-.31.15-.39.27-.41Zm21.25,1.47c.13,0,.28,0,.38.32l-.92,1.49a.81.81,0,0,1-.9.44c-.72,0-1.89,0-1.89,0s-.6-.37.22-.56l1.58,0s.4,0,.68-.58l.63-1a.55.55,0,0,1,.22-.13Zm-21.41.15a.48.48,0,0,1,.32.13l.63,1c.28.62.68.58.68.58l1.58,0c.82.19.22.56.22.56s-1.17,0-1.89.05-.9-.43-.9-.43l-.92-1.5c.07-.22.18-.3.28-.32Zm22.07,1.91c.09,0,.19.06.28.24l-.75,1.28s-.12.4-.8.42-1.76.08-1.76.08-.6-.26.16-.47l1.47-.07a.71.71,0,0,0,.6-.52l.5-.83a.45.45,0,0,1,.3-.13Zm-22.63.15a.45.45,0,0,1,.3.13l.51.83c.21.52.59.52.59.52l1.47.08c.76.2.16.46.16.46s-1.08-.07-1.76-.08-.8-.42-.8-.42l-.75-1.28c.09-.17.19-.23.28-.24Zm23,1.15a.36.36,0,0,1,.32.19l-.54,1.38s-.06.41-.73.53-1.73.35-1.73.35-.63-.17.08-.49l1.44-.29a.72.72,0,0,0,.52-.6l.38-.91a.41.41,0,0,1,.26-.16Zm-23.31.15a.45.45,0,0,1,.27.17l.37.9a.72.72,0,0,0,.52.6l1.44.29c.71.32.08.5.08.5s-1.06-.24-1.73-.35-.73-.53-.73-.53l-.53-1.39c.11-.15.21-.2.31-.19Zm24.11,1.26c.09,0,.19,0,.3.17l-.53,1.2s-.07.36-.7.45-1.64.28-1.64.28-.58-.16.1-.42l1.36-.24a.63.63,0,0,0,.49-.51l.36-.8a.44.44,0,0,1,.26-.13Zm-24.91.15a.42.42,0,0,1,.26.14l.36.79a.63.63,0,0,0,.49.51l1.37.24c.68.27.09.43.09.43s-1-.19-1.64-.28-.69-.46-.69-.46l-.54-1.2a.39.39,0,0,1,.3-.17Z" transform="translate(-156.41 260.8)"/></svg>