<?xml version="1.0" standalone="no"?>
<!DOCTYPE svg PUBLIC "-//W3C//DTD SVG 1.1//EN" "http://www.w3.org/Graphics/SVG/1.1/DTD/svg11.dtd" >
<svg xmlns="http://www.w3.org/2000/svg">
<metadata>Generated by IcoMoon</metadata>
<defs>
<font id="josh-icons" horiz-adv-x="1024">
<font-face units-per-em="1024" ascent="960" descent="-64" />
<missing-glyph horiz-adv-x="1024" />
<glyph unicode="&#x20;" horiz-adv-x="512" d="" />
<glyph unicode="&#xe900;" glyph-name="bars" d="M0 755.2h1024v-102.391h-1024v102.391zM0 499.208h1024v-102.391h-1024v102.391zM0 243.215h1024v-102.422h-1024v102.422z" />
<glyph unicode="&#xe901;" glyph-name="location" horiz-adv-x="751" d="M118.349 857.073c72.038 72.038 154.403 102.908 252.138 102.908 94.46 0.975 185.335-36.118 252.131-102.915s103.89-157.672 102.915-252.131c-0.57-58.435-12.815-116.167-36.014-169.803-25.698-62.557-56.684-122.809-92.622-180.1-36.014-56.608-72.038-108.062-102.908-159.516-25.824-41.81-55.084-81.396-87.478-118.349l-41.167-41.167c-10.297 10.287-20.584 25.727-41.167 46.311s-46.311 56.598-87.478 113.195c-41.167 56.598-77.181 108.062-108.052 159.516-33.245 56.185-62.477 114.65-87.478 174.957-25.727 61.751-41.167 123.492-41.167 174.946 15.44 97.785 46.311 185.253 118.349 252.148zM282.978 512.313c44.566-48.642 117.456-58.647 173.481-23.813s79.297 104.63 55.39 166.117c-23.908 61.487-88.216 97.229-153.057 85.067s-111.826-68.778-111.828-134.749c-1.424-34.549 11.641-68.124 36.045-92.622h-0.031z" />
<glyph unicode="&#xe902;" glyph-name="mail" d="M921.6 857.6c55.978-1.366 101.034-46.422 102.4-102.4v-614.4c-1.366-55.978-46.422-101.034-102.4-102.4h-819.2c-55.978 1.366-101.034 46.422-102.4 102.4v614.4c1.366 55.978 46.422 101.034 102.4 102.4h819.2zM921.6 652.8v102.4l-409.6-256-409.6 256v-102.4l409.6-256 409.6 256z" />
<glyph unicode="&#xe903;" glyph-name="phone" d="M233.6 515.006c74.461-146.638 193.625-265.8 340.27-340.27l113.406 113.406c12.439 15.428 34.118 19.769 51.546 10.324 59.579-21.107 122.395-31.579 185.6-30.93 28.19-0.674 50.886-23.357 51.578-51.546v-180.454c-0.691-28.174-23.367-50.852-51.546-51.546-483.215 2.015-874.448 393.239-876.454 876.454 0.691 28.173 23.367 50.851 51.546 51.546h180.454c28.173-0.691 50.851-23.367 51.546-51.546 0.211-63.132 10.657-125.816 30.93-185.6 5.276-17.83 1.41-37.118-10.324-51.546l-118.552-108.302z" />
<glyph unicode="&#xe904;" glyph-name="angle-double-down" d="M512 105.024l488.351 488.351 23.649-23.649-506.714-506.714-5.286 5.286-5.286-5.286-506.714 506.714 23.649 23.649 488.351-488.351zM512 343.649l488.351 488.351 23.649-23.649-506.714-506.714-5.286 5.286-5.286-5.286-506.714 506.714 23.649 23.649 488.351-488.351z" />
<glyph unicode="&#xe905;" glyph-name="angle-double-left" d="M181.327 447.523l471.512-471.512-22.833-22.833-489.241 489.241 5.104 5.104-5.104 5.104 489.241 489.241 22.833-22.833-471.512-471.512zM411.724 447.523l471.512-471.512-22.833-22.833-489.241 489.241 5.104 5.104-5.104 5.104 489.241 489.241 22.833-22.833-471.512-471.512z" />
<glyph unicode="&#xe906;" glyph-name="angle-double-right" d="M842.673 447.523l-471.512 471.512 22.833 22.833 489.241-489.241-5.104-5.104 5.104-5.104-489.241-489.241-22.833 22.833 471.512 471.512zM612.276 447.523l-471.512 471.512 22.833 22.833 489.241-489.241-5.104-5.104 5.104-5.104-489.241-489.241-22.833 22.833 471.512 471.512z" />
<glyph unicode="&#xe907;" glyph-name="angle-double-up" d="M512 789.989l-488.351-488.351-23.649 23.649 506.714 506.714 5.286-5.286 5.286 5.286 506.714-506.714-23.649-23.649-488.351 488.351zM512 551.364l-488.351-488.351-23.649 23.649 506.714 506.714 5.286-5.286 5.286 5.286 506.714-506.714-23.649-23.649-488.351 488.351z" />
<glyph unicode="&#xe908;" glyph-name="angle-down" d="M520.885 232.029l472.598 472.598 22.886-22.886-490.368-490.368-5.115 5.115-5.115-5.115-490.368 490.368 22.886 22.886 472.598-472.598z" />
<glyph unicode="&#xe909;" glyph-name="angle-left" horiz-adv-x="546" d="M42.011 448l488.351-488.351-23.649-23.649-506.714 506.714 5.286 5.286-5.286 5.286 506.714 506.714 23.649-23.649-488.351-488.351z" />
<glyph unicode="&#xe90a;" glyph-name="angle-right" horiz-adv-x="546" d="M488.351 448l-488.351-488.351 23.649-23.649 506.714 506.714-5.286 5.286 5.286 5.286-506.714 506.714-23.649-23.649 488.351-488.351z" />
<glyph unicode="&#xe90b;" glyph-name="angle-up" d="M520.885 663.971l472.598-472.598 22.886 22.886-490.368 490.368-5.115-5.115-5.115 5.115-490.368-490.368 22.886-22.886 472.598 472.598z" />
<glyph unicode="&#xe90c;" glyph-name="arrow-down" d="M767.734 206.428l-255.734-255.734-255.734 255.734 44.753 44.753 179.014-179.014v863.325h63.933v-863.325l179.014 179.014z" />
<glyph unicode="&#xe90d;" glyph-name="arrow-left" d="M270.633 192.551l-264.258 264.258 264.258 264.258 46.245-46.245-184.981-184.981h892.102v-66.065h-892.102l184.981-184.981z" />
<glyph unicode="&#xe90e;" glyph-name="arrow-right" d="M753.367 721.067l264.258-264.258-264.258-264.258-46.245 46.245 184.981 184.981h-892.102v66.065h892.102l-184.981 184.981z" />
<glyph unicode="&#xe90f;" glyph-name="arrow-up" horiz-adv-x="546" d="M537.325 698.175l-264.258 264.258-264.258-264.258 46.245-46.245 184.981 184.981v-892.102h66.065v892.102l184.981-184.981z" />
<glyph unicode="&#xe910;" glyph-name="linkedin" d="M517.075 960c85.012-0.377 168.533-22.421 242.713-64.058 32.946-19.221 63.964-41.587 92.622-66.786 31.445-27.425 59.16-58.874 82.432-93.539 28.055-39.159 49.174-82.871 62.432-129.217 8.822-28.125 15.766-56.808 20.787-85.858 5.576-34.422 7.234-69.367 4.94-104.164-6.145-79.118-29.718-155.884-69.019-224.766-52.949-92.399-133.45-165.834-230.183-209.978-42.815-19.714-88.221-33.187-134.84-40.010-15.536-1.938-30.882-2.919-46.299-3.589-5.632 0-11.169-1.747-16.706-2.034h-29.116c-4.773 0-9.713 2.154-14.463 2.154-42.912 0.728-85.465 7.99-126.201 21.536-116.444 36.908-215.667 114.759-279.394 219.215-16.956 27.848-31.381 57.167-43.101 87.605-9.649 26.386-17.464 53.411-23.388 80.881-3.045 15.198-5.117 30.576-6.205 46.040-1.551 13.233-3.604 26.585-4.081 39.914-0.119 31.794 2.444 63.542 7.661 94.903 4.692 32.657 12.762 64.736 24.080 95.717 15.134 41.907 35.872 81.561 61.645 117.875 12.311 18.196 26.285 35.204 41.741 50.802 28.883 31.353 61.148 59.394 96.202 83.608 42.472 27.961 89.015 49.143 137.967 62.79 27.765 7.331 55.935 13.020 84.365 17.038 19.808 2.848 39.426 2.56 63.411 3.924zM541.955 201.12v191.805c-1.376 23.528 8.851 46.241 27.38 60.806 14.035 13.184 33.915 18.126 52.49 13.047s33.174-19.448 38.549-37.94c3.936-16.672 6.617-33.615 8.021-50.688 1.097-53.15 0-106.325 0-159.573 0-5.461 0.902-11.020 1.39-16.262 35.903-3.573 72.108-2.755 107.813 2.438 0 68.267-0.488 136.777 0 205.214 0.899 25.922-3.912 51.725-14.092 75.581-12.058 28.229-35.031 50.375-63.683 61.391-19.873 6.696-40.844 9.526-61.781 8.338-26.984-0.027-52.863-10.719-71.997-29.745-7.534-7.046-14.287-14.872-24.795-25.99v46.031h-109.714c2.877-39.668 1.097-77.751 1.39-116.029s0-75.776 0-113.664c0-37.888-9.923-75.776-2.292-114.152l111.323-0.61zM249.384 204.289c37.132-4.631 74.675-4.966 111.884-1 3.365 35.011 2.072 326.29-1.585 341.772-36.742 3.316-73.74 2.498-110.299-2.438v-338.334zM307.118 598.627c13.058-2.135 26.434 0.89 37.303 8.436 14.080 8.96 23.641 23.529 26.257 40.012s-1.965 33.296-12.579 46.175c-18.885 21.988-49.93 29.037-76.459 17.359-15.235-5.405-27.447-17.042-33.581-31.998s-5.607-31.817 1.447-46.362c9.325-23.204 33.258-37.071 58.027-33.621h-0.414z" />
<glyph unicode="&#xe911;" glyph-name="github" d="M512.221 960c251.146 0.066 465.201-182.175 505.202-430.114s-105.884-488.25-344.309-567.167c-34.394-5.95-55.791 13.243-55.791 39.719 0 3.65 0.031 9.068 0.104 18.829 0.049 6.508 0.049 6.508 0.106 13.943 0.059 7.874 0.085 11.351 0.121 16.574 0.214 30.681 0.33 58.064 0.33 86.446 0 37.228-11.149 64.697-27.891 79.144l-28.621 24.699 37.568 4.224c140.981 15.852 211.547 74.795 211.549 228.001 0.697 44.943-15.957 88.425-46.5 121.403l-6.76 7.299 3.289 9.389c12.6 35.962 12.189 75.099-0.977 110.648-6.586-0.055-15.48-1.338-26.83-4.559-24.192-6.866-53.516-21.108-88.173-44.567l-6.292-4.259-7.329 2.006c-78.29 21.429-160.899 21.429-239.188 0l-7.345-2.010-6.299 4.279c-34.526 23.455-63.783 37.684-87.96 44.53-11.412 3.232-20.362 4.503-26.992 4.534-13.134-35.575-13.551-74.717-0.997-110.706l3.27-9.375-6.744-7.287c-30.627-33.092-47.344-76.701-46.683-122.027 0-152.731 70.813-212.405 210.724-228.308l34.502-3.922-24.809-24.295c-15.106-14.793-24.493-34.451-26.501-55.498l-0.904-9.477-8.653-3.969c-60.347-27.684-124.187-21.953-164.898 47.858-11.303 19.481-29.557 33.72-50.82 40.072 11.192-7.247 24.734-20.355 37.831-40.951 6.805-10.701 12.944-22.788 18.595-37.201 0.34-1.027 1.437-3.562 3.449-7.099 3.541-6.225 8.318-12.513 14.481-18.409 26.052-24.921 67.407-35.41 129.723-21.852l19.708 4.288 0.322-20.166c0.297-18.614 0.482-37.677 0.58-56.854 0.066-13.039 0.083-22.63 0.083-35.622 0-26.692-21.157-46.135-53.277-40.289-211.049 70.332-351.924 265.655-352.215 485.791 0 279.644 224.142 506.936 502.571 512.023l9.65 0.285z" />
<glyph unicode="&#xe912;" glyph-name="thick-left-arrow" horiz-adv-x="670" d="M558.301-64.008c30.607 0.006 58.33 12.35 78.468 32.328l-0.007-0.007c20.384 20.204 33.004 48.211 33.004 79.167 0 30.586-12.321 58.294-32.27 78.432l0.009-0.009-322.090 325.062 321.347 318.449c20.384 20.204 33.004 48.211 33.004 79.167 0 30.586-12.321 58.294-32.27 78.432l0.009-0.009c-20.204 20.384-48.211 33.004-79.167 33.004-30.586 0-58.294-12.321-78.432-32.27l0.009 0.009-479.68-475.519 479.011-483.32c20.19-20.325 48.152-32.908 79.054-32.915h0.001z" />
<glyph unicode="&#xe913;" glyph-name="thick-right-arrow" horiz-adv-x="670" d="M111.45-63.777c-30.607 0.006-58.33 12.35-78.468 32.328l0.007-0.007c-20.384 20.204-33.004 48.211-33.004 79.167 0 30.586 12.321 58.294 32.27 78.432l-0.009-0.009 322.090 325.062-321.347 318.449c-20.384 20.204-33.004 48.211-33.004 79.167 0 30.586 12.321 58.294 32.27 78.432l-0.009-0.009c20.204 20.384 48.211 33.004 79.167 33.004 30.586 0 58.294-12.321 78.432-32.27l-0.009 0.009 479.68-475.519-479.011-483.32c-20.19-20.325-48.152-32.908-79.054-32.915h-0.001z" />
</font>
</defs>
</svg>
