<?xml version="1.0" encoding="utf-8"?>
<!-- Generator: Adobe Illustrator 16.0.0, SVG Export Plug-In . SVG Version: 6.00 Build 0)  -->
<!DOCTYPE svg PUBLIC "-//W3C//DTD SVG 1.1//EN" "http://www.w3.org/Graphics/SVG/1.1/DTD/svg11.dtd">
<svg version="1.1" id="Layer_1" xmlns="http://www.w3.org/2000/svg" xmlns:xlink="http://www.w3.org/1999/xlink" x="0px" y="0px"
	 width="332px" height="130px" viewBox="0 0 332 130" enable-background="new 0 0 332 130" xml:space="preserve">
<path fill-rule="evenodd" clip-rule="evenodd" fill="none" stroke="#2D2D2D" stroke-width="4" stroke-miterlimit="10" d="
	M191.216,105.783h126.748c2.319,0,4.201-1.883,4.201-4.203V16.186c0-2.322-1.882-4.204-4.201-4.204H168.702
	c-2.321,0-4.202,1.881-4.452,4.204v85.395c0.25,2.32,2.131,4.203,4.452,4.203c0,0,4.732,0,12.497,0l-5.587,8.406L191.216,105.783z"
	/>
<g>
	<g>
		<path fill="#7C7C7C" d="M10.537,63.166c1.065,6.391,5.735,10.322,11.715,10.322c6.39,0,11.469-5.243,11.469-11.797
			c0-3.195-0.983-5.816-2.867-7.701c-3.359-3.359-7.292-3.932-10.978-4.997C11.192,46.535,6.85,41.374,6.85,33.837
			c0-8.685,6.554-14.992,15.238-14.992c6.308,0,11.06,3.522,13.927,10.077l-5.161,2.13c-1.966-4.261-5.325-6.472-9.421-6.472
			c-4.998,0-8.766,3.604-8.766,8.684c0,6.309,3.441,8.684,9.995,10.65c4.669,1.393,8.766,2.457,11.715,4.997
			c3.441,2.949,5.243,7.128,5.243,12.206c0,10.405-7.947,18.27-17.614,18.27c-8.11,0-15.238-5.652-16.958-14.336L10.537,63.166z"/>
		<path fill="#7C7C7C" d="M42.436,19.664h5.571v23.594c2.54-3.031,6.062-4.751,10.404-4.751c9.012,0,15.893,6.8,15.893,17.04v22.529
			h-5.489V55.137c0-6.799-4.506-11.305-10.486-11.305c-6.145,0-10.322,4.014-10.322,11.305v22.939h-5.571V19.664z"/>
		<path fill="#7C7C7C" d="M82.938,44.487c3.769-3.851,8.766-5.98,14.091-5.98c5.243,0,10.241,2.13,14.009,5.98
			c3.769,3.769,5.816,8.93,5.816,14.337c0,5.488-2.048,10.568-5.816,14.336c-3.769,3.852-8.684,5.98-14.009,5.98
			c-5.325,0-10.322-2.129-14.091-5.98c-3.769-3.85-5.816-8.93-5.816-14.336C77.121,53.417,79.169,48.338,82.938,44.487z
			 M96.947,73.57c7.783,0,14.091-6.473,14.091-14.746c0-8.274-6.39-14.828-14.091-14.828c-7.701,0-14.009,6.635-14.009,14.828
			C82.938,67.017,89.164,73.57,96.947,73.57z"/>
		<path fill="#7C7C7C" d="M122.783,47.764c3.933-5.898,10.077-9.176,16.713-9.176c5.243,0,10.322,2.049,14.091,5.899
			c3.769,3.769,5.817,8.93,5.817,14.337c0,5.488-2.13,10.65-5.817,14.418c-3.769,3.852-8.766,5.898-14.091,5.898
			c-5.489,0-10.159-1.884-14.337-5.898v23.431h-5.489V64.148C119.67,57.514,119.752,52.27,122.783,47.764z M139.496,73.652
			c8.028,0,14.5-6.636,14.5-14.828c0-8.193-6.472-14.828-14.5-14.828c-8.029,0-14.501,6.554-14.501,14.828
			C124.995,67.017,131.467,73.652,139.496,73.652z"/>
	</g>
	<g>
		<path fill="#E25006" d="M189.166,79.141c-5.489,0-10.486-2.047-14.255-5.898c-3.769-3.85-5.816-9.012-5.816-14.418
			c0-5.407,2.048-10.486,5.816-14.337s8.766-5.899,14.091-5.899c11.551,0,19.907,8.275,19.907,21.629v12.452
			c0,7.21-0.901,12.698-4.67,17.532c-3.932,4.997-10.158,7.946-17.122,7.946c-6.472,0-12.453-2.949-18.27-8.93l3.769-3.687
			c4.998,4.998,9.913,7.537,15.074,7.537c9.012,0,15.32-6.718,15.32-17.859c0-0.819,0-1.639-0.082-2.458
			C198.996,77.094,194.572,79.141,189.166,79.141z M189.002,73.652c8.028,0,14.5-6.636,14.5-14.828
			c0-8.193-6.472-14.828-14.5-14.828c-8.029,0-14.501,6.554-14.501,14.828C174.501,67.017,180.973,73.652,189.002,73.652z"/>
		<path fill="#E25006" d="M217.543,44.487c3.768-3.851,8.766-5.98,14.09-5.98c5.244,0,10.24,2.13,14.01,5.98
			c3.768,3.769,5.816,8.93,5.816,14.337c0,5.488-2.049,10.568-5.816,14.336c-3.77,3.852-8.684,5.98-14.01,5.98
			c-5.324,0-10.322-2.129-14.09-5.98c-3.77-3.85-5.818-8.93-5.818-14.336C211.725,53.417,213.773,48.338,217.543,44.487z
			 M231.551,73.57c7.783,0,14.092-6.473,14.092-14.746c0-8.274-6.391-14.828-14.092-14.828s-14.008,6.635-14.008,14.828
			C217.543,67.017,223.768,73.57,231.551,73.57z"/>
		<path fill="#E25006" d="M293.952,55.629c0,5.652-0.328,10.404-3.195,14.582c-3.933,5.653-10.077,8.93-16.631,8.93
			c-5.325,0-10.24-2.129-14.009-5.98c-3.769-3.768-5.816-8.93-5.816-14.336c0-11.306,8.684-20.236,19.907-20.236
			c5.079,0,9.585,1.967,14.255,5.899V19.664h5.489v30.477C293.952,52.024,293.952,53.908,293.952,55.629z M274.126,44.078
			c-8.028,0-14.501,6.635-14.501,14.828c0,8.191,6.473,14.746,14.501,14.746s14.501-6.473,14.501-14.746
			C288.627,50.713,282.154,44.078,274.126,44.078z"/>
		<path fill="#E25006" d="M300.618,57.432V45.307h-3.851v-5.162h3.851v-9.257h5.653v9.257h10.978v5.162h-10.978v13.518
			c0,8.684,3.522,13.271,10.978,14.336v5.817C304.551,76.52,300.618,70.539,300.618,57.432z"/>
	</g>
</g>
<g display="none">
	<rect x="159.404" y="-5.164" display="inline" fill="#2EB1E5" width="2.816" height="125.227"/>
	<rect x="166.264" y="-5.164" display="inline" fill="#2EB1E5" width="2.816" height="125.227"/>
	<rect x="208.909" y="-5.164" display="inline" fill="#2EB1E5" width="2.816" height="125.227"/>
	<rect x="187.372" y="14.083" display="inline" fill="#3AE831" width="125.228" height="5.58"/>
	<rect x="172.538" y="98.147" display="inline" fill="#3AE831" width="125.228" height="5.579"/>
	<rect x="251.485" y="-5.27" display="inline" fill="#2EB1E5" width="2.815" height="125.227"/>
	<rect x="293.952" y="-5.164" display="inline" fill="#2EB1E5" width="2.815" height="125.227"/>
	<rect x="317.249" y="-5.164" display="inline" fill="#2EB1E5" width="2.815" height="125.227"/>
	<rect x="116.854" y="-5.164" display="inline" fill="#2EB1E5" width="2.816" height="125.227"/>
	<rect x="74.305" y="-5.164" display="inline" fill="#2EB1E5" width="2.816" height="125.227"/>
	<rect x="39.62" y="-5.164" display="inline" fill="#2EB1E5" width="2.816" height="125.227"/>
</g>
</svg>
