<svg xmlns="http://www.w3.org/2000/svg" xmlns:xlink="http://www.w3.org/1999/xlink" width="40" height="40" viewBox="0 0 40 40"><defs><style>.a{fill:none;}.b{fill:url(#a);}</style><linearGradient id="a" x1="0.5" x2="0.5" y2="1" gradientUnits="objectBoundingBox"><stop offset="0" stop-color="#fff"/><stop offset="1" stop-color="#fff" stop-opacity="0.678"/></linearGradient></defs><g transform="translate(-71.739 -1230.773)"><rect class="a" width="40" height="40" transform="translate(71.739 1230.773)"/><path class="b" d="M33.478,15a6.005,6.005,0,0,0-3.432-.958c-2.142,0-3.929.894-4.345,2.084h-.176c-.405-1.2-2.2-2.1-4.349-2.1a5.988,5.988,0,0,0-3.433.962V25.059a4.544,4.544,0,0,1-9.088,0,1,1,0,0,1,2,0,2.543,2.543,0,0,0,5.078,0V15.008a5.988,5.988,0,0,0-3.434-.963c-2.142,0-3.929.894-4.345,2.084H7.78c-.405-1.2-2.2-2.1-4.349-2.1A6,6,0,0,0,0,14.986C.655,7.848,7.371,2.173,15.738,1.751V1a1,1,0,0,1,2,0v.749C26.116,2.175,32.836,7.858,33.478,15Z" transform="translate(75 1236)"/></g></svg>