<svg xmlns="http://www.w3.org/2000/svg" width="150" height="100" viewBox="0 0 150 100"><defs><style>.a{fill:none;}.b{fill:#f15e5a;}.c{fill:#626262;}.d{fill:#f15f5b;}</style></defs><g transform="translate(-410.54 -2506.017)"><rect class="a" width="150" height="100" transform="translate(410.539 2506.017)"/><g transform="translate(416.137 2544)"><path class="b" d="M624,19.905V2.163h1.352l10.292,15.411c-.041-5.146.069-10.237.028-15.342a2.818,2.818,0,0,1,1.269-.069V19.85a4.986,4.986,0,0,1-1.3.069L625.2,4.3V19.85A3.435,3.435,0,0,1,624,19.905Z" transform="translate(-537.91 -1.846)"/><path class="c" d="M152.409,46.387h-1.145a1.726,1.726,0,0,1-.055-.745V37.364a4.4,4.4,0,0,0-.317-1.683,2.369,2.369,0,0,0-2.152-1.559,5.446,5.446,0,0,0-2.056.152,2.908,2.908,0,0,0-1.918,1.738,6.493,6.493,0,0,0-.469,2.552c.014,2.345,0,4.691,0,7.036a1.226,1.226,0,0,1-.11.759,4.812,4.812,0,0,1-1.186.028V33.211a1.925,1.925,0,0,1,.924-.041c.359.469.124,1.09.414,1.587,1.738-2.608,6.512-2.525,7.74.248.179.041.221-.124.3-.221a4.462,4.462,0,0,1,3.78-1.89,6.094,6.094,0,0,1,1.5.11,3.508,3.508,0,0,1,2.9,3.173,10.711,10.711,0,0,1,.152,1.987c-.014,2.483,0,4.967,0,7.45v.7a3.768,3.768,0,0,1-1.159.083,1.287,1.287,0,0,1-.1-.7c0-2.138-.014-4.277,0-6.415a18.351,18.351,0,0,0-.138-2.608c-.262-1.945-1.38-2.649-3.159-2.594a4.2,4.2,0,0,0-1.987.5,3.319,3.319,0,0,0-1.573,2.539,11.8,11.8,0,0,0-.152,1.849c.028,2.235.014,4.456.014,6.691A1.514,1.514,0,0,1,152.409,46.387Z" transform="translate(-123.271 -28.341)"/><path class="c" d="M0,2.037a4.277,4.277,0,0,1,1.255.041v8.844l.124.055c2.98-2.9,5.767-6,8.65-8.926h1.738L4.539,9.543l7.436,10.223H10.32L3.6,10.55c-.842.635-1.545,1.311-2.332,2.028v7.174A6.544,6.544,0,0,1,0,19.835Z" transform="translate(0 -1.748)"/><path class="b" d="M909.6,2.167h1.159a1.188,1.188,0,0,1,.1.745c0,3.353-.014,6.719.014,10.071a9.956,9.956,0,0,0,.248,2.387,4.436,4.436,0,0,0,3.532,3.449,6.893,6.893,0,0,0,3.739-.138,4.344,4.344,0,0,0,2.966-3.173A7.753,7.753,0,0,0,921.6,13.4c-.014-3.477-.014-6.94,0-10.416V2.222a4.148,4.148,0,0,1,1.145-.069c.207.193.138.386.138.566,0,3.753.028,7.491,0,11.244a5.8,5.8,0,0,1-3.2,5.532,7.841,7.841,0,0,1-2.511.648,8.112,8.112,0,0,1-3.587-.317,5.439,5.439,0,0,1-3.822-4.291,9.965,9.965,0,0,1-.165-2.125c-.014-3.587,0-7.174,0-10.761A1.876,1.876,0,0,1,909.6,2.167Z" transform="translate(-784.094 -1.864)"/><path class="c" d="M482.132,45.832c.014-2.649,0-5.284.014-7.933a8.879,8.879,0,0,0-.166-1.711,3.44,3.44,0,0,0-2.828-2.925,7.889,7.889,0,0,0-3.408.083,8.733,8.733,0,0,0-2.332.842,4.651,4.651,0,0,0,.51,1.09,9.433,9.433,0,0,1,2.332-.842,5.733,5.733,0,0,1,2.373-.083,2.468,2.468,0,0,1,1.766,1.3,5.543,5.543,0,0,1,.455,3.09,5.891,5.891,0,0,1-1.1.138,21.551,21.551,0,0,0-3.766.29,6.015,6.015,0,0,0-2.566,1.1,3.676,3.676,0,0,0-1.131,4.042,3.039,3.039,0,0,0,1.2,1.794,4.381,4.381,0,0,0,2.042.717,5.228,5.228,0,0,0,4.884-1.752c.11-.124.166-.345.428-.3a16.821,16.821,0,0,0,.359,1.849,2.205,2.205,0,0,0,.855-.028A1.47,1.47,0,0,0,482.132,45.832Zm-1.283-4.994a6.573,6.573,0,0,1-.483,2.608,3.69,3.69,0,0,1-2.318,1.987,4.984,4.984,0,0,1-2.842.11,2.362,2.362,0,0,1-1.7-2.7,2.521,2.521,0,0,1,1.711-2.207,10.131,10.131,0,0,1,2.47-.538c.138-.028.276-.041.4-.055a18.242,18.242,0,0,0,2.621-.124A1.248,1.248,0,0,1,480.849,40.837Z" transform="translate(-406.982 -28.559)"/><path class="c" d="M304.4,45.781c0-2.594,0-5.187.014-7.781a9.693,9.693,0,0,0-.152-1.78,3.5,3.5,0,0,0-2.828-2.994,7.681,7.681,0,0,0-3.408.083,8.733,8.733,0,0,0-2.332.842,4.573,4.573,0,0,0,.5,1.09,11.875,11.875,0,0,1,2.4-.855,5.12,5.12,0,0,1,2.773.055,2.324,2.324,0,0,1,1.38,1.269,6.015,6.015,0,0,1,.414,3.035c-.441.028-.828.069-1.214.1a21.321,21.321,0,0,0-3.628.276,9.731,9.731,0,0,0-1.628.524c-2.056.938-2.566,2.649-2.1,4.663a3.029,3.029,0,0,0,1.214,1.78,4.09,4.09,0,0,0,1.973.69,5.19,5.19,0,0,0,4.981-1.821c.1-.11.152-.3.359-.235.234.593.11,1.269.4,1.849a2.673,2.673,0,0,0,.814-.028A1.6,1.6,0,0,0,304.4,45.781Zm-1.283-5.174a8.5,8.5,0,0,1-.221,2.042,3.7,3.7,0,0,1-2.677,2.773,4.871,4.871,0,0,1-2.7.1,2.321,2.321,0,0,1-1.78-2.18,2.6,2.6,0,0,1,1.186-2.456,6.91,6.91,0,0,1,2.207-.717c1.242-.248,2.511-.069,3.766-.262a.382.382,0,0,1,.124.069c.179.166.11.414.1.635Z" transform="translate(-253.809 -28.522)"/><path class="b" d="M805.273,1.2a5.98,5.98,0,0,1-.524,1.076c-.662-.221-1.311-.524-1.987-.69a8.145,8.145,0,0,0-4.87.221,6.238,6.238,0,0,0-3.863,4.208,10.906,10.906,0,0,0,.083,6.829,5.971,5.971,0,0,0,5.27,4.291,13.85,13.85,0,0,0,4.829-.4.636.636,0,0,1,.359-.014,3.031,3.031,0,0,1,.055,1.062,6.279,6.279,0,0,1-1.876.483,11.686,11.686,0,0,1-5.436-.248,7.01,7.01,0,0,1-4.677-5.022,12.253,12.253,0,0,1,.124-7.574A7.433,7.433,0,0,1,799.051.26a11.05,11.05,0,0,1,5.932.7A.564.564,0,0,1,805.273,1.2Z" transform="translate(-682.816 -0.122)"/><path class="c" d="M381.56,53.851a3.122,3.122,0,0,1,.028-1.131,5.709,5.709,0,0,0,1.435.152,1.975,1.975,0,0,0,1.807-.952,16.235,16.235,0,0,0,1.559-3.587,1.1,1.1,0,0,0-.124-.8c-.924-2.442-1.863-4.884-2.787-7.326-.607-1.587-1.214-3.173-1.821-4.746a.634.634,0,0,1-.069-.552,4.26,4.26,0,0,1,1.2-.041c1.449,3.9,2.994,7.767,4.387,11.7,1.435-3.918,2.952-7.8,4.429-11.658a4.881,4.881,0,0,1,1.186-.028c.179.317-.028.538-.11.745Q389.8,43.1,386.913,50.567a14.323,14.323,0,0,1-.731,1.628c-.883,1.683-2.1,2.028-3.849,1.849A4.869,4.869,0,0,1,381.56,53.851Z" transform="translate(-328.885 -30.052)"/><path class="d" d="M755.214,19.835a4.473,4.473,0,0,1-1.214,0V2.106a5.554,5.554,0,0,1,1.173,0C755.338,2.589,755.38,18.952,755.214,19.835Z" transform="translate(-649.975 -1.803)"/><path class="c" d="M103.455,48.112H102.2V34.936a2.964,2.964,0,0,1,1.255-.014Z" transform="translate(-88.1 -30.066)"/><path class="c" d="M100.7,1.355a2.043,2.043,0,0,1,.069-.69A.748.748,0,0,1,101.528.1a.737.737,0,0,1,.759.566,2,2,0,0,1,0,1.269.843.843,0,0,1-.745.607.822.822,0,0,1-.759-.662A1.8,1.8,0,0,1,100.7,1.355Z" transform="translate(-86.807 -0.1)"/></g></g></svg>