<svg xmlns="http://www.w3.org/2000/svg" width="71.358" height="47.572" viewBox="0 0 71.358 47.572"><defs><style>.a{fill:none;}.b{fill:#f15e5a;}.c{fill:#626262;}.d{fill:#f15f5b;}</style></defs><rect class="a" width="71.358" height="47.572" transform="translate(0 0)"/><g transform="translate(2.663 18.069)"><path class="b" d="M624,10.583V2.143h.643l4.9,7.331c-.02-2.448.033-4.87.013-7.3a1.341,1.341,0,0,1,.6-.033v8.414a2.373,2.373,0,0,1-.617.033l-4.968-7.43v7.4A1.634,1.634,0,0,1,624,10.583Z" transform="translate(-583.046 -1.992)"/><path class="c" d="M147.476,39.3h-.545a.821.821,0,0,1-.026-.354V35a2.091,2.091,0,0,0-.151-.8,1.127,1.127,0,0,0-1.024-.742,2.591,2.591,0,0,0-.978.072,1.384,1.384,0,0,0-.912.827,3.089,3.089,0,0,0-.223,1.214c.007,1.116,0,2.232,0,3.347a.583.583,0,0,1-.053.361A2.289,2.289,0,0,1,143,39.3V33.028a.915.915,0,0,1,.44-.02c.171.223.059.518.2.755.827-1.24,3.1-1.2,3.682.118.085.02.105-.059.144-.105a2.123,2.123,0,0,1,1.8-.9,2.9,2.9,0,0,1,.715.053,1.669,1.669,0,0,1,1.378,1.51,5.1,5.1,0,0,1,.072.945c-.007,1.181,0,2.363,0,3.544v.335a1.793,1.793,0,0,1-.551.039.612.612,0,0,1-.046-.335c0-1.017-.007-2.035,0-3.052a8.731,8.731,0,0,0-.066-1.24,1.28,1.28,0,0,0-1.5-1.234,2,2,0,0,0-.945.236,1.579,1.579,0,0,0-.748,1.208,5.612,5.612,0,0,0-.072.879c.013,1.063.007,2.12.007,3.183A.72.72,0,0,1,147.476,39.3Z" transform="translate(-133.615 -30.711)"/><path class="c" d="M0,2.024a2.034,2.034,0,0,1,.6.02V6.251l.059.026C2.074,4.9,3.4,3.422,4.771,2.03H5.6L2.159,5.594,5.7,10.458H4.909l-3.2-4.384c-.4.3-.735.624-1.109.965v3.413a3.113,3.113,0,0,1-.6.039Z" transform="translate(0 -1.886)"/><path class="b" d="M909.592,2.156h.551a.565.565,0,0,1,.046.354c0,1.595-.006,3.2.007,4.791a4.74,4.74,0,0,0,.118,1.135,2.111,2.111,0,0,0,1.68,1.641,3.279,3.279,0,0,0,1.779-.066,2.066,2.066,0,0,0,1.411-1.51,3.693,3.693,0,0,0,.118-1c-.007-1.654-.007-3.3,0-4.955V2.182a1.973,1.973,0,0,1,.545-.033c.1.092.066.184.066.269,0,1.785.013,3.564,0,5.349A2.761,2.761,0,0,1,914.39,10.4a3.731,3.731,0,0,1-1.194.308,3.859,3.859,0,0,1-1.707-.151,2.587,2.587,0,0,1-1.818-2.041,4.743,4.743,0,0,1-.079-1.011c-.007-1.706,0-3.413,0-5.119A.89.89,0,0,1,909.592,2.156Z" transform="translate(-849.886 -2.012)"/><path class="c" d="M476.882,39.164c.007-1.26,0-2.514.007-3.774a4.224,4.224,0,0,0-.079-.814,1.636,1.636,0,0,0-1.345-1.391,3.753,3.753,0,0,0-1.621.039,4.154,4.154,0,0,0-1.109.4,2.215,2.215,0,0,0,.243.518,4.487,4.487,0,0,1,1.109-.4,2.727,2.727,0,0,1,1.129-.039,1.174,1.174,0,0,1,.84.617,2.637,2.637,0,0,1,.217,1.47,2.8,2.8,0,0,1-.525.066,10.251,10.251,0,0,0-1.792.138,2.862,2.862,0,0,0-1.221.525,1.749,1.749,0,0,0-.538,1.923,1.446,1.446,0,0,0,.571.853,2.084,2.084,0,0,0,.971.341,2.487,2.487,0,0,0,2.323-.834c.052-.059.079-.164.2-.144a7.981,7.981,0,0,0,.171.879,1.049,1.049,0,0,0,.407-.013A.7.7,0,0,0,476.882,39.164Zm-.61-2.376a3.128,3.128,0,0,1-.23,1.24,1.755,1.755,0,0,1-1.1.945,2.371,2.371,0,0,1-1.352.053,1.124,1.124,0,0,1-.807-1.286,1.2,1.2,0,0,1,.814-1.05,4.819,4.819,0,0,1,1.175-.256c.066-.013.131-.02.19-.026a8.677,8.677,0,0,0,1.247-.059A.594.594,0,0,1,476.271,36.788Z" transform="translate(-441.132 -30.946)"/><path class="c" d="M299.173,39.117c0-1.234,0-2.468.007-3.7a4.612,4.612,0,0,0-.072-.847,1.665,1.665,0,0,0-1.345-1.424,3.654,3.654,0,0,0-1.621.039,4.155,4.155,0,0,0-1.109.4,2.176,2.176,0,0,0,.236.519,5.648,5.648,0,0,1,1.142-.407,2.436,2.436,0,0,1,1.319.026,1.106,1.106,0,0,1,.656.6,2.862,2.862,0,0,1,.2,1.444c-.21.013-.394.033-.578.046a10.143,10.143,0,0,0-1.726.131,4.63,4.63,0,0,0-.774.249,1.756,1.756,0,0,0-1,2.218,1.441,1.441,0,0,0,.578.847,1.946,1.946,0,0,0,.939.328,2.469,2.469,0,0,0,2.369-.866c.046-.053.072-.144.171-.112.112.282.052.6.19.879a1.271,1.271,0,0,0,.387-.013A.762.762,0,0,0,299.173,39.117Zm-.61-2.461a4.043,4.043,0,0,1-.105.971,1.76,1.76,0,0,1-1.273,1.319,2.317,2.317,0,0,1-1.286.046,1.1,1.1,0,0,1-.847-1.037,1.239,1.239,0,0,1,.564-1.168,3.287,3.287,0,0,1,1.05-.341c.591-.118,1.194-.033,1.792-.125a.182.182,0,0,1,.059.033c.085.079.053.2.046.3Z" transform="translate(-275.106 -30.907)"/><path class="b" d="M798.365.636a2.845,2.845,0,0,1-.249.512c-.315-.105-.624-.249-.945-.328a3.875,3.875,0,0,0-2.317.105,2.968,2.968,0,0,0-1.838,2,5.187,5.187,0,0,0,.039,3.249,2.841,2.841,0,0,0,2.507,2.041,6.589,6.589,0,0,0,2.3-.19.3.3,0,0,1,.171-.007,1.44,1.44,0,0,1,.026.505,2.987,2.987,0,0,1-.893.23,5.559,5.559,0,0,1-2.586-.118,3.335,3.335,0,0,1-2.225-2.389,5.829,5.829,0,0,1,.059-3.6A3.536,3.536,0,0,1,795.405.19a5.257,5.257,0,0,1,2.822.335A.268.268,0,0,1,798.365.636Z" transform="translate(-740.11 -0.124)"/><path class="c" d="M381.539,43.887a1.484,1.484,0,0,1,.013-.538,2.715,2.715,0,0,0,.683.072.94.94,0,0,0,.86-.453,7.725,7.725,0,0,0,.742-1.706.522.522,0,0,0-.059-.381c-.44-1.162-.886-2.323-1.326-3.485-.289-.755-.578-1.51-.866-2.258a.3.3,0,0,1-.033-.263,2.026,2.026,0,0,1,.571-.02c.689,1.857,1.424,3.7,2.087,5.566.683-1.864,1.4-3.708,2.107-5.546a2.322,2.322,0,0,1,.564-.013c.085.151-.013.256-.053.354q-1.368,3.554-2.743,7.108a6.817,6.817,0,0,1-.348.774,1.59,1.59,0,0,1-1.831.879A2.317,2.317,0,0,1,381.539,43.887Z" transform="translate(-356.481 -32.565)"/><path class="d" d="M754.577,10.524a2.128,2.128,0,0,1-.578,0V2.09a2.642,2.642,0,0,1,.558,0C754.637,2.319,754.656,10.1,754.577,10.524Z" transform="translate(-704.513 -1.945)"/><path class="c" d="M102.8,41.165h-.6V34.9a1.41,1.41,0,0,1,.6-.007Z" transform="translate(-95.492 -32.58)"/><path class="c" d="M100.7.7a.972.972,0,0,1,.033-.328A.356.356,0,0,1,101.094.1a.351.351,0,0,1,.361.269.95.95,0,0,1,0,.6.4.4,0,0,1-.354.289.391.391,0,0,1-.361-.315A.857.857,0,0,1,100.7.7Z" transform="translate(-94.091 -0.1)"/></g></svg>