<svg xmlns="http://www.w3.org/2000/svg" xmlns:xlink="http://www.w3.org/1999/xlink" width="40" height="40" viewBox="0 0 40 40"><defs><style>.a{fill:none;}.b{stroke:rgba(0,0,0,0);fill:url(#a);}</style><linearGradient id="a" x1="0.5" x2="0.5" y2="1" gradientUnits="objectBoundingBox"><stop offset="0" stop-color="#fff"/><stop offset="1" stop-color="#fff" stop-opacity="0.678"/></linearGradient></defs><g transform="translate(-244.635 -1230.517)"><rect class="a" width="40" height="40" transform="translate(244.634 1230.517)"/><path class="b" d="M21.758,27.269V0h9.277V27.269Zm1.429-2.525,4.681,0V21.818H23.186Zm0-5.362,4.681,0V16.455H23.186Zm0-5.17h4.681V11.285H23.186ZM16.262,27.269,12.471,17.8l3.791-1.135-3.791-9.48,3.791-.746V0H20.3V27.269ZM.015,26.6,0,26.525a6.129,6.129,0,0,0,1.718-1.3,1.174,1.174,0,0,0,.272-.781,3.084,3.084,0,0,0-.271-.993,5.946,5.946,0,0,0-.632-.989,2.456,2.456,0,0,1-.619-1.152A1.028,1.028,0,0,1,.7,20.555a1.352,1.352,0,0,1,.617-.407,2,2,0,0,1,1.264,0v.076a7.112,7.112,0,0,0-1.014.47.841.841,0,0,0-.451.614A1.615,1.615,0,0,0,1.3,22.328a3.913,3.913,0,0,0,.772.881,2.172,2.172,0,0,1,.65,1.138,1.642,1.642,0,0,1-.356,1.4A2.862,2.862,0,0,1,.015,26.6Zm3.326-3.973v-3.8h8.614l1.342,3.8ZM.8,14.171l-.016-.076a5.778,5.778,0,0,0,1.1-.975.777.777,0,0,0,.175-.449,2.48,2.48,0,0,0-.129-.664A2.664,2.664,0,0,0,1.51,11.3a1.743,1.743,0,0,1-.5-.822.771.771,0,0,1,.181-.591.991.991,0,0,1,.47-.3,1.27,1.27,0,0,1,.918.074v.079c-.257.155-.495.268-.667.4a.6.6,0,0,0-.252.343.956.956,0,0,0,.061.685,2.093,2.093,0,0,0,.554.594,1.467,1.467,0,0,1,.514.819,1.223,1.223,0,0,1-.261,1.07,1.851,1.851,0,0,1-1.73.523Zm2.541-1.954v-3.8h8.614l1.342,3.8Z" transform="translate(278.269 1235) rotate(90)"/></g></svg>