<svg xmlns="http://www.w3.org/2000/svg" width="254" height="177" viewBox="0 0 254 177">
  <g id="BizunBound" transform="translate(-129.199 -21.5)">
    <rect id="Rectangle_12" data-name="Rectangle 12" width="254" height="177" transform="translate(129.199 21.5)" fill="none"/>
    <g id="Group_12" data-name="Group 12">
      <g id="bizunbound-logo" transform="translate(174.267 49.307)">
        <path id="Path_1" data-name="Path 1" d="M99.968,121.384a59.344,59.344,0,1,1,.166,0ZM40,60.693A59.968,59.968,0,1,0,99.968.724,60.036,60.036,0,0,0,40,60.693Zm59.966,52a51.291,51.291,0,1,1,.15,0Zm-50.555-52A50.559,50.559,0,1,0,99.968,10.137,50.614,50.614,0,0,0,49.413,60.693Zm7.241,0A43.317,43.317,0,1,1,99.97,104.01,43.365,43.365,0,0,1,56.655,60.693Zm2.172,0A41.145,41.145,0,1,0,99.968,19.547,41.191,41.191,0,0,0,58.827,60.693Zm6.516,0a34.629,34.629,0,1,1,34.63,34.624,34.664,34.664,0,0,1-34.63-34.624Zm2.894-.006A31.733,31.733,0,1,0,99.972,28.956V28.95A31.774,31.774,0,0,0,68.237,60.687Zm5.794.006A25.941,25.941,0,1,1,99.968,86.634,25.968,25.968,0,0,1,74.031,60.693ZM99.968,38.373a17.341,17.341,0,1,0,0-.005ZM82.719,60.693A17.253,17.253,0,1,1,99.968,77.945,17.253,17.253,0,0,1,82.719,60.693Zm4.338,0A12.913,12.913,0,1,0,99.968,47.781,12.914,12.914,0,0,0,87.057,60.693Zm10.493,0a2.419,2.419,0,1,1,.707,1.712,2.419,2.419,0,0,1-.707-1.712ZM0,69.286V52.246H6.328A6.267,6.267,0,0,1,10,53.263,3.96,3.96,0,0,1,11.391,56.7a4.842,4.842,0,0,1-.418,2.056,3.009,3.009,0,0,1-1.451,1.424V60.2a3.68,3.68,0,0,1,2.654,1.412A4.973,4.973,0,0,1,13,64.562a3.824,3.824,0,0,1-1.91,3.694,8.829,8.829,0,0,1-4.261,1.03Zm4.431-10.35h.5a.077.077,0,0,0,.055.022h.079a4.324,4.324,0,0,0,1.548-.323A1.278,1.278,0,0,0,7.328,57.3a1.329,1.329,0,0,0-.678-1.351,3.874,3.874,0,0,0-1.469-.323H4.431Zm0,6.96h.563a.075.075,0,0,0,.055.022h.646a5.09,5.09,0,0,0,.588-.022,4.015,4.015,0,0,0,1.538-.433,1.39,1.39,0,0,0,.7-1.364,1.463,1.463,0,0,0-.767-1.5,4.342,4.342,0,0,0-1.674-.363H4.43Zm15.3,3.389H15.3V52.246h4.429Zm16.293-3.752v3.752h-14.6L29.493,56H22.8V52.246H36.9L28.88,65.533Z" fill="#4dd0e1"/>
        <path id="Path_2" data-name="Path 2" d="M73.239,78.906v9.581a19.692,19.692,0,0,1-.26,3.229,5.055,5.055,0,0,1-1.525,2.8,5.344,5.344,0,0,1-1.937,1.232,9.764,9.764,0,0,1-2.289.562A12.2,12.2,0,0,1,65.8,96.4c-.226,0-.462,0-.7-.022s-.484-.039-.726-.066a9.763,9.763,0,0,1-2.3-.559,5.344,5.344,0,0,1-1.937-1.232,5.036,5.036,0,0,1-1.525-2.8,19.378,19.378,0,0,1-.25-3.209v-9.6H62.8V88.42a7.937,7.937,0,0,0,.531,2.825q.509,1.291,2.474,1.291t2.474-1.291a7.936,7.936,0,0,0,.531-2.825V78.906Zm2.8,0H80.47l8.114,10.418h.046V78.906h4.429v17.04H88.628l-8.114-10.44h-.046v10.44H76.041ZM95.95,95.945V78.906h6.326a6.279,6.279,0,0,1,3.672,1.017,3.936,3.936,0,0,1,1.39,3.435,4.86,4.86,0,0,1-.418,2.056,3.02,3.02,0,0,1-1.451,1.424v.022a3.681,3.681,0,0,1,2.655,1.412,4.973,4.973,0,0,1,.825,2.949,3.824,3.824,0,0,1-1.91,3.694,8.84,8.84,0,0,1-4.262,1.03Zm4.429-10.35h.5a.077.077,0,0,0,.057.022h.079a4.332,4.332,0,0,0,1.548-.323,1.278,1.278,0,0,0,.712-1.333,1.329,1.329,0,0,0-.678-1.351,3.888,3.888,0,0,0-1.469-.323h-.745Zm0,6.96h.565a.078.078,0,0,0,.057.022h.646a5.121,5.121,0,0,0,.588-.022,4.016,4.016,0,0,0,1.536-.433,1.393,1.393,0,0,0,.7-1.364,1.463,1.463,0,0,0-.769-1.5,4.341,4.341,0,0,0-1.672-.363h-1.649Zm19.434-14.215a9.9,9.9,0,0,1,6.553,2.474,7.916,7.916,0,0,1,2.865,6.319,9.082,9.082,0,0,1-2.655,6.757,10.033,10.033,0,0,1-13.524,0,9.07,9.07,0,0,1-2.668-6.757,7.926,7.926,0,0,1,2.87-6.316,9.8,9.8,0,0,1,6.553-2.452Zm-3.4,5.683A4.235,4.235,0,0,0,115,87.154a5,5,0,0,0,1.412,3.638,4.718,4.718,0,0,0,6.8,0,5.031,5.031,0,0,0,1.412-3.648,4.257,4.257,0,0,0-1.412-3.136,4.71,4.71,0,0,0-3.4-1.37,4.789,4.789,0,0,0-3.4,1.387Zm29.66-5.119v9.581a19.7,19.7,0,0,1-.26,3.229,5.055,5.055,0,0,1-1.525,2.8,5.344,5.344,0,0,1-1.937,1.232,9.764,9.764,0,0,1-2.289.562,12.3,12.3,0,0,1-1.426.088c-.226,0-.462,0-.7-.022s-.484-.039-.726-.066a9.747,9.747,0,0,1-2.294-.553,5.343,5.343,0,0,1-1.937-1.232,5.036,5.036,0,0,1-1.525-2.8,19.376,19.376,0,0,1-.26-3.209V78.91h4.429v9.515a7.936,7.936,0,0,0,.528,2.825q.509,1.291,2.474,1.291T141.1,91.25a7.972,7.972,0,0,0,.531-2.825V78.906Zm2.8,0H153.3l8.114,10.418h.046V78.906h4.429v17.04h-4.428l-8.114-10.44H153.3v10.44h-4.426Zm19.9,0h6.3a8.555,8.555,0,0,1,6.113,2.486,8.511,8.511,0,0,1-6.113,14.555h-6.3Zm4.429,13.287h.994a5.312,5.312,0,0,0,3.446-1.13,4.344,4.344,0,0,0,1.451-3.635,4.558,4.558,0,0,0-1.356-3.533,4.973,4.973,0,0,0-3.5-1.246H173.2Z" transform="translate(-19.863 -26.66)" fill="#1c1c1c" stroke="#fff" stroke-width="1"/>
      </g>
    </g>
  </g>
</svg>
