<svg id="Layer_1" data-name="Layer 1" xmlns="http://www.w3.org/2000/svg" viewBox="0 0 1253 1279.81"><defs><style>.cls-1{fill:#fff;}</style></defs><title>Ecomm</title><path class="cls-1" d="M-1475.75-91c0,14.2.6,20,5.5,52.8,3,20.2,6,39.8,6.6,43.6l1.1,6.7h42.1l42.2-.1,13.8,41.3,13.8,41.3,42.9,187.5c43.7,191.1,85.1,371.9,85.3,373.2.1.5-3.3,2.3-7.5,4.2-36.6,16-63.9,50.7-71.9,91.1-2.1,10.3-1.8,35.9.4,46.5,10.3,48.3,46.4,85.9,93.3,96.8,11,2.6,15.6,3.1,45.9,4.6,19.8,1,24.2,1,25.1-.1s77.9-1.3,442.3-1.3h441.2l-.3-44-.3-44-466-.2-466-.3-5.7-2.3a37.37,37.37,0,0,1-19-18c-3-5.9-3.3-7.6-3.3-15.2,0-7.2.4-9.4,2.9-14.7,3.7-8,10.7-14.8,16.2-15.7,2.1-.3,26.4-3.3,53.9-6.6l350.5-42c165.3-19.8,351.8-42.2,414.5-49.7s114.1-13.7,114.2-13.7c.2-.2,39.3-584.9,39.3-587.8,0-1.7-14.3-1.8-282.8-2l-282.9-.3,16.9-28.5c9.2-15.7,16.6-28.9,16.5-29.4s-7.2-4.9-15.6-9.9c-12.2-7.2-15.5-8.7-16.2-7.6-.4.8-10.7,18-22.7,38.4l-22,37-188.8.3-188.9.2-17.3-72.2c-9.6-39.8-17.6-73.1-17.8-74.1-.5-1.6-6.9-1.7-116-1.7h-115.4Zm201.6,115.6c9.5,39.6,17.3,72.8,17.4,73.7,0,1.6,2.3,1.8,29.8,2l29.7.3.3,29.7.2,29.8h-38.9c-36.2,0-39-.1-39.5-1.8-.3-.9-4.4-18.6-9.1-39.2-8.4-36.9-8.9-38.5-29.7-101-11.6-34.9-21.3-64.1-21.6-64.8-.3-1,4.2-1.2,21.8-1l22.2.3Zm195.4,105.5v30l-44.2-.2-44.3-.3-.3-28.5c-.1-15.7,0-29,.3-29.7.3-1,9.9-1.3,44.5-1.3h44Zm119,0v30h-89v-60h89Zm91.3-26.8c-1.1,1.8-9.1,15.3-17.7,30l-15.8,26.8h-27.8v-60h63.2Zm145.7,26.8v30h-89v-60h89Zm118.8.2.2,29.8h-89v-60l44.3.2,44.2.3Zm118.2-.2v30h-89v-29.3c0-16.2.3-29.7.7-30s20.4-.7,44.5-.7h43.8Zm119,0v30h-89v-60h89Zm80.5-23.8c-.6,7.1-3.5,50.1-3.5,52.3,0,1.3-3.4,1.5-23.5,1.5h-23.5v-60h51.1Zm-555.3,39c-.2,7.9-.5,14.4-.7,14.6s-3.9.2-8.3,0l-8.1-.3,8.2-14.2c4.5-7.8,8.4-14.2,8.7-14.3S-841.35,137.49-841.55,145.29Zm-355.2,88.3v44.5h-25.4c-23.4,0-25.5-.1-26-1.8-1-3.2-19.6-85.1-19.6-86.1,0-.8,11.2-1.1,35.5-1.1h35.5Zm118,0v44.5h-89v-43.8c0-24.1.3-44.2.7-44.5s20.4-.7,44.5-.7h43.8Zm118.9-9.8v34.8l-5.8,9.5-5.7,9.5-38.7.3-38.7.2v-89h89Zm40.1-34.1c0,.6-10,17.4-10.3,17.4-.1,0-.1-4,.1-9l.3-9h5C-921.95,189.09-919.75,189.39-919.75,189.69Zm78,43.9v44.5h-87l4.4-7.3c2.4-3.9,13.2-22.3,24.1-40.7s20.8-35.2,22.1-37.3l2.4-3.7h34Zm119,0v44.5h-89v-89h89Zm119,0v44.5h-89v-89h89Zm118,0v44.5h-89v-89h89Zm119,0v44.5h-89v-89h89Zm74.5-37.8c-.3,3.8-1.4,20.5-2.5,37.3s-2.2,33.8-2.6,37.7l-.6,7.3h-38.8v-89h45.1Zm-904.5,156.8v44.5h-12c-6.6,0-12-.2-12-.4s-4.5-20-10-44-10-43.9-10-44.2,9.9-.4,22-.4h22Zm118,0v44.5l-44.2-.2-44.3-.3-.3-44.3-.2-44.2h89Zm89-44.1c0,.2-11.7,20.1-25.9,44.2l-25.9,43.9-3.6.3-3.6.3v-89.1h29.5C-1003,308.09-989.75,308.29-989.75,308.49Zm148,44.1v44.5h-88v-89h88Zm119,0v44.5h-89v-89h89Zm118.8-.3-.3,44.3-44.2.3-44.3.2v-89h89Zm118.2.3v44.5l-44.2-.2-44.3-.3-.3-44.3-.2-44.2h89Zm119,0v44.5h-89v-89h89Zm66.6-37.3c-.4,4-1.5,21.2-2.6,38.3s-2.3,33.8-2.6,37.2l-.6,6.3h-30.8l-.2-44.5-.3-44.5h37.7ZM-960,396.79c-.2.2-9,.2-19.4.1l-19.1-.3,19.2-32.4,19.1-32.5.3,32.4C-959.85,381.89-959.85,396.59-960,396.79Zm-236.8,66c0,20.3-.2,36.3-.4,35.8-.5-1.2-16.5-71.2-16.5-72,0-.3,3.8-.5,8.5-.5h8.5Zm118.1-20v16.8l-16.3,27.7-16.2,27.7-28.2.1h-28.3v-89h89Zm119,27.8v44.5h-89v-33.3l14.2-24.1c7.8-13.3,15.2-25.8,16.5-27.9l2.3-3.7h56Zm118,0v44.5h-88v-89h88Zm119,0v44.5h-89v-89h89Zm119,0v44.5h-89v-89h89Zm118,0v44.5h-89v-89h89Zm119,0v44.5h-89v-89h89Zm59-43.3c0,3-5,77.8-5.6,82.5l-.5,5.3h-23.4l.3-44.5.2-44.5h14.5C-311.35,426.09-307.75,426.39-307.75,427.29Zm-822,118.3c0,.6-36,61.8-37.1,62.9-.5.6-.9-12.6-.9-31.2v-32.2h19C-1138.25,545.09-1129.75,545.29-1129.75,545.59Zm51,44v44.5h-29.6c-27.8,0-29.6-.1-28.9-1.8.3-.9,12-20.9,25.8-44.4l25.2-42.8h7.5Zm119,0v44.5h-89v-89h89Zm118,0v44.5h-88v-89h88Zm119-4V626l-3.2.6c-15.3,2.5-63.7,7.5-73.7,7.5h-12.1v-89h89Zm119-7c0,26.1-.3,33.5-1.2,33.5-.7.1-20.8,2.5-44.5,5.3l-43.3,5.3v-77.6h89Zm118-7c0,17.7-.3,26.5-1,26.5s-19.8,2.2-42.6,5-42.4,5-43.5,5c-1.8,0-1.9-1-1.9-31.5v-31.5h89Zm119-7.5c0,14.4-.3,19.2-1.2,19.5-1.2.3-85.2,10.5-87,10.5-.5,0-.8-11-.8-24.5v-24.5h89Zm50.6-9.8c-.3,5.1-.9,12.5-1.2,16.4l-.6,7.2-7.2.6c-3.9.4-8.1,1-9.3,1.3-2.2.5-2.2.5-2.5-17.1l-.3-17.6h21.8Zm-762.6,111.8c0,1.6-.3,3-.6,3s-17.4,2-38,4.5-37.7,4.5-38.2,4.5-1.4-2.3-2-5.1c-1-4.4-1-5.6.3-7.5l1.5-2.4h77Zm39.5-2c-4.5,1.1-9.5,1.1-9.5,0,0-.6,2.7-.9,6.3-.9C-1037.55,663.29-1036.85,663.49-1039.25,664.09Z" transform="translate(1475.75 106.91)"/><path class="cls-1" d="M-1085.35,962.09c-45.8,9.9-80,48-84.3,94.1a106.49,106.49,0,0,0,72.4,111.3c47.5,15.9,100.7-4.2,125.7-47.6a101.51,101.51,0,0,0,13.9-42.8c3.3-30-7.3-61.2-28.1-83.4a108.82,108.82,0,0,0-50.6-30.2C-1050.15,959.79-1072,959.19-1085.35,962.09Zm38.6,54a53.93,53.93,0,0,1,34.4,35.9c2,7,2.1,20.9.1,28.6-4.3,16.5-18.7,31.3-35.4,36.6-9.1,2.9-23.1,2.9-32.1,0-26.4-8.4-42.3-37-35.5-63.6a54.6,54.6,0,0,1,39.8-39.1C-1067.15,1012.69-1054.95,1013.29-1046.75,1016.09Z" transform="translate(1475.75 106.91)"/><path class="cls-1" d="M-1072.25,1041.39c-10.9,4.2-17.4,13-17.6,23.6-.3,12.7,6.5,22.8,18.1,26.6,17.2,5.7,34.4-7.1,34.3-25.5-.1-14.7-11.4-26.1-25.7-25.9A33.33,33.33,0,0,0-1072.25,1041.39Z" transform="translate(1475.75 106.91)"/><path class="cls-1" d="M-441.25,961.29c-50.1,9.3-86.2,50.5-88.2,100.8-1.3,31.6,10.2,60,33,81.6a106.83,106.83,0,0,0,116.5,20.1c28.7-12.4,51.8-39.6,59.8-70.3,3.1-11.9,4.2-31,2.5-42.4a107.43,107.43,0,0,0-86.4-89.5C-412.75,959.89-433.15,959.79-441.25,961.29Zm28.1,52.9c18.1,3.3,34.3,17.5,40.6,35.6,3.3,9.8,3.2,24-.4,34a53.23,53.23,0,0,1-88.4,19.6,55.94,55.94,0,0,1-14.6-29.9,53,53,0,0,1,21.3-49.9A53,53,0,0,1-413.15,1014.19Z" transform="translate(1475.75 106.91)"/><path class="cls-1" d="M-433.75,1042.19a26.11,26.11,0,0,0-15.7,21.9c-2.2,24.4,27.4,38.4,44.6,21.2,16.9-16.9,5.4-45.2-18.4-45.2A26.19,26.19,0,0,0-433.75,1042.19Z" transform="translate(1475.75 106.91)"/></svg>