<svg id="Capa_1" data-name="Capa 1" xmlns="http://www.w3.org/2000/svg" viewBox="0 0 657.07 610.85"><defs><style>.cls-1{fill:#fff;}</style></defs><title>Finance</title><path class="cls-1" d="M657-480.83H568.49v296.66h5.27c11.83,0,23.67.12,35.5-.07,4.15-.06,6.09,1,6,5.6-.37,15.3,1.91,13.31-13.25,13.32q-75.25.12-150.49,0c-7,0-7.24-.27-7.25-7.39,0-13.14-.8-11.41,11.58-11.47,11.62,0,23.25,0,35.18,0V-481.53H366.13v297.36h38.59c8.08,0,8.08,0,8.09,8,0,11.5,1.07,10.93-10.68,10.93h-153c-7.18,0-7.31-.1-7.27-7.27.06-12.87-1.5-11.56,11.36-11.6h35.3V-482.52h-137v298.35h22.89c6.33,0,12.67.1,19,0,3.4-.07,4.92,1.28,4.77,4.71a67,67,0,0,0,0,8.5c.36,4.44-1.64,5.78-5.88,5.76-23.83-.13-47.66-.06-71.5-.06H34.31c-6.72,0-7.09-.36-7.09-7.05,0-13.52-1-11.75,11.74-11.81,11.48-.06,23,0,34.88,0V-483.84H.23L0-484.92c1.15-.8,2.26-1.66,3.44-2.4q154.47-96,308.91-192.1c3-1.86,5.12-2.36,8.42-.41q165.75,98.13,331.62,196C653.63-483.07,654.83-482.25,657-480.83ZM278.62-569.17c0,23,18.85,41.49,42.27,41.45s42.16-18.49,42.14-41.56-19-41.6-42.25-41.52S278.58-592.17,278.62-569.17Z" transform="translate(0.03 681.07)"/><path class="cls-1" d="M322.94-111.06H613.38c8.23,0,8.23,0,8.23,8.42v25.5c0,6.48-.43,6.89-6.69,6.92H32.54c-8.46,0-8.46,0-8.46-8.63v-25.5c0-6.3.43-6.71,6.92-6.71Z" transform="translate(0.03 681.07)"/><path class="cls-1" d="M322.34-151H613.72c7.74,0,7.82.08,7.82,7.78,0,6.33-.18,12.67.06,19,.18,4.64-1.75,6.47-6.22,6-.67,0-1.33,0-2,0H32.61c-8.54,0-8.54,0-8.54-8.54,0-6,.24-12-.08-18-.26-4.93,1.78-6.74,6.46-6.22a29.19,29.19,0,0,0,3.5,0Z" transform="translate(0.03 681.07)"/></svg>