<svg id="Layer_1" data-name="Layer 1" xmlns="http://www.w3.org/2000/svg" viewBox="0 0 139.76 173.14"><defs><style>.cls-1{fill:#fff;}</style></defs><title>Ind_Health_white</title><circle class="cls-1" cx="15.33" cy="144.19" r="15.33"/><path class="cls-1" d="M13-199.24l1.14,5.68c2.83-1.14,5.1-2.28,7.94-3.41a52.62,52.62,0,0,1,41.44,3.41h.57l1.14-5.68a58.49,58.49,0,0,0-44.85-2.84A28.4,28.4,0,0,0,13-199.24Z" transform="translate(36.98 265.09)"/><path class="cls-1" d="M102.11-147.58c-2.27-18.17-13.06-35.2-28.39-46l-1.13,6.24A63.75,63.75,0,0,1,96.43-147c2.27,15.89-3.41,30.65-14.76,41.44-6.24,5.67-16.46,8.51-24.41,6.81C52.72-99.9,47-102.17,43.63-109.55c-1.13-2.84-1.7-5.67-2.83-8.51a38.21,38.21,0,0,1-1.14-8c.57-2.84,1.14-6.24,2.84-9.08a9.14,9.14,0,0,1,2.27-4,6.88,6.88,0,0,1,2.84-2.84c2.27-1.7,4.54-2.83,6.24-4.54,3.41-2.84,5.68-6.81,7.38-10.78,5.11-10.22,7.38-21,9.09-31.23l1.13-6.24c1.7-10.79,3.41-21.57,4.54-34.63V-231c1.14-9.09,1.71-19.87-5.11-27.25-4.54-5.11-11.35-5.68-17.59-5.11,1.7,1.13,2.27,2.84,2.27,5.11v.57c4.54,0,8.51.56,11.35,3.4,5.68,5.68,4.54,14.76,4,22.71v1.7c-1.13,11.92-2.27,22.71-4,32.36l-1.14,5.68c-1.7,10.78-4,22.14-9.08,31.79-1.7,2.84-3.4,6.24-6.24,9.08-.57.57-1.14.57-1.71,1.14-.56,0-1.13.56-1.7,1.13A14.15,14.15,0,0,1,37.39-147a2.06,2.06,0,0,1-1.7-.57c-6.81-1.71-13.63-7.95-16.47-15.33a163.15,163.15,0,0,1-7.38-27.25l-1.13-8L9-210c-.57-2.84-.57-5.11-1.14-7.95-1.7-11.35-4-23.27,1.14-32.35,3.4-6.25,9.08-8.52,14.76-9.09V-260a5.94,5.94,0,0,1,2.83-5.11c-10.21,0-18.73,4.54-22.7,12.49-5.68,11.35-3.41,24.41-1.71,36.33a38.21,38.21,0,0,1,1.14,8c.57,4.54,1.13,9.08,2.27,14.19l1.14,6.24a153.83,153.83,0,0,0,7.38,27.82c1.13,3.4,3.4,6.24,5.67,9.08,1.14,1.14,2.84,2.27,4,4,1.7,1.7,4,2.83,5.11,5.1,1.7,2.28,4,5.11,5.1,8.52,1.14,4,1.14,8.52,1.71,12.49a40.54,40.54,0,0,0,4,14.19,24.79,24.79,0,0,0,17.6,14.19,23.16,23.16,0,0,0,6.24.57c8,0,16.47-3.4,22.71-8.51C98.7-113.52,105-130,102.11-147.58Z" transform="translate(36.98 265.09)"/><path class="cls-1" d="M-21.65-164.61c-4,8.51-5.68,17-5.11,25l5.68-.57c-.57-6.81,1.13-14.76,4.54-22.14a73.26,73.26,0,0,1,20.44-25l-1.14-6.24C-6.89-186.18-16-176.53-21.65-164.61Z" transform="translate(36.98 265.09)"/></svg>