<svg xmlns="http://www.w3.org/2000/svg" viewBox="0 0 441.693 328.719">
  <defs>
    <style>
      .cls-2 {
        fill: #fff;
      }
    </style>
  </defs>
  <g id="Group_656" data-name="Group 656" transform="translate(-555.487 -2728.996)">
    <path id="Path_1676" data-name="Path 1676" class="cls-2" d="M102.758-667.525h67.4a5.309,5.309,0,0,0,5.309-5.282v-20.354a5.309,5.309,0,0,0-5.309-5.309h-67.4a5.318,5.318,0,0,0-5.318,5.309v20.354A5.318,5.318,0,0,0,102.758-667.525Z" transform="translate(458.047 3427.466)"/>
    <path id="Path_1677" data-name="Path 1677" class="cls-2" d="M536.131-607.5a6.645,6.645,0,0,0-6.31-.523L420.236-559.9V-601.94a6.644,6.644,0,0,0-3-5.562,6.644,6.644,0,0,0-6.31-.523L301.34-559.9V-601.94a6.643,6.643,0,0,0-3-5.562,6.645,6.645,0,0,0-6.31-.523L175.466-556.833v-81.127a5.309,5.309,0,0,0-5.309-5.309h-67.4a5.318,5.318,0,0,0-5.318,5.309v261.032a12.62,12.62,0,0,0,12.62,12.619H532.5a6.634,6.634,0,0,0,6.634-6.634v-231A6.643,6.643,0,0,0,536.131-607.5ZM256.513-444.715a6.22,6.22,0,0,1-6.22,6.22H220.222a6.22,6.22,0,0,1-6.22-6.22v-49.776a6.22,6.22,0,0,1,6.22-6.22h30.062a6.22,6.22,0,0,1,6.22,6.22Zm118.9,0a6.22,6.22,0,0,1-6.22,6.22H339.118a6.22,6.22,0,0,1-6.22-6.22v-49.776a6.22,6.22,0,0,1,6.22-6.22h30.071a6.22,6.22,0,0,1,6.22,6.22Zm118.9,0a6.22,6.22,0,0,1-6.22,6.22H458.015a6.22,6.22,0,0,1-6.22-6.22v-49.776a6.22,6.22,0,0,1,6.22-6.22h30.071a6.22,6.22,0,0,1,6.22,6.22Z" transform="translate(458.047 3422.024)"/>
  </g>
</svg>
