<svg id="Capa_1" data-name="Capa 1" xmlns="http://www.w3.org/2000/svg" viewBox="0 0 1460.33 1483.42"><defs><style>.cls-1{fill:#fff;}</style></defs><title>non-profit</title><path class="cls-1" d="M414.24-273.48v-99c0-2.62-.32-5.22,1.4-7.69.67-1,.17-2.86,0-4.3-.36-2.8-1.08-5.59.83-8.16A2.8,2.8,0,0,0,417-394c1.57-20.91,3.52-29.16,9.22-48.1a172.21,172.21,0,0,1,8.49-21.24c3.89-8.58,7.77-17.22,12.46-25.37,4.94-8.57,10.72-16.69,16.39-24.82,2-2.9,5.59-4.9,7.09-8,1.85-3.79,6.14-5.42,7.33-9.58.29-1,1.45-1.78,2.27-2.6,3.76-3.79,7.47-7.62,11.34-11.29a35.35,35.35,0,0,1,4.83-3.32c.41-.27,1.07-.3,1.31-.65,4.38-6.35,11.48-9.59,16.89-14.77a33.61,33.61,0,0,1,5.33-3.59c1.67-1.08,3.46-2,5-3.22a88.55,88.55,0,0,1,21.73-12.71,28.3,28.3,0,0,0,7.54-3.76c6.05-4.8,13.42-6.6,20.33-9.33a191.27,191.27,0,0,1,37-10.14c3.65-.65,7.88.1,11-1.49,4-2,8.38,1.09,11.83-2a.52.52,0,0,1,.48-.09c5,1.56,9.61-1.15,14.47-1.15q90,0,180,.07c2.4,0,4.79.86,7.19,1.34.48.1,1,.55,1.4.41,4.7-1.85,9.27,1,13.92.31a3.13,3.13,0,0,1,1.49,0c6.78,2.58,14.17,1.69,21,3.79,8.4,2.57,17.22,3.58,25.26,7.58,4.68,2.33,10,3.35,14.84,5.36,6.12,2.54,12.18,5.27,18,8.35S944-577,949.86-573.84c5.33,2.81,9.94,6.51,15,9.59,2.87,1.74,5,4.76,7.8,6.59,3.56,2.28,5.76,6.07,9.79,7.88a12.71,12.71,0,0,1,5.26,5.14,27.3,27.3,0,0,0,10.71,10.71,8.14,8.14,0,0,1,3.36,2.9c3.26,6.33,9.7,10,13,16.37,1.89,3.59,5.11,6.46,7.54,9.8s4.82,6.78,6.93,10.36c3.79,6.44,7.75,12.82,10.92,19.57,6.07,12.75,11.78,25.65,15.41,39.39,1.92,7.21,4.14,14.42,5.11,21.77.76,5.75,3.2,11.37,2,17.34,2,3.23.24,7,1,10,3.34,14,1.32,28.15,1.4,42.15.33,55.83.14,111.66.13,167.49,0,6.92-.94,8.15-7.24,10.79-3.51,1.48-6.89,3.27-10.29,5a94.25,94.25,0,0,1-20.17,7.91,5.33,5.33,0,0,0-1.37.58c-8.64,5.23-18.32,7.66-27.91,10.46-6.86,2-13.59,4.49-20.48,6.36-9.94,2.69-20,5.14-30,7.47-9.66,2.24-19.32,4.59-29.1,6.12-5.39.85-10.75,2-16.2,2.56a35.87,35.87,0,0,0-8.51,1.81c-2.67,1-5.7-1.2-8.08,1.18-4-1.52-7.42,1.57-11.49,1.13-2.78-.31-6,.47-9,1-2.44.45-4.68,1.25-7.22.74-.86-.18-1.85.46-2.8.56-5.45.55-10.91,1.31-16.38,1.43a13.32,13.32,0,0,0-5.63.71c-2,.82-4.52.29-6.82.28-1.46,0-3.22-.71-4.34-.13-4.84,2.53-9.58,1.82-14.46.41-1-.29-2.56-.44-3.25.12-3.07,2.45-6.59,2-10,2-2.67,0-5.34.1-8,0a13.6,13.6,0,0,1-4.85-.83c-3.72-1.66-7.56-1.4-11.31-.83A64,64,0,0,1,751-110c-3.73-.57-7.58-.81-11.29.89a13,13,0,0,1-4.86.8c-4,.1-8,0-12,0-1,0-2.33.29-2.93-.23-3.07-2.63-6.1-1.69-9.63-1s-7.55,1.07-11.21-1c-1.1-.62-2.86-.22-4.29-.08-3.31.32-6.63,1.06-9.67-1-.14-.09-.33-.23-.45-.2-5.39,1.38-10.59-.87-15.91-.78-.66,0-1.38.43-2,.26-3.64-1.07-7.49-.58-11.06-1.3-2.75-.55-5.29-1.45-8.1-.69-3.48-2.87-7.86-.33-11.8-2.09-3.16-1.41-7.26-.68-10.93-1-2.54-.22-5.08-.52-7.59-.94-5.38-.9-10.73-2-16.11-2.86-3.29-.53-6.62-.84-9.94-1.25-2.62-.33-5.34-.33-7.86-1-10.5-2.91-21.39-3.61-32-5.94-8.6-1.9-17.22-3.72-25.79-5.77-16.16-3.87-32.36-7.67-48.43-11.92-14.47-3.83-28.8-8.22-43.18-12.39-4.39-1.28-8.74-2.72-13.13-4-5.45-1.61-6.62-3.09-6.62-8.9Q414.25-223,414.24-273.48Z" transform="translate(-0.08 1591.61)"/><path class="cls-1" d="M368.29-307.15c-1.23.42-1.71.75-2.15.71-6.11-.52-12.21-1.1-18.32-1.65-4.3-.39-8.6-.69-12.9-1.11-13.7-1.35-27.44-2.45-41.09-4.2Q273.1-316,252.5-319.78c-21.57-4-43.12-8-64.55-12.68-15.6-3.38-31.06-7.43-46.45-11.67-18.93-5.21-37.72-10.93-56.56-16.45-1.28-.37-2.53-.85-3.78-1.29A4,4,0,0,1,78.24-366V-480.85c-4.34-.75-8.24-1.33-12.1-2.11-11.21-2.27-20.88-7.57-29.39-15.13-18.58-16.5-28.58-37.71-33.6-61.59A131.84,131.84,0,0,1,.24-594.39c1.54-26.81,8.45-51.83,25.28-73.38,9.12-11.68,20.37-20.63,34.53-25.31a56.36,56.36,0,0,1,42.3,2.25c2.85,1.29,5.65,2.72,8.67,4.18,2-3.12,4-6,5.79-8.94,7.8-12.64,17.2-24,27.1-35,12.53-14,26.84-25.82,42.19-36.38a224.06,224.06,0,0,1,36-20.32,241,241,0,0,1,44.33-15.15c12.79-2.94,25.66-5.51,38.86-5.86,9.3-.25,18.6-.89,27.9-.9q78.22-.13,156.46,0c3.8,0,7.6.66,11.4,1a3,3,0,0,1,3.12,2.87,1.71,1.71,0,0,1,0,.32c0,.67.06,1.34.06,2,.1,14.55,2.67,28.74,6,42.84a224.45,224.45,0,0,0,19.47,52.79,224.72,224.72,0,0,0,27.82,41.92c5.39,6.32,11.06,12.4,16.6,18.59.53.59,1,1.24,1.69,2.12-7.39,2.64-14.45,5.06-21.43,7.68A278.74,278.74,0,0,0,507-613.75a266.85,266.85,0,0,0-40,29.63c-9.74,8.78-18.55,18.62-27.6,28.16-8.84,9.31-16.26,19.77-23.3,30.48a289,289,0,0,0-25.2,47.58,283.19,283.19,0,0,0-17.09,56.76c-1.57,8.27-2.57,16.69-3.57,25.1-3.1,27.36-1.69,54.85-2,82.29C368.24-311.61,368.29-309.46,368.29-307.15Z" transform="translate(-0.08 1591.61)"/><path class="cls-1" d="M903.31-644.91c45.69-45.29,69.94-99.76,72.84-164,2-.18,3.6-.44,5.19-.44,55.82,0,111.64-.16,167.46.17,13.27.07,26.45,2.38,39.49,5.06a239.86,239.86,0,0,1,66.26,24.55A243.27,243.27,0,0,1,1298.24-749a247.73,247.73,0,0,1,50.32,60.28c.34.56.72,1.09,1.33,2,2.4-1.2,4.75-2.36,7.08-3.55a53,53,0,0,1,25.56-5.85,62.57,62.57,0,0,1,40.5,16c17.77,15.46,27.87,35.34,33.33,57.87a133.67,133.67,0,0,1,3.88,39.55c-1.57,26.44-8.34,51.23-25,72.44-9.2,11.71-20.34,21.12-34.83,25.77a106.79,106.79,0,0,1-11.17,2.41c-2.09.43-4.2.77-6.76,1.23v115c-12,5.47-23.65,11.27-35.66,16.09a474.46,474.46,0,0,1-69,21.71q-29.85,7-60,12.52c-13.37,2.45-27,3.59-40.47,5.43a451,451,0,0,1-47.15,4c-5,.15-9.94.64-14.92.88a24.56,24.56,0,0,1-3.82-.44c-.11-2.1-.31-4-.31-6,0-20,.22-40-.11-60a292,292,0,0,0-5.11-49,283.39,283.39,0,0,0-19.3-62.34,301.18,301.18,0,0,0-30.24-52.8c-12.33-17.35-26.82-32.71-42.43-47a273.6,273.6,0,0,0-52.72-37.46,309.15,309.15,0,0,0-54.57-23.28C905.74-643.89,904.87-644.28,903.31-644.91Z" transform="translate(-0.08 1591.61)"/><path class="cls-1" d="M730-1176c-113.75.67-207.75-92.11-207.75-207.78s93.94-208.2,208.88-207.81c113.68.38,207.44,93,207.22,208.48C938.16-1267.95,843.24-1174.64,730-1176Z" transform="translate(-0.08 1591.61)"/><path class="cls-1" d="M552-788.59c-.33-1.2-.64-2.41-1-3.62-.18-.63-.71-1.31-.59-1.86,1.39-6.44-2.21-12.51-1.24-19,.59-3.92,0-8,.17-12a24.53,24.53,0,0,1,1-4.8c.19-.79,1-1.78.74-2.28-2.08-4.11,0-8.15.53-12a201.81,201.81,0,0,1,5.07-24.58c2-7.54,4.3-15,8.1-21.94s6.61-14.47,10.49-21.38a190.25,190.25,0,0,1,12.08-18.17c2.18-3,5.06-5.51,7.61-8.25a4.94,4.94,0,0,0,1.19-1.5c1.52-4.39,5-6.82,8.69-9.19a10.55,10.55,0,0,0,3.32-3.49c1.79-3.14,4-5.69,7.46-7a4.49,4.49,0,0,0,2.06-1.33c3.5-4.65,8.42-7.66,12.92-11.11,2.58-2,5.69-3.26,8.55-4.87a18.45,18.45,0,0,0,1.66-1.11c9.19-6.63,19.35-11.54,29.81-15.59a171,171,0,0,1,31-9.22c3.32-.6,7.17.26,10-1.11,4.07-2,8.24-.4,12.39-1.82,3.75-1.29,8.46.22,12.74.44,1.92.1,3.94.45,5.76,0,5.1-1.19,10.08-1.9,15.08.39.8.37,1.92,0,2.88.06,1.76.13,3.51.32,5.27.51,2.74.3,5.48.54,8.21,1,9.67,1.46,18.89,4.63,28.26,7.29,7.91,2.25,15.05,6,22.54,9.11C834-983.2,841.84-976.88,850-971.1c4.4,3.13,9.23,5.83,13.09,9.54s7.12,8,12,10.68c.89.49,1.39,1.84,1.88,2.88,1.3,2.77,2.72,5.28,6,6.25a6.18,6.18,0,0,1,2.54,2.32C889.68-934,893.91-928.55,898-923a92.28,92.28,0,0,1,5.68,8.8c2.64,4.6,5.19,9.26,7.59,14a50,50,0,0,1,2.1,6.07A20,20,0,0,0,915-890c5.77,9,8,19.33,10.25,29.54,1.17,5.24,1.33,10.7,2.56,15.91.69,2.92,1.9,5.6.77,8.63-.13.35.28.93.52,1.36,2,3.65,1.68,7.45.2,11-1.9,4.59-.76,9.2-.16,13.63.63,4.61,2.22,9-.37,13.47-.34.59,0,1.6.11,2.41s.52,1.77.25,2.44c-2.5,6.33-1.26,13.28-3.63,19.72-3.13,8.53-4.76,17.64-8.2,26-3.73,9.1-7.52,18.29-13.24,26.48-4,5.68-7.45,11.7-11.45,17.34-1.86,2.62-4.45,4.72-6.71,7-.34.36-1,.65-1,1-.58,4.68-4.58,6.06-7.68,8.52-2.77,2.22-4.76,5.41-7.11,8.16-1.29,1.51-2.32,3.63-4,4.38-6.07,2.74-9.06,9.53-15.59,11.54-4.37,5.86-11.29,8.21-17.21,11.65a182.59,182.59,0,0,1-28,13c-8.68,3.23-17.83,5.25-26.86,7.47-3.71.92-7.63.89-11.44,1.45-1.59.24-3.28,1.6-4.63,1.27-5.7-1.41-10.85,2-16.51,1.34s-11.32-.08-17-.2a18.5,18.5,0,0,1-4.28-1c-.63-.18-1.4-.86-1.81-.67-3.93,1.85-7.56-1-11.45-.62a27.64,27.64,0,0,1-8.68-1c-11-2.64-22.17-4.75-32.51-9.51-7.77-3.58-15.17-8-23-11.3-7.2-3-12.86-8-18.87-12.69-2.34-1.81-5.12-3.05-7.49-4.84a40.68,40.68,0,0,1-4.47-4.53,10.12,10.12,0,0,0-2-2.08c-7.24-4.08-12.58-10.07-17.29-16.76-1.68-2.39-3.7-4.53-5.48-6.85-4.74-6.14-10-12-14-18.59-4.28-7.19-9.32-14.08-11.43-22.5-.82-3.27-3.24-6.11-4.47-9.32-3.68-9.62-6.72-19.44-7.9-29.75a67.75,67.75,0,0,0-1.86-7.59c-.26-1.11-.36-2.26-.54-3.4Z" transform="translate(-0.08 1591.61)"/><path class="cls-1" d="M403.8-821.52c-19.8.28-38.87-3.56-57.5-9.38a179.47,179.47,0,0,1-61.14-33,227,227,0,0,1-18.88-17,192,192,0,0,1-29.94-41A187.26,187.26,0,0,1,217-974.67a161.37,161.37,0,0,1-2.75-19.2c-.65-7.61-.94-15.26-1-22.9-.18-17.42,2.9-34.4,7.7-51.08a186.44,186.44,0,0,1,35.27-66.59c6.79-8.32,14.86-15.66,22.71-23.06,12.71-12,27.43-21.06,43.08-28.62,16.73-8.08,34.41-13.19,52.74-16.28,14.73-2.48,29.57-2.58,44.3-1.67a181.25,181.25,0,0,1,58,13.68,187.64,187.64,0,0,1,47.17,27.87,193,193,0,0,1,44.87,51.77,193,193,0,0,1,25,71.13c.79,5.4.81,10.92,1.22,16.39.2,2.64.71,5.29.65,7.92a100.54,100.54,0,0,1-1,11.87c-.16,1.13-1.36,2.25-2.31,3.12-7.57,7-15.39,13.73-22.75,20.94-13.75,13.47-24.86,29-34.49,45.63a217.1,217.1,0,0,0-20.59,46.47c-3,10-5.3,20.26-7.47,30.5a11.78,11.78,0,0,1-6.05,8.47C480-836,457.4-827.57,433-824.24,423.34-822.92,413.54-822.41,403.8-821.52Z" transform="translate(-0.08 1591.61)"/><path class="cls-1" d="M1056.51-1204.88c23.69-.43,46.42,4.28,68.35,12.7a186.69,186.69,0,0,1,54.38,32.15,191.66,191.66,0,0,1,35.52,39,192.27,192.27,0,0,1,25.6,54.48,173.42,173.42,0,0,1,6.75,35.71,213,213,0,0,1-.54,39.28,191.26,191.26,0,0,1-9.13,40.28A187.65,187.65,0,0,1,1202.66-890a190,190,0,0,1-38.27,34.85A193.55,193.55,0,0,1,1108.54-829a187.12,187.12,0,0,1-34.24,6.53,194,194,0,0,1-45.68-1.33,207.26,207.26,0,0,1-42.32-11.32,66.32,66.32,0,0,1-9.06-4.07,5.46,5.46,0,0,1-2.25-3.44c-1.1-5.54-1.75-11.16-2.75-16.7a234.67,234.67,0,0,0-26.78-72.74,235.74,235.74,0,0,0-49-60.19c-8.53-7.63-18-14.18-27.32-20.9-2.9-2.09-4.16-4.16-4.06-7.74a185.2,185.2,0,0,1,14-65,188.05,188.05,0,0,1,31-51,191.53,191.53,0,0,1,72.1-53.08,186.48,186.48,0,0,1,48-13.19C1038.85-1204.28,1047.72-1204.28,1056.51-1204.88Z" transform="translate(-0.08 1591.61)"/><path class="cls-1" d="M830.13-1034.47c-68.07-27.59-134.29-24.35-199.73,9.45-.45-48.58-14.94-91.92-42.9-131.63,4.66-1,8.29-2.07,12-2.45,12.06-1.25,24.15-3.12,36.23-3.19,63-.31,126-.18,189-.12,15.85,0,31.47,2.33,47,5.28.29.06.54.35,1.13.75-.52.92-1,1.92-1.59,2.81a223.62,223.62,0,0,0-36.57,85.22c-1.75,8.78-2.31,17.79-3.44,26.69C831-1039.53,830.6-1037.42,830.13-1034.47Z" transform="translate(-0.08 1591.61)"/></svg>