<svg id="Capa_1" data-name="Capa 1" xmlns="http://www.w3.org/2000/svg" viewBox="0 0 616.9 720.01"><defs><style>.cls-1{fill:#fff;}</style></defs><title>Sales</title><path class="cls-1" d="M-397,0h19c1.55.56,3.09,1.17,4.66,1.67a39.25,39.25,0,0,1,14.86,8,11.24,11.24,0,0,0,8.6,3A60.81,60.81,0,0,1-329.61,15c2.28.68,4.93,1,6.53,3.79-2.15,2.52-4.33,5-6.44,7.56-8.2,9.87-16.73,19.48-24.46,29.7C-366.8,73-377.56,91.12-385,111.14c-4.63,12.4.16,17.71,11,19.7,7.35,1.34,14.67,3,21.87,5A50.84,50.84,0,0,1-325,154.35c4.89,6.37,6.56,13.4,4.27,21.15-1,3.5-2.43,6.9-3.75,10.31-1.38,3.57-3.08,7-4.26,10.66-2.44,7.51-2.14,14.69,2.9,21.32,3.63,4.79,5,10.39,5.09,16.41.07,6.46-1.73,12.48-3.76,18.5C-327,260-331,266.13-337.9,270a29.49,29.49,0,0,0-5.57,4.2,52.18,52.18,0,0,0-4.19,4.95c.72,2.22,1.25,3.8,1.74,5.39,2,6.51.82,12.52-3,18.06a55.78,55.78,0,0,1-4.31,5.5c-2.85,3.26-5.86,6.39-8.72,9.63-8.33,9.43-11.79,20.29-9.54,33.06l3.67,3.13c8.64,7.32,17.52,14.39,25.89,22,29,26.42,54.23,56,73.64,90.25,15.07,26.59,25.83,54.76,30.66,85,.89,5.57,1.71,11.15,2.56,16.73v35c-.34.93-.63,1.87-.88,2.83A98.84,98.84,0,0,1-253.77,645c-10.69,14.18-24.2,25.12-39.33,34.15-21,12.55-43.71,21.06-67.35,27.05-24.05,6.11-48.55,9.63-73.22,12.14-5.11.51-10.21,1.11-15.32,1.67h-46c-3.77-.53-7.54-1.15-11.32-1.59-31.08-3.63-59.4-14-84.51-33.15s-45.43-41.57-58.81-70.14c-14.59-31.17-18.33-63.68-9.29-96.91A217.17,217.17,0,0,1-615,434.29c.73-.86,1.38-1.78,2.09-2.71-6.29-3.25-13.78-3.15-32.33.35-7.19,10.09-3.66,21.93-4.34,33.36-1.86.71-3.49,1.66-5.23,1.93-5.26.82-10.55,1.37-15.82,2-5.89.76-12,.87-16.77,5,0,5.73-.09,11.21,0,16.69.11,5.65.55,11.3.55,17,0,2.22-.8,4.45-1.22,6.64-1.52.28-2.48.54-3.46.61-20.59,1.54-41.17,3.12-61.77,4.55a69.9,69.9,0,0,1-20-1v-6.44c-.56-21-1-42-1.77-62.94a462.24,462.24,0,0,0-7.27-65c-4.66-25.81-11.39-51-22.39-74.94-9.12-19.82-18.68-39.43-28.25-59-6.15-12.56-12.67-24.94-19-37.4v-6a26.34,26.34,0,0,1,14.87-5.12c13.82-.57,27.62-1.31,41.44-1.74,28.31-.88,56.63-1.4,84.92-2.51,12.6-.49,25.3-1,37.25-6a15.92,15.92,0,0,0,7.17-5.08c5.69-7.6,11.57-15.06,17.27-22.66q22-29.41,43.89-58.92a19.49,19.49,0,0,1,9.81-7.4,54.39,54.39,0,0,1,12.59-2.7c6.81-.4,13.66,0,20.49,0,4.33,0,8.68.1,13-.2,6.66-.46,9.57-4.61,7.49-11a33.79,33.79,0,0,0-4.49-8.84c-9.12-12.94-18.45-25.73-27.65-38.61a26.49,26.49,0,0,1-3.26-5.56c-1.83-4.71-.53-8.57,3.79-11.15a36,36,0,0,1,6.86-3c4.09-1.38,8.28-2.51,12.4-3.83a20.33,20.33,0,0,1,16,1.36,60.33,60.33,0,0,1,8.39,5.37c4.15,3.07,8,6.56,12.23,9.5,7.14,5,13.34,4.39,19.1-2.11a86.07,86.07,0,0,0,9.09-13.08A12.45,12.45,0,0,1-482.68,8c4-1.5,8.13-2,12.22-.53a83.94,83.94,0,0,1,10,4.39c4.28,2.24,8.31,4.94,12.57,7.22a22.22,22.22,0,0,0,16.6,2.19,52.87,52.87,0,0,1,24.8-18.49C-403.39,1.79-400.16,1-397,0ZM-482.7,160c4.12,3.28,8.41,6.42,12.39,9.92,5.25,4.62,10.18,9.6,15.39,14.27,7.62,6.83,16.25,11.5,26.74,12.17,6.6.43,10.37-1.48,13.47-7.53-9.6-25.29-26.43-46.57-39.85-69.31-44.53-3.36-88.3-1.21-131.81-1.23-3.28,3.83-6.25,7.2-9.13,10.65-20.92,25.1-40,51.62-58.51,78.48a14.74,14.74,0,0,0-2.65,8.86c0,26.49-.07,53,.09,79.47.05,9,.6,18,1.12,27,.82,14,1.77,27.9,2.72,41.85q1,15.19,2.23,30.37a43.06,43.06,0,0,0,1.1,5.4,11.49,11.49,0,0,0,1.62.37c19.81.48,39.63.92,59.45,1.47,2.66.07,4.3-1.2,5.91-3,8.77-10,17.77-19.87,26.37-30a224.74,224.74,0,0,0,25.13-36,9.32,9.32,0,0,0,1.25-6.12c-.75-5.93-1.25-11.92-1.49-17.9A173.52,173.52,0,0,1-527.43,265a52,52,0,0,1-5.39-30.15c1-8.75,2.31-17.46,3.67-26.16A15.32,15.32,0,0,1-527,202.2c6.34-8.57,12.77-17.08,19.53-25.31C-501.1,169.21-493.49,163.1-482.7,160Zm-7,100.89v-.11l38.36-2.22q8-.48,15.93-1c12.77-.9,25.53-1.9,38.31-2.71s25.58-1.37,38.35-2.22a18.83,18.83,0,0,0,17.45-20.12,18.53,18.53,0,0,0-1.12-5.19c-3.23-8.89-10.3-12.44-19-14.08-10.34-2-20.59-.32-30.85.27-12.78.74-25.52,2-38.3,2.67-15.28.78-30.59,1-45.77,3.16-9.09,1.27-18,3.5-26.22,7.64a17.35,17.35,0,0,0-5.71,4.61c-4.53,5.74-5.29,12.31-2.05,18.76,3.32,6.62,8.55,11,16.63,10.57,1.33-.09,2.7,0,4,0Zm12,52.78V314c17.46-.7,34.92-1.43,52.38-2.08,12.48-.46,25-.73,37.43-1.21,6-.23,11.39-2.19,15.43-7,8.32-9.89,4.66-22.15-7.84-25.14-4.27-1-8.87-.82-13.33-.91-2.82-.05-5.64.45-8.46.62-13,.74-25.9,1.52-38.86,2.17-14.29.7-28.59,1.29-42.88,1.89-3,.12-6,0-9,.07-6.59.29-12,4.33-13.49,10.68-3.29,14,5.41,21.3,16.62,21.16,4-.08,8-.38,12-.57Zm-200.48-90.55c-4.1-.31-7.53-.85-11-.75-3.83.1-5.26,2-5.14,5.76.81,25.45,1.66,50.91,2.41,76.36.48,16.31.81,32.62,1.21,48.93,0,.83.08,1.66.12,2.5q.9,18.69,1.82,37.39c.38,8,.68,16,1.15,23.93.31,5.46.85,10.9,1.32,16.76a26.16,26.16,0,0,0,16.74-.66c.09-1.31.2-2.13.19-3-.22-19.14-.17-38.29-.78-57.42-.71-22.45-2.06-44.88-3-67.32-.8-19-1.21-37.94-2.18-56.88-.38-8.21-1.78-16.43-2.85-25.59Zm244,112.23-.07.94c-4.66,0-9.32-.13-14,0s-9.28.69-13.93.93c-8.3.42-16.63.51-24.91,1.22a42.45,42.45,0,0,0-11,2.85,15.89,15.89,0,0,0-8.06,7.19c-5,8.65-1.25,17.93,8.41,20.34a29.52,29.52,0,0,0,8.38.63c17.94-.85,35.87-1.85,53.81-2.75,8.31-.42,16.62-.67,24.93-1.13a36.94,36.94,0,0,0,6.87-1.16A8.38,8.38,0,0,0-398,360a17.64,17.64,0,0,0,.24-16.31,9.24,9.24,0,0,0-7.73-5.59c-9.53-.87-19.15-1.83-28.73-2.76Zm92.08-151.1a28.31,28.31,0,0,0-4-22.21c-.81-1.26-2.6-2-4.07-2.72a38.91,38.91,0,0,0-16.9-3.9c-9.8.06-19.6.75-29.4,1.24a40.49,40.49,0,0,0-4.88.85,9,9,0,0,0-.11,2.26,58.16,58.16,0,0,0,14.21,24.87,6.61,6.61,0,0,0,3.35,1.93c8.7,1.46,17.41,2.75,26.29,2.25a34.76,34.76,0,0,0,15.55-4.56Z" transform="translate(851.97)"/></svg>