<svg id="Layer_1" data-name="Layer 1" xmlns="http://www.w3.org/2000/svg" viewBox="0 0 2000.68 1618.22"><defs><style>.cls-1{fill:#fff;}</style></defs><title>Tourism</title><path class="cls-1" d="M-2079.67,424.7-2024,355l-17.13-14.76L-2098,411.5Zm-211.71,584.21c1.45,30.48,2.87,60.47,4.31,90.73l22.39-2c-1.34-29.77-2.67-59.12-4-88.69Zm702.07-967.68-85.45,32.25c3.3,7.66,6.17,14.31,8.93,20.7l83.59-31.6-7.07-21.34ZM-2077.39,1591.7l-49.5-74.13-19.32,11.58,50.58,75.82Zm168-1377.52L-1978,274.11l15.56,16.38,67.25-58.79Zm501.18-191.61c-1-7.15-2-14.19-3.11-22.32l-89.82,16.51c1.89,8.08,3.5,15,5.11,21.89ZM-959,39.26c-2.59,8.1-4.78,15-6.86,21.45l83.84,31c2.83-6.68,5.63-13.31,8.78-20.74ZM-2274.81,1189.91l20.46,88.73,21.79-6c-6.72-29.15-13.31-57.76-20-86.74Zm47.43-538.2-28,86.64,21.85,5.88c9.22-28.46,18.26-56.39,27.41-84.65Zm1643.1-365.49,15.5-16.3-69-59.7-14.09,17.65ZM-2265,919.6c3.94-29.54,7.84-58.74,11.79-88.3l-22.27-3.92c-4,30.43-8,60.15-12,90.22Zm39,445.77,36.15,83.6,20.3-9.86c-11.92-27.56-23.56-54.45-35.34-81.67ZM-1140.21,21.77l88,15.49c1.51-6.87,3.06-13.92,4.84-22l-90-15.76C-1138.44,8-1139.36,15-1140.21,21.77Zm428.25,135-78.74-46.5c-3.92,7.37-7.27,13.65-10.57,19.83l76.94,45.47ZM-2128.91,499.1l-19.45-11.48-43.2,80.3,20.41,9.6Zm371.75-385.76-78.31,47c4.72,7,8.7,12.87,12.59,18.6l76.55-45.87Zm438.25-98.92h89.64v-22h-90.67C-1319.57.27-1319.21,7.34-1318.91,14.42Z" transform="translate(2291.38 7.58)"/><path class="cls-1" d="M-290.7,564.82c-2.43,5.39-6.7,6.8-12.29,6.09-13.94-1.78-25.59-7.94-35.45-17.81-16.48-16.5-33.08-32.89-49.5-49.46-2.55-2.57-4.85-3.57-8.66-3.1-58.17,7.15-116.36,14.06-174.53,21.12-3.76.45-6.51-.25-9.26-3.14-6.6-7-13.62-13.57-21-20.84L-458.7,434c-14.2-17.17-33-29.53-44.69-49-18.45,3.72-37.36,7.45-56.23,11.41-3.32.7-5.56.1-7.92-2.39-5.15-5.42-10.62-10.54-16.48-16.28,2.3-1.1,3.95-2,5.66-2.71,19.74-8.4,39.54-16.68,59.19-25.29a12.62,12.62,0,0,0,5.94-5.89c8.68-19.63,17-39.4,25.49-59.12.7-1.64,1.47-3.25,2.5-5.53,6.38,6.44,12.45,12.37,18.21,18.58.92,1,.9,3.36.59,5-3.58,18.12-7.3,36.21-11,54.31-.2,1-.23,2-.38,3.31,10.9,3.77,17.41,13,25.25,20.55s15.14,15.46,23.42,24l64-142.25c1.22,1,2.27,1.68,3.16,2.55,3.7,3.6,7,7.83,11.11,10.77,9.52,6.73,10.64,15.14,9.17,26.25-7.24,54.79-13.55,109.71-20.35,164.57-.38,3.08.52,4.89,2.57,6.91,13.3,13.09,26.24,26.56,39.79,39.38,13.49,12.56,25.49,25.79,29,44.68Z" transform="translate(2291.38 7.58)"/><path class="cls-1" d="M-1931.21,951c4.42-202.1,81.65-370.4,235.32-502.51C-1619.68,383-1532,338.61-1434.7,313.39a658.25,658.25,0,0,1,204.56-19.77q152.64,8.85,285.91,83.74Q-788.89,465-697.81,618.56A644.67,644.67,0,0,1-615.55,845.3a645.24,645.24,0,0,1,6.64,157.9c-10.22,124.16-51.7,237-126,337q-141.07,190.1-370.67,250c-67.9,17.7-137.06,23.7-207.1,18.86-141.21-9.77-267.1-59.09-376.41-148.84-113.55-93.24-188.13-211.75-223.51-354.56C-1925.11,1055-1931,1003.43-1931.21,951Zm994-69.71c-10,5.73-19.27,12-29.32,16.54s-20.6,7.58-31.11,10.7c-18.47,5.49-36.14,12.26-51.53,24.44-3.82,3-9.81,3.73-15,4.53-4.21.65-8.64-.36-13-.23-3.63.1-4.58-1.63-4.61-4.83-.08-8.83-.55-17.66-.39-26.49.28-15.31,1-30.62,1.38-45.94.11-4.62-.92-8.84-4.9-12-16.07-12.68-37.21-12.39-52.07,1.69-15.94,15.1-27.69,32.78-30.3,55.35-.14,1.19-1.43,3.18-2.23,3.2-8.5.24-17,.15-26.47.15,1.68-1.78,2.56-2.75,3.48-3.68,6.71-6.72,13.47-13.4,20.12-20.18,2.54-2.59,4.86-5.53,1.43-9q-9.91-10.19-20-20.19c-3.25-3.23-6.3-3.43-9.78.24-7,7.37-14.55,14.22-21.45,21.68a15.15,15.15,0,0,0-3.72,8.71,116.89,116.89,0,0,0,.78,17.94c.33,3.39-.81,5-4.09,5.38-1.49.17-3,.42-4.45.58q-26.6,2.79-53.18,5.55c-8,.84-16,1.65-24.57,2.52,0-3.41.2-6.08,0-8.7-1-10.66,2.38-19.36,10.1-27a57.22,57.22,0,0,0,10.35-15.14c5.87-11.83,8-24.66,8-37.8,0-11.58,4.67-20.31,15.72-24.14,10.47-3.62,21.21-7,32.11-8.71,13.2-2.11,26.67-3.68,39.74-1.41,1.43-2.48,2.36-5.59,4.42-7.42,9.83-8.7,19.24-18.22,30.21-25.23,12.54-8,26.46-13.94,40-20.3,6.86-3.22,11.25-8.17,11.83-15.43.74-9.25.55-18.58.38-27.88-.11-6.23-.9-12.45-1.4-18.84,2.25-.2,3.73-.45,5.21-.43,27,.22,54,.32,81,.81,12.39.22,24.71.54,36.31-4.71q16.14-7.42,32.16-14.95c12.78-6,24.62-13.5,34.49-23.58,21-21.43,41.6-43.2,62.34-64.86,4-4.19,7.84-8.55,11.73-12.81-246.63-265.3-668.8-231.23-872,34.17a48.35,48.35,0,0,1,5.35,2.65,20.58,20.58,0,0,1,5.05,4c11.38,14,19.81,29.64,23.14,47.52,2.06,11.08-2.42,16.25-13.66,17-7.24.5-12.29,3.91-14.79,10.72-1.49,4.06-2.73,8.21-3.91,12.37-3.11,11-9.59,18.14-21.42,19.38-2.85.3-4.06,1.64-4.06,4.52,0,20.5-.15,41,.09,61.49,0,1.87,2.26,5.07,3.87,5.35,10.71,1.86,18.12,8.79,25.58,15.72a45.07,45.07,0,0,0,24.43,11.56c17.75,2.75,34.4-1.57,50.74-7.78,11.06-4.2,11.76-5.52,10.5-17.45-.26-2.49-1.08-5-.71-7.43.54-3.49.88-8,3.12-10.06,12.89-12.07,27.3-22,44.8-26.14,16.17-3.85,31.76,1,38.09,20.67,2,6.17,3.81,12.52,6.82,18.2,14.31,27,29.89,53.15,51.53,75.14a38.68,38.68,0,0,1,5,6.2c4,6.3,3.06,12.31-3.58,15.62a54.17,54.17,0,0,1-18.36,5.75c-11.16,1.09-18.93,6.5-24.87,15.47a86.31,86.31,0,0,0-14.1,38.48c-1.63,14.4-7.57,18.58-22,17.07a19.92,19.92,0,0,1-3.43-.63c-10.86-3.17-21.65-6.56-32.56-9.51-16.79-4.54-32.66-3.32-46.76,8.15-3.48,2.83-7.47,5-11,7.74-10.35,7.9-22.76,9.73-35,12.32-15.24,3.23-21.43,10.09-23.44,25.12,0,.25-.37.47-.88,1.09l-56.78-28.16v5.65c0,14-.07,28,0,42a22.47,22.47,0,0,1-7,17c-3.82,3.72-7.94,7.19-11.44,11.18-6.51,7.45-14.41,10.59-24.32,10.25-7-.23-14.12.91-22,1.5,30.13,152.11,107.57,272.84,231.85,365.11,3.36-12.34,6.93-23.58,9.4-35,3.57-16.55,7.53-33.17,9.12-50,1.58-16.58-2.35-20.86-18.12-26.55a37.75,37.75,0,0,1-16.9-11.87,120.8,120.8,0,0,1-20.49-35.27c-16.4-45.23-41.57-86.32-60.75-130.23a55.46,55.46,0,0,0-29.27-29.38c-12-5.34-23.68-11.42-35.27-17.63-2.39-1.29-5.08-4.49-5.24-7-.53-7.84.07-15.76.24-23.84h7c46.16,0,92.33-.36,138.49.17,19.38.22,38.26-.37,55.74-10A15.06,15.06,0,0,1-1566,1040a86.21,86.21,0,0,1,13.34-.55c4.44.28,7.14,3.32,8.47,7.45a43.72,43.72,0,0,1,1.45,6.31c4.87,30.55,21.79,48,52,53.64,1.48.28,2.94.6,4.41.91,7.36,1.55,12.75,5.61,13.77,13.26,1.19,8.86,1.6,17.84,2,26.79.44,9.3-.17,18.7.87,27.92,1.55,13.83,8,19,22,19q36.26.06,72.5,0h6.82c-2.63,13.29-4.31,25.68-7.63,37.62-6.43,23.16-14.88,45.49-35.7,60.16-13.93,9.82-20,22.31-16.41,39.55,2.83,13.69-2.57,24.82-13.48,33.3q-4.92,3.84-10.1,7.34c-9.7,6.45-19.59,12.62-29.18,19.23-9.84,6.79-19.38,14-29.13,21-5,3.56-10.33,6.73-15.28,10.38-9.45,7-15.8,15.82-17.8,27.84-.77,4.63.34,6.33,4.13,8.32a578.66,578.66,0,0,0,229.81,65.29,574.25,574.25,0,0,0,196.35-19.73A570.78,570.78,0,0,0-888.49,1383.6q132.16-116.13,178.14-286.22a14.43,14.43,0,0,0,0-6.79c-2.74-11.67-9.25-21.19-17.16-30-6-6.67-12-13.44-17-20.88-7-10.45-5.23-14.1,7-17.38C-749,1011.21-762,1003-777.22,999c-23.63-6.24-47.87-5.38-72-4.88a24.24,24.24,0,0,0-8.2,2c-5.45,2.18-7.4,6.33-5,11.64a42.5,42.5,0,0,0,6.52,9.93c4.29,5,4.49,5.39-.25,10.12q-25.14,25.07-50.32,50.09c-.79.79-1.73,1.45-2.62,2.18-3.72-3.66-7.09-7.39-10.88-10.6-10.52-8.92-20.78-18.25-32-26.2-8.54-6-13.06-3.51-15.38,7.46-4-9.48-7.67-18.17-11.32-26.87-5.32-12.66-11.77-24.52-21.41-34.62a102.78,102.78,0,0,1-12.79-17.2c-6.9-11.18-12-23.1-10.81-36.7.15-1.72,1.33-4,2.72-4.73.94-.5,3.29,1,4.62,2a17.73,17.73,0,0,1,3.89,4.52c4.92,7.91,10.07,15.71,14.38,23.95,2.12,4,4.22,4.66,8.13,3.3q22.38-7.79,44.87-15.3c11.79-4,23.6-7.83,36-11.92C-918.83,917.88-928.27,899.07-937.21,881.32Z" transform="translate(2291.38 7.58)"/><path class="cls-1" d="M-2079.67,424.7l-18.3-13.2,56.85-71.3L-2024,355Z" transform="translate(2291.38 7.58)"/><path class="cls-1" d="M-2291.38,1008.92h22.7c1.33,29.57,2.66,58.92,4,88.69l-22.39,2C-2288.51,1069.39-2289.93,1039.4-2291.38,1008.92Z" transform="translate(2291.38 7.58)"/><path class="cls-1" d="M-1589.31,41.24c2.58,7.78,4.81,14.52,7.07,21.35l-83.59,31.6c-2.76-6.39-5.63-13-8.93-20.7Z" transform="translate(2291.38 7.58)"/><path class="cls-1" d="M-2077.39,1591.7l-18.25,13.29-50.57-75.84,19.33-11.6Z" transform="translate(2291.38 7.58)"/><path class="cls-1" d="M-1909.34,214.16l14.13,17.54-67.17,58.76-15.56-16.38Z" transform="translate(2291.38 7.58)"/><path class="cls-1" d="M-1408.21,22.57-1496,38.65c-1.61-6.9-3.22-13.81-5.11-21.89L-1411.32.25C-1410.16,8.38-1409.21,15.42-1408.21,22.57Z" transform="translate(2291.38 7.58)"/><path class="cls-1" d="M-959,39.26-873.25,71c-3.15,7.43-6,14.06-8.78,20.74l-83.84-31Z" transform="translate(2291.38 7.58)"/><path class="cls-1" d="M-2274.81,1189.91l22.27-4c6.67,29,13.26,57.59,20,86.74l-21.79,6Z" transform="translate(2291.38 7.58)"/><path class="cls-1" d="M-2227.38,651.7l21.22,7.87c-9.15,28.26-18.19,56.19-27.41,84.65l-21.85-5.88Z" transform="translate(2291.38 7.58)"/><path class="cls-1" d="M-584.28,286.22l-67.58-58.35,14.09-17.65,69,59.7Z" transform="translate(2291.38 7.58)"/><path class="cls-1" d="M-2265,919.6l-22.44-2c4-30.07,7.93-59.79,12-90.22l22.27,3.92C-2257.15,860.86-2261,890.06-2265,919.6Z" transform="translate(2291.38 7.58)"/><path class="cls-1" d="M-2225.95,1365.37l21.11-7.93c11.78,27.22,23.42,54.11,35.34,81.67l-20.3,9.86Z" transform="translate(2291.38 7.58)"/><path class="cls-1" d="M-1140.21,21.77c.88-6.77,1.8-13.8,2.91-22.26l90,15.76c-1.78,8.07-3.33,15.12-4.84,22Z" transform="translate(2291.38 7.58)"/><path class="cls-1" d="M-712,156.77l-12.37,18.8L-801.3,130.1c3.3-6.18,6.65-12.46,10.57-19.83Z" transform="translate(2291.38 7.58)"/><path class="cls-1" d="M-2128.91,499.1l-42.24,78.42-20.41-9.6,43.2-80.3Z" transform="translate(2291.38 7.58)"/><path class="cls-1" d="M-1757.16,113.34l10.83,19.74L-1822.88,179c-3.89-5.73-7.87-11.62-12.59-18.6Z" transform="translate(2291.38 7.58)"/><path class="cls-1" d="M-1318.91,14.42c-.33-7.08-.66-14.15-1-22h90.67v22Z" transform="translate(2291.38 7.58)"/><path class="cls-1" d="M-880.51,1137.86c-2.39-.87-3.92-1.48-5.47-2-21.77-7.28-43.51-14.65-65.33-21.78-10.57-3.45-18.27-9.8-22.94-20-3.19-6.95-7-13.63-10.31-20.51a131.75,131.75,0,0,0-35.92-45.47c-9.39-7.63-17.91-16.39-26.44-25a21,21,0,0,1-6-17.39c.39-4.13.17-8.32.19-12.49,0-3.93-1.88-6.27-5.83-6.78a48.27,48.27,0,0,0-6-.53q-107.71-.06-215.44,0a7.41,7.41,0,0,0-4.84,1.68c-17.67,17.75-34,36.58-46.77,58.3-10.32,17.6-9.59,34.69,3.44,50.55a339,339,0,0,0,23.23,25.44c9.69,9.61,16.33,20.91,21.06,33.54,3.62,9.65,7,19.41,11.13,28.85,8.13,18.61,22.78,29.23,42.85,30.38a467.22,467.22,0,0,0,55.38-.19c12.12-.74,24.42-3,35.64-9.87.43,3.14,1,6,1.2,9,.51,9.15-.21,18.5,1.45,27.41,4.59,24.52,10,48.91,15.4,73.25,4.17,18.66,10,37,10.1,56.38,0,9.52,2.61,18.2,8.53,25.54a191.42,191.42,0,0,0,15.32,16.39c8.81,8.61,18,16.83,26.8,25.44,4.3,4.2,9,6.46,15.11,6.37,14.16-.19,28.33-.27,42.48.06,4.7.11,6.29-1.79,6.46-5.93.09-2,.29-4,.29-6,.06-12.66-.56-25.37.26-38,1-15.39,2.23-30.9,5.18-46,2.61-13.39,7.84-16.58,21.43-18,1.33-.14,2.65-.33,4-.49,9.73-1.12,12.47-4.13,12.54-13.78.09-11.89,2.74-15.12,14.49-17.66,8.67-1.88,11.5-4.82,12.32-13.84,1.48-16.4-.29-32.58-4.05-48.57a63,63,0,0,0-13.36-27c-11-12.87-8.36-19.57,8.54-22.38C-913.34,1163.29-896.21,1152.7-880.51,1137.86Zm-719-545.19c11.47,3.22,16.52,6.68,23,15.78,2.79,3.92,5.71,7.9,7.68,12.25,8.3,18.32,16.33,36.77,24.3,55.24a22.41,22.41,0,0,1,1.84,8.23c.24,12.47.27,25,.19,37.44,0,8.29,1.68,15.85,7.61,22q7.59,8,15,16c3.3,3.59,6.75,4,10.45.79,2.76-2.4,5.48-4.86,8.08-7.44,12-11.84,23.49-24.14,35.92-35.47,8.55-7.79,11.08-16.85,10.16-27.77-.83-10-1.29-20-1.74-29.94-.27-5.93,1.78-8.27,7.63-8.9,3-.32,6-.18,9-.26,4.83-.14,9.65-.2,14.47-.46a36.23,36.23,0,0,0,25.54-12,55.42,55.42,0,0,1,32.61-17.75A56.52,56.52,0,0,0-1347.3,612c8.68-5.64,9.53-16.44,3-24.49a75.47,75.47,0,0,0-8-8.19c-10.9-9.79-21.71-19.7-32.9-29.15q-15.46-13-31.67-25.16c-15.43-11.5-33-17-52.24-17.2-17.82-.18-35.63-.21-53.45-.31-3,0-5.44,1-5.64,4.32-.58,9.6-5.77,17.11-11.79,23.7-10.31,11.3-21.25,22-32.27,32.66-8.64,8.28-17.77,16-27.26,24.57Zm432,142.41.79.58c6.87-7,13.43-14.33,20.71-20.85,5.93-5.31,7.85-11.41,7.57-19.06-.57-16.14-.61-32.29-1-48.43-.23-9.78,2-19.92-3.82-28.3-1.32,5.63-2,12.22-4.4,18.11-6,14.6-12.73,28.87-19.19,43.26-.07.16-.53.14-1.48.36V624.24c-11,18.77-21.83,37.37-27.62,58.18-1.61,5.77-1.81,12.07-1.71,18.12.07,4.27,3.54,6.65,7.76,7.17s8.65,1.21,12.92.94c3.37-.22,6.66-1.79,10-2.76l-.38-1.13,6.89,3.67c-2.41,9.05-4.69,17.85-7,26.65Zm-115.65,58.83c12.76-6.35,24.55-12.06,36.13-18.19,1.61-.85,3-3.69,3.06-5.66.3-10.72.15-21.46.15-32.19l-1.62-.27c-.71.58-1.48,1.12-2.14,1.76-8.62,8.32-15.88,18.42-29.07,20.55-2,.32-4.56,3.81-4.81,6.06C-1282.55,774.86-1282.72,783.84-1283.21,793.91Z" transform="translate(2291.38 7.58)"/><path class="cls-1" d="M-880.51,1137.86c-15.7,14.84-32.83,25.43-53.87,28.92-16.9,2.81-19.5,9.51-8.54,22.38a63,63,0,0,1,13.36,27c3.76,16,5.53,32.17,4,48.57-.82,9-3.65,12-12.32,13.84-11.75,2.54-14.4,5.77-14.49,17.66-.07,9.65-2.81,12.66-12.54,13.78-1.32.16-2.64.35-4,.49-13.59,1.41-18.82,4.6-21.43,18-3,15.1-4.18,30.61-5.18,46-.82,12.61-.2,25.32-.26,38,0,2-.2,4-.29,6-.17,4.14-1.76,6-6.46,5.93-14.15-.33-28.32-.25-42.48-.06-6.11.09-10.81-2.17-15.11-6.37-8.81-8.61-18-16.83-26.8-25.44a191.42,191.42,0,0,1-15.32-16.39c-5.92-7.34-8.48-16-8.53-25.54-.1-19.36-5.93-37.72-10.1-56.38-5.45-24.34-10.81-48.73-15.4-73.25-1.66-8.91-.94-18.26-1.45-27.41-.16-2.92-.77-5.82-1.2-9-11.22,6.89-23.52,9.13-35.64,9.87a467.22,467.22,0,0,1-55.38.19c-20.07-1.15-34.72-11.77-42.85-30.38-4.12-9.44-7.51-19.2-11.13-28.85-4.73-12.63-11.37-23.93-21.06-33.54a339,339,0,0,1-23.23-25.44c-13-15.86-13.76-33-3.44-50.55,12.73-21.72,29.1-40.55,46.77-58.3a7.41,7.41,0,0,1,4.84-1.68q107.71-.09,215.44,0a48.27,48.27,0,0,1,6,.53c4,.51,5.85,2.85,5.83,6.78,0,4.17.2,8.36-.19,12.49a21,21,0,0,0,6,17.39c8.53,8.62,17.05,17.38,26.44,25a131.75,131.75,0,0,1,35.92,45.47c3.34,6.88,7.12,13.56,10.31,20.51,4.67,10.2,12.37,16.55,22.94,20,21.82,7.13,43.56,14.5,65.33,21.78C-884.43,1136.38-882.9,1137-880.51,1137.86Z" transform="translate(2291.38 7.58)"/><path class="cls-1" d="M-1599.52,592.7c9.49-8.52,18.62-16.26,27.23-24.56,11-10.62,22-21.36,32.27-32.66,6-6.59,11.21-14.1,11.79-23.7.2-3.34,2.65-4.33,5.64-4.32,17.82.1,35.63.13,53.45.31,19.22.2,36.81,5.7,52.24,17.2q16.2,12.09,31.67,25.16c11.19,9.45,22,19.36,32.9,29.15a75.47,75.47,0,0,1,8,8.19c6.56,8,5.71,18.85-3,24.49a56.52,56.52,0,0,1-20.47,8.51,55.42,55.42,0,0,0-32.61,17.75,36.23,36.23,0,0,1-25.54,12c-4.82.26-9.64.32-14.47.46-3,.08-6-.06-9,.26-5.85.63-7.9,3-7.63,8.9.45,10,.91,20,1.74,29.94.92,10.92-1.61,20-10.16,27.77-12.43,11.33-24,23.63-35.92,35.47-2.6,2.58-5.32,5-8.08,7.44-3.7,3.22-7.15,2.8-10.45-.79q-7.44-8.08-15-16c-5.93-6.2-7.65-13.76-7.61-22,.08-12.48,0-25-.19-37.44a22.41,22.41,0,0,0-1.84-8.23c-8-18.47-16-36.92-24.3-55.24a77.79,77.79,0,0,0-7.68-12.25C-1583,599.35-1588,595.89-1599.52,592.7Z" transform="translate(2291.38 7.58)"/><path class="cls-1" d="M-1167.57,735.08c2.32-8.8,4.64-17.6,7-26.65l-6.89-3.67.38,1.13c-3.33,1-6.62,2.54-10,2.76-4.27.27-8.63-.42-12.92-.94s-7.69-2.9-7.76-7.17c-.1-6,.1-12.35,1.71-18.12,5.79-20.81,16.6-39.41,27.62-58.18v56.51c1-.22,1.41-.2,1.48-.36,6.46-14.39,13.22-28.66,19.19-43.26,2.4-5.89,3.08-12.48,4.4-18.11,5.81,8.38,3.59,18.52,3.82,28.3.4,16.14.44,32.29,1,48.43.28,7.65-1.64,13.75-7.57,19.06-7.28,6.52-13.84,13.86-20.71,20.85Z" transform="translate(2291.38 7.58)"/><path class="cls-1" d="M-1283.21,793.91c.54-10.07.71-19,1.7-27.94.25-2.25,2.86-5.74,4.81-6.06,13.19-2.13,20.45-12.23,29.07-20.55.66-.64,1.43-1.18,2.14-1.76l1.62.27c0,10.73.15,21.47-.15,32.19,0,2-1.45,4.81-3.06,5.66C-1258.71,781.85-1270.5,787.56-1283.21,793.91Z" transform="translate(2291.38 7.58)"/></svg>