<svg xmlns="http://www.w3.org/2000/svg" width="22.191" height="17.22" viewBox="0 0 22.191 17.22">
  <path id="iconfinder_753918_library_book_books_education_study_icon_1_" data-name="iconfinder_753918_library_book_books_education_study_icon (1)" d="M21.867,10.552h-.02a.443.443,0,0,1-.446-.482V7.67a.464.464,0,0,0-.463-.464H14.073a3.074,3.074,0,0,0-2.524.839l-.044.061h0l-.136.186h0c-.182.25-.341.144-.417.062l-.26-.324-.128-.155a2.516,2.516,0,0,0-1.895-.67H1.356a.464.464,0,0,0-.464.464v2.37c0,.415-.225.5-.364.512h-.1c-.113.007-.374.072-.374.554V22.4a.5.5,0,0,0,.5.5H7.227a4.317,4.317,0,0,1,3.335,1.111l.159.2h0a.567.567,0,0,0,.874,0h0l.093-.109h0l.119-.139s.032-.036.073-.078a4.126,4.126,0,0,1,2.98-.98H21.74a.5.5,0,0,0,.5-.5V11C22.242,10.589,21.946,10.554,21.867,10.552Zm-1.5,10.078a.409.409,0,0,1-.417.4H14.291a3.511,3.511,0,0,0-2.745.91l-.093.124-.043.06h0c-.192.261-.474,0-.476,0l-.13-.163a3.336,3.336,0,0,0-2.626-.932H2.343a.409.409,0,0,1-.416-.4V8.593a.409.409,0,0,1,.416-.4h4.53c3.369,0,3.688,1.914,3.71,2.47v8.372c0,.608.29.723.454.739h.243c.167-.017.432-.116.432-.59V10.552h0A2.215,2.215,0,0,1,14.032,8.19H19.95a.409.409,0,0,1,.417.4Z" transform="translate(-0.051 -7.206)" fill="#fff"/>
</svg>
