<svg xmlns="http://www.w3.org/2000/svg" xmlns:xlink="http://www.w3.org/1999/xlink" width="16.999" height="16.999" viewBox="0 0 16.999 16.999"><defs><linearGradient id="a" x1="0.835" y1="0.803" x2="0.151" y2="0.184" gradientUnits="objectBoundingBox"><stop offset="0" stop-color="#fec053"/><stop offset="0.327" stop-color="#f2203e"/><stop offset="0.648" stop-color="#b729a8"/><stop offset="1" stop-color="#5342d6"/></linearGradient></defs><g transform="translate(0.5 0.5)"><path d="M8,1.422a24.529,24.529,0,0,1,3.2.089,4.123,4.123,0,0,1,1.511.267,3.122,3.122,0,0,1,1.511,1.511A4.123,4.123,0,0,1,14.488,4.8c0,.8.089,1.067.089,3.2a24.528,24.528,0,0,1-.089,3.2,4.123,4.123,0,0,1-.267,1.511,3.122,3.122,0,0,1-1.511,1.511,4.123,4.123,0,0,1-1.511.267c-.8,0-1.067.089-3.2.089a24.528,24.528,0,0,1-3.2-.089,4.123,4.123,0,0,1-1.511-.267,3.122,3.122,0,0,1-1.511-1.511A4.123,4.123,0,0,1,1.511,11.2c0-.8-.089-1.067-.089-3.2a24.529,24.529,0,0,1,.089-3.2,4.123,4.123,0,0,1,.267-1.511A3.192,3.192,0,0,1,2.4,2.4a1.5,1.5,0,0,1,.889-.622A4.123,4.123,0,0,1,4.8,1.511,24.529,24.529,0,0,1,8,1.422M8,0A26.263,26.263,0,0,0,4.711.089,5.487,5.487,0,0,0,2.755.444a3.48,3.48,0,0,0-1.422.889A3.48,3.48,0,0,0,.444,2.755,4.05,4.05,0,0,0,.089,4.711,26.263,26.263,0,0,0,0,8a26.263,26.263,0,0,0,.089,3.289,5.487,5.487,0,0,0,.356,1.955,3.48,3.48,0,0,0,.889,1.422,3.48,3.48,0,0,0,1.422.889,5.487,5.487,0,0,0,1.955.356A26.263,26.263,0,0,0,8,16a26.263,26.263,0,0,0,3.289-.089,5.487,5.487,0,0,0,1.955-.356,3.729,3.729,0,0,0,2.311-2.311,5.487,5.487,0,0,0,.356-1.955C15.91,10.4,16,10.133,16,8a26.263,26.263,0,0,0-.089-3.289,5.487,5.487,0,0,0-.356-1.955,3.48,3.48,0,0,0-.889-1.422A3.48,3.48,0,0,0,13.244.444,5.487,5.487,0,0,0,11.288.089,26.263,26.263,0,0,0,8,0M8,3.911A4.023,4.023,0,0,0,3.911,8,4.089,4.089,0,1,0,8,3.911m0,6.755A2.619,2.619,0,0,1,5.333,8,2.619,2.619,0,0,1,8,5.333,2.619,2.619,0,0,1,10.666,8,2.619,2.619,0,0,1,8,10.666m4.266-7.911a.978.978,0,1,0,.978.978.986.986,0,0,0-.978-.978" stroke="rgba(0,0,0,0)" stroke-width="1" fill-rule="evenodd" fill="url(#a)"/></g></svg>