<svg xmlns="http://www.w3.org/2000/svg" width="16.476" height="15.179" viewBox="0 0 16.476 15.179"><g transform="translate(-8 -8)"><path d="M8,32.751a.419.419,0,0,0,.411.411h2.941a.419.419,0,0,0,.411-.411v-9.74a.419.419,0,0,0-.411-.411H8.411A.419.419,0,0,0,8,23.011Z" transform="translate(0 -9.983)" fill="#0083be"/><path d="M31.215,22.3a3.945,3.945,0,0,0-2.972,1.17.207.207,0,0,1-.348-.158v-.506a.419.419,0,0,0-.411-.411H24.511a.419.419,0,0,0-.411.411c.032,1.8,0,8.032,0,9.708a.419.419,0,0,0,.411.411h3a.419.419,0,0,0,.411-.411V27.233a2.355,2.355,0,0,1,.095-.854,1.92,1.92,0,0,1,1.8-1.3c1.3,0,1.9.98,1.9,2.4v5.028a.419.419,0,0,0,.411.411h2.941a.419.419,0,0,0,.411-.411V27.075C35.452,23.818,33.587,22.3,31.215,22.3Z" transform="translate(-11.009 -9.778)" fill="#0083be"/><path d="M9.866,11.447h0A1.733,1.733,0,1,0,9.9,8a1.73,1.73,0,1,0-.032,3.447Z" transform="translate(0 0)" fill="#0083be"/></g></svg>