<svg xmlns="http://www.w3.org/2000/svg" width="374" height="608" viewBox="0 0 374 608"><defs><style>.a{fill:rgba(0,0,0,0.25);}.b,.c{fill:#fff;}.c{font-size:18px;font-family:Raleway-Bold, Raleway;font-weight:700;}</style></defs><g transform="translate(-20 -246)"><path class="a" d="M12,0H176a0,0,0,0,1,0,0V374a0,0,0,0,1,0,0H12A12,12,0,0,1,0,362V12A12,12,0,0,1,12,0Z" transform="translate(394 246) rotate(90)"/><path class="b" d="M11,22A11,11,0,0,1,3.222,3.222,11,11,0,1,1,18.778,18.778,10.927,10.927,0,0,1,11,22ZM9.792,12.074V17.25h2.416V12.074h4.755V9.926H12.208V4.75H9.792V9.926H5.037v2.147Z" transform="translate(33.454 380)"/><text class="c" transform="translate(62.233 398)"><tspan x="0" y="0">ENABLING STORIES OF FREEDOM</tspan></text><rect class="a" width="236" height="184" transform="translate(394 432) rotate(90)"/><path class="b" d="M11,22A11,11,0,0,1,3.222,3.222,11,11,0,1,1,18.778,18.778,10.927,10.927,0,0,1,11,22ZM9.792,12.074V17.25h2.416V12.074h4.755V9.926H12.208V4.75H9.792V9.926H5.037v2.147Z" transform="translate(226.938 622.961)"/><text class="c" transform="translate(255.718 639.961)"><tspan x="0" y="0">PROJECT 4</tspan></text><rect class="a" width="236" height="180" transform="translate(200 432) rotate(90)"/><path class="b" d="M11,22A11,11,0,0,1,3.222,3.222,11,11,0,1,1,18.778,18.778,10.927,10.927,0,0,1,11,22ZM9.792,12.074V17.25h2.416V12.074h4.755V9.926H12.208V4.75H9.792V9.926H5.037v2.147Z" transform="translate(33.454 622.961)"/><text class="c" transform="translate(64.546 639.961)"><tspan x="0" y="0">BRANDSCOPE</tspan></text><path class="a" d="M0,0H164a12,12,0,0,1,12,12V362a12,12,0,0,1-12,12H0a0,0,0,0,1,0,0V0A0,0,0,0,1,0,0Z" transform="translate(394 678) rotate(90)"/><path class="b" d="M11,22A11,11,0,0,1,3.222,3.222,11,11,0,1,1,18.778,18.778,10.927,10.927,0,0,1,11,22ZM9.792,12.074V17.25h2.416V12.074h4.755V9.926H12.208V4.75H9.792V9.926H5.037v2.147Z" transform="translate(34.132 799.459)"/><text class="c" transform="translate(66 817.459)"><tspan x="0" y="0">STAR NETWORK</tspan></text></g></svg>