<svg xmlns="http://www.w3.org/2000/svg" width="16.003" height="16" viewBox="0 0 16.003 16"><rect width="16" height="16" fill="none"/><path d="M43.066,14.977A9.25,9.25,0,0,0,52.4,5.644V5.2A7.225,7.225,0,0,0,54,3.511a7.379,7.379,0,0,1-1.867.533,3.458,3.458,0,0,0,1.422-1.778,8.153,8.153,0,0,1-2.044.8A3.174,3.174,0,0,0,49.111,2a3.339,3.339,0,0,0-3.289,3.289A1.733,1.733,0,0,0,45.911,6a9.19,9.19,0,0,1-6.755-3.467,3.4,3.4,0,0,0-.444,1.689,3.531,3.531,0,0,0,1.422,2.755,3,3,0,0,1-1.511-.444h0a3.248,3.248,0,0,0,2.667,3.2,2.74,2.74,0,0,1-.889.089,1.513,1.513,0,0,1-.622-.089,3.367,3.367,0,0,0,3.111,2.311A6.711,6.711,0,0,1,38.8,13.466a2.461,2.461,0,0,1-.8-.089,8.39,8.39,0,0,0,5.066,1.6" transform="translate(-37.996 -0.001)" fill="#ffffff" fill-rule="evenodd"/></svg>