<svg xmlns="http://www.w3.org/2000/svg" xmlns:xlink="http://www.w3.org/1999/xlink" width="130.191" height="130.172" viewBox="0 0 130.191 130.172"><defs><style>.a{fill:none;}.b{fill:url(#a);}.c{filter:url(#b);}</style><linearGradient id="a" x1="0.5" x2="0.5" y2="1" gradientUnits="objectBoundingBox"><stop offset="0" stop-color="#fff"/><stop offset="1" stop-color="#fff" stop-opacity="0.678"/></linearGradient><filter id="b" x="0" y="0" width="130.191" height="130.172" filterUnits="userSpaceOnUse"><feOffset dy="3" input="SourceAlpha"/><feGaussianBlur stdDeviation="15.5" result="c"/><feFlood flood-opacity="0.478"/><feComposite operator="in" in2="c"/><feComposite in="SourceGraphic"/></filter></defs><g transform="translate(-46.038 -765.305)"><rect class="a" width="50" height="50" transform="translate(86.134 802.392)"/><g class="c" transform="matrix(1, 0, 0, 1, 46.04, 765.31)"><path class="b" d="M5475.691,1266.172a1.691,1.691,0,1,1,0-3.382h33.793a1.691,1.691,0,0,1,0,3.382Zm2.11-4.394a1.691,1.691,0,0,1,0-3.381h.424v-15.2h-.424a.845.845,0,0,1,0-1.69h29.571a.845.845,0,0,1,0,1.69h-.424v15.2h.424a1.691,1.691,0,0,1,0,3.381Zm20.7-3.381h5.068v-15.2H5498.5Zm-8.452,0h5.07v-15.2h-5.07Zm-8.446,0h5.069v-15.2H5481.6Zm27.88-18.415h-33.793a1.689,1.689,0,0,1-.692-3.229l16.9-7.6a1.691,1.691,0,0,1,1.387,0l16.768,7.546a1.689,1.689,0,0,1-.55,3.287Z" transform="translate(-5427.5 -1185.5)"/></g></g></svg>