<svg xmlns="http://www.w3.org/2000/svg" xmlns:xlink="http://www.w3.org/1999/xlink" width="50" height="50" viewBox="0 0 50 50"><defs><style>.a{fill:none;}.b{fill:url(#a);}</style><linearGradient id="a" x1="0.5" x2="0.5" y2="1" gradientUnits="objectBoundingBox"><stop offset="0" stop-color="#fff"/><stop offset="1" stop-color="#fff" stop-opacity="0.678"/></linearGradient></defs><g transform="translate(-88.351 -942.187)"><rect class="a" width="50" height="50" transform="translate(88.351 942.187)"/><path class="b" d="M5494.7,1266.2c-1.831-1.593-3.582-3.066-5.223-4.45-5.849-4.939-10.525-8.818-13.122-12.906h9.08a1.259,1.259,0,0,0,1.129-.7l1.394-2.789,3.921,7.836a1.31,1.31,0,0,0,2.254,0l1.4-2.789,1.4,2.789a1.26,1.26,0,0,0,2.253,0l3.917-7.836,1.4,2.789a1.26,1.26,0,0,0,1.128.7h9.081c-2.6,4.088-7.273,7.967-13.123,12.906-1.641,1.384-3.389,2.857-5.222,4.45a1.276,1.276,0,0,1-1.656,0Zm1.957-19.18a1.315,1.315,0,0,0-2.258,0l-1.4,2.789-3.918-7.836a1.311,1.311,0,0,0-2.253,0l-2.176,4.35h-9.623a13.05,13.05,0,0,1-1.036-5.107c0-6.968,4.966-12.217,11.438-12.217,5.1,0,8.375,3.534,10.093,6.714,1.716-3.18,4.991-6.714,10.092-6.714,6.473,0,11.438,5.25,11.438,12.217a13.162,13.162,0,0,1-1.033,5.107H5506.4l-2.175-4.35a1.312,1.312,0,0,0-2.254,0l-3.918,7.836Z" transform="translate(-5382.18 -280.567)"/></g></svg>