<svg xmlns="http://www.w3.org/2000/svg" xmlns:xlink="http://www.w3.org/1999/xlink" width="50" height="50" viewBox="0 0 50 50"><defs><style>.a{fill:none;}.b{fill:url(#a);}</style><linearGradient id="a" x1="0.5" x2="0.5" y2="1" gradientUnits="objectBoundingBox"><stop offset="0" stop-color="#fff"/><stop offset="1" stop-color="#fff" stop-opacity="0.678"/></linearGradient></defs><g transform="translate(-87.056 -1076.302)"><rect class="a" width="50" height="50" transform="translate(87.056 1076.302)"/><path class="b" d="M546.985,134.427a7.193,7.193,0,0,0-4.111-1.147c-2.566,0-4.707,1.071-5.2,2.5h-.211c-.486-1.434-2.633-2.514-5.21-2.514a7.173,7.173,0,0,0-4.113,1.152v12.059a5.443,5.443,0,0,1-10.886,0,1.2,1.2,0,0,1,2.4,0,3.046,3.046,0,0,0,6.083,0v-12.04a7.172,7.172,0,0,0-4.113-1.153c-2.566,0-4.706,1.071-5.2,2.5H516.2c-.486-1.434-2.633-2.514-5.21-2.514a7.187,7.187,0,0,0-4.109,1.146c.784-8.551,8.83-15.348,18.852-15.854v-.9a1.2,1.2,0,0,1,2.4,0v.9C538.166,119.061,546.216,125.868,546.985,134.427Z" transform="translate(-414.878 967.15)"/></g></svg>