<svg xmlns="http://www.w3.org/2000/svg" xmlns:xlink="http://www.w3.org/1999/xlink" width="50" height="50" viewBox="0 0 50 50"><defs><style>.a{fill:none;}.b{fill:url(#a);}</style><linearGradient id="a" x1="0.5" x2="0.5" y2="1" gradientUnits="objectBoundingBox"><stop offset="0" stop-color="#fff"/><stop offset="1" stop-color="#fff" stop-opacity="0.678"/></linearGradient></defs><g transform="translate(-222.513 -943.949)"><rect class="a" width="50" height="50" transform="translate(222.513 943.949)"/><path class="b" d="M672.569,363.812H635.405a.663.663,0,0,0-.663.663v29.2a.663.663,0,0,0,.663.663h37.163a.663.663,0,0,0,.663-.663v-29.2A.663.663,0,0,0,672.569,363.812Zm-31.19,29.2h-5.311v-5.972h5.311Zm0-7.3h-5.311v-5.972h5.311Zm0-7.3h-5.311V372.44h5.311Zm0-7.3h-5.311V365.14h5.311Zm17.609,8.525-7.3,4.645a.663.663,0,0,1-1.02-.56v-9.288a.664.664,0,0,1,1.021-.56l7.3,4.645a.664.664,0,0,1,.2.917.656.656,0,0,1-.2.2ZM671.9,393.011h-5.311v-5.972H671.9Zm0-7.3h-5.311v-5.972H671.9Zm0-7.3h-5.311V372.44H671.9Zm0-7.3h-5.311V365.14H671.9Z" transform="translate(-406.474 589.874)"/></g></svg>