<svg xmlns="http://www.w3.org/2000/svg" xmlns:xlink="http://www.w3.org/1999/xlink" width="75" height="75" viewBox="0 0 75 75"><defs><style>.a{fill:none;}.b{fill:url(#a);}</style><linearGradient id="a" x1="0.5" x2="0.5" y2="1" gradientUnits="objectBoundingBox"><stop offset="0" stop-color="#ff483a"/><stop offset="1" stop-color="#cf4338"/></linearGradient></defs><g transform="translate(-921 -794)"><g transform="translate(-29.5 -6.503)"><rect class="a" width="75" height="75" transform="translate(950.5 800.503)"/></g><path class="b" d="M89.9,122.243a1.284,1.284,0,0,1-1.283-1.283V114.3l-.259-.092a4.64,4.64,0,0,1,0-8.753l.259-.092V89.422l-5.172,1.839v11.182c0,1.613-1.787,3.01-5.313,4.155a39.03,39.03,0,0,1-22.162,0c-3.525-1.144-5.313-2.542-5.313-4.155V91.261l-10.9-3.875a1.283,1.283,0,0,1,0-2.419l26.865-9.479a1.283,1.283,0,0,1,.854,0l26.865,9.479a1.283,1.283,0,0,1,0,2.419L91.182,88.51v16.852l.259.092a4.64,4.64,0,0,1,0,8.753l-.259.092v6.661A1.284,1.284,0,0,1,89.9,122.243Zm0-14.487a2.075,2.075,0,1,0,2.075,2.075A2.077,2.077,0,0,0,89.9,107.756Zm-36.677-5.4.113.114c.169.17,1.165,1.062,4.227,1.936a37.011,37.011,0,0,0,18.977,0c3.061-.873,4.058-1.765,4.226-1.936l.113-.114V92.173l-13.4,4.763a1.284,1.284,0,0,1-.859,0l-13.4-4.763Zm-9.194-16.17L67.05,94.366l23.022-8.184L67.05,78.059Z" transform="translate(891.098 732.585)"/></g></svg>