<svg xmlns="http://www.w3.org/2000/svg" xmlns:xlink="http://www.w3.org/1999/xlink" width="40" height="40" viewBox="0 0 40 40"><defs><style>.a{fill:none;}.b{fill:url(#a);}</style><linearGradient id="a" x1="0.5" x2="0.5" y2="1" gradientUnits="objectBoundingBox"><stop offset="0" stop-color="#fff"/><stop offset="1" stop-color="#fff" stop-opacity="0.678"/></linearGradient></defs><g transform="translate(-71.381 -1115.374)"><rect class="a" width="40" height="40" transform="translate(71.381 1115.374)"/><path class="b" d="M1.217,26.748a1.217,1.217,0,1,1,0-2.433H25.534a1.217,1.217,0,0,1,0,2.433Zm1.519-3.162a1.217,1.217,0,0,1,0-2.433h.3V10.212h-.3A.608.608,0,0,1,2.735,9H24.014a.608.608,0,0,1,0,1.216h-.3V21.153h.3a1.217,1.217,0,0,1,0,2.433ZM17.63,21.153h3.648V10.212H17.63Zm-6.081,0H15.2V10.212H11.549Zm-6.077,0H9.119V10.212H5.472ZM25.534,7.9H1.217a1.215,1.215,0,0,1-.5-2.324L12.875.107a1.219,1.219,0,0,1,1,0L25.94,5.537a1.215,1.215,0,0,1-.4,2.365Z" transform="translate(78 1122)"/></g></svg>