<svg xmlns="http://www.w3.org/2000/svg" width="119.994" height="103.471" viewBox="0 0 119.994 103.471"><defs><style>.a{fill:#00386b;}.b{fill:#00a4b7;}.c{fill:#3183c7;}.d{fill:#3aa6e1;}.e{fill:#2570ae;}.f{fill:#fff;}.g{fill:#f2b044;}.h{fill:#e57e3d;}.i{fill:#57a861;}.j{fill:#499350;}.k{fill:#43804b;}.l{fill:#ffc68d;}.m{fill:#75b260;}.n{fill:#f69d69;}.o{fill:#c85f2d;}.p{fill:#ffbe38;}.q{fill:#b3510d;}.r{fill:#f78f2a;}.s{fill:#cc6e0b;}.t{fill:#ffec37;}.u{fill:#f68b09;}</style></defs><g transform="translate(-90.563 -224.145)"><path class="a" d="M867.322,1626.208c0,3.133-15.747,5.673-35.173,5.673s-35.173-2.54-35.173-5.673,15.747-5.673,35.173-5.673S867.322,1623.075,867.322,1626.208Z" transform="translate(-662.725 -1310.029)"/><ellipse class="a" cx="29.97" cy="4.303" rx="29.97" ry="4.303" transform="translate(97.13 319.009)"/><g transform="translate(99.891 240.854)"><g transform="translate(3.913 14.014)"><path class="b" d="M360.771,747.417a2.465,2.465,0,0,1-1.28,3.241L318.963,768.24a2.466,2.466,0,0,1-3.242-1.28l-10.859-25.031a2.465,2.465,0,0,1,1.28-3.242l40.529-17.582a2.464,2.464,0,0,1,3.241,1.28Z" transform="translate(-304.658 -720.901)"/><path class="c" d="M360.771,747.417a2.465,2.465,0,0,1-1.28,3.241L318.963,768.24a2.466,2.466,0,0,1-3.242-1.28l-10.859-25.031a2.465,2.465,0,0,1,1.28-3.242l40.529-17.582a2.464,2.464,0,0,1,3.241,1.28Z" transform="translate(-304.658 -720.901)"/><g transform="translate(39.014)"><path class="d" d="M938.479,721.105l-3,1.3a2.464,2.464,0,0,1,3.241,1.28l10.859,25.031a2.465,2.465,0,0,1-1.28,3.242l3-1.3a2.465,2.465,0,0,0,1.28-3.241L941.72,722.385A2.464,2.464,0,0,0,938.479,721.105Z" transform="translate(-935.48 -720.901)"/></g><g transform="translate(0 17.512)"><path class="e" d="M320.8,1030.2a2.465,2.465,0,0,1-3.241-1.28l-10.788-24.867-.633.275a2.465,2.465,0,0,0-1.28,3.242l10.859,25.032a2.466,2.466,0,0,0,3.242,1.28l40.528-17.583a2.464,2.464,0,0,0,1.28-3.241l-.072-.165Z" transform="translate(-304.658 -1004.055)"/></g><g transform="translate(5.437 7.951)"><g transform="translate(0 4.903)"><path class="f" d="M394.9,1051.4l.2.463a.891.891,0,1,1-1.631.707l-.785-1.809a.891.891,0,1,1,1.63-.708l.147.338-.517.224-.162-.373c-.107-.248-.258-.3-.432-.22s-.242.218-.135.466l.815,1.879c.108.249.256.291.43.216s.244-.212.137-.461l-.216-.5Z" transform="translate(-392.575 -1041.973)"/><path class="f" d="M422.949,1039.416a1.17,1.17,0,0,1-.235-.405l-.237-.547c-.14-.323-.3-.395-.55-.287l-.189.083.614,1.416-.547.237-1.509-3.479.825-.358a.763.763,0,0,1,1.157.449l.119.274a.755.755,0,0,1-.052.86c.323,0,.527.22.684.583l.233.536a1.119,1.119,0,0,0,.243.4Zm-1.89-2.723.463,1.068.214-.092c.2-.089.289-.232.168-.51l-.148-.343c-.108-.249-.24-.322-.434-.237Z" transform="translate(-418.583 -1029.33)"/><path class="f" d="M453.777,1020.985l.75-.326.216.5-.75.326.442,1.019.944-.41.215.5-1.491.647-1.509-3.478,1.491-.647.216.5-.944.409Z" transform="translate(-448.882 -1013.52)"/><path class="f" d="M482.164,1009.516l.864-.375a.813.813,0,0,1,1.188.506l.763,1.76a.813.813,0,0,1-.442,1.213l-.865.375Zm.762.26,1.078,2.485.308-.134c.174-.075.24-.21.131-.458l-.785-1.809c-.108-.248-.251-.293-.425-.218Z" transform="translate(-476.623 -1004.073)"/><path class="f" d="M514.949,998.921l.546-.237,1.509,3.479-.546.237Z" transform="translate(-507.381 -994.358)"/><path class="f" d="M527.637,985.886l1.69-.734.216.5-.572.248,1.294,2.983-.547.237-1.294-2.982-.572.248Z" transform="translate(-519.284 -981.663)"/><path class="f" d="M576.885,972.45l.2.462a.891.891,0,1,1-1.63.707l-.785-1.809a.891.891,0,1,1,1.63-.707l.146.338-.517.225-.162-.373c-.108-.248-.258-.3-.432-.219s-.242.217-.135.465l.815,1.879c.108.248.256.29.43.215s.245-.212.137-.462l-.215-.5Z" transform="translate(-563.302 -967.904)"/><path class="f" d="M611.815,959.359l-.552.24-.368-.591-.671.291.18.673-.5.217-.953-3.72.8-.347Zm-1.726-.562.527-.229-1.027-1.645Z" transform="translate(-595.567 -954.427)"/><path class="f" d="M637.63,946.281a1.153,1.153,0,0,1-.235-.406l-.237-.546c-.14-.323-.3-.4-.55-.288l-.189.082.614,1.416-.546.238-1.51-3.48.825-.358a.763.763,0,0,1,1.157.449l.119.273a.756.756,0,0,1-.052.861c.323,0,.526.22.684.583l.233.537a1.12,1.12,0,0,0,.243.4Zm-1.89-2.723.464,1.069.214-.093c.2-.088.289-.232.168-.51l-.149-.343c-.108-.248-.239-.321-.434-.237Z" transform="translate(-619.985 -941.955)"/><path class="f" d="M667.277,929.211l.865-.375a.814.814,0,0,1,1.188.507l.763,1.759a.813.813,0,0,1-.442,1.213l-.865.376Zm.763.26,1.078,2.485.308-.134c.174-.075.24-.21.132-.459l-.785-1.809c-.107-.249-.251-.293-.425-.218Z" transform="translate(-650.288 -928.735)"/></g><g transform="translate(28.739 12.908)"><rect class="f" width="15.137" height="0.696" transform="translate(0 6.025) rotate(-23.453)"/></g><g transform="translate(37.068 16.101)"><rect class="f" width="7.569" height="0.696" transform="translate(0 3.012) rotate(-23.452)"/></g><g transform="translate(17.858 19.913)"><path class="f" d="M690.223,1172.067l-8.622,3.741-.277-.639,8.621-3.74Z" transform="translate(-681.324 -1171.43)"/></g><g transform="translate(16.428 9.611)"><rect class="f" width="26.998" height="0.696" transform="matrix(0.917, -0.398, 0.398, 0.917, 0, 10.745)"/></g><g transform="translate(20.757)"><path class="f" d="M733.23,856.349a3.6,3.6,0,1,1,1.818-1.766A3.576,3.576,0,0,1,733.23,856.349Zm-2.722-6.274a3.248,3.248,0,1,0,2.076-.17A3.21,3.21,0,0,0,730.508,850.074Z" transform="translate(-728.203 -849.457)"/><g transform="translate(1.762 0.257)"><path class="f" d="M759.963,860.241c-.725.314-1.824-1.179-2.534-2.817s-1.051-3.461-.326-3.776,1.824,1.179,2.534,2.817S760.688,859.926,759.963,860.241Zm-2.722-6.273c-.328.142-.294,1.474.507,3.318s1.748,2.779,2.076,2.636.294-1.473-.506-3.318S757.569,853.825,757.241,853.967Z" transform="translate(-756.699 -853.606)"/></g><g transform="translate(0.271 1.894)"><path class="f" d="M736.285,882.642c-1.14.495-3.374,1.25-3.669.57s1.783-1.8,2.923-2.291,3.375-1.25,3.67-.569S737.425,882.147,736.285,882.642Zm-.608-1.4c-1.965.852-2.813,1.671-2.742,1.833s1.248.1,3.212-.75,2.813-1.67,2.742-1.832S737.641,880.388,735.677,881.24Z" transform="translate(-732.587 -880.08)"/></g><g transform="translate(0.554 0.205)"><path class="f" d="M739.5,854.549a3.32,3.32,0,0,1-2.345.112l.107-.331a2.97,2.97,0,0,0,3.605-1.564l.315.148A3.317,3.317,0,0,1,739.5,854.549Z" transform="translate(-737.156 -852.766)"/><g transform="translate(1.83 4.434)"><path class="f" d="M767.068,926.73l-.325-.124a3.322,3.322,0,0,1,4.371-1.9l-.133.322a2.974,2.974,0,0,0-3.912,1.7Z" transform="translate(-766.742 -924.459)"/></g></g></g><g transform="translate(4.73 18.042)"><path class="g" d="M478.242,1146.495a.747.747,0,0,1-.388.982l-5.638,2.445a.747.747,0,0,1-.982-.387l-2.113-4.872a.746.746,0,0,1,.388-.982l5.638-2.446a.747.747,0,0,1,.982.387Z" transform="translate(-469.06 -1141.173)"/><g transform="translate(1.045 2.11)"><rect class="h" width="0.348" height="6.804" transform="matrix(0.918, -0.397, 0.397, 0.918, 0, 0.138)"/></g><g transform="translate(5.301 0.264)"><path class="h" d="M557.8,1151.684l-.319.138-2.708-6.242.319-.139Z" transform="translate(-554.773 -1145.441)"/></g><g transform="translate(0.129 0.599)"><path class="h" d="M478.284,1151.171l-7,3.037-.138-.32,7-3.036Z" transform="translate(-471.145 -1150.852)"/></g><g transform="translate(1.976 4.856)"><rect class="h" width="7.631" height="0.348" transform="translate(0 3.037) rotate(-23.454)"/></g><g transform="translate(2.715 2.498)"><path class="h" d="M516.772,1184.224l-2.661,1.155-1.154-2.661,2.661-1.154Zm-2.48.7,2.022-.877-.877-2.022-2.023.877Z" transform="translate(-512.957 -1181.563)"/></g><g transform="translate(1.564 3.013)"><path class="h" d="M495.654,1190.783l-1.31-.569.139-.319,1.31.57Z" transform="translate(-494.344 -1189.895)"/></g><g transform="translate(3.316 6.026)"><rect class="h" width="1.428" height="0.348" transform="translate(0 1.345) rotate(-70.384)"/></g><g transform="translate(5.126 1.256)"><rect class="h" width="1.526" height="0.348" transform="translate(0 1.401) rotate(-66.64)"/></g><g transform="translate(6.242 4.904)"><path class="h" d="M571.429,1221.316l-1.437-.515.117-.328,1.437.515Z" transform="translate(-569.992 -1220.473)"/></g></g></g></g><g transform="translate(31.256 0)"><path class="i" d="M786.657,499.85c1.042.024,1.893-.612,3.437-1.775,1.289-.97,3.773-3.122,5.559-2.248,2.925,1.431-1.151,7.182-2.073,9.1-1.512,3.143-3.833,6.949-4.211,10.317-.492,4.388,3.5,5.891,6.457,8.122A42.94,42.94,0,0,1,810.4,543.122c2.064,5.714,4.786,16.743,1.135,22.177.866,2.2,1.787,2.472,2.7,4.838-.714,1.556-2.73,1.077-4.117.346-2.833-1.492-5.461-3.836-8.693-2.419-1.465.642-3.974,1.194-5.352,1.958a19.873,19.873,0,0,1-5.542,1.677c-5.577,1.137-10.724.492-16.127-.877-3.677-.932-8.142-3-11.976-2.815-4.255.206-8.214-.852-12.052.922-1.432.662-2.8,2.323-3.455.748-.62-1.48.939-3.695,1.555-4.894,1.857-3.62,3.138-3.259,3.354-7.368.224-4.278-.465-8.455.051-12.666,1.085-8.855,8.039-15.559,12.851-22.361,2.455-3.472,5.113-4.317,3.168-8.41-2.09-4.4-4.755-10.8-7.776-14.63-.581-.737,5.782-4.223,6.144-4.346,5.951-2.021,12.467.769,17.557,3.748A6.281,6.281,0,0,0,786.657,499.85Z" transform="translate(-746.775 -494.312)"/><path class="j" d="M776.445,518.614c.231-.416.79-2.458,1.111-2.623a3.514,3.514,0,0,0-1.148.95c-.84,1.074-2.945,4.017-4.216,1.508-1.074-2.122-.389-5.088.059-7.318.254-1.266,1.778-4.815.552-5.825-1.319-1.086-3.544-.387-5.11-.674-2.751-.506-5.052-3.411-3.139-6.079,2.161-3.015,6.005-3.13,9.322-2.235,2.094.565,3.995,1.886,6.088,2.34a3.908,3.908,0,0,0,2.915-.448c-4.937-2.761-11.026-5.107-16.616-3.209-.362.123-6.725,3.609-6.144,4.346,3.021,3.83,5.686,10.234,7.776,14.63,1.946,4.093-.713,4.938-3.168,8.41-4.812,6.8-11.767,13.506-12.851,22.361-.516,4.211.173,8.388-.051,12.666-.216,4.109-1.5,3.748-3.354,7.368-.616,1.2-2.175,3.414-1.555,4.894.659,1.575,2.023-.086,3.455-.748,3.837-1.774,7.8-.716,12.052-.922,3.834-.186,8.3,1.884,11.976,2.815,5.4,1.37,10.55,2.014,16.127.877a19.873,19.873,0,0,0,5.542-1.677c1.378-.764,3.887-1.316,5.352-1.958,3.232-1.417,5.86.927,8.693,2.419,1.387.731,3.4,1.21,4.117-.346-.909-2.366-1.83-2.642-2.7-4.838,3.651-5.434.929-16.463-1.135-22.177a42.955,42.955,0,0,0-10.2-15.969c-.733,2.986,2.112,6.79,3.6,9.11,3.788,5.9,9.558,17.355,5.741,24.375-.99,1.821-1.232,2.9-2.875,2.957a4.482,4.482,0,0,1-2.858.3c-3.081-.537-6.223-2.567-9.423-1.623-4.116,1.214-7.133,4.641-11.434,5.551a17.72,17.72,0,0,1-11.814-1.407,8.7,8.7,0,0,1-3.743-3c-.8-1.388-1.117-3.052-2.037-4.368-1.088-1.558-2.852-1.565-4.282-2.626a5.73,5.73,0,0,1-2.208-2.834c-1.017-3.065-.529-6.582.214-9.657a34.211,34.211,0,0,1,8.557-15.336S774.888,521.413,776.445,518.614Z" transform="translate(-746.775 -494.312)"/><path class="k" d="M1183.565,1086.746c-1.842-1.906-4.735-2.115-6.649-2.254a1.835,1.835,0,0,1-1.683-.96,2.03,2.03,0,0,1,.564-2.036,3.639,3.639,0,0,1,2.686-.993,4.256,4.256,0,0,1,2.434.555,1.5,1.5,0,0,0,2.618-1.477c-.782-1.451-2.8-1.885-3.783-2.012v-1.354a1.5,1.5,0,1,0-3.006,0v1.489a5.963,5.963,0,0,0-3.222,1.825,4.94,4.94,0,0,0-1.069,5.153,4.774,4.774,0,0,0,4.244,2.808c1.545.112,3.661.265,4.7,1.345a2.892,2.892,0,0,1,.79,2.191,3.408,3.408,0,0,1-1.024,2.25,4.732,4.732,0,0,1-4.626.988,3.144,3.144,0,0,1-2.265-2.4,1.5,1.5,0,0,0-2.955.553,6.066,6.066,0,0,0,4.305,4.713,7.724,7.724,0,0,0,1.119.264v1.38a1.5,1.5,0,1,0,3.006,0v-1.478a7.377,7.377,0,0,0,3.5-1.855,6.356,6.356,0,0,0,1.939-4.256A5.868,5.868,0,0,0,1183.565,1086.746Z" transform="translate(-1145.042 -1038.815)"/><path class="l" d="M1200.373,1086.746c-1.842-1.906-4.734-2.115-6.649-2.254a1.833,1.833,0,0,1-1.682-.96,2.028,2.028,0,0,1,.563-2.036,3.639,3.639,0,0,1,2.687-.993,4.255,4.255,0,0,1,2.433.555,1.5,1.5,0,0,0,2.618-1.477c-.781-1.451-2.8-1.885-3.782-2.012v-1.354a1.5,1.5,0,1,0-3.006,0v1.489a5.962,5.962,0,0,0-3.222,1.825,4.941,4.941,0,0,0-1.069,5.153,4.774,4.774,0,0,0,4.244,2.808c1.545.112,3.66.265,4.7,1.345a2.888,2.888,0,0,1,.789,2.191,3.4,3.4,0,0,1-1.024,2.25,4.732,4.732,0,0,1-4.626.989,3.145,3.145,0,0,1-2.265-2.4,1.5,1.5,0,0,0-2.955.553,6.067,6.067,0,0,0,4.3,4.713,7.757,7.757,0,0,0,1.119.264v1.38a1.5,1.5,0,1,0,3.006,0v-1.478a7.374,7.374,0,0,0,3.5-1.855,6.355,6.355,0,0,0,1.939-4.257A5.866,5.866,0,0,0,1200.373,1086.746Z" transform="translate(-1160.81 -1038.815)"/><path class="m" d="M1456.576,1171.323c.451,1.625.818,3.583.04,5.2-.68,1.413-2.1,2.28-2.912,3.621-1.385,2.3.082,6.22,3.015,5.789a19.765,19.765,0,0,0,3.862-1.477c1.309-.5,2.787-.466,4.1-.914,5.145-1.759,3.091-9.526,1.494-13.081-1.213-2.7-3.07-6.251-6.027-7.326C1454.465,1161.066,1455.725,1168.259,1456.576,1171.323Z" transform="translate(-1409.489 -1121.424)"/><path class="j" d="M1231.782,623.616s2.222-4.343,2.768-5.324c0,0,1.007-1.325-.384-1.343a10.976,10.976,0,0,0-3.636,2.887,16.022,16.022,0,0,0-2.2,3.845c-.46,1.19-.484,3.219-1.729,3.969-2.833,1.708-2.468-6.412-4.281-2.6-.555,1.167.041,3.1-.548,4.157-.987,1.766-1.671-.1-1.905-1.43-.273-1.546-.069-9.021-3.186-6.605-1.472,1.142-.632,2.8-.479,4.288.195,1.9-.56,3.748-.314,5.638.448,3.445,2.885,3.99,5.875,3.84,2.472-.123,6.421-.443,7.3-3.111.895-2.729,1.078-5.162,2.568-7.894" transform="translate(-1186.813 -609.364)"/><path class="l" d="M1075.45,811.124c0,.836-.426,1.515-.95,1.515h-24.365c-.525,0-.95-.679-.95-1.515h0c0-.837.426-1.515.95-1.515H1074.5c.524,0,.95.678.95,1.515Z" transform="translate(-1030.481 -790.109)"/><path class="n" d="M1075.45,860.108c0,.837-.426,1.515-.95,1.515h-24.365c-.525,0-.95-.678-.95-1.515h0c0-.836.426-1.514.95-1.514H1074.5c.524,0,.95.679.95,1.514Z" transform="translate(-1030.481 -836.064)"/></g><g transform="translate(23.333 52.58)"><path class="o" d="M673.093,1359.424a14.939,14.939,0,1,1-14.939-14.94A14.939,14.939,0,0,1,673.093,1359.424Z" transform="translate(-641.697 -1344.484)"/><path class="p" d="M648.563,1359.424a14.939,14.939,0,1,1-14.94-14.94A14.939,14.939,0,0,1,648.563,1359.424Z" transform="translate(-618.683 -1344.484)"/><path class="q" d="M698.614,1413.013a11.407,11.407,0,1,1-11.407-11.407A11.407,11.407,0,0,1,698.614,1413.013Z" transform="translate(-672.268 -1398.073)"/><path class="r" d="M718.129,1422.764A10.763,10.763,0,1,1,707.365,1412,10.763,10.763,0,0,1,718.129,1422.764Z" transform="translate(-691.782 -1407.824)"/><path class="s" d="M791.882,1454.99c-1.24-1.283-3.188-1.425-4.477-1.517a1.235,1.235,0,0,1-1.133-.647,1.365,1.365,0,0,1,.38-1.37,2.448,2.448,0,0,1,1.809-.669,2.873,2.873,0,0,1,1.639.373,1.012,1.012,0,0,0,1.763-.994,3.4,3.4,0,0,0-2.547-1.354v-.912a1.012,1.012,0,0,0-2.024,0v1a4.022,4.022,0,0,0-2.169,1.229,3.327,3.327,0,0,0-.719,3.47,3.214,3.214,0,0,0,2.857,1.891c1.04.075,2.464.178,3.167.906a1.947,1.947,0,0,1,.532,1.475,2.3,2.3,0,0,1-.69,1.515,3.188,3.188,0,0,1-3.115.666,2.12,2.12,0,0,1-1.525-1.618,1.012,1.012,0,0,0-1.99.373,4.084,4.084,0,0,0,2.9,3.173,5.226,5.226,0,0,0,.753.178v.929a1.012,1.012,0,0,0,2.024,0v-1a4.965,4.965,0,0,0,2.358-1.249,4.277,4.277,0,0,0,1.305-2.866A3.949,3.949,0,0,0,791.882,1454.99Z" transform="translate(-773.42 -1440.554)"/><path class="p" d="M803.2,1454.99c-1.24-1.283-3.188-1.425-4.477-1.518a1.234,1.234,0,0,1-1.133-.646,1.366,1.366,0,0,1,.38-1.37,2.448,2.448,0,0,1,1.809-.669,2.873,2.873,0,0,1,1.639.373,1.012,1.012,0,0,0,1.763-.994,3.4,3.4,0,0,0-2.546-1.354v-.912a1.012,1.012,0,0,0-2.024,0v1a4.022,4.022,0,0,0-2.17,1.229,3.327,3.327,0,0,0-.72,3.47,3.214,3.214,0,0,0,2.857,1.891c1.04.075,2.464.178,3.167.905a1.946,1.946,0,0,1,.532,1.476,2.293,2.293,0,0,1-.689,1.515,3.19,3.19,0,0,1-3.115.666,2.121,2.121,0,0,1-1.525-1.618,1.012,1.012,0,1,0-1.989.373,4.085,4.085,0,0,0,2.9,3.173,5.235,5.235,0,0,0,.754.178v.929a1.012,1.012,0,1,0,2.024,0v-1a4.968,4.968,0,0,0,2.358-1.249,4.279,4.279,0,0,0,1.305-2.866A3.949,3.949,0,0,0,803.2,1454.99Z" transform="translate(-784.039 -1440.554)"/><path class="t" d="M622.586,1547l-3.105,1.917a14.849,14.849,0,0,1-.813-4.861c0-.127,0-.251.006-.375l3.866-2.391a11.479,11.479,0,0,0,.046,5.711Z" transform="translate(-618.668 -1529.114)"/><path class="t" d="M908.443,1370.384l-3.1,1.917a11.371,11.371,0,0,0-5.086-2.6l3.869-2.389A14.906,14.906,0,0,1,908.443,1370.384Z" transform="translate(-882.839 -1365.904)"/><path class="q" d="M647.474,1664.054l-3.01,1.859a14.658,14.658,0,0,1-1.249-2.1l3.021-1.868A11.589,11.589,0,0,0,647.474,1664.054Z" transform="translate(-641.697 -1642.315)"/><path class="q" d="M1007.644,1441.467l-3.01,1.865a11.238,11.238,0,0,0-1.333-2.05l3.021-1.868A14.8,14.8,0,0,1,1007.644,1441.467Z" transform="translate(-979.513 -1433.543)"/><path class="u" d="M706.357,1736.03l-3.872,2.391a14.824,14.824,0,0,1-3.637-2.414l3.172-1.96A11.379,11.379,0,0,0,706.357,1736.03Z" transform="translate(-693.889 -1709.954)"/><path class="u" d="M1042.679,1525.981c0,.128,0,.255-.006.379l-3.892,2.406a10.812,10.812,0,0,0,.179-4.774l3.186-1.969A14.9,14.9,0,0,1,1042.679,1525.981Z" transform="translate(-1012.798 -1511.043)"/></g><g transform="translate(0 53.812)"><path class="o" d="M295.815,1379.341a14.939,14.939,0,1,1-14.939-14.94A14.939,14.939,0,0,1,295.815,1379.341Z" transform="translate(-264.419 -1364.402)"/><path class="p" d="M271.285,1379.341a14.939,14.939,0,1,1-14.94-14.94A14.94,14.94,0,0,1,271.285,1379.341Z" transform="translate(-241.405 -1364.402)"/><path class="q" d="M321.333,1432.929a11.407,11.407,0,1,1-11.407-11.406A11.407,11.407,0,0,1,321.333,1432.929Z" transform="translate(-294.986 -1417.99)"/><path class="r" d="M340.851,1442.693a10.763,10.763,0,1,1-10.763-10.763A10.763,10.763,0,0,1,340.851,1442.693Z" transform="translate(-314.504 -1427.754)"/><path class="s" d="M414.605,1474.908c-1.24-1.284-3.188-1.424-4.477-1.518a1.235,1.235,0,0,1-1.133-.646,1.366,1.366,0,0,1,.38-1.37,2.451,2.451,0,0,1,1.809-.669,2.868,2.868,0,0,1,1.638.374,1.012,1.012,0,0,0,1.763-.995,3.4,3.4,0,0,0-2.547-1.354v-.913a1.012,1.012,0,0,0-2.024,0v1a4.017,4.017,0,0,0-2.169,1.229,3.327,3.327,0,0,0-.719,3.47,3.215,3.215,0,0,0,2.857,1.891c1.04.075,2.464.178,3.167.905a1.947,1.947,0,0,1,.532,1.475,2.294,2.294,0,0,1-.69,1.515,3.189,3.189,0,0,1-3.115.666,2.118,2.118,0,0,1-1.525-1.617,1.012,1.012,0,1,0-1.99.372,4.083,4.083,0,0,0,2.9,3.173,5.16,5.16,0,0,0,.753.179v.928a1.012,1.012,0,0,0,2.024,0v-.995a4.978,4.978,0,0,0,2.358-1.249,4.28,4.28,0,0,0,1.305-2.866A3.95,3.95,0,0,0,414.605,1474.908Z" transform="translate(-396.143 -1460.472)"/><path class="p" d="M425.923,1474.908c-1.24-1.284-3.187-1.425-4.476-1.518a1.235,1.235,0,0,1-1.133-.646,1.367,1.367,0,0,1,.38-1.37,2.45,2.45,0,0,1,1.809-.669,2.87,2.87,0,0,1,1.639.374,1.012,1.012,0,0,0,1.763-.995,3.4,3.4,0,0,0-2.546-1.354v-.913a1.012,1.012,0,0,0-2.024,0v1a4.019,4.019,0,0,0-2.17,1.229,3.327,3.327,0,0,0-.719,3.47,3.213,3.213,0,0,0,2.857,1.89c1.04.075,2.465.178,3.167.906a1.944,1.944,0,0,1,.531,1.475,2.291,2.291,0,0,1-.689,1.515,3.189,3.189,0,0,1-3.115.666,2.119,2.119,0,0,1-1.525-1.617,1.012,1.012,0,1,0-1.989.372,4.085,4.085,0,0,0,2.9,3.173,5.3,5.3,0,0,0,.754.179v.928a1.012,1.012,0,0,0,2.024,0v-.995a4.975,4.975,0,0,0,2.358-1.249,4.28,4.28,0,0,0,1.305-2.866A3.95,3.95,0,0,0,425.923,1474.908Z" transform="translate(-406.761 -1460.472)"/><path class="t" d="M245.309,1566.914l-3.105,1.917a14.851,14.851,0,0,1-.812-4.86c0-.127,0-.252.006-.376l3.866-2.391a11.468,11.468,0,0,0,.046,5.711Z" transform="translate(-241.391 -1549.032)"/><path class="t" d="M531.166,1390.31l-3.1,1.917a11.375,11.375,0,0,0-5.086-2.6l3.869-2.388A14.9,14.9,0,0,1,531.166,1390.31Z" transform="translate(-505.562 -1385.829)"/><path class="q" d="M270.2,1683.972l-3.01,1.859a14.684,14.684,0,0,1-1.249-2.1l3.021-1.868A11.619,11.619,0,0,0,270.2,1683.972Z" transform="translate(-264.419 -1662.233)"/><path class="q" d="M630.362,1461.381l-3.01,1.865a11.247,11.247,0,0,0-1.333-2.05l3.022-1.868A14.783,14.783,0,0,1,630.362,1461.381Z" transform="translate(-602.231 -1453.457)"/><path class="u" d="M329.079,1755.945l-3.872,2.391a14.844,14.844,0,0,1-3.637-2.415l3.172-1.96A11.389,11.389,0,0,0,329.079,1755.945Z" transform="translate(-316.611 -1729.868)"/><path class="u" d="M665.4,1545.9c0,.127,0,.255-.006.378l-3.892,2.406a10.809,10.809,0,0,0,.179-4.774l3.187-1.969A14.907,14.907,0,0,1,665.4,1545.9Z" transform="translate(-635.521 -1530.961)"/></g></g><g transform="translate(90.563 228.059)"><path class="f" d="M1173.38,288.339a.906.906,0,0,1-.905.905h-18.437a.905.905,0,0,1-.905-.905h0a.905.905,0,0,1,.905-.9h18.437a.906.906,0,0,1,.905.9Z" transform="translate(-1087.417 -287.434)"/><g transform="translate(0 64.98)"><path class="f" d="M183.715,1339.007a.9.9,0,0,1,.905-.905h8.765a.905.905,0,0,1,.9.905h0a.905.905,0,0,1-.9.905H184.62a.905.905,0,0,1-.905-.905Z" transform="translate(-177.954 -1338.102)"/><path class="f" d="M90.563,1339.007a.905.905,0,0,1,.906-.905h1.975a.9.9,0,0,1,.9.905h0a.9.9,0,0,1-.9.905H91.469a.905.905,0,0,1-.906-.905Z" transform="translate(-90.563 -1338.102)"/></g><g transform="translate(103.658 64.734)"><path class="f" d="M1777.189,1335.022a.9.9,0,0,1-.906.905h-8.765a.9.9,0,0,1-.905-.905h0a.9.9,0,0,1,.905-.905h8.765a.905.905,0,0,1,.906.905Z" transform="translate(-1766.613 -1334.117)"/><path class="f" d="M1973.333,1335.022a.9.9,0,0,1-.9.905h-1.976a.905.905,0,0,1-.905-.905h0a.905.905,0,0,1,.905-.905h1.976a.905.905,0,0,1,.9.905Z" transform="translate(-1956.996 -1334.117)"/></g><g transform="translate(93.515 35.087)"><path class="f" d="M1612.389,855.671a.9.9,0,0,1-.905.905h-7.961a.9.9,0,0,1-.905-.905h0a.9.9,0,0,1,.905-.9h7.961a.9.9,0,0,1,.905.9Z" transform="translate(-1602.617 -854.766)"/><path class="f" d="M1796.345,855.671a.9.9,0,0,1-.905.905h-1.976a.905.905,0,0,1-.905-.905h0a.905.905,0,0,1,.905-.9h1.976a.9.9,0,0,1,.905.9Z" transform="translate(-1780.812 -854.766)"/></g><g transform="translate(61.269 97.536)"><path class="f" d="M1174.363,1865.405a.9.9,0,0,1,.9-.905h7.962a.9.9,0,0,1,.905.905h0a.9.9,0,0,1-.905.905h-7.962a.9.9,0,0,1-.9-.905Z" transform="translate(-1168.602 -1864.5)"/><path class="f" d="M1081.219,1865.405a.9.9,0,0,1,.905-.905h1.975a.906.906,0,0,1,.906.905h0a.906.906,0,0,1-.906.905h-1.975a.9.9,0,0,1-.905-.905Z" transform="translate(-1081.219 -1864.5)"/><path class="f" d="M1365.883,1865.405a.9.9,0,0,1,.905-.905h1.975a.906.906,0,0,1,.905.905h0a.906.906,0,0,1-.905.905h-1.975a.9.9,0,0,1-.905-.905Z" transform="translate(-1348.278 -1864.5)"/></g><g transform="translate(14.443 12.389)"><path class="f" d="M327.884,488.659a.9.9,0,0,1-.905.905H325a.9.9,0,0,1-.905-.905h0a.9.9,0,0,1,.905-.9h1.975a.9.9,0,0,1,.905.9Z" transform="translate(-324.098 -487.754)"/><path class="f" d="M434.089,488.659a.9.9,0,0,1-.9.905h-5.708a.905.905,0,0,1-.906-.905h0a.9.9,0,0,1,.906-.9h5.708a.9.9,0,0,1,.9.9Z" transform="translate(-420.232 -487.754)"/></g></g><g transform="translate(93.897 224.145)"><path class="f" d="M1822.682,529.681a1.044,1.044,0,1,1-1.044-1.044A1.044,1.044,0,0,1,1822.682,529.681Z" transform="translate(-1716.931 -509.805)"/><path class="f" d="M146.553,715.825a1.044,1.044,0,1,1-1.044-1.044A1.044,1.044,0,0,1,146.553,715.825Z" transform="translate(-144.465 -684.437)"/><path class="f" d="M713.416,623.548a1.044,1.044,0,1,1-1.044-1.044A1.044,1.044,0,0,1,713.416,623.548Z" transform="translate(-676.27 -597.867)"/><path class="f" d="M885.467,225.189a1.044,1.044,0,1,1-1.044-1.044A1.044,1.044,0,0,1,885.467,225.189Z" transform="translate(-837.68 -224.145)"/><path class="f" d="M1985.358,1548.052a1.044,1.044,0,1,1-1.044-1.044A1.044,1.044,0,0,1,1985.358,1548.052Z" transform="translate(-1869.547 -1465.194)"/></g></g></svg>