<svg xmlns="http://www.w3.org/2000/svg" xmlns:xlink="http://www.w3.org/1999/xlink" width="40" height="40" viewBox="0 0 40 40"><defs><style>.a{fill:none;}.b{fill:url(#a);}</style><linearGradient id="a" x1="0.177" y1="0.5" x2="0.883" y2="0.5" gradientUnits="objectBoundingBox"><stop offset="0" stop-color="#fff"/><stop offset="1" stop-color="#fff" stop-opacity="0.678"/></linearGradient></defs><g transform="translate(-72.057 -1005.116)"><rect class="a" width="40" height="40" transform="translate(72.057 1005.116)"/><path class="b" d="M0,22.115c0-3.568,2.471-5.858,4.7-7.058C2.471,13.857,0,11.567,0,8,0,3.472,3.673,0,8.544,0a9.165,9.165,0,0,1,3.572.723V7.454L9.075,8.975a.919.919,0,0,0,0,1.578l5.48,2.74-1.951.975a.919.919,0,0,0,0,1.579l1.951.976-5.48,2.74a.919.919,0,0,0,0,1.579l3.042,1.521v6.731a9.172,9.172,0,0,1-3.572.723C3.673,30.115,0,26.642,0,22.115Zm13.881,0a.883.883,0,0,0-.488-.789l-1.951-.975,5.48-2.74a.918.918,0,0,0,0-1.578l-1.951-.976,1.951-.975a.882.882,0,0,0,0-1.579l-5.48-2.74,1.951-.976A.882.882,0,0,0,13.881,8V1.649c2.857,1.816,5.57,5.086,9.023,9.177.969,1.149,2,2.37,3.113,3.653a.884.884,0,0,1,0,1.156c-1.112,1.283-2.144,2.5-3.113,3.653-3.453,4.091-6.166,7.361-9.023,9.177Z" transform="translate(107.115 1012) rotate(90)"/></g></svg>