<svg xmlns="http://www.w3.org/2000/svg" xmlns:xlink="http://www.w3.org/1999/xlink" width="139.839" height="117.704" viewBox="0 0 139.839 117.704"><defs><style>.a{fill:#30b78a;}.b,.w{fill:#ffcac5;}.b{opacity:0.236;}.c{fill:#d6d6d6;opacity:0.43;mix-blend-mode:multiply;isolation:isolate;}.d{fill:#fc6965;}.e,.h,.k,.m{opacity:0.25;}.e{fill:url(#a);}.f,.t,.u,.v{fill:none;stroke-miterlimit:10;}.f{stroke:#fff;stroke-linecap:round;stroke-width:4px;}.g{fill:#333a93;}.i{fill:url(#b);}.j{fill:#abc0f7;}.k{fill:url(#c);}.l{fill:#d5e5ff;}.m{fill:url(#d);}.n,.s,.x{fill:#fafcfc;}.o{fill:#88a7ed;}.p{fill:#4250b2;}.q{fill:#60e8be;}.r{opacity:0.56;fill:url(#e);}.s{opacity:0.8;}.t{stroke:#60e8be;}.t,.u,.v{stroke-width:3px;}.u{stroke:#abc0f7;}.v{stroke:#ffcac5;}.x{opacity:0.9;}</style><linearGradient id="a" x1="0.5" y1="1" x2="0.5" gradientUnits="objectBoundingBox"><stop offset="0" stop-color="#fff" stop-opacity="0"/><stop offset="1" stop-color="#fff"/></linearGradient><linearGradient id="b" x1="0.612" y1="0.925" x2="0.612" y2="0.038" gradientUnits="objectBoundingBox"><stop offset="0.663" stop-color="#fff" stop-opacity="0"/><stop offset="0.691" stop-color="#fff" stop-opacity="0.035"/><stop offset="0.739" stop-color="#fff" stop-opacity="0.133"/><stop offset="0.799" stop-color="#fff" stop-opacity="0.298"/><stop offset="0.87" stop-color="#fff" stop-opacity="0.522"/><stop offset="0.949" stop-color="#fff" stop-opacity="0.8"/><stop offset="1" stop-color="#fff"/></linearGradient><linearGradient id="c" x1="0.035" y1="0.482" x2="1.012" y2="0.482" xlink:href="#a"/><linearGradient id="d" x1="-0.01" y1="0.503" x2="0.958" y2="0.503" xlink:href="#a"/><linearGradient id="e" x1="-0.058" y1="0.499" x2="0.989" y2="0.499" xlink:href="#a"/></defs><g transform="translate(-49.652 -77.252)"><g transform="translate(164.35 99.019)"><path class="a" d="M389.812,164.966a10.379,10.379,0,0,0-.382-6.558c-.287.655-.946,1.98-1.67,2.232a1.858,1.858,0,1,1-1.219-3.51c.7-.243,1.971.337,2.626.68a12.3,12.3,0,0,0-1.764-2.682,14.555,14.555,0,0,0-1.018-1.073c-.129.558-.58,2.274-1.331,2.684a1.858,1.858,0,0,1-1.779-3.262c.671-.366,2.088.033,2.769.261a16.353,16.353,0,0,0-1.962-1.513,3.846,3.846,0,0,1-2.4.3,1.858,1.858,0,1,1,1.572-3.367c.713.333,1.241,1.782,1.45,2.441a17.362,17.362,0,0,1,2.075,1.654c-.147-.568-.534-2.277-.062-2.983a1.858,1.858,0,1,1,3.089,2.065c-.49.733-2.333,1.024-2.842,1.091,2.416,2.318,5.068,6.263,3.694,11.75l0,.013a.435.435,0,0,1-.84-.224Z" transform="translate(-380.608 -148.983)"/><path class="a" d="M407.59,163.945a1.858,1.858,0,0,1,3.089,2.065c-.57.853-2.976,1.108-2.976,1.108S407.019,164.8,407.59,163.945Z" transform="translate(-398.17 -158.263)"/></g><path class="b" d="M99.232,105.157a73.86,73.86,0,0,0-8.735,3.9c-8.228,4.361-15.285,12.059-16.94,21.428a26.545,26.545,0,0,0,.977,12.944c1.472,4.416,4.633,8.4,3.219,13.343-1.793,6.266-7.027,9.923-7.748,16.8a23.72,23.72,0,0,0,5.8,18.165c4.507,4.979,10.907,7.821,17.337,9.759,26.926,8.115,57,4.57,81.866-8.3,8.587-4.444,15.664-10.3,19.224-19.518a35.977,35.977,0,0,0,.793-23.426c-2.755-8.872-9.856-13.021-18.384-14.908-3.936-.871-8.26-2.465-9.865-6.164-1.856-4.275.583-9.02-.11-13.453a16.229,16.229,0,0,0-6.637-10.252c-3.969-2.9-8.848-4.295-13.7-5.1A95.9,95.9,0,0,0,99.232,105.157Z" transform="translate(-12.292 -17.347)"/><path class="c" d="M278.9,180.051a20.711,20.711,0,0,0-18.469,7.251,20.7,20.7,0,0,0-16.1-11.6c-11.362-1.431-21.533,5.046-23.161,17.982-1.485,11.85,13.226,27.763,13.226,27.763l16.685,21.482a3.3,3.3,0,0,0,4.631.582l21.482-16.685s18.2-11.774,19.682-23.623C298.5,190.271,290.254,181.48,278.9,180.051Z" transform="translate(-111.532 -67.377)"/><path class="d" d="M277.6,170.152a20.71,20.71,0,0,0-18.469,7.251,20.7,20.7,0,0,0-16.1-11.6c-11.363-1.431-21.533,5.046-23.161,17.982-1.485,11.85,13.226,27.763,13.226,27.763l16.685,21.482a3.3,3.3,0,0,0,4.631.582L275.9,216.931s18.2-11.774,19.681-23.623C297.213,180.371,288.962,171.58,277.6,170.152Z" transform="translate(-110.685 -60.879)"/><path class="e" d="M236.446,209.762a74,74,0,0,0,9.353-4.385,82.5,82.5,0,0,0,27.358-24.149,65.629,65.629,0,0,0,6.267-10.776c-.6-.12-1.2-.224-1.819-.3a20.711,20.711,0,0,0-18.469,7.251,20.7,20.7,0,0,0-16.1-11.6c-11.362-1.431-21.533,5.046-23.161,17.982-1.331,10.618,10.341,24.5,12.782,27.267C233.959,210.68,235.23,210.227,236.446,209.762Z" transform="translate(-110.685 -60.879)"/><g transform="translate(115.318 126.294)"><path class="f" d="M425.41,253.044l7.748,0" transform="translate(-360.985 -244.565)"/><path class="f" d="M406.383,253.056q1.695-.005,3.39-.007" transform="translate(-348.496 -244.568)"/><path class="f" d="M292.847,236.863q-2.147.007-4.294.013c-1.93,0-4.23-.337-5.9.872a7.2,7.2,0,0,0-2.2,3.477c-.868,2.275-2.293,5.3-5.354,4.171-2.266-.836-2.81-4.134-3.265-6.167-.626-2.8-.639-6.117-2.227-8.576-1.9-2.948-5.643-3.152-7.57,0-1.491,2.439-1.83,5.587-1.9,8.329-.071,2.817,1.257,14.06-4.516,14.06-3.657,0-4.162-4.725-4.876-6.942-.789-2.451-1.944-5.855-5.059-5.848H237.9" transform="translate(-237.905 -228.366)"/></g><g transform="translate(53.283 113.141)"><path class="c" d="M127.363,203.969l-15.518,2.154-.523-3.766a5.492,5.492,0,0,0-6.188-4.68l-14.68,2.038a5.493,5.493,0,0,0-4.68,6.188l.523,3.766L68.96,212.076a4.775,4.775,0,0,0-4.073,5.386L66.9,231.979l.114.824,3.208,23.115a4.775,4.775,0,0,0,5.386,4.073l58.4-8.107a4.775,4.775,0,0,0,4.073-5.386l-3.323-23.939-2.016-14.518A4.775,4.775,0,0,0,127.363,203.969ZM88.72,205.494a2.515,2.515,0,0,1,2.143-2.833l14.68-2.038a2.515,2.515,0,0,1,2.833,2.143l.523,3.766L89.243,209.26Z" transform="translate(-62.269 -195.034)"/><g transform="translate(20.88)"><path class="g" d="M139.694,205.682l-14.681,2.038a5.493,5.493,0,0,1-6.188-4.68l-.649-4.676a5.492,5.492,0,0,1,4.68-6.188l14.681-2.038a5.493,5.493,0,0,1,6.188,4.68l.649,4.676A5.492,5.492,0,0,1,139.694,205.682Zm-16.429-10.56a2.515,2.515,0,0,0-2.143,2.833l.649,4.676a2.515,2.515,0,0,0,2.833,2.143l14.68-2.038a2.515,2.515,0,0,0,2.143-2.833l-.649-4.676a2.515,2.515,0,0,0-2.833-2.143Z" transform="translate(-118.123 -190.085)"/><g class="h"><path class="i" d="M139.694,205.682l-14.681,2.038a5.493,5.493,0,0,1-6.188-4.68l-.649-4.676a5.492,5.492,0,0,1,4.68-6.188l14.681-2.038a5.493,5.493,0,0,1,6.188,4.68l.649,4.676A5.492,5.492,0,0,1,139.694,205.682Zm-16.429-10.56a2.515,2.515,0,0,0-2.143,2.833l.649,4.676a2.515,2.515,0,0,0,2.833,2.143l14.68-2.038a2.515,2.515,0,0,0,2.143-2.833l-.649-4.676a2.515,2.515,0,0,0-2.833-2.143Z" transform="translate(-118.123 -190.085)"/></g></g><g transform="translate(0 6.299)"><path class="j" d="M125.261,212.537a4.774,4.774,0,0,0-5.386-4.073l-58.4,8.107a4.774,4.774,0,0,0-4.073,5.386l2.015,14.518,67.861-9.42Z" transform="translate(-57.354 -208.418)"/><path class="k" d="M134.172,220.016a4.775,4.775,0,0,0-5.386-4.073l-54.653,7.586,2.007,14.458,59.383-8.243Z" transform="translate(-68.368 -213.328)"/><path class="l" d="M63.353,272.079l3.323,23.939a4.775,4.775,0,0,0,5.386,4.073l58.4-8.107a4.774,4.774,0,0,0,4.073-5.386l-3.323-23.939Z" transform="translate(-61.292 -244.022)"/><path class="m" d="M80.006,280.775l3.2,23.034,55.516-7.706a4.775,4.775,0,0,0,4.073-5.386l-2.541-18.3Z" transform="translate(-72.223 -250.424)"/></g><g transform="translate(29.328 35.411)"><rect class="n" width="5.242" height="15.117" transform="translate(4.212 0.721) rotate(-7.903)"/><rect class="n" width="5.242" height="15.117" transform="translate(14.973 4.212) rotate(82.097)"/></g><rect class="o" width="68.511" height="0.832" transform="matrix(0.991, -0.137, 0.137, 0.991, 2.061, 34.355)"/><rect class="o" width="6.065" height="9.316" transform="translate(9.203 28.539) rotate(-7.903)"/><rect class="o" width="6.082" height="9.316" transform="translate(54.733 22.219) rotate(-7.903)"/><rect class="g" width="4.695" height="9.316" transform="translate(55.318 21.498) rotate(-7.902)"/><rect class="g" width="4.695" height="9.316" transform="translate(9.772 27.82) rotate(-7.902)"/><rect class="p" width="3.585" height="4.64" transform="translate(10.393 28.393) rotate(-7.903)"/><rect class="p" width="3.585" height="4.64" transform="translate(55.958 22.068) rotate(-7.903)"/></g><g transform="translate(154.555 146.084)"><circle class="c" cx="7.064" cy="7.064" r="7.064" transform="translate(3.296 3.889)"/><circle class="g" cx="7.063" cy="7.063" r="7.063" transform="translate(0 6.739) rotate(-28.492)"/><g transform="translate(5.936 5.91)"><rect class="n" width="2.448" height="7.061" transform="translate(2.099 0.21) rotate(-4.932)"/><rect class="n" width="2.448" height="7.061" transform="translate(7.035 2.099) rotate(85.069)"/></g></g><g transform="translate(109.66 146.543)"><path class="c" d="M243.663,314.272a7.521,7.521,0,0,0-4.76,1.017A7.554,7.554,0,0,0,226.12,319.8c-.651,5.5,1.6,14.677,7.195,15.339a4.893,4.893,0,0,0,3.335-.817A4.9,4.9,0,0,0,239.7,335.9c5.595.662,9.926-7.736,10.577-13.236A7.556,7.556,0,0,0,243.663,314.272Z" transform="translate(-224.439 -304.259)"/><g transform="translate(10.659)"><path class="a" d="M254.522,297.751l-.943-.444c2.719-5.782-.961-9.08-1.119-9.217l.681-.789C253.186,287.339,257.588,291.233,254.522,297.751Z" transform="translate(-252.46 -287.301)"/></g><path class="q" d="M239.088,307.574a7.52,7.52,0,0,0-4.76,1.017,7.554,7.554,0,0,0-12.783,4.516c-.651,5.5,1.6,14.677,7.195,15.339a4.895,4.895,0,0,0,3.335-.817,4.894,4.894,0,0,0,3.052,1.573c5.595.662,9.926-7.736,10.577-13.236A7.556,7.556,0,0,0,239.088,307.574Z" transform="translate(-221.436 -299.862)"/><path class="r" d="M241.449,314.738a36.818,36.818,0,0,0,5.956,7.016,33.5,33.5,0,0,0,4.934,3.668,21.133,21.133,0,0,0,3.814-9.456,7.555,7.555,0,0,0-11.376-7.375,7.556,7.556,0,0,0-7.423-1.843A30.135,30.135,0,0,0,241.449,314.738Z" transform="translate(-231.885 -299.863)"/><g transform="translate(13.46 1.2)"><path class="a" d="M263.5,291.085a4.888,4.888,0,0,0-2.885,3.823l7.575-2.853A4.592,4.592,0,0,0,263.5,291.085Z" transform="translate(-260.612 -290.794)"/><path class="q" d="M265.3,298.29a4.593,4.593,0,0,0,2.885-3.823l-7.576,2.854A4.888,4.888,0,0,0,265.3,298.29Z" transform="translate(-260.611 -293.205)"/></g></g><g transform="translate(56.219 108.368)"><path class="a" d="M80.484,188.957a10.38,10.38,0,0,1-6.208-2.148c.709-.1,2.163-.373,2.6-1a1.858,1.858,0,1,0-3.047-2.126c-.424.607-.21,1.988-.058,2.712a12.3,12.3,0,0,1-2.1-2.425,14.67,14.67,0,0,1-.756-1.272c.572.027,2.346.059,2.944-.552a1.858,1.858,0,0,0-2.656-2.6c-.534.546-.535,2.019-.5,2.736a16.281,16.281,0,0,1-.923-2.3,3.849,3.849,0,0,0,.941-2.229,1.858,1.858,0,0,0-3.667.6c.126.776,1.377,1.678,1.956,2.058a17.367,17.367,0,0,0,1.028,2.446c-.507-.3-2.046-1.132-2.854-.869a1.858,1.858,0,0,0,1.149,3.533c.839-.273,1.619-1.967,1.822-2.438,1.575,2.955,4.652,6.578,10.306,6.746h.013a.435.435,0,0,0,.013-.87Z" transform="translate(-65.898 -176.194)"/><path class="a" d="M76.877,205.709a1.858,1.858,0,1,0,1.149,3.533c.975-.317,1.874-2.563,1.874-2.563S77.853,205.391,76.877,205.709Z" transform="translate(-72.262 -195.535)"/></g><g transform="translate(75.942 184.262)"><path class="a" d="M140.315,397.292a10.382,10.382,0,0,1-4.883,4.395c.256-.668.719-2.074.382-2.761a1.858,1.858,0,0,0-3.335,1.638c.326.665,1.639,1.146,2.345,1.363a12.308,12.308,0,0,1-3.139.667,14.563,14.563,0,0,1-1.478.047c.3-.488,1.186-2.024.94-2.844a1.858,1.858,0,1,0-3.559,1.068c.22.732,1.508,1.444,2.152,1.761a16.273,16.273,0,0,1-2.459-.3c-.328-.7-.885-1.684-1.5-1.9a1.858,1.858,0,1,0-1.25,3.5c.741.265,2.135-.394,2.747-.717a17.328,17.328,0,0,0,2.638.283c-.5.3-1.98,1.244-2.141,2.078a1.858,1.858,0,0,0,3.648.7c.167-.866-.939-2.369-1.253-2.774,3.348.051,8.007-.89,10.889-5.757l.006-.012a.435.435,0,0,0-.755-.432Z" transform="translate(-123.302 -397.078)"/><path class="a" d="M152.12,415.3a1.858,1.858,0,1,0,3.648.7c.194-1.007-1.337-2.88-1.337-2.88S152.314,414.289,152.12,415.3Z" transform="translate(-142.196 -407.608)"/></g><g transform="translate(149.81 174.428)"><path class="a" d="M338.982,371.88a10.383,10.383,0,0,0,6.228,2.092c-.5-.511-1.484-1.617-1.448-2.382a1.858,1.858,0,0,1,3.711.178c-.035.74-1.048,1.7-1.61,2.183a12.308,12.308,0,0,0,3.146-.636,14.663,14.663,0,0,0,1.375-.545c-.47-.328-1.893-1.386-1.993-2.236a1.858,1.858,0,0,1,3.69-.434c.089.759-.809,1.924-1.275,2.471a16.278,16.278,0,0,0,2.135-1.256,3.846,3.846,0,0,1,.617-2.34,1.858,1.858,0,0,1,2.538,2.714c-.574.537-2.116.487-2.806.434a17.342,17.342,0,0,1-2.309,1.308c.582.076,2.312.354,2.791,1.056a1.858,1.858,0,1,1-3.068,2.1c-.5-.728-.08-2.547.047-3.044-3.052,1.377-7.7,2.366-12.28-.955l-.01-.008a.435.435,0,0,1,.521-.7Z" transform="translate(-338.292 -368.458)"/><path class="a" d="M361.565,388.117a1.858,1.858,0,1,1-3.068,2.1c-.579-.847.082-3.174.082-3.174S360.986,387.27,361.565,388.117Z" transform="translate(-351.398 -380.654)"/></g><path class="s" d="M139.622,169.06h23.9a2.216,2.216,0,0,0-.09-.519,1.553,1.553,0,0,0-.082-.328,3.206,3.206,0,0,0-2.1-2.149,11.042,11.042,0,0,0-2.828-.217,1.859,1.859,0,0,1-.9-.169c-.635-.431-1.193-.912-1.8-1.395a4.079,4.079,0,0,0-3.665-.669c-1.285.4-1.745,1.807-2.952,2.214-.94.317-1.81-.17-2.7-.394C143,164.579,141.433,166.593,139.622,169.06Z" transform="translate(-58.073 -59.454)"/><circle class="t" cx="1.92" cy="1.92" r="1.92" transform="translate(69.55 108.974)"/><path class="u" d="M200.977,369.316a1.92,1.92,0,1,1-1.921-1.92A1.921,1.921,0,0,1,200.977,369.316Z" transform="translate(-95.825 -193.333)"/><path class="v" d="M54.993,345.242a1.92,1.92,0,1,1-1.921-1.92A1.921,1.921,0,0,1,54.993,345.242Z" transform="translate(0 -177.53)"/><circle class="v" cx="1.92" cy="1.92" r="1.92" transform="translate(177.991 85.102)"/><path class="j" d="M226.783,160.378a.983.983,0,1,1-.983-.983A.983.983,0,0,1,226.783,160.378Z" transform="translate(-113.996 -56.799)"/><circle class="w" cx="0.983" cy="0.983" r="0.983" transform="translate(170.611 77.252)"/><circle class="q" cx="0.983" cy="0.983" r="0.983" transform="translate(177.064 155.503)"/><path class="n" d="M179.174,377.644a.983.983,0,1,1-.983-.983A.983.983,0,0,1,179.174,377.644Z" transform="translate(-82.744 -199.414)"/><path class="w" d="M87.521,399.107a.983.983,0,1,1-.983-.983A.983.983,0,0,1,87.521,399.107Z" transform="translate(-22.582 -213.503)"/><path class="x" d="M362.1,126.478h23.9a2.217,2.217,0,0,0-.09-.52,1.559,1.559,0,0,0-.082-.328,3.206,3.206,0,0,0-2.1-2.149,11.027,11.027,0,0,0-2.828-.216,1.859,1.859,0,0,1-.9-.17c-.635-.43-1.193-.912-1.8-1.395a4.078,4.078,0,0,0-3.665-.669c-1.285.4-1.745,1.807-2.952,2.214-.94.317-1.81-.17-2.7-.394C365.479,122,363.908,124.011,362.1,126.478Z" transform="translate(-204.107 -31.503)"/><path class="s" d="M52.04,135.9H86.159a3.159,3.159,0,0,0-.128-.741,2.217,2.217,0,0,0-.117-.469,4.576,4.576,0,0,0-3-3.068,15.748,15.748,0,0,0-4.038-.309,2.656,2.656,0,0,1-1.278-.242c-.907-.614-1.7-1.3-2.569-1.991a5.824,5.824,0,0,0-5.233-.955c-1.834.564-2.492,2.58-4.214,3.161-1.342.453-2.584-.243-3.858-.563C56.869,129.5,54.625,132.38,52.04,135.9Z" transform="translate(-0.583 -36.11)"/><path class="t" d="M263.1,144.139a1.92,1.92,0,1,1-1.92-1.92A1.92,1.92,0,0,1,263.1,144.139Z" transform="translate(-136.605 -45.524)"/></g></svg>