<svg xmlns="http://www.w3.org/2000/svg" xmlns:xlink="http://www.w3.org/1999/xlink" width="75" height="75" viewBox="0 0 75 75"><defs><style>.a{fill:none;}.b{fill:url(#a);}</style><linearGradient id="a" x1="0.5" x2="24.813" y2="17.123" gradientUnits="objectBoundingBox"><stop offset="0" stop-color="#ff85e1"/><stop offset="1" stop-color="#ff16c5"/></linearGradient></defs><g transform="translate(-341.7 -800.5)"><rect class="a" width="75" height="75" transform="translate(341.7 800.5)"/><g transform="translate(350 812.907)"><path class="b" d="M125.281,1.141A1.141,1.141,0,1,1,124.141,0,1.141,1.141,0,0,1,125.281,1.141Zm0,0" transform="translate(-108.97 -0.001)"/><path class="b" d="M43.23,0C36.751,0,32,4.342,29.2,10.1c-1.338-2.767-4-6.946-8.544-8.959a1.141,1.141,0,0,0-.925,2.085c6.007,2.664,8.352,10.145,8.375,10.219a1.14,1.14,0,0,0,1.09.809h0a1.141,1.141,0,0,0,1.091-.808C31.644,8.992,36.042,2.281,43.23,2.281c7.227,0,12.889,6.089,12.889,13.861,0,3.826-1.428,7.309-4.618,11.233H42.388L38.854,14.525a1.141,1.141,0,0,0-2.182-.058L30.911,31.752l-2.34-7.019a1.141,1.141,0,0,0-1.082-.78H21.467l-3.162-9.486a1.141,1.141,0,0,0-2.182.058L12.59,27.375H6.9c-3.19-3.924-4.618-7.407-4.618-11.233,0-5.88,3.246-10.976,8.269-12.984A1.141,1.141,0,1,0,9.7,1.039,16.029,16.029,0,0,0,0,16.142,18.708,18.708,0,0,0,4.024,27.375H1.141a1.141,1.141,0,1,0,0,2.281H5.833C10.9,35.549,18.97,41.612,28.449,49.905a1.141,1.141,0,0,0,1.5,0c9.467-8.283,17.552-14.36,22.616-20.249h4.693a1.141,1.141,0,0,0,0-2.281H54.376A18.709,18.709,0,0,0,58.4,16.142C58.4,7.4,51.992,0,43.23,0ZM29.2,47.533C20.895,40.31,13.747,34.806,8.9,29.656h4.556a1.14,1.14,0,0,0,1.1-.838l2.769-10.069,2.235,6.705a1.141,1.141,0,0,0,1.082.78h6.022l3.162,9.486a1.14,1.14,0,0,0,2.164,0L37.65,18.749l2.769,10.069a1.14,1.14,0,0,0,1.1.837H49.5c-4.842,5.148-12,10.665-20.3,17.878Zm0,0" transform="translate(0 0)"/></g></g></svg>