<svg xmlns="http://www.w3.org/2000/svg" width="150" height="100" viewBox="0 0 150 100"><defs><style>.a{fill:none;}.b,.c{fill:#333;}.b{font-size:11px;font-family:SegoeUI, Segoe UI;}</style></defs><g transform="translate(-741.356 -2498.997)"><rect class="a" width="150" height="100" transform="translate(741.356 2498.997)"/><g transform="translate(773.676 2572.106)"><text class="b" transform="translate(0 11)"><tspan x="0" y="0">Hunger Terminal</tspan></text></g><g transform="translate(774.122 2511.887)"><path class="c" d="M549.391,38.368c-.4-.26-.82-.463-1.244-.695.087-.106.154-.193.222-.28a11.361,11.361,0,0,0,2.46-5.865c0-.907,0-1.814.01-2.72a15.428,15.428,0,0,0-.328-1.746,12.98,12.98,0,0,0-5.556-7.254,13.755,13.755,0,0,0-9.154-2.441,7.216,7.216,0,0,0-3.666,1.457,8.356,8.356,0,0,0-2.576,3.28,8.729,8.729,0,0,0-3.424-1.08h-2.5a9.747,9.747,0,0,0-7.167,4.1,7.359,7.359,0,0,0-1.283,5.9,6.222,6.222,0,0,0,5.894,4.939c.289.029.473.048.482.424a10.145,10.145,0,0,1-2.248,6.8,5.7,5.7,0,0,1-3.338,2.132c-.26.058-.521.145-.781.212.029.077.029.106.039.106a.725.725,0,0,0,.125.058,4.657,4.657,0,0,0,3.965-.781,8.7,8.7,0,0,0,3.415-5.769,31.126,31.126,0,0,0,.251-3.106c1-.26,2.055-.531,3.116-.8-.01-.048-.019-.087-.029-.135a.478.478,0,0,0-.125-.029c-.1.01-.193.019-.289.039a9.6,9.6,0,0,1-4.9-.232c-2.788-.878-4.283-3.048-3.868-5.8a8.315,8.315,0,0,1,11.991-6.126c.241.116.27.251.2.492-.106.4-.174.81-.251,1.215a8.093,8.093,0,0,0-.058,2.971c.077-.608.154-1.206.232-1.814a20.832,20.832,0,0,1,1.013-2.788,7.261,7.261,0,0,1,6.309-4.177,12.092,12.092,0,0,1,8.325,2.711c3.6,2.807,5.209,6.473,4.322,11.016a11.152,11.152,0,0,1-5.556,7.833c-.328.193-.685.338-1.1.531.3-.048.54-.077.762-.125a8.813,8.813,0,0,0,4.2-2.238c.106-.1.338-.2.434-.154,1.9.984,3.289,2.846,2.431,5.325a7.191,7.191,0,0,1-6.6,4.5c-3.212.087-7.013-2.441-6.868-5.855a6.749,6.749,0,0,0-.183,1.582,1.155,1.155,0,0,1-.309.859,10.048,10.048,0,0,0-2.19,4.6,6.852,6.852,0,0,0,.222,3.589,13.264,13.264,0,0,1,2.836-6.849,6.932,6.932,0,0,0,2.17,2.421,8.255,8.255,0,0,0,12.184-3.772A5.009,5.009,0,0,0,549.391,38.368Z" transform="translate(-466.957 -17.3)"/><path class="c" d="M482.272,464.157a1.464,1.464,0,0,0,1.707.029c.656-.424,1.312-.839,1.833-1.167.685.617,1.37,1.206,2.016,1.823a1.626,1.626,0,0,0,1.852.357,7.387,7.387,0,0,0,3.7-3.4c.222-.347.222-.347-.077-.1-.106.087-.212.174-.318.27a3.751,3.751,0,0,1-2.3.974,3.539,3.539,0,0,1-2.556-1.225c-.627-.646-1.2-1.331-1.8-2.026-.068.048-.125.1-.193.145-1.023.637-2,1.341-3.068,1.881a2.062,2.062,0,0,1-2.7-.463c-.039-.048-.627-1.013-.772-1.042C480.4,462.69,481.163,463.472,482.272,464.157Z" transform="translate(-434.951 -417.024)"/><path class="c" d="M519.407,406.2a2.526,2.526,0,0,0,.608-1.785,4.628,4.628,0,0,0-.164-.695c-.27-.7-.839-.791-1.331-.222a2.542,2.542,0,0,0-.328,2.5A.7.7,0,0,0,519.407,406.2Z" transform="translate(-469.645 -365.908)"/><path class="c" d="M571.082,413.559c.4-.289.627-.232.83.2.106.222.183.463.27.695a1.926,1.926,0,0,0,.125-1.7.622.622,0,0,0-.859-.386,1.774,1.774,0,0,0-.926,1.65C570.715,413.858,570.889,413.694,571.082,413.559Z" transform="translate(-517.095 -374.21)"/><path class="c" d="M99.434,240.5m0,0-.174.318-.01.029c-.106.183-.212.357-.318.54-.068.106-.145.212-.212.318a26.389,26.389,0,0,1-7.775,8.161c-5.7,3.926-12.145,5.691-18.946,6.367-1.389.135-2.788.193-4.177.289H63.394c-1.524-.1-3.048-.174-4.572-.28a59.012,59.012,0,0,1-9.087-1.351.962.962,0,0,1-.54-.4c-.887-1.447-1.756-2.913-2.633-4.37-.627-1.051-1.264-2.093-1.9-3.154a.172.172,0,0,1,.058-.232c1.534-.936,3.048-1.833,4.534-2.759a.551.551,0,0,1,.685.01q5.8,3.357,11.6,6.7a4.276,4.276,0,0,1,.839.656,12.752,12.752,0,1,0,17.113-18.859,12.014,12.014,0,0,0-5.981-2.672,10.413,10.413,0,0,0-4.052-.01,11.494,11.494,0,0,0-5.383,2.18c-.859.637-1.63,1.389-2.45,2.122a.169.169,0,0,1-.241-.019,21.4,21.4,0,0,0-8.007-6.405,26.2,26.2,0,0,0-9.888-2.305.169.169,0,0,1-.106-.289,2.107,2.107,0,0,0,.338-3.039,2.263,2.263,0,0,0-3.125-.27,2.069,2.069,0,0,0-.762,1.881,2.091,2.091,0,0,0,.859,1.428.165.165,0,0,1-.106.289,26.611,26.611,0,0,0-12.058,3.251,23.681,23.681,0,0,0-8.267,7.563.166.166,0,0,0,.26.2l.01-.01a28.592,28.592,0,0,1,14.75-8.5c1.833-.415,3.733-.531,5.6-.791l1.765-.029c.887.087,1.785.125,2.672.241A26.984,26.984,0,0,1,60.857,234.8a.16.16,0,0,1,.029.193c-.656,1.408-1.283,2.759-1.91,4.119a.26.26,0,0,1-.068.077,1.153,1.153,0,0,1-.5.068c-.859.01-1.707.029-2.566.039H29.622l-6.724-.029c-.367,0-.723.01-1.09.029h0c-.482.019-.955.048-1.437.068l-1.215.058c-.125.01-.26.01-.386.019a4.337,4.337,0,0,0-1.929.405.164.164,0,0,0-.01.289,1.954,1.954,0,0,0,.666.26,36.15,36.15,0,0,0,4.312.473h0c.974.087,2.807.145,5.142.193.116.01.232.01.347.019h.4c.839.01,1.746.029,2.682.039l3.695.058c.7.01,1.4.01,2.1.019a.165.165,0,0,1,.154.106,8.946,8.946,0,0,0,.608,1.428A6.136,6.136,0,0,0,39.876,245a7.669,7.669,0,0,0,3.752.6,1.941,1.941,0,0,0-.289.222c-.154.125-.289.222-.434.328a.164.164,0,0,0-.039.222c.531.868,1.042,1.7,1.543,2.537l3.347,5.5-.6-.164c-.781-.222-1.563-.434-2.325-.695-4.428-1.543-8.537-3.6-11.692-7.216a.173.173,0,0,0-.068-.048c-.048-.019-.087-.029-.135-.048.029.048.058.087.087.135.415.646.781,1.331,1.254,1.939a23.046,23.046,0,0,0,8.923,6.782A45.954,45.954,0,0,0,58.7,258.855a71.468,71.468,0,0,0,13.476-.077,45.056,45.056,0,0,0,12.415-2.923,27.183,27.183,0,0,0,12.521-9.647,21.138,21.138,0,0,0,2.942-5.971l.116-.434s.116-.907.087-.868m-58.275-14.9a1.287,1.287,0,0,1-1.457-1.138c.01-.627.646-1.1,1.457-1.08a1.291,1.291,0,0,1,1.4,1.1A1.326,1.326,0,0,1,41.979,224.031Zm27.348,7.013c5.576-1.167,10.274,3.7,10.621,7.852a7.209,7.209,0,0,1-.994,4.293c-.106.183-.212.357-.318.54-.01.01,0,.029.019.154l.936-.453c.723-.376,1.447-.752,2.18-1.129a2.8,2.8,0,0,1,.5-.174c.569-.154.695-.058.695.521a11.488,11.488,0,0,1-7.978,10.688,13.387,13.387,0,0,1-3.106.646,10.689,10.689,0,0,1-4.727-.916,11.212,11.212,0,0,1-7.148-9.608A11.57,11.57,0,0,1,69.327,231.044ZM50.651,241.2c.019-.01.048-.01.068-.019a.607.607,0,0,0-.068.019c1.061-.01,2.122-.01,3.183-.019,1.457-.029,2.913-.048,4.36-.077h0c.183.01.367.01.55.019a13.335,13.335,0,0,0,.4,4.582c.26.859.588,1.688.907,2.566q-5.035-2.72-10.09-5.45C50.188,242.263,50.42,241.733,50.651,241.2Zm-7.611,3.444a6.333,6.333,0,0,1-4.1-1.543,2.982,2.982,0,0,1-1.08-1.92c3.839.01,7.775,0,11.122-.01a2.749,2.749,0,0,1-.9,1.765,6.008,6.008,0,0,1-3.3,1.621A8.991,8.991,0,0,1,43.04,244.646Z" transform="translate(-16.748 -201.603)"/></g></g></svg>