<svg xmlns="http://www.w3.org/2000/svg" width="71.358" height="47.572" viewBox="0 0 71.358 47.572"><defs><style>.a{fill:none;}.b,.c{fill:#333;}.b{font-size:5px;font-family:SegoeUI, Segoe UI;}</style></defs><rect class="a" width="71.358" height="47.572" transform="translate(0)"/><g transform="translate(15.375 6.132)"><g transform="translate(0 28.172)"><text class="b" transform="translate(0 5)"><tspan x="0" y="0">Hunger Terminal</tspan></text></g><g transform="translate(0.212)"><path class="c" d="M531.372,27.322c-.188-.124-.39-.22-.592-.33.041-.05.073-.092.105-.133a5.405,5.405,0,0,0,1.17-2.79c0-.431,0-.863,0-1.294a7.341,7.341,0,0,0-.156-.831,6.175,6.175,0,0,0-2.643-3.451,6.544,6.544,0,0,0-4.355-1.161,3.433,3.433,0,0,0-1.744.693,3.975,3.975,0,0,0-1.225,1.56,4.153,4.153,0,0,0-1.629-.514H519.12a4.637,4.637,0,0,0-3.41,1.95,3.5,3.5,0,0,0-.61,2.808,2.96,2.96,0,0,0,2.8,2.35c.138.014.225.023.229.2a4.825,4.825,0,0,1-1.069,3.235,2.711,2.711,0,0,1-1.588,1.014c-.124.028-.248.069-.372.1.014.037.014.05.018.05a.347.347,0,0,0,.06.028,2.216,2.216,0,0,0,1.886-.372,4.141,4.141,0,0,0,1.625-2.744,14.8,14.8,0,0,0,.119-1.478c.477-.124.977-.252,1.482-.381,0-.023-.009-.041-.014-.064a.228.228,0,0,0-.06-.014c-.046,0-.092.009-.138.018a4.567,4.567,0,0,1-2.331-.11,2.41,2.41,0,0,1-1.84-2.758,3.956,3.956,0,0,1,5.7-2.914c.115.055.128.119.1.234-.05.188-.083.385-.119.578a3.85,3.85,0,0,0-.027,1.413c.037-.289.073-.574.11-.863a9.916,9.916,0,0,1,.482-1.326,3.454,3.454,0,0,1,3-1.987,5.752,5.752,0,0,1,3.96,1.29,5.046,5.046,0,0,1,2.056,5.241,5.306,5.306,0,0,1-2.643,3.726c-.156.092-.326.161-.523.252.142-.023.257-.037.363-.06a4.192,4.192,0,0,0,2-1.065c.051-.046.161-.1.207-.073a2.014,2.014,0,0,1,1.156,2.533,3.421,3.421,0,0,1-3.139,2.138c-1.528.041-3.336-1.161-3.267-2.786a3.21,3.21,0,0,0-.087.753.549.549,0,0,1-.147.408,4.78,4.78,0,0,0-1.042,2.189,3.259,3.259,0,0,0,.106,1.707,6.31,6.31,0,0,1,1.349-3.258,3.3,3.3,0,0,0,1.032,1.152,3.927,3.927,0,0,0,5.8-1.794A2.383,2.383,0,0,0,531.372,27.322Z" transform="translate(-492.157 -17.3)"/><path class="c" d="M480.871,461.82a.7.7,0,0,0,.812.014c.312-.2.624-.4.872-.555.326.294.652.574.959.867a.773.773,0,0,0,.881.17,3.514,3.514,0,0,0,1.762-1.615c.106-.165.106-.165-.037-.046-.05.041-.1.083-.151.129a1.784,1.784,0,0,1-1.092.464,1.684,1.684,0,0,1-1.216-.583c-.3-.307-.569-.633-.858-.964-.032.023-.06.046-.092.069-.486.3-.95.638-1.459.895a.981.981,0,0,1-1.285-.22c-.018-.023-.3-.482-.367-.5A2.854,2.854,0,0,0,480.871,461.82Z" transform="translate(-458.36 -439.398)"/><path class="c" d="M518.669,404.59a1.2,1.2,0,0,0,.289-.849,2.186,2.186,0,0,0-.078-.33c-.128-.335-.4-.376-.633-.106a1.209,1.209,0,0,0-.156,1.189A.331.331,0,0,0,518.669,404.59Z" transform="translate(-494.996 -385.422)"/><path class="c" d="M570.784,412.907c.188-.138.3-.11.395.1.05.106.087.22.128.33a.916.916,0,0,0,.06-.808.3.3,0,0,0-.408-.184.844.844,0,0,0-.441.785C570.61,413.049,570.692,412.971,570.784,412.907Z" transform="translate(-545.101 -394.188)"/><path class="c" d="M56.084,230.422m0,0-.083.151,0,.014c-.05.087-.1.17-.151.257-.032.05-.069.1-.1.151a12.554,12.554,0,0,1-3.7,3.882,18.764,18.764,0,0,1-9.013,3.029c-.661.064-1.326.092-1.987.138H38.939c-.725-.046-1.45-.083-2.175-.133a28.075,28.075,0,0,1-4.323-.642.458.458,0,0,1-.257-.188c-.422-.688-.835-1.386-1.253-2.079-.3-.5-.6-1-.9-1.5a.082.082,0,0,1,.028-.11c.73-.445,1.45-.872,2.157-1.312a.262.262,0,0,1,.326,0q2.76,1.6,5.521,3.189a2.034,2.034,0,0,1,.4.312,6.066,6.066,0,1,0,8.141-8.972,5.716,5.716,0,0,0-2.845-1.271,4.954,4.954,0,0,0-1.927,0,5.468,5.468,0,0,0-2.561,1.037c-.408.3-.776.661-1.166,1.01a.081.081,0,0,1-.115-.009,10.181,10.181,0,0,0-3.809-3.047,12.464,12.464,0,0,0-4.7-1.1.08.08,0,0,1-.05-.138,1,1,0,0,0,.161-1.446,1.077,1.077,0,0,0-1.487-.128.984.984,0,0,0-.363.895,1,1,0,0,0,.408.679.078.078,0,0,1-.05.138,12.659,12.659,0,0,0-5.736,1.546,11.266,11.266,0,0,0-3.933,3.6.079.079,0,0,0,.124.1l0,0a13.6,13.6,0,0,1,7.017-4.043c.872-.2,1.776-.252,2.666-.376l.84-.014c.422.041.849.06,1.271.115a12.837,12.837,0,0,1,7.388,3.561.076.076,0,0,1,.014.092c-.312.67-.61,1.312-.909,1.96a.124.124,0,0,1-.032.037.548.548,0,0,1-.239.032c-.408,0-.812.014-1.221.018H22.873l-3.2-.014c-.174,0-.344,0-.519.014h0c-.229.009-.454.023-.684.032l-.578.028c-.06,0-.124,0-.184.009a2.063,2.063,0,0,0-.918.193.078.078,0,0,0,0,.138.93.93,0,0,0,.317.124,17.2,17.2,0,0,0,2.051.225h0c.463.041,1.335.069,2.446.092.055,0,.11,0,.165.009h.188c.4,0,.831.014,1.276.018l1.758.028c.335,0,.665,0,1,.009a.079.079,0,0,1,.073.05,4.255,4.255,0,0,0,.289.679,2.919,2.919,0,0,0,1.4,1.083,3.649,3.649,0,0,0,1.785.285.923.923,0,0,0-.138.106c-.073.06-.138.106-.207.156a.078.078,0,0,0-.018.106c.252.413.5.808.734,1.207L31.5,237.04l-.285-.078c-.372-.106-.743-.207-1.106-.33a12.516,12.516,0,0,1-5.562-3.433.082.082,0,0,0-.032-.023l-.064-.023c.014.023.028.041.041.064.2.307.372.633.6.922a10.963,10.963,0,0,0,4.245,3.226,21.861,21.861,0,0,0,7.37,1.79,34,34,0,0,0,6.411-.037,21.434,21.434,0,0,0,5.906-1.39,12.931,12.931,0,0,0,5.957-4.589,10.056,10.056,0,0,0,1.4-2.841l.055-.206s.055-.431.041-.413m-27.722-7.09a.612.612,0,0,1-.693-.542c0-.3.307-.523.693-.514a.614.614,0,0,1,.665.523A.631.631,0,0,1,28.751,222.589Zm13.01,3.336a4.4,4.4,0,0,1,5.053,3.735,3.43,3.43,0,0,1-.473,2.042c-.05.087-.1.17-.151.257,0,0,0,.014.009.073l.445-.216c.344-.179.688-.358,1.037-.537a1.331,1.331,0,0,1,.239-.083c.271-.073.33-.028.33.248a5.465,5.465,0,0,1-3.8,5.085,6.368,6.368,0,0,1-1.478.307,5.085,5.085,0,0,1-2.249-.436,5.334,5.334,0,0,1-3.4-4.571A5.5,5.5,0,0,1,41.761,225.925Zm-8.884,4.832c.009,0,.023,0,.032-.009a.292.292,0,0,0-.032.009c.5,0,1.01,0,1.514-.009.693-.014,1.386-.023,2.074-.037h0c.087,0,.174,0,.262.009a6.344,6.344,0,0,0,.188,2.18c.124.408.28.8.431,1.221q-2.4-1.294-4.8-2.593C32.656,231.262,32.767,231.01,32.877,230.757ZM29.256,232.4a3.013,3.013,0,0,1-1.95-.734,1.419,1.419,0,0,1-.514-.913c1.826,0,3.7,0,5.291,0a1.308,1.308,0,0,1-.427.84,2.858,2.858,0,0,1-1.569.771A4.278,4.278,0,0,1,29.256,232.4Z" transform="translate(-16.748 -211.919)"/></g></g></svg>