<svg xmlns="http://www.w3.org/2000/svg" width="131.368" height="115.276" viewBox="0 0 131.368 115.276"><defs><style>.a{fill:#606060;opacity:0.12;mix-blend-mode:multiply;isolation:isolate;}.b{fill:#dec2a7;}.c{fill:#eacdb0;}.d{fill:#a1bdcc;}.e{fill:#8c9498;}.f{fill:#3a3029;}.g{fill:#fff;}.h{fill:#8aad9f;}.i{fill:#514943;}.j{fill:#cab5a1;}.k{fill:#9e6652;}.l{fill:#066598;}.m{fill:#4498c5;}.n{opacity:0.06;}.o{opacity:0.34;}.p{fill:#59595b;}.q{opacity:0.26;}.r{fill:none;}.s{fill:#6596c1;}.t{fill:#5a8fb7;}.u{fill:#c2969c;}.v{fill:#754c3d;}.w{fill:#bcac98;}.x{fill:#d3c2a4;}.y{fill:#37454d;}.z{fill:#4f3c22;}.aa{fill:#dacaaf;}.ab{fill:#f2d263;}.ac{fill:#aeccdc;}.ad{fill:#b26650;}.ae{fill:#2e4661;}</style></defs><g transform="translate(-158.945 -43.544)"><g transform="translate(158.945 136.755)"><path class="a" d="M284.171,880.8h-106.8c-3.378,0-6.142,1.675-6.142,3.721h0c0,1.417,1.326,2.656,3.262,3.284h-9.4c-3.378,0-6.142,1.675-6.142,3.721h0c0,2.047,2.764,3.721,6.142,3.721h3.277a3.046,3.046,0,0,0-1.471,2.408v1.489c0,2.047,2.764,3.721,6.142,3.721h105.21c3.378,0,6.142-1.675,6.142-3.721v-1.489c0-2.047-2.764-3.721-6.142-3.721l-7.154.083a3.4,3.4,0,0,0,2.023-.784,2.928,2.928,0,0,0,.578-3.472,2.535,2.535,0,0,0-2.168-1.568l12.645.05c3.378,0,6.142-1.675,6.142-3.721h0C290.313,882.472,287.549,880.8,284.171,880.8Z" transform="translate(-158.945 -880.797)"/></g><g transform="translate(179.249 43.544)"><g transform="translate(0 0)"><g transform="translate(71.704 67.514)"><path class="b" d="M986.817,649.976l1.479,1.359-.348,1.623-1.97-.348-.582-1.464Z" transform="translate(-985.397 -649.976)"/></g><g transform="translate(44.017 45.69)"><path class="c" d="M738.55,454.067l.232,1.739-.737,1.133-1.2-.176-.155-2,1.623-.811Z" transform="translate(-736.695 -453.952)"/></g><g transform="translate(33.688 46.154)"><path class="d" d="M643.917,458.116,651.7,467.5l1.623-7.3,3.014.58-1.739,11.012-2.923,2.031-7.741-5.16Z" transform="translate(-643.917 -458.116)"/></g><g transform="translate(20.989 32.345)"><g transform="translate(1.064 33.84)"><g transform="translate(7.497)"><path class="e" d="M617.3,639.465l.4,17.226-2.983,22.252-2.5.03-1.82-20.478-3.659-20.456Z" transform="translate(-606.743 -638.039)"/><g transform="translate(5.49 40.604)"><path class="f" d="M656.055,1002.792l.016,1.35,2.716,1.318,1.334-1.366-1.366-1.334Z" transform="translate(-656.055 -1002.76)"/></g></g><g transform="translate(2.131 41.286)"><path class="f" d="M560.9,1008.889l2.147,1.825-.537,1.073-3.971-.859v-2.039Z" transform="translate(-558.542 -1008.889)"/></g><g transform="translate(0 5.893)"><path class="e" d="M548.8,693.28l-1.784,16.7-2.354,16.643-3.358-.16.122-17.265-2.021-16.013,4.747-2.211Z" transform="translate(-539.405 -690.971)"/></g></g><g transform="translate(0 11.33)"><path class="d" d="M533.465,437.067l6.522-1.224s4.439,2.856,7.8,11.5c3.427,8.8,2.943,22.279,2.943,22.279s-17.947.287-20.886.356l1.711-18.644Z" transform="translate(-529.849 -435.843)"/></g><g transform="translate(1.01)"><g transform="translate(3.109 4.369)"><path class="c" d="M570.78,381.582l-2.333-.083a11.648,11.648,0,0,1,.008-1.86c-.658-.186-1.424-.478-1.579-1.145a1.932,1.932,0,0,1,0-.643l.288-2.657a2.351,2.351,0,0,1,.218-.892,1.976,1.976,0,0,1,1.335-.835,4.81,4.81,0,0,1,3.947.7,2.108,2.108,0,0,1,.711.824,2.856,2.856,0,0,1,.01,1.671l-.3,1.538c-.116.59-.294,1.263-.839,1.516-.29.134-.642.123-.9.311C570.886,380.361,570.995,381.062,570.78,381.582Z" transform="translate(-566.848 -373.323)"/></g><path class="f" d="M552.974,337.48a7.475,7.475,0,0,0-.3-1.745c-.265-.929-1.4-1.283-2.367-1.29-2.085-.016-4.147-.833-6.13.019-1.133.487-2.684.683-3.7,1.333a3.1,3.1,0,0,0-.995,1.113,4.675,4.675,0,0,0,.3,4.934,6.675,6.675,0,0,0,.784.869,5.009,5.009,0,0,0,2.052,1.422c-.025-.674-.772-2.758-.29-3.343.765-.927,2.639-.739,3.671-.588,1.125.165,2.164.888,3.275.987a4.158,4.158,0,0,0,2.433-.834A3.155,3.155,0,0,0,552.974,337.48Z" transform="translate(-538.923 -334.077)"/></g><g transform="translate(5.233 12.559)"><path class="g" d="M579.956,446.887l6.363,14.526,2.463,18.032-9.113.191s1.047-13.358.671-15.1-1.123-5.366-1.933-9.44c-.186-.938-1.547-8.132-1.557-8.089Z" transform="translate(-576.85 -446.887)"/></g></g><g transform="translate(46.438 33.39)"><g transform="translate(3.13 13.037)"><path class="h" d="M795.095,460.834l-1.022-.264-1.953,1.118-5.564,13.446,1.739,2.086,4.752-6.143Z" transform="translate(-786.556 -460.57)"/></g><g transform="translate(12.219 40.358)"><g transform="translate(5.025 31.967)"><path class="i" d="M916.3,994.184l.108,1.069-1.939,1.333-1.132-.937.915-1.2,1.939-1.333Z" transform="translate(-913.335 -993.115)"/></g><path class="j" d="M876.141,706.331l.328,3.246-2.907,11.153,2.7,17.922-1.987.686-5.24-17.5-.832-5.09.03-10.776Z" transform="translate(-868.203 -705.975)"/></g><g transform="translate(4.873 41.602)"><path class="j" d="M802.218,719.881l4.18,30.031h1.9l.342-19.25,3.458-13.511Z" transform="translate(-802.218 -717.151)"/><g transform="translate(2.987 32.524)"><path class="i" d="M832.132,1009.292v1.079l-2.055,1.079-1.027-1.079,1.027-1.079Z" transform="translate(-829.05 -1009.292)"/></g></g><g transform="translate(0 12.323)"><path class="h" d="M779.038,473.336c-1.081-6.267-2.754-12.351-3.36-18.734-1.6,0-3.806-.742-5.471-.3h0s-.028.006-.08.024a2.656,2.656,0,0,0-1.531,1.116l-.013.021a10.753,10.753,0,0,0-1.909,3.2c-1.623,3.941-8.114,27.123-8.23,33.151l.06.014a30.257,30.257,0,0,0,4.408.98h0a85.2,85.2,0,0,0,13.75.615c.545-.009,6.327.179,6.246-.194Q780.76,483.324,779.038,473.336Z" transform="translate(-758.445 -454.161)"/></g><g transform="translate(15.822 13.053)"><path class="h" d="M901.722,460.719l1.642,1.011,3.98,10.87,4.4,8.925-1.971,1.623-5.8-8.114-3.419-10.954Z" transform="translate(-900.563 -460.719)"/></g><g transform="translate(8.203 2.795)"><path class="k" d="M832.937,368.613s-1.231,1.007-.652,4.716a22.864,22.864,0,0,1,.232,6.143,2.643,2.643,0,0,0,2.2,0c.927-.579,1.275-.7.927-2.2s-1.043-8.693-1.043-8.693Z" transform="translate(-832.13 -368.577)"/></g><g transform="translate(8.345 1.878)"><path class="k" d="M837.123,362.543a3.754,3.754,0,0,0-2.671,3.145,3.308,3.308,0,0,1,.726-5.351,3.825,3.825,0,0,1,1.84,2.231Z" transform="translate(-833.403 -360.337)"/></g><g transform="translate(9.01 3.325)"><path class="c" d="M839.569,375.982c.727-3.847,5.526-3.182,6.9-.067.783,1.772.6,5.234-1.6,5.814-.034.341-.078.979-.338,1.207-.281.247-1.168.012-1.516-.069a.535.535,0,0,1-.267-.12,1,1,0,0,1-.1-.583,3.194,3.194,0,0,1-.782-.155,3.722,3.722,0,0,1-2.259-2.53A7.47,7.47,0,0,1,839.569,375.982Z" transform="translate(-839.378 -373.333)"/></g><g transform="translate(10.182)"><path class="k" d="M849.935,345.336s-.464,2.086,2.2,2.666,4.4,2.666,3.937,4.868-2.431,3.825-1.387,4.4,4.868,0,4.868,0,2.318-7.766-.811-11.128S851.094,342.671,849.935,345.336Z" transform="translate(-849.904 -343.469)"/></g></g><g transform="translate(31.18 49.015)"><path class="l" d="M650.486,486.744c-9.152,1.991-13.8-2.257-14.43-2.884,0,0-.013-.063-.037-.038-.024-.025-.037.038-.037.038-.626.628-5.268,4.886-14.424,2.914,0,0-1.388,16.471,3.955,23.184,5.707,7.17,10.519,9.335,10.543,9.316.024.019,4.874-2.115,10.524-9.338C651.865,503.178,650.486,486.744,650.486,486.744Z" transform="translate(-621.394 -483.816)"/><g transform="translate(1.355 2.017)"><path class="m" d="M659.965,504.538c-8.305,1.773-12.526-2.009-13.095-2.568,0,0-.012-.056-.034-.034-.022-.022-.034.034-.034.034-.568.559-4.781,4.35-13.089,2.595,0,0-1.26,14.663,3.588,20.64,5.178,6.383,9.541,8.7,9.563,8.686.022.017,4.427-2.275,9.554-8.706C661.217,519.169,659.965,504.538,659.965,504.538Z" transform="translate(-633.567 -501.932)"/></g><g class="n" transform="translate(1.378 1.255)"><path d="M646.982,497.337s.012-.058.035-.035c.023-.023.035.035.035.035.584.573,4.846,4.392,13.213,2.79-.042-1.494-.122-2.43-.122-2.43-8.305,1.773-12.526-2.009-13.095-2.568,0,0-.012-.056-.034-.034-.022-.022-.034.034-.034.034-.568.56-4.781,4.35-13.089,2.595,0,0-.08.935-.122,2.429C642.142,501.741,646.4,497.912,646.982,497.337Z" transform="translate(-633.769 -495.091)"/></g><g class="o" transform="translate(4.004 6.543)"><path class="g" d="M678.648,544.746c-6.275,1.365-10.211-1.7-10.641-2.127,0,0-.009-.043-.026-.026-.017-.017-.025.026-.025.026-.429.431-4.319,3.493-10.6,2.141,0,0-.245,11.149,3.419,15.752,3.912,4.916,7.212,6.4,7.228,6.387.017.013,3.341-1.45,7.215-6.4C678.847,555.864,678.648,544.746,678.648,544.746Z" transform="translate(-657.356 -542.589)"/></g></g><g transform="translate(21.018)"><g transform="translate(18.13)"><path class="p" d="M701.434,45.857V44.722l-.523-1.07a.361.361,0,0,0-.524.011l-.438,1.059v1.136c-.412,0-1.084.323-1.084.722a.735.735,0,0,0,.747.722h.337V85.795c0,2.172-1.148,3.978-2.8,3.94-1.278-.03-2.393-1.117-2.58-2.89a.783.783,0,0,0-.786-.695h-.029a.771.771,0,0,0-.784.852c.326,2.522,2.328,4.327,4.228,4.327a3.777,3.777,0,0,0,3.412-1.929,9.439,9.439,0,0,0,.822-4.909V47.3h.231a.735.735,0,0,0,.747-.722C702.412,46.181,701.846,45.857,701.434,45.857Z" transform="translate(-692.966 -43.544)"/><g class="q" transform="translate(6.967 19.756)"><path d="M757.048,225.135l-1.5-1.56V221h1.5Z" transform="translate(-755.548 -220.998)"/></g></g><g transform="translate(0 3.709)"><g transform="translate(37.182 23.783)"><path class="r" d="M864.1,290.49l.175.085.252-.085H864.1Z" transform="translate(-864.1 -290.49)"/></g><g transform="translate(0 0.026)"><path class="s" d="M544.939,100.63l.268-1.648A38.727,38.727,0,0,1,551.626,83.1l4.168-6a27.048,27.048,0,0,0-25.68,23.576,26.26,26.26,0,0,1,7.461-1.033A26.867,26.867,0,0,1,544.939,100.63Z" transform="translate(-530.114 -77.097)"/></g><g transform="translate(25.979)"><path class="s" d="M774.113,97.105l.714,3.537h.267a25.844,25.844,0,0,1,8.036-1.214,26.4,26.4,0,0,1,8.07,1.207,27.065,27.065,0,0,0-26.87-23.775c-.29,0-.579.006-.867.015l3.33,4.869A38.175,38.175,0,0,1,774.113,97.105Z" transform="translate(-763.464 -76.859)"/></g><g transform="translate(14.825 0.015)"><path class="t" d="M663.547,98.891l-.268,1.648.072.021a27.7,27.7,0,0,1,10.915-1.966,27.087,27.087,0,0,1,11.371,2.169h.16l-.714-3.537a38.174,38.174,0,0,0-7.319-15.362L674.433,77l-.3.011-4.169,6A38.729,38.729,0,0,0,663.547,98.891Z" transform="translate(-663.279 -76.995)"/></g><g transform="translate(14.816 23.559)"><path class="g" d="M663.205,288.477l-.009.057.081-.036Z" transform="translate(-663.196 -288.477)"/></g></g></g><g transform="translate(42.584 44.879)"><path class="c" d="M724.564,450.025l-.737-1.307.042-2.055.7.232.232,1.043,1.275,1.159-.376,1.189Z" transform="translate(-723.827 -446.663)"/></g><g transform="translate(43.344 44.189)"><path class="c" d="M730.65,442.837l.167-1.346,1.372-1.02.94.728-.219,1.12Z" transform="translate(-730.65 -440.47)"/></g><g transform="translate(15.374 44.879)"><path class="d" d="M488.687,446.663l-2.648,2.158L479.414,460.8l3.477,4.4,2.2-.7,5.216-11.591Z" transform="translate(-479.414 -446.663)"/></g><g transform="translate(23.14 60.875)"><path class="c" d="M551.374,590.343l.811,1.847v6.859l-1.247.1-1.767-5.923Z" transform="translate(-549.172 -590.343)"/></g><g transform="translate(25.342 59.832)"><path class="c" d="M571.62,580.973l1.275,1.159,1.623,6.723-1.043.58-2.666-5.332-1.855-1.507.348-1.623Z" transform="translate(-568.954 -580.973)"/></g><g transform="translate(15.363 49.015)"><path class="u" d="M481.744,484.512a2.473,2.473,0,0,0-1.334,1.107c-.406.812-1.489,4.333-.948,6.77s.812,5.551,6.093,6.634c2.572.271,2.166-1.9,4.062-2.437s3.7-.226,2.8-3.159-2.934-3.2-4.694-6.318S484.025,483,481.744,484.512Z" transform="translate(-479.313 -483.816)"/></g><g transform="translate(10.042 50.052)"><path class="u" d="M438.619,493.127l-3.968,2.362-3.13,1.159.348,1.391,3.246-.232,3.246-1.391Z" transform="translate(-431.521 -493.127)"/></g><g transform="translate(21.053 47.798)"><path class="u" d="M530.431,473.906l3.362.464,2.42-1.486.594.79-2.086,2.318-2.434.7Z" transform="translate(-530.431 -472.884)"/></g><g transform="translate(13.247 40.868)"><g transform="translate(5.186 0.891)"><path class="v" d="M507.433,419.861s2.229.87,2.467,2.853a2.323,2.323,0,0,0,.207-2.614c-.855-1.313-1.341-1.8-2.631-1.207S507.433,419.861,507.433,419.861Z" transform="translate(-506.891 -418.644)"/></g><g transform="translate(2.557 2.108)"><path class="c" d="M488.667,431.35c-.856-2.846-4.426-1.961-5.217.5-.45,1.4-.035,4,1.674,4.261.053.255.137.733.351.884.232.164.883-.084,1.139-.173a.406.406,0,0,0,.192-.112.762.762,0,0,0,.032-.449,2.429,2.429,0,0,0,.578-.179,2.825,2.825,0,0,0,1.5-2.09A5.67,5.67,0,0,0,488.667,431.35Z" transform="translate(-483.282 -429.577)"/></g><path class="v" d="M466.657,413.412c-.781,1.272-2.364,1.681-3.1,2.912a3.028,3.028,0,0,0,.019,2.369,2.688,2.688,0,0,1-2.75-1.083c-1.091-1.512-.1-5.161-.1-5.161a6.137,6.137,0,0,1,4.4-1.809,1.715,1.715,0,0,1,1.885,1.559A2.2,2.2,0,0,1,466.657,413.412Z" transform="translate(-460.31 -410.638)"/></g><g transform="translate(0 96.318)"><g transform="translate(14.102 9.086)"><path class="w" d="M469.149,990.527a1.362,1.362,0,0,0,1.468,1.109c1.336.018,1.88.916.656.9s-2.682.217-3.167-.7S468.788,989.878,469.149,990.527Z" transform="translate(-467.99 -990.326)"/></g><g transform="translate(0.329 4.413)"><path class="x" d="M355.107,948.345s-.477.1-.712.99-5.781-.636-7.692.674-2.159,2.419-2.4,4.421c-.507,4.231,7.074,3.771,9.648,2.8s6.922-1.353,5.76-5.933C359.491,951.186,355.107,948.345,355.107,948.345Z" transform="translate(-344.28 -948.345)"/></g><g transform="translate(11.082 3.918)"><path class="y" d="M445.911,946.928l-.382.3s-1.9.613-4.05-1.818c-.847-1.289-.576-1.506-.576-1.506l.482.107A4.676,4.676,0,0,0,445.911,946.928Z" transform="translate(-440.862 -943.905)"/></g><g transform="translate(14.325)"><path class="z" d="M469.994,909.01a.876.876,0,0,1,.728-.3c.538-.012,1.356.87,1.554.941s.676.189.2.37A3.257,3.257,0,0,1,469.994,909.01Z" transform="translate(-469.994 -908.709)"/></g><g transform="translate(11.327 0.295)"><path class="aa" d="M444.2,912.543a2.648,2.648,0,0,1,4.087-.4c.285.242.509.535.776.793.177.171.4.249.571.435a2.1,2.1,0,0,1,.445,1.815c-.158.58.5,2.282-1.442,2.7s-4.514-.756-5.062-1.764S442.54,914.094,444.2,912.543Z" transform="translate(-443.062 -911.362)"/></g><g transform="translate(10.872 1.425)"><path class="z" d="M440.894,921.7a1.246,1.246,0,0,0-1.059-.111c-.482.239-.865.152-.853.69s-.079,1.883.564,2.3.492-.692.819-1.073S441.245,921.866,440.894,921.7Z" transform="translate(-438.982 -921.507)"/></g><g transform="translate(11.648 9.599)"><path class="x" d="M449.575,994.934s.1,1.558.883,1.68,2.659.927,2.319,1.368-.891-.012-1.447-.02a9,9,0,0,1-3.533-.311,2.278,2.278,0,0,0-1.852.408Z" transform="translate(-445.945 -994.934)"/></g><g transform="translate(0 4.735)"><path class="w" d="M342.573,954.918a1.605,1.605,0,0,1-1.251-1.534,1.936,1.936,0,0,1,1.944-2.147c1.2.022,1.177,1.107.928,1.267s-1.714.336-1.5,1.653C342.861,954.719,342.573,954.918,342.573,954.918Z" transform="translate(-341.321 -951.237)"/></g></g><g transform="translate(16.596 48.82)"><path class="ab" d="M490.908,483.338s.116,1.507.927,1.507a5.807,5.807,0,0,0,2.782-1.043c.348-.464-.309-1.45-.309-1.45l.541-.289s3.825,4.868,1.855,6.143-4.637,2.086-5.448.464a15.329,15.329,0,0,1-.864-4.977Z" transform="translate(-490.391 -482.063)"/></g><g transform="translate(24.879 69.452)"><path class="f" d="M566.18,667.389l1.043.811-.348.464-1.855-.348-.232-.811Z" transform="translate(-564.789 -667.389)"/></g><g transform="translate(29.747 67.25)"><path class="f" d="M608.518,648.418l1.043-.753.927-.058.232.7-1.971.7Z" transform="translate(-608.518 -647.607)"/></g><g transform="translate(15.382 58.478)"><path class="ac" d="M479.488,569.306l3.961-.487,9.406,1.844-.026,2.18-9.824.973-3.045-1Z" transform="translate(-479.488 -568.819)"/></g><g transform="translate(28.725 60.497)"><path class="b" d="M599.36,586.949l1.421.414.725,1.911-.914,1.066-.348-1.507-.906-.1Z" transform="translate(-599.339 -586.949)"/></g><g transform="translate(8.419 53.688)"><path class="c" d="M418.605,525.826l-1.66-.034v.348l1.275.7-.232.232.232.116.644-.32Z" transform="translate(-416.945 -525.791)"/></g><g transform="translate(26.897 47.197)"><path class="c" d="M582.922,468.193l.3-.59.811-.116.348.58-.232.7-.708.073Z" transform="translate(-582.922 -467.487)"/></g><g transform="translate(49.104 51.022)"><path class="c" d="M786.261,503.08l-.718-1.025-1.891-.21-1.05,1.576-.21,1.471,1.576.315,1.646-2.171Z" transform="translate(-782.391 -501.845)"/></g><g transform="translate(74.025 65.699)"><g transform="translate(0 4.449)"><path class="ad" d="M1014.354,678.62l-4.521-.927-2.434-4.057-1.159.927,1.739,5.448,3.825,2.318Z" transform="translate(-1006.24 -673.636)"/></g><g transform="translate(4.173 27.631)"><path class="ae" d="M1043.722,882.679v12.287h1.854l1.159-7.418,1.043-5.68Z" transform="translate(-1043.722 -881.867)"/></g><g transform="translate(8.23 27.167)"><path class="ae" d="M1080.163,877.7l.7,5.332.927,8.577,1.854-.116v-6.607l.927-6.723Z" transform="translate(-1080.163 -877.703)"/></g><g transform="translate(1.446 9.247)"><path class="ad" d="M1025.141,716.746s-1.97-.348-2.782,2.666-3.014,11.823-3.13,16.459,2.9,1.623,6.491,2.2,6.549.637,6.549-1.449S1033.544,716.8,1025.141,716.746Z" transform="translate(-1019.226 -716.734)"/></g><g transform="translate(4.909)"><g transform="translate(0.385 1.815)"><path class="c" d="M1054.727,651.431c1.641-2.894,5.318-1.042,5.57,1.841.143,1.64-.954,4.374-2.885,4.235-.121.265-.331.766-.6.878-.294.121-.943-.311-1.2-.472a.454.454,0,0,1-.182-.17.851.851,0,0,1,.077-.5,2.711,2.711,0,0,1-.587-.339,3.163,3.163,0,0,1-1.122-2.655A6.347,6.347,0,0,1,1054.727,651.431Z" transform="translate(-1053.792 -649.977)"/></g><path class="v" d="M1053.946,636.194s2.626.656,2.626,1.751c0,1.645.109,2.749,0,3.727l1.86-1.1,1.094-3.064s-.219-2.517-1.532-2.954a35.713,35.713,0,0,0-4.049-.875l-2.079.657-1.532-.109.53,4.6S1051.539,635.537,1053.946,636.194Z" transform="translate(-1050.335 -633.677)"/></g><g transform="translate(9.389 9.665)"><path class="ad" d="M1090.574,720.488l3.245,1.159,2.9,7.187,2.318,5.216-1.275.811-3.709-5.216Z" transform="translate(-1090.574 -720.488)"/></g><g transform="translate(16.575 23.226)"><path class="c" d="M1155.126,843.115l.812,1.159.464-.464h1.391L1156.4,842.3Z" transform="translate(-1155.126 -842.303)"/></g><g transform="translate(3.13 40.729)"><path class="e" d="M1035.395,999.518l-1.043,1.043.464.7,2.086-.7v-1.043Z" transform="translate(-1034.352 -999.518)"/></g><g transform="translate(10.162 40.977)"><path class="e" d="M1097.515,1001.831l.386,1.526,1.275.464.7-.348-1.08-1.722Z" transform="translate(-1097.515 -1001.751)"/></g></g><g transform="translate(72.634 69.336)"><path class="c" d="M996.3,667.159l-1.159-.811-1.391.348.232.811,1.293.472Z" transform="translate(-993.746 -666.348)"/></g><g transform="translate(72.136 69.481)"><path class="b" d="M991.048,669.044l.464-.931-.927-.464-1.309.289.266.609Z" transform="translate(-989.275 -667.649)"/></g></g></g></g></svg>