<svg xmlns="http://www.w3.org/2000/svg" xmlns:xlink="http://www.w3.org/1999/xlink" width="75" height="75" viewBox="0 0 75 75"><defs><style>.a{fill:none;}.b{fill:url(#a);}</style><linearGradient id="a" x1="0.5" x2="0.5" y2="1" gradientUnits="objectBoundingBox"><stop offset="0" stop-color="#fc0"/><stop offset="1" stop-color="#ff7a2d"/></linearGradient></defs><g transform="translate(-646.445 -807.047)"><rect class="a" width="75" height="75" transform="translate(646.445 807.047)"/><g transform="translate(10845.9 -7784.498)"><path class="b" d="M247.1,120a1.1,1.1,0,1,0,1.1,1.1A1.1,1.1,0,0,0,247.1,120Z" transform="translate(-10409.052 8494.146)"/><path class="b" d="M.54,26.141A1.1,1.1,0,0,0,1.7,26.107a11.968,11.968,0,0,1,12.473-.1,1.09,1.09,0,0,0,.733.283h.012a1.092,1.092,0,0,0,.63-.183,10.649,10.649,0,0,1,11.4-.3v24.81a5.478,5.478,0,1,0,10.955,0V46.23a1.1,1.1,0,0,0-2.191,0v4.382a3.287,3.287,0,1,1-6.573,0V25.8a10.648,10.648,0,0,1,11.4.3,1.094,1.094,0,0,0,.609.185l.022,0h.011a1.09,1.09,0,0,0,.733-.283,11.969,11.969,0,0,1,12.474.1,1.1,1.1,0,0,0,1.7-1C54.93,11.089,42.459,0,28.045,0S1.161,11.081,0,25.107A1.1,1.1,0,0,0,.54,26.141Zm28.6-2.817v-4.7a1.1,1.1,0,1,0-2.191,0v4.7A12.82,12.82,0,0,0,16.089,23.3C16.8,12.219,21.4,3.34,26.95,2.3V9.86a1.1,1.1,0,1,0,2.191,0V2.3C34.691,3.34,39.294,12.219,40,23.3A12.819,12.819,0,0,0,29.141,23.324Zm24.5-.1a14.226,14.226,0,0,0-5.546-1.113h-.021a14.152,14.152,0,0,0-5.87,1.249c-.406-6.88-2.508-15.439-7.354-20.244C44.348,5.741,51.966,13.653,53.638,23.225ZM21.244,3.118C16.4,7.923,14.3,16.481,13.889,23.361a14.445,14.445,0,0,0-11.437-.136C4.124,13.653,11.742,5.741,21.244,3.118Z" transform="translate(-10190 8601)"/></g></g></svg>