<svg xmlns="http://www.w3.org/2000/svg" width="206.93" height="113.433" viewBox="0 0 206.93 113.433"><defs><style>.a{fill:#e9f3fe;opacity:0.201;}.b{fill:#c3dafc;}.c{fill:#d4e4f8;}.d{fill:#618dc1;}.e{fill:#2a4e96;}.f{fill:#fff;}.g{fill:#2b478b;}.h{fill:#ed823a;}.i{fill:#ff9e55;}.j{fill:#dd732c;}.k{fill:#ffb27d;}.l{fill:#aec3ff;}.m{fill:#dde7fe;}.n{fill:#060633;}.o{opacity:0.4;}.p{fill:#9dc3f3;}.q{fill:#e3f0ff;}.r{fill:#a9c8ed;}.s{fill:#99b9ff;}.t{fill:#8aa8ed;}.u{fill:#d2e0ff;}.v{fill:#759cea;}.w{fill:#8db0ff;}.x{fill:#2e3552;}</style></defs><g transform="translate(-199.367 -467.529)"><path class="a" d="M343.809,573.2q-.407,1.905-.932,3.75c-.069.244-.14.488-.215.731a46.881,46.881,0,0,1-3.382,8.381l-.043.082c-.042.082-.085.163-.129.244-.059.11-.119.221-.18.329l-.052.1-46.866-.1-146.455-.3s-.044-.121-.126-.354c-1.551-4.4-16.5-48.828,2.551-74.889,17.224-23.569,17.336-.162,38.29-29.909,7.37-10.463,20.388-9.273,30.607,4.126,9.266,12.149,23.3,2.573,31.631-2.536,10.111-6.2,24.382-12.344,38.928-8.029,16.811,4.987,13.978,39.535,26.366,34.27,13.475-5.727,24.98,10.231,29.486,30.593q.127.576.247,1.157.333,1.614.609,3.26.1.6.193,1.21A78.886,78.886,0,0,1,343.809,573.2Z" transform="translate(60.976 -5.855)"/><g transform="translate(377.804 531.429)"><rect class="b" width="13.828" height="11.402" transform="translate(17.306 13.241) rotate(155.56)"/><rect class="c" width="13.828" height="11.402" transform="translate(23.6 10.38) rotate(155.56)"/><path class="d" d="M2909.752,1113.8l1.995-.906-.431-.481-.007-.481-1.995.906Z" transform="translate(-2901.998 -1104.863)"/><path class="e" d="M2891.746,1120.818l-1.995.906.431.482.006.481,1.995-.906Z" transform="translate(-2884.429 -1112.847)"/><path class="d" d="M3040.209,1119.72l-1.995.906.431.481.007.481,1.995-.906Z" transform="translate(-3017.755 -1111.861)"/><rect class="f" width="3.979" height="1.548" transform="translate(14.756 2.725) rotate(-24.44)"/></g><path class="g" d="M2878.989,1171.074a.3.3,0,0,1,.1.226v.006h-23.4l-.025-.231-.008-.078-.852-7.949-.074-.693-2.116-19.727-.016-.153,25.23-11.27q.148.572.283,1.147a48.913,48.913,0,0,1-.774,26.445q-.6,1.807-1.368,3.557c-.1.231-.206.463-.315.693A37.623,37.623,0,0,1,2870.7,1171h8.091A.3.3,0,0,1,2878.989,1171.074Z" transform="translate(-2473.266 -590.747)"/><g transform="translate(314.59 486.586)"><g transform="translate(0.873 40.126)"><rect class="h" width="14.323" height="11.81" transform="translate(7.162)"/><rect class="i" width="14.322" height="11.81" transform="translate(0)"/><path class="j" d="M2416.792,1073.2h-2.27l.2-.639-.2-.456h2.27Z" transform="translate(-2395.316 -1064.382)"/><path class="k" d="M2346.642,1022.59h-2.27l.2-.639-.2-.456h2.27Z" transform="translate(-2332.319 -1018.935)"/><path class="j" d="M2366.63,1021.5h2.27l-.2.639.2.456h-2.27Z" transform="translate(-2352.307 -1018.935)"/><path class="k" d="M2226.162,1084.083h2.27l-.2.639.2.456h-2.27Z" transform="translate(-2226.162 -1075.141)"/><rect class="f" width="4.122" height="1.603" transform="translate(5.06 2.404) rotate(180)"/></g><g transform="translate(13.074 5.679)"><path class="g" d="M2355.614,660.886a12.088,12.088,0,0,1-5.4-1.015,7.055,7.055,0,0,0-4.337-.627l-.059-.291a7.226,7.226,0,0,1,4.544.661c1.971,1.138,6.869,1.239,9.087.484a28.206,28.206,0,0,1,6.291-1.544v.3a27.993,27.993,0,0,0-6.2,1.528A13.129,13.129,0,0,1,2355.614,660.886Z" transform="translate(-2345.816 -658.553)"/></g><rect class="g" width="0.939" height="6.127" transform="translate(10.127 29.241)"/><rect class="g" width="0.939" height="6.127" transform="translate(11.987 29.241)"/><g transform="translate(13.074 5.019)"><path class="g" d="M2355.614,654.414a12.087,12.087,0,0,1-5.4-1.015,7.055,7.055,0,0,0-4.337-.627l-.059-.292a7.226,7.226,0,0,1,4.544.661c1.971,1.138,6.869,1.238,9.087.483a28.211,28.211,0,0,1,6.291-1.544v.3a28,28,0,0,0-6.2,1.528A13.13,13.13,0,0,1,2355.614,654.414Z" transform="translate(-2345.816 -652.081)"/></g><g transform="translate(41.482 50.758)"><path class="g" d="M2645.822,1115.656h-.3a4.608,4.608,0,0,0-4.6-4.6h-6.393a2.389,2.389,0,0,1-2.386-2.386,7.721,7.721,0,0,0-7.713-7.713v-.3a8.019,8.019,0,0,1,8.01,8.01,2.091,2.091,0,0,0,2.089,2.089h6.393A4.906,4.906,0,0,1,2645.822,1115.656Z" transform="translate(-2624.43 -1100.657)"/></g><g transform="translate(41.482 52.843)"><path class="g" d="M2645.822,1136.109h-.3a4.608,4.608,0,0,0-4.6-4.6h-6.393a2.389,2.389,0,0,1-2.386-2.386,7.722,7.722,0,0,0-7.713-7.713v-.3a8.019,8.019,0,0,1,8.01,8.01,2.091,2.091,0,0,0,2.089,2.089h6.393A4.906,4.906,0,0,1,2645.822,1136.109Z" transform="translate(-2624.43 -1121.11)"/></g><g transform="translate(39.76 2.111)"><path class="g" d="M2610.433,664.622h-.39v-.3h.39a3.279,3.279,0,0,0,3.276-3.276V627.138a3.28,3.28,0,0,0-3.276-3.276h-2.892v-.3h2.892a3.577,3.577,0,0,1,3.573,3.573v33.911A3.577,3.577,0,0,1,2610.433,664.622Z" transform="translate(-2607.541 -623.565)"/></g><g transform="translate(40.039 3.693)"><path class="g" d="M2612.5,675.678v-.3a2.281,2.281,0,0,0,2.279-2.278V641.581a2.212,2.212,0,0,0-2.21-2.209h-2.292v-.3h2.292a2.51,2.51,0,0,1,2.507,2.507V673.1A2.578,2.578,0,0,1,2612.5,675.678Z" transform="translate(-2610.273 -639.074)"/></g><path class="l" d="M6.148,0h0A6.148,6.148,0,0,1,12.3,6.148V16.162A6.148,6.148,0,0,1,6.148,22.31h0A6.148,6.148,0,0,1,0,16.162V6.148A6.148,6.148,0,0,1,6.148,0Z" transform="translate(5.248 8.291)"/><g transform="translate(7.549 10.396)"><path class="m" d="M2291.63,705.883a1.07,1.07,0,1,1,1.07,1.07A1.07,1.07,0,0,1,2291.63,705.883Z" transform="translate(-2291.63 -704.813)"/><path class="m" d="M2291.63,855.505a1.07,1.07,0,1,1,1.07,1.07A1.07,1.07,0,0,1,2291.63,855.505Z" transform="translate(-2291.63 -839.179)"/><path class="m" d="M2346.1,705.883a1.07,1.07,0,1,1,1.07,1.07A1.07,1.07,0,0,1,2346.1,705.883Z" transform="translate(-2340.55 -704.813)"/><path class="m" d="M2346.1,855.505a1.07,1.07,0,1,1,1.07,1.07A1.07,1.07,0,0,1,2346.1,855.505Z" transform="translate(-2340.55 -839.179)"/></g><path class="i" d="M2297.662,937.838a1.55,1.55,0,0,1-.14.638h-8.4a1.55,1.55,0,0,1-.14-.638c0-1.392,1.945-2.521,4.342-2.521S2297.662,936.446,2297.662,937.838Z" transform="translate(-2281.7 -901.418)"/><g transform="translate(0 35.96)"><path class="g" d="M2240.84,958.861v11.42a2.787,2.787,0,0,1-1.2,2.294l-3.483,2.4a.549.549,0,0,1-.764-.14h0a.549.549,0,0,1,.14-.764l3.483-2.4a1.689,1.689,0,0,0,.729-1.389v-11.42a2.237,2.237,0,0,0-2.237-2.237h-16.57a2.237,2.237,0,0,0-2.237,2.237v11.355a1.677,1.677,0,0,0,.793,1.431l3.892,2.433a.549.549,0,0,1,.175.756h0a.549.549,0,0,1-.757.175l-3.892-2.432a2.77,2.77,0,0,1-1.31-2.363V958.861a3.336,3.336,0,0,1,3.335-3.335h16.57A3.335,3.335,0,0,1,2240.84,958.861Z" transform="translate(-2217.599 -955.526)"/></g><rect class="n" width="22.833" height="0.687" transform="translate(11.063 1.424)"/><rect class="n" width="22.833" height="0.687" transform="translate(11.063 3.349)"/><path class="i" d="M2298.438,611.149h-6.808v-4.776a3.515,3.515,0,0,1,3.515-3.515h0a3.515,3.515,0,0,1,3.515,3.515v4.555A.221.221,0,0,1,2298.438,611.149Z" transform="translate(-2284.081 -602.858)"/><path class="l" d="M4.691,0h0A4.691,4.691,0,0,1,9.382,4.691V63.152a4.691,4.691,0,0,1-4.691,4.691h0A4.691,4.691,0,0,1,0,63.152V4.691A4.691,4.691,0,0,1,4.691,0Z" transform="translate(32.101 0)"/><path class="n" d="M2573.075,630.379a.546.546,0,1,1,.546.545A.546.546,0,0,1,2573.075,630.379Z" transform="translate(-2536.829 -627.083)"/><path class="h" d="M5.641,0h0a5.641,5.641,0,0,1,5.641,5.641V39.613a5.641,5.641,0,0,1-5.641,5.641h0A5.641,5.641,0,0,1,0,39.613V5.641A5.641,5.641,0,0,1,5.641,0Z" transform="translate(30.98 9.559)"/><rect class="g" width="11.938" height="7.616" transform="translate(30.98 57.285)"/><g transform="translate(31.996 36.434)"><circle class="i" cx="4.001" cy="4.001" r="4.001" transform="translate(0 7.885) rotate(-80.173)"/><g transform="translate(0.5 0.5)"><path class="g" d="M2540.423,973.334a4.125,4.125,0,1,1,4.125-4.125A4.13,4.13,0,0,1,2540.423,973.334Zm0-8a3.877,3.877,0,1,0,3.877,3.877A3.882,3.882,0,0,0,2540.423,965.331Z" transform="translate(-2536.297 -965.083)"/></g><path class="k" d="M2552.806,984.035a2.442,2.442,0,1,1,2.442,2.442A2.442,2.442,0,0,1,2552.806,984.035Z" transform="translate(-2550.623 -979.41)"/></g><g transform="translate(8.921 1.207)"><path class="i" d="M2305.722,617.4a2.078,2.078,0,1,1,2.078,2.078A2.078,2.078,0,0,1,2305.722,617.4Z" transform="translate(-2305.657 -615.261)"/><path class="g" d="M2307.232,618.978a2.142,2.142,0,1,1,2.142-2.143A2.145,2.145,0,0,1,2307.232,618.978Zm0-4.156a2.014,2.014,0,1,0,2.013,2.013A2.016,2.016,0,0,0,2307.232,614.822Z" transform="translate(-2305.089 -614.693)"/><path class="h" d="M2313.663,624.535a1.268,1.268,0,1,1,1.268,1.268A1.268,1.268,0,0,1,2313.663,624.535Z" transform="translate(-2312.789 -622.393)"/></g></g><g class="o" transform="translate(246.063 501.174)"><g transform="translate(35.391 0)"><rect class="b" width="14.668" height="12.094" transform="translate(14.668 12.094) rotate(180)"/><rect class="c" width="14.668" height="12.094" transform="translate(22.001 12.094) rotate(180)"/><path class="p" d="M1892.709,824.59h2.324l-.2-.654.2-.467h-2.324Z" transform="translate(-1892.701 -815.563)"/><path class="q" d="M1964.551,772.765h2.324l-.2-.654.2-.467h-2.324Z" transform="translate(-1957.217 -769.022)"/><path class="p" d="M1944.08,771.644h-2.324l.2.654-.2.467h2.324Z" transform="translate(-1936.746 -769.022)"/><path class="q" d="M2087.934,835.739h-2.324l.2.654-.2.467h2.324Z" transform="translate(-2065.932 -826.582)"/><rect class="f" width="4.221" height="1.642" transform="translate(16.82 0.82)"/></g><g transform="translate(9.488 0)"><rect class="b" width="14.668" height="12.094" transform="translate(14.668 12.094) rotate(180)"/><rect class="c" width="14.668" height="12.094" transform="translate(22.002 12.094) rotate(180)"/><path class="p" d="M1638.67,824.59h2.324l-.2-.654.2-.467h-2.324Z" transform="translate(-1638.661 -815.563)"/><path class="q" d="M1710.512,772.765h2.324l-.2-.654.2-.467h-2.324Z" transform="translate(-1703.178 -769.022)"/><path class="p" d="M1690.041,771.644h-2.324l.2.654-.2.467h2.324Z" transform="translate(-1682.707 -769.022)"/><path class="q" d="M1833.895,835.739h-2.324l.2.654-.2.467h2.324Z" transform="translate(-1811.893 -826.582)"/><rect class="f" width="4.221" height="1.642" transform="translate(16.82 0.82)"/></g><g transform="translate(0 12.094)"><rect class="b" width="5.641" height="67.29"/><rect class="b" width="4.689" height="67.29" transform="translate(61.852)"/><rect class="b" width="60.9" height="1.751" transform="translate(5.641)"/><rect class="b" width="60.9" height="1.751" transform="translate(5.641 31.894)"/><rect class="b" width="60.9" height="1.751" transform="translate(5.641 58.643)"/><g transform="translate(36.406 19.389)"><rect class="r" width="15.164" height="12.504" transform="translate(15.164 12.504) rotate(180)"/><rect class="c" width="15.164" height="12.504" transform="translate(22.747 12.504) rotate(180)"/><path class="p" d="M1902.674,1136.027h2.4l-.212-.676.212-.483h-2.4Z" transform="translate(-1902.665 -1126.693)"/><path class="q" d="M1976.948,1082.445h2.4l-.212-.676.212-.483h-2.4Z" transform="translate(-1969.366 -1078.576)"/><path class="p" d="M1955.785,1081.286h-2.4l.212.676-.212.483h2.4Z" transform="translate(-1948.203 -1078.576)"/><path class="q" d="M2104.51,1147.554h-2.4l.212.676-.212.483h2.4Z" transform="translate(-2081.763 -1138.086)"/><rect class="f" width="4.364" height="1.698" transform="translate(17.39 0.848)"/></g><g transform="translate(16.946 19.389)"><rect class="b" width="15.164" height="12.504" transform="translate(15.164 12.504) rotate(180)"/><rect class="c" width="15.164" height="12.504" transform="translate(22.747 12.504) rotate(180)"/><path class="p" d="M1711.814,1136.027h2.4l-.212-.676.212-.483h-2.4Z" transform="translate(-1711.806 -1126.693)"/><path class="q" d="M1786.089,1082.445h2.4l-.212-.676.212-.483h-2.4Z" transform="translate(-1778.507 -1078.576)"/><path class="p" d="M1764.925,1081.286h-2.4l.212.676-.212.483h2.4Z" transform="translate(-1757.343 -1078.576)"/><path class="q" d="M1913.651,1147.554h-2.4l.212.676-.212.483h2.4Z" transform="translate(-1890.904 -1138.086)"/><path class="q" d="M1913.651,1079.67h-2.4l.212.676-.212.483h2.4Z" transform="translate(-1890.904 -1077.124)"/><rect class="f" width="7.113" height="2.767" transform="translate(9.114 8.398)"/></g><g transform="translate(36.406 47.795)"><rect class="b" width="13.107" height="10.807" transform="translate(13.107 10.807) rotate(180)"/><rect class="c" width="13.107" height="10.807" transform="translate(19.66 10.807) rotate(180)"/><path class="p" d="M1902.662,1403.578h2.077l-.183-.584.183-.417h-2.077Z" transform="translate(-1902.654 -1395.511)"/><path class="q" d="M1966.858,1357.268h2.077l-.183-.584.183-.418h-2.077Z" transform="translate(-1960.305 -1353.923)"/><path class="p" d="M1948.566,1356.266h-2.077l.183.584-.183.418h2.077Z" transform="translate(-1942.013 -1353.923)"/><path class="q" d="M2077.112,1413.541h-2.077l.183.584-.183.417h2.077Z" transform="translate(-2057.451 -1405.358)"/><rect class="f" width="3.772" height="1.467" transform="translate(15.03 0.733)"/></g><g transform="translate(11.514 46.099)"><rect class="b" width="15.164" height="12.504" transform="translate(15.164 12.504) rotate(180)"/><rect class="c" width="15.164" height="12.504" transform="translate(22.747 12.504) rotate(180)"/><path class="e" d="M1658.541,1397.973h2.4l-.212-.676.212-.483h-2.4Z" transform="translate(-1658.532 -1388.64)"/><path class="d" d="M1732.816,1344.392h2.4l-.212-.676.212-.483h-2.4Z" transform="translate(-1725.234 -1340.522)"/><path class="e" d="M1711.653,1343.232h-2.4l.212.676-.212.483h2.4Z" transform="translate(-1704.071 -1340.522)"/><path class="d" d="M1860.378,1409.5h-2.4l.212.676-.212.483h2.4Z" transform="translate(-1837.631 -1400.032)"/><rect class="f" width="4.364" height="1.698" transform="translate(17.39 0.848)"/></g><g transform="translate(15.782 9.773)"><rect class="b" width="11.593" height="9.559" transform="translate(11.593 9.559) rotate(180)"/><rect class="c" width="11.593" height="9.559" transform="translate(17.39 9.559) rotate(180)"/><path class="p" d="M1700.382,1022.562h1.837l-.162-.517.162-.369h-1.837Z" transform="translate(-1700.375 -1015.427)"/><path class="q" d="M1757.164,981.6H1759l-.162-.517.162-.369h-1.837Z" transform="translate(-1751.367 -978.641)"/><path class="p" d="M1740.984,980.713h-1.837l.162.517-.162.369h1.837Z" transform="translate(-1735.188 -978.641)"/><path class="q" d="M1854.686,1031.375h-1.837l.162.517-.162.369h1.837Z" transform="translate(-1837.296 -1024.137)"/><rect class="f" width="3.336" height="1.298" transform="translate(13.295 0.648)"/></g><g transform="translate(36.495 9.773)"><rect class="b" width="11.593" height="9.559" transform="translate(11.593 9.559) rotate(180)"/><rect class="c" width="11.593" height="9.559" transform="translate(17.39 9.559) rotate(180)"/><path class="p" d="M1903.523,1022.562h1.837l-.162-.517.162-.369h-1.837Z" transform="translate(-1903.517 -1015.427)"/><path class="q" d="M1960.306,981.6h1.837l-.162-.517.162-.369h-1.837Z" transform="translate(-1954.509 -978.641)"/><path class="p" d="M1944.126,980.713h-1.837l.162.517-.162.369h1.837Z" transform="translate(-1938.33 -978.641)"/><path class="q" d="M2057.826,1031.375h-1.837l.162.517-.162.369h1.837Z" transform="translate(-2040.436 -1024.137)"/><rect class="f" width="3.336" height="1.298" transform="translate(13.295 0.648)"/></g></g></g><path class="s" d="M2892.431,1168.9q-.6,1.807-1.369,3.557c-.1.231-.206.463-.315.693h-19.364l-.069-.693-1.91-19.332.882-.395,22.918-10.275A48.91,48.91,0,0,1,2892.431,1168.9Z" transform="translate(-2488.354 -600.854)"/><g transform="translate(204.788 564.157)"><rect class="b" width="19.474" height="16.057" transform="translate(19.474 16.057) rotate(180)"/><rect class="c" width="19.474" height="16.057" transform="translate(29.21 16.057) rotate(180)"/><path class="p" d="M1140.855,1468.053h3.086l-.272-.868.272-.62h-3.086Z" transform="translate(-1140.844 -1456.068)"/><path class="q" d="M1236.236,1399.247h3.086l-.272-.868.272-.62h-3.086Z" transform="translate(-1226.499 -1394.277)"/><path class="p" d="M1209.058,1397.758h-3.086l.272.868-.272.62h3.086Z" transform="translate(-1199.322 -1394.277)"/><path class="q" d="M1400.046,1482.855h-3.086l.272.868-.272.62h3.086Z" transform="translate(-1370.835 -1470.698)"/><rect class="f" width="5.604" height="2.18" transform="translate(22.332 1.089)"/></g><g transform="translate(206.571 548.029)"><rect class="b" width="19.474" height="16.057" transform="translate(19.474 16.057) rotate(180)"/><rect class="c" width="19.474" height="16.057" transform="translate(29.21 16.057) rotate(180)"/><path class="p" d="M1158.34,1309.884h3.086l-.272-.868.272-.62h-3.086Z" transform="translate(-1158.329 -1297.899)"/><path class="q" d="M1253.721,1241.078h3.086l-.272-.868.272-.62h-3.086Z" transform="translate(-1243.984 -1236.109)"/><path class="p" d="M1226.544,1239.59h-3.086l.272.868-.272.62h3.086Z" transform="translate(-1216.807 -1236.109)"/><path class="q" d="M1417.531,1324.687h-3.086l.272.868-.272.621h3.086Z" transform="translate(-1388.32 -1312.529)"/><rect class="f" width="5.604" height="2.18" transform="translate(22.332 1.089)"/></g><g transform="translate(237.799 538.921)"><rect class="h" width="15.138" height="12.483" transform="translate(7.569 0)"/><rect class="i" width="15.138" height="12.483" transform="translate(0 0)"/><path class="j" d="M1665.973,1197.308h-2.4l.211-.675-.211-.482h2.4Z" transform="translate(-1643.274 -1187.991)"/><path class="k" d="M1591.826,1143.819h-2.4l.211-.675-.211-.482h2.4Z" transform="translate(-1576.688 -1139.956)"/><path class="j" d="M1612.953,1142.662h2.4l-.211.675.211.482h-2.4Z" transform="translate(-1597.814 -1139.956)"/><path class="k" d="M1464.484,1208.814h2.4l-.211.675.211.482h-2.4Z" transform="translate(-1464.484 -1199.364)"/><rect class="f" width="4.356" height="1.695" transform="translate(5.348 2.541) rotate(180)"/></g><g transform="translate(292.647 539.246)"><rect class="h" width="15.138" height="12.483" transform="translate(7.569 0)"/><rect class="i" width="15.138" height="12.483" transform="translate(0 0)"/><path class="j" d="M2203.884,1200.489h-2.4l.211-.675-.211-.482h2.4Z" transform="translate(-2181.185 -1191.172)"/><path class="k" d="M2129.738,1147h-2.4l.211-.675-.211-.482h2.4Z" transform="translate(-2114.599 -1143.138)"/><path class="j" d="M2150.864,1145.844h2.4l-.211.675.211.482h-2.4Z" transform="translate(-2135.726 -1143.138)"/><path class="k" d="M2002.4,1212h2.4l-.211.675.211.482h-2.4Z" transform="translate(-2002.396 -1202.545)"/><rect class="f" width="4.356" height="1.695" transform="translate(5.348 2.541) rotate(180)"/></g><path class="t" d="M1480.819,1263.647H1331.162a10.209,10.209,0,0,1-10.21-10.209h0a10.21,10.21,0,0,1,10.21-10.21h149.657a10.21,10.21,0,0,1,10.209,10.21h0A10.209,10.209,0,0,1,1480.819,1263.647Z" transform="translate(-1097.789 -691.347)"/><g transform="translate(232.35 555.297)"><path class="l" d="M1422.628,1282.955l-1.062-.493a.259.259,0,0,1-.148-.227q0-.186-.025-.375a4.362,4.362,0,0,0-.126-.679.256.256,0,0,1,.092-.273l.974-.742a.251.251,0,0,0,.06-.337l-.6-.945a.249.249,0,0,0-.318-.09l-1.011.5a.25.25,0,0,1-.295-.053,4.526,4.526,0,0,0-1.139-.858.258.258,0,0,1-.128-.287l.164-.666a.26.26,0,0,0-.161-.3l-1.044-.378a.226.226,0,0,0-.065-.015.25.25,0,0,0-.251.146l-.369.793-.09.193a4.477,4.477,0,0,0-.632.024,4.569,4.569,0,0,0-.828.168.249.249,0,0,1-.273-.087l-.6-.785a.258.258,0,0,0-.344-.062l-.723.458-.207.132a.262.262,0,0,0-.1.337l.414.846a.249.249,0,0,1-.046.29,4.477,4.477,0,0,0-.6.751c-.017.022-.03.044-.044.068a.12.12,0,0,1-.016.022.255.255,0,0,1-.267.093l-1.081-.264a.189.189,0,0,0-.037-.006.259.259,0,0,0-.266.168l-.378,1.041a.259.259,0,0,0,.134.322l1.108.513a.25.25,0,0,1,.146.242,4.582,4.582,0,0,0,.023.694q.02.187.055.368a.263.263,0,0,1-.1.259l-.935.713a.251.251,0,0,0-.06.334l.594.934a.263.263,0,0,0,.338.1l.8-.393a.258.258,0,0,1,.312.065,4.52,4.52,0,0,0,1.042.922.257.257,0,0,1,.113.28l-.239.974a.265.265,0,0,0,.166.311l1.037.377a.253.253,0,0,0,.317-.132l.022-.046.428-.922a.259.259,0,0,1,.255-.15h0a4.489,4.489,0,0,0,.8-.016c.144-.016.284-.038.423-.067a.255.255,0,0,1,.256.094l.606.8a.263.263,0,0,0,.35.064l.931-.591a.282.282,0,0,0,.067-.061.262.262,0,0,0,.027-.27l-.333-.675a.262.262,0,0,1,.017-.256.286.286,0,0,1,.048-.054,4.5,4.5,0,0,0,1.112-1.388.253.253,0,0,1,.242-.137.242.242,0,0,1,.043.007l.875.215a.257.257,0,0,0,.3-.161l.009-.024.369-1.014A.262.262,0,0,0,1422.628,1282.955Zm-8.077-1.046a3.016,3.016,0,0,1,.144-.541,2.363,2.363,0,0,1,.808-1c.034-.022.067-.042.1-.062a2.443,2.443,0,0,1,2.929,3.9,1.613,1.613,0,0,1-.19.141,2.783,2.783,0,0,1-.872.365A2.426,2.426,0,0,1,1414.55,1281.909Z" transform="translate(-1411.052 -1276.729)"/></g><g transform="translate(242.789 561.616)"><path class="u" d="M1521.752,1343.177l-.764-.354a.186.186,0,0,1-.106-.163q0-.134-.018-.27a3.117,3.117,0,0,0-.091-.489.184.184,0,0,1,.067-.2l.7-.534a.181.181,0,0,0,.043-.242l-.431-.68a.179.179,0,0,0-.229-.065l-.728.357a.179.179,0,0,1-.212-.038,3.258,3.258,0,0,0-.819-.617.186.186,0,0,1-.092-.206l.118-.479a.187.187,0,0,0-.116-.218l-.751-.272a.157.157,0,0,0-.046-.011.179.179,0,0,0-.181.1l-.265.57-.064.139a3.259,3.259,0,0,0-1.05.138.18.18,0,0,1-.2-.063l-.429-.564a.186.186,0,0,0-.248-.044l-.52.329-.149.095a.189.189,0,0,0-.069.242l.3.608a.179.179,0,0,1-.033.209,3.232,3.232,0,0,0-.43.54.562.562,0,0,0-.032.049.1.1,0,0,1-.011.016.184.184,0,0,1-.193.067l-.778-.19a.132.132,0,0,0-.026,0,.186.186,0,0,0-.191.12l-.272.749a.186.186,0,0,0,.1.232l.8.369a.18.18,0,0,1,.1.174,3.29,3.29,0,0,0,.016.5q.014.134.04.265a.189.189,0,0,1-.072.186l-.673.513a.181.181,0,0,0-.043.24l.427.672a.189.189,0,0,0,.243.069l.576-.282a.186.186,0,0,1,.224.047,3.24,3.24,0,0,0,.75.663.185.185,0,0,1,.081.2l-.172.7a.191.191,0,0,0,.12.224l.746.271a.182.182,0,0,0,.228-.1l.016-.033.308-.663a.187.187,0,0,1,.183-.108h0a3.232,3.232,0,0,0,.572-.011c.1-.011.2-.028.3-.048a.183.183,0,0,1,.184.068l.436.573a.189.189,0,0,0,.252.046l.669-.425a.213.213,0,0,0,.048-.044.188.188,0,0,0,.02-.194l-.239-.485a.188.188,0,0,1,.012-.184.2.2,0,0,1,.035-.039,3.237,3.237,0,0,0,.8-1,.182.182,0,0,1,.174-.1l.031,0,.63.155a.185.185,0,0,0,.218-.116l.006-.017.266-.729A.189.189,0,0,0,1521.752,1343.177Zm-5.81-.752a2.141,2.141,0,0,1,.1-.389,1.7,1.7,0,0,1,.581-.722l.073-.045a1.757,1.757,0,0,1,2.107,2.8,1.163,1.163,0,0,1-.137.1,2,2,0,0,1-.627.262A1.744,1.744,0,0,1,1515.943,1342.425Z" transform="translate(-1513.426 -1338.699)"/></g><g transform="translate(250.151 555.764)"><path class="l" d="M1597.294,1286.09l-1.153-.2a.26.26,0,0,1-.2-.181q-.052-.179-.12-.356a4.361,4.361,0,0,0-.3-.624.256.256,0,0,1,.019-.288l.751-.966a.251.251,0,0,0-.028-.341l-.821-.76a.248.248,0,0,0-.331-.006l-.851.739a.249.249,0,0,1-.3.024,4.533,4.533,0,0,0-1.321-.538.258.258,0,0,1-.2-.245l-.011-.686a.26.26,0,0,0-.234-.252l-1.106-.1a.219.219,0,0,0-.066,0,.25.25,0,0,0-.206.2l-.154.861-.037.21a4.529,4.529,0,0,0-1.362.559.25.25,0,0,1-.286-.015l-.778-.606a.259.259,0,0,0-.349.029l-.582.627-.166.18a.262.262,0,0,0-.006.35l.617.711a.249.249,0,0,1,.03.292,4.468,4.468,0,0,0-.386.879.763.763,0,0,0-.025.077.136.136,0,0,1-.009.026.255.255,0,0,1-.235.159l-1.113.021a.194.194,0,0,0-.037,0,.26.26,0,0,0-.214.23l-.1,1.1a.258.258,0,0,0,.212.277l1.2.212a.25.25,0,0,1,.2.2,4.58,4.58,0,0,0,.2.665q.067.175.148.342a.263.263,0,0,1-.03.276l-.722.929a.251.251,0,0,0,.027.339l.813.751a.262.262,0,0,0,.351.006l.673-.584a.258.258,0,0,1,.318-.017,4.507,4.507,0,0,0,1.243.624.257.257,0,0,1,.18.241l.019,1a.265.265,0,0,0,.24.258l1.1.1a.253.253,0,0,0,.273-.209l.01-.05.178-1a.259.259,0,0,1,.208-.21h0a4.479,4.479,0,0,0,.765-.219c.135-.052.264-.11.392-.173a.255.255,0,0,1,.271.026l.789.615a.263.263,0,0,0,.355-.028l.748-.809a.29.29,0,0,0,.049-.076.262.262,0,0,0-.043-.268l-.494-.567a.262.262,0,0,1-.049-.252.274.274,0,0,1,.033-.064,4.5,4.5,0,0,0,.719-1.626.253.253,0,0,1,.2-.194.28.28,0,0,1,.044,0l.9-.016a.257.257,0,0,0,.251-.233l0-.026.1-1.075A.262.262,0,0,0,1597.294,1286.09Zm-8.076,1.058a2.994,2.994,0,0,1,0-.56,2.366,2.366,0,0,1,.523-1.177l.082-.086a2.443,2.443,0,0,1,3.83,3.015,1.6,1.6,0,0,1-.148.186,2.781,2.781,0,0,1-.749.575A2.425,2.425,0,0,1,1589.219,1287.148Z" transform="translate(-1585.632 -1281.307)"/></g><g transform="translate(321.449 562.651)"><path class="u" d="M2293.288,1352.921l-.8-.268a.187.187,0,0,1-.124-.151c-.012-.089-.028-.177-.048-.266a3.117,3.117,0,0,0-.144-.475.184.184,0,0,1,.044-.2l.637-.607a.181.181,0,0,0,.016-.245l-.5-.629a.178.178,0,0,0-.234-.039l-.684.435a.18.18,0,0,1-.215-.015,3.255,3.255,0,0,0-.882-.524.186.186,0,0,1-.114-.2l.065-.489a.188.188,0,0,0-.139-.2l-.777-.187a.172.172,0,0,0-.047-.006.18.18,0,0,0-.168.124l-.2.6-.049.145a3.241,3.241,0,0,0-.45.067,3.277,3.277,0,0,0-.578.186.18.18,0,0,1-.2-.041l-.488-.514a.187.187,0,0,0-.251-.017l-.48.384-.137.11a.188.188,0,0,0-.042.248l.363.572a.179.179,0,0,1-.01.211,3.235,3.235,0,0,0-.369.584.516.516,0,0,0-.026.052.067.067,0,0,1-.01.017.183.183,0,0,1-.184.088l-.794-.1a.125.125,0,0,0-.027,0,.187.187,0,0,0-.177.141l-.188.774a.185.185,0,0,0,.121.22l.833.28a.18.18,0,0,1,.124.162,3.3,3.3,0,0,0,.071.494q.029.132.069.259a.189.189,0,0,1-.051.193l-.612.584a.181.181,0,0,0-.017.244l.5.621a.189.189,0,0,0,.249.042l.541-.344a.186.186,0,0,1,.228.022,3.251,3.251,0,0,0,.817.577.184.184,0,0,1,.1.191l-.094.716a.191.191,0,0,0,.143.209l.771.188a.182.182,0,0,0,.216-.12l.012-.035.234-.693a.187.187,0,0,1,.17-.127h0a3.215,3.215,0,0,0,.567-.074c.1-.023.2-.05.3-.081a.182.182,0,0,1,.19.047l.5.522a.189.189,0,0,0,.255.018l.619-.5a.193.193,0,0,0,.043-.049.187.187,0,0,0,0-.2l-.291-.456a.187.187,0,0,1-.008-.185.19.19,0,0,1,.03-.042,3.24,3.24,0,0,0,.685-1.08.18.18,0,0,1,.194-.115l.643.084a.185.185,0,0,0,.2-.139l0-.018.184-.754A.188.188,0,0,0,2293.288,1352.921Zm-5.857-.11a2.115,2.115,0,0,1,.06-.4,1.7,1.7,0,0,1,.5-.781l.068-.052a1.757,1.757,0,0,1,2.4,2.554,1.19,1.19,0,0,1-.125.116,2,2,0,0,1-.595.329A1.744,1.744,0,0,1,2287.431,1352.811Z" transform="translate(-2284.868 -1348.852)"/></g><g transform="translate(328.404 555.935)"><path class="l" d="M2364.569,1287.089l-1.168-.076a.259.259,0,0,1-.22-.158q-.072-.172-.159-.341a4.379,4.379,0,0,0-.363-.588.256.256,0,0,1-.012-.288l.64-1.043a.251.251,0,0,0-.065-.336l-.9-.666a.248.248,0,0,0-.329.031l-.765.828a.249.249,0,0,1-.294.057,4.519,4.519,0,0,0-1.372-.39.258.258,0,0,1-.222-.222l-.087-.68a.26.26,0,0,0-.26-.225l-1.11.024a.232.232,0,0,0-.066.009.249.249,0,0,0-.182.226l-.059.873-.014.213a4.473,4.473,0,0,0-.581.25,4.533,4.533,0,0,0-.711.455.249.249,0,0,1-.286.017l-.839-.517a.259.259,0,0,0-.344.067l-.509.687-.146.2a.262.262,0,0,0,.032.349l.692.64a.25.25,0,0,1,.062.287,4.49,4.49,0,0,0-.288.916c-.007.027-.012.052-.016.079a.134.134,0,0,1-.007.026.255.255,0,0,1-.216.183l-1.1.143a.156.156,0,0,0-.036.007.259.259,0,0,0-.187.252l.023,1.107a.259.259,0,0,0,.241.252l1.219.079a.249.249,0,0,1,.223.174,4.606,4.606,0,0,0,.271.639q.086.167.184.323a.263.263,0,0,1,0,.277l-.615,1a.251.251,0,0,0,.064.333l.891.657a.263.263,0,0,0,.35-.033l.6-.655a.258.258,0,0,1,.314-.052,4.5,4.5,0,0,0,1.3.484.257.257,0,0,1,.206.22l.129.995a.265.265,0,0,0,.267.23l1.1-.022a.254.254,0,0,0,.248-.238l0-.051.067-1.014a.26.26,0,0,1,.184-.232h0a4.494,4.494,0,0,0,.736-.3c.128-.066.251-.138.371-.214a.253.253,0,0,1,.272,0l.852.525a.263.263,0,0,0,.349-.067l.655-.886a.29.29,0,0,0,.04-.081.262.262,0,0,0-.072-.262l-.553-.509a.26.26,0,0,1-.077-.245.28.28,0,0,1,.025-.068,4.5,4.5,0,0,0,.537-1.7.251.251,0,0,1,.219-.224l.894-.115a.257.257,0,0,0,.224-.26v-.026l-.021-1.079A.262.262,0,0,0,2364.569,1287.089Zm-7.911,1.938a3,3,0,0,1-.061-.557,2.36,2.36,0,0,1,.391-1.228c.023-.032.047-.063.072-.095a2.443,2.443,0,0,1,4.137,2.576,1.607,1.607,0,0,1-.126.2,2.776,2.776,0,0,1-.681.654A2.426,2.426,0,0,1,2356.658,1289.026Z" transform="translate(-2353.079 -1282.992)"/></g><g transform="translate(339.983 558.757)"><path class="u" d="M2474.906,1313.607l-.841-.055a.187.187,0,0,1-.158-.114c-.034-.083-.073-.164-.114-.245a3.152,3.152,0,0,0-.261-.423.184.184,0,0,1-.009-.207l.461-.75a.181.181,0,0,0-.047-.241l-.646-.479a.179.179,0,0,0-.237.022l-.55.6a.179.179,0,0,1-.211.041,3.258,3.258,0,0,0-.987-.28.185.185,0,0,1-.16-.159l-.062-.489a.187.187,0,0,0-.187-.162l-.8.017a.168.168,0,0,0-.047.007.18.18,0,0,0-.131.163l-.042.628-.01.153a3.262,3.262,0,0,0-.93.507.179.179,0,0,1-.206.012l-.6-.372a.186.186,0,0,0-.247.048l-.366.494-.1.142a.188.188,0,0,0,.023.251l.5.46a.179.179,0,0,1,.045.207,3.219,3.219,0,0,0-.207.659c-.005.019-.009.038-.012.057a.087.087,0,0,1,0,.019.183.183,0,0,1-.155.132l-.794.1a.15.15,0,0,0-.026.005.187.187,0,0,0-.135.181l.016.8a.186.186,0,0,0,.173.181l.877.057a.18.18,0,0,1,.161.125,3.243,3.243,0,0,0,.2.46q.062.12.133.233a.189.189,0,0,1,0,.2l-.442.721a.18.18,0,0,0,.046.24l.64.473a.189.189,0,0,0,.252-.023l.435-.471a.186.186,0,0,1,.226-.037,3.238,3.238,0,0,0,.938.348.184.184,0,0,1,.148.158l.093.716a.19.19,0,0,0,.192.166l.793-.016a.182.182,0,0,0,.179-.171l0-.037.049-.729a.186.186,0,0,1,.132-.167h0a3.221,3.221,0,0,0,.53-.217c.092-.048.18-.1.267-.154a.183.183,0,0,1,.2,0l.613.378a.189.189,0,0,0,.251-.048l.471-.637a.208.208,0,0,0,.029-.059.189.189,0,0,0-.052-.188l-.4-.366a.189.189,0,0,1-.055-.177.2.2,0,0,1,.019-.049,3.236,3.236,0,0,0,.386-1.219.182.182,0,0,1,.127-.155l.031-.006.643-.083a.185.185,0,0,0,.161-.187v-.019l-.015-.776A.188.188,0,0,0,2474.906,1313.607Zm-5.69,1.394a2.119,2.119,0,0,1-.044-.4,1.7,1.7,0,0,1,.281-.883c.017-.023.034-.046.051-.068a1.757,1.757,0,0,1,2.976,1.853,1.154,1.154,0,0,1-.091.145,2,2,0,0,1-.49.47A1.744,1.744,0,0,1,2469.216,1315Z" transform="translate(-2466.641 -1310.66)"/></g><rect class="v" width="42.231" height="20.419" transform="translate(269.128 551.881)"/><path class="l" d="M2666.854,1253.435a10.208,10.208,0,0,1-10.209,10.21h-25.376a.985.985,0,0,1-.985-.985v-18.45a.985.985,0,0,1,.985-.985h25.376A10.209,10.209,0,0,1,2666.854,1253.435Z" transform="translate(-2273.615 -691.345)"/><g transform="translate(202.349 531.938)"><rect class="b" width="19.513" height="16.09" transform="translate(19.513 16.09) rotate(180)"/><rect class="c" width="19.513" height="16.09" transform="translate(29.269 16.09) rotate(180)"/><path class="e" d="M1116.936,1152.285h3.092l-.272-.87.272-.622h-3.092Z" transform="translate(-1116.925 -1140.276)"/><path class="d" d="M1212.508,1083.34h3.092l-.272-.87.272-.622h-3.092Z" transform="translate(-1202.751 -1078.361)"/><path class="e" d="M1185.276,1081.849h-3.092l.272.87-.272.622h3.092Z" transform="translate(-1175.52 -1078.361)"/><path class="d" d="M1376.647,1167.116h-3.092l.272.87-.272.622h3.092Z" transform="translate(-1347.378 -1154.934)"/><rect class="f" width="5.615" height="2.184" transform="translate(22.376 1.091)"/></g><g transform="translate(265.382 539.097)"><rect class="w" width="14.925" height="12.307" transform="translate(14.925 12.307) rotate(180)"/><rect class="l" width="14.925" height="12.307" transform="translate(22.388 12.307) rotate(180)"/><path class="e" d="M1735.093,1197.888h2.365l-.208-.666.208-.476h-2.365Z" transform="translate(-1735.084 -1188.702)"/><path class="d" d="M1808.2,1145.153h2.365l-.208-.665.208-.476H1808.2Z" transform="translate(-1800.733 -1141.344)"/><path class="e" d="M1787.366,1144.012H1785l.208.666-.208.475h2.365Z" transform="translate(-1779.903 -1141.344)"/><path class="d" d="M1933.745,1209.233h-2.365l.208.666-.208.476h2.365Z" transform="translate(-1911.357 -1199.916)"/><rect class="f" width="4.295" height="1.671" transform="translate(17.116 0.834)"/></g><g transform="translate(208.849 521.181)"><rect class="h" width="13.058" height="10.767" transform="translate(13.058 10.767) rotate(180)"/><rect class="i" width="13.058" height="10.767" transform="translate(19.587 10.767) rotate(180)"/><path class="j" d="M1180.645,1012.164h2.069l-.182-.582.182-.416h-2.069Z" transform="translate(-1180.637 -1004.128)"/><path class="k" d="M1244.6,966.027h2.069l-.182-.582.182-.416H1244.6Z" transform="translate(-1238.073 -962.694)"/><path class="j" d="M1226.379,965.028h-2.069l.182.582-.182.416h2.069Z" transform="translate(-1219.85 -962.694)"/><path class="k" d="M1354.446,1022.091h-2.069l.182.582-.182.416h2.069Z" transform="translate(-1334.859 -1013.939)"/><rect class="f" width="3.758" height="1.462" transform="translate(14.974 0.73)"/></g><path class="s" d="M1584.226,1448.018a.307.307,0,0,1,.2.075H1411.055v-8.415h170.358c-.1.223-.206.447-.315.669a36.135,36.135,0,0,1-4.963,7.671Z" transform="translate(-1178.704 -867.766)"/><path class="x" d="M304.976,1521.745v.014c0,.167-.092.3-.2.3H98.722c-.112,0-.2-.137-.2-.3v-.014c0-.167.092-.3.2-.3H304.772a.172.172,0,0,1,.135.078A.376.376,0,0,1,304.976,1521.745Z" transform="translate(100.849 -941.193)"/><g transform="translate(222.705 551.423)"><path class="g" d="M1476.78,1260.069H1327.124a10.668,10.668,0,1,1,0-21.336H1476.78a10.668,10.668,0,1,1,0,21.336Zm-149.657-20.42a9.752,9.752,0,1,0,0,19.5H1476.78a9.752,9.752,0,0,0,0-19.5Z" transform="translate(-1316.455 -1238.733)"/></g><g transform="translate(276.209 554.558)"><g transform="translate(0 0)"><path class="g" d="M1845.555,1278.221a4.37,4.37,0,1,1,4.37-4.37A4.375,4.375,0,0,1,1845.555,1278.221Zm0-7.823a3.454,3.454,0,1,0,3.454,3.454A3.457,3.457,0,0,0,1845.555,1270.4Z" transform="translate(-1841.185 -1269.482)"/></g><g transform="translate(0.337 0.337)"><path class="g" d="M1848.52,1280.85a4.033,4.033,0,1,1,4.033-4.033A4.038,4.038,0,0,1,1848.52,1280.85Zm0-7.823a3.79,3.79,0,1,0,3.79,3.79A3.795,3.795,0,0,0,1848.52,1273.027Z" transform="translate(-1844.487 -1272.784)"/></g><path class="l" d="M1860.627,1291.311a2.387,2.387,0,1,1,2.387,2.387A2.387,2.387,0,0,1,1860.627,1291.311Z" transform="translate(-1858.645 -1286.942)"/></g><g transform="translate(300.922 553.647)"><circle class="i" cx="2.49" cy="2.49" r="2.49" transform="translate(0 4.916) rotate(-80.783)"/><g transform="translate(0.289 0.289)"><path class="g" d="M2088.957,1268.525a2.567,2.567,0,1,1,2.567-2.567A2.57,2.57,0,0,1,2088.957,1268.525Zm0-4.98a2.413,2.413,0,1,0,2.413,2.413A2.416,2.416,0,0,0,2088.957,1263.545Z" transform="translate(-2086.39 -1263.391)"/></g><path class="h" d="M2096.664,1275.185a1.52,1.52,0,1,1,1.52,1.52A1.52,1.52,0,0,1,2096.664,1275.185Z" transform="translate(-2095.327 -1272.328)"/></g><g transform="translate(284.616 559.051)"><circle class="i" cx="5.097" cy="5.097" r="5.097" transform="matrix(0.16, -0.987, 0.987, 0.16, 0, 10.062)"/><g transform="translate(0.592 0.592)"><path class="g" d="M1934.7,1329.869a5.255,5.255,0,1,1,5.255-5.255A5.261,5.261,0,0,1,1934.7,1329.869Zm0-10.193a4.938,4.938,0,1,0,4.939,4.939A4.944,4.944,0,0,0,1934.7,1319.675Z" transform="translate(-1929.447 -1319.359)"/></g><circle class="h" cx="3.111" cy="3.111" r="3.111" transform="matrix(0.23, -0.973, 0.973, 0.23, 2.105, 8.16)"/></g></g></svg>