<svg xmlns="http://www.w3.org/2000/svg" xmlns:xlink="http://www.w3.org/1999/xlink" width="75" height="75" viewBox="0 0 75 75"><defs><style>.a{fill:none;}.b{fill:url(#a);}</style><linearGradient id="a" x1="0.5" x2="0.5" y2="1" gradientUnits="objectBoundingBox"><stop offset="0" stop-color="#00bfea"/><stop offset="1" stop-color="#006075"/></linearGradient></defs><g transform="translate(-922 -987.002)"><rect class="a" width="75" height="75" transform="translate(922 987.002)"/><g transform="translate(752.249 816.802)"><path class="b" d="M187.034,468.771a1.282,1.282,0,0,1-.92-2.174l3.4-3.5a1.281,1.281,0,0,1,1.84,1.785l-3.4,3.5A1.272,1.272,0,0,1,187.034,468.771Z" transform="translate(0 -252.78)"/><path class="b" d="M304.8,499.274a1.283,1.283,0,0,1-1.282-1.281V482.947a1.281,1.281,0,0,1,2.563,0v15.045A1.283,1.283,0,0,1,304.8,499.274Z" transform="translate(-107.676 -270.119)"/><path class="b" d="M382.645,459.122a1.283,1.283,0,0,1-1.281-1.281V439.034a1.281,1.281,0,0,1,2.563,0v18.806A1.283,1.283,0,0,1,382.645,459.122Z" transform="translate(-178.856 -229.967)"/><path class="b" d="M299.806,205.989a1.281,1.281,0,0,1-.908-2.185l3.664-3.68a4.772,4.772,0,0,1,3.373-1.484h.035a4.775,4.775,0,0,1,3.284,1.44l2.01,2.01a2.174,2.174,0,0,0,1.471.654h.036a2.174,2.174,0,0,0,1.516-.654l13.285-13.282h-5.54a1.281,1.281,0,0,1,0-2.563h5.129a4.706,4.706,0,0,1,4.7,4.7v5.043a1.281,1.281,0,1,1-2.563,0V190.7l-13.2,13.2a4.754,4.754,0,0,1-3.329,1.4h-.083a4.693,4.693,0,0,1-3.236-1.4l-2.01-2.01a2.232,2.232,0,0,0-1.494-.689h-.015a2.227,2.227,0,0,0-1.536.712l-3.682,3.7A1.273,1.273,0,0,1,299.806,205.989Z" transform="translate(-103.113)"/><path class="b" d="M225.95,581.406a1.283,1.283,0,0,1-1.281-1.281v-7.352a1.281,1.281,0,0,1,2.563,0v7.352A1.283,1.283,0,0,1,225.95,581.406Z" transform="translate(-35.582 -352.251)"/><path class="b" d="M618.185,385.2a1.283,1.283,0,0,1-1.282-1.281v-25.73a1.281,1.281,0,1,1,2.563,0v25.73A1.283,1.283,0,0,1,618.185,385.2Z" transform="translate(-394.222 -156.049)"/><path class="b" d="M460.492,481.936a1.283,1.283,0,0,1-1.281-1.281V463.985a1.281,1.281,0,0,1,2.563,0v16.669A1.283,1.283,0,0,1,460.492,481.936Z" transform="translate(-250.036 -252.781)"/><path class="b" d="M539.339,447.258a1.283,1.283,0,0,1-1.281-1.281V426.059a1.281,1.281,0,0,1,2.563,0v19.918A1.283,1.283,0,0,1,539.339,447.258Z" transform="translate(-322.13 -218.104)"/></g></g></svg>