<svg xmlns="http://www.w3.org/2000/svg" xmlns:xlink="http://www.w3.org/1999/xlink" width="182.032" height="114.87" viewBox="0 0 182.032 114.87"><defs><style>.a{fill:#92b4d1;opacity:0.2;}.b{fill:#2672ab;}.c{fill:#d1ebff;}.d,.e,.y{fill:#3f92d1;}.d,.u{opacity:0.5;}.f,.g,.m{fill:#fff;}.g{opacity:0.3;}.h{fill:#a8cff0;}.i{fill:#72b5e8;}.j{fill:#03336e;}.k{fill:#022652;}.l{fill:#4f9fdb;}.m,.y{mix-blend-mode:screen;isolation:isolate;}.n,.p{fill:#001a46;}.n{opacity:0.1;}.o{fill:#fc0;}.q{fill:url(#a);}.r{fill:#084c94;}.s{fill:#e6f4ff;}.t{fill:#eb4680;}.u{fill:#231f20;}.v{fill:#f779a5;}.w{fill:#ffde17;}.x{fill:url(#b);}</style><linearGradient id="a" x1="-4.862" y1="18.954" x2="-3.708" y2="18.954" gradientUnits="objectBoundingBox"><stop offset="0" stop-color="#311b61"/><stop offset="0.203" stop-color="#290e52"/><stop offset="0.495" stop-color="#200041"/><stop offset="1" stop-color="#0f001f"/></linearGradient><linearGradient id="b" x1="72.367" y1="-0.51" x2="72.012" y2="0.643" gradientUnits="objectBoundingBox"><stop offset="0.035" stop-color="#1e1f21"/><stop offset="0.31" stop-color="#2c2d30"/><stop offset="0.84" stop-color="#505358"/><stop offset="1" stop-color="#5d6066"/></linearGradient></defs><g transform="translate(-253.95 -99.897)"><g transform="translate(301.308 100.231)"><g transform="translate(0 0)"><path class="a" d="M410.716,265.088l-50.429-29.115c-1.991-1.15-1.742-3.158.557-4.486l28.619-16.523c2.3-1.327,5.778-1.472,7.769-.322l50.429,29.115c1.991,1.15,1.742,3.158-.558,4.486l-28.619,16.524C416.186,266.093,412.708,266.238,410.716,265.088Z" transform="translate(-358.943 -162.793)"/><path class="b" d="M410.717,260.8l-50.429-29.115a2.323,2.323,0,0,1-1.344-1.912c0-.023,0-2.475,0-2.5.016-.872.66.642,1.9-.075l28.619-16.523c2.3-1.327,5.778-1.472,7.769-.322l50.429,29.115c.664.384,1.147-1.245,1.319-.727.058.172.021,2.458.025,2.637a3.165,3.165,0,0,1-1.9,2.576l-28.619,16.523C416.186,261.8,412.708,261.948,410.717,260.8Z" transform="translate(-358.943 -160.438)"/><path class="c" d="M410.716,255.362l-50.429-29.115c-1.991-1.15-1.742-3.158.557-4.486l28.619-16.523c2.3-1.327,5.778-1.472,7.769-.322l50.429,29.115c1.991,1.15,1.742,3.158-.558,4.486L418.486,255.04C416.186,256.367,412.708,256.512,410.716,255.362Z" transform="translate(-358.943 -157.454)"/><path class="d" d="M473.726,319.761c1.991,1.15,5.47,1.005,7.769-.322v-2.452c-2.3,1.327-5.778,1.472-7.769.322Z" transform="translate(-421.953 -219.401)"/><path class="e" d="M410.717,279.716,360.288,250.6a2.248,2.248,0,0,1-1.334-2.1,1,1,0,0,0-.01.137c0,.023,0,2.475,0,2.5a2.323,2.323,0,0,0,1.344,1.912l50.429,29.115Z" transform="translate(-358.943 -181.808)"/><path class="f" d="M447.106,262.351l-28.619,16.523c-2.3,1.327-5.778,1.472-7.769.322l-50.429-29.115a2.382,2.382,0,0,1-1.329-1.765,2.224,2.224,0,0,0,1.329,2.181l50.429,29.115c1.991,1.15,5.47,1.005,7.769-.322l28.619-16.523c1.345-.777,1.983-1.786,1.887-2.721A3.393,3.393,0,0,1,447.106,262.351Z" transform="translate(-358.944 -181.704)"/><path class="g" d="M426.138,276.58l-17.947-10.362c-.359-.207-.314-.57.1-.81l6.738-3.89a1.559,1.559,0,0,1,1.4-.058l17.947,10.362c.359.207.314.57-.1.81l-6.738,3.89A1.558,1.558,0,0,1,426.138,276.58Z" transform="translate(-385.844 -188.843)"/><path class="h" d="M408.3,265.834l6.738-3.89a1.559,1.559,0,0,1,1.4-.058l17.947,10.362a.546.546,0,0,1,.166.145.375.375,0,0,0-.166-.571L416.436,261.46a1.561,1.561,0,0,0-1.4.058l-6.738,3.89c-.33.191-.422.458-.266.664A.783.783,0,0,1,408.3,265.834Z" transform="translate(-385.848 -188.843)"/><path class="i" d="M415.507,212.953l3.093,1.786a1.57,1.57,0,0,0,1.42,0,.433.433,0,0,0,0-.82l-3.093-1.786a1.569,1.569,0,0,0-1.42,0A.433.433,0,0,0,415.507,212.953Zm5.3,3.057,1.465.846a1.568,1.568,0,0,0,1.42,0,.433.433,0,0,0,0-.82l-1.465-.846a1.569,1.569,0,0,0-1.42,0A.433.433,0,0,0,420.8,216.01Zm3.668,2.118,1.465.846a1.569,1.569,0,0,0,1.42,0,.433.433,0,0,0,0-.82l-1.465-.846a1.57,1.57,0,0,0-1.42,0A.433.433,0,0,0,424.471,218.128Zm3.668,2.118,1.465.846a1.569,1.569,0,0,0,1.42,0,.433.433,0,0,0,0-.82l-1.465-.846a1.569,1.569,0,0,0-1.42,0A.433.433,0,0,0,428.139,220.246Zm3.668,2.118,1.465.846a1.569,1.569,0,0,0,1.42,0,.433.433,0,0,0,0-.82l-1.465-.846a1.57,1.57,0,0,0-1.42,0A.433.433,0,0,0,431.806,222.363Zm3.668,2.118,1.465.846a1.569,1.569,0,0,0,1.42,0,.433.433,0,0,0,0-.82l-1.465-.846a1.569,1.569,0,0,0-1.42,0A.433.433,0,0,0,435.474,224.481Zm3.668,2.117,1.465.846a1.57,1.57,0,0,0,1.42,0,.433.433,0,0,0,0-.82l-1.465-.846a1.569,1.569,0,0,0-1.42,0A.433.433,0,0,0,439.142,226.6Zm3.668,2.118,1.465.846a1.57,1.57,0,0,0,1.42,0,.433.433,0,0,0,0-.82l-1.465-.846a1.568,1.568,0,0,0-1.42,0A.433.433,0,0,0,442.81,228.716Zm3.668,2.118,1.465.846a1.569,1.569,0,0,0,1.42,0,.433.433,0,0,0,0-.82l-1.465-.846a1.569,1.569,0,0,0-1.42,0A.433.433,0,0,0,446.478,230.834Zm3.668,2.118,1.465.846a1.57,1.57,0,0,0,1.42,0,.433.433,0,0,0,0-.82l-1.465-.846a1.57,1.57,0,0,0-1.42,0A.433.433,0,0,0,450.146,232.951Zm3.668,2.118,1.465.846a1.569,1.569,0,0,0,1.42,0,.432.432,0,0,0,0-.82l-1.465-.846a1.569,1.569,0,0,0-1.42,0A.433.433,0,0,0,453.814,235.069Zm3.668,2.118,1.465.846a1.569,1.569,0,0,0,1.42,0,.433.433,0,0,0,0-.82l-1.465-.846a1.57,1.57,0,0,0-1.42,0A.433.433,0,0,0,457.482,237.187Zm3.744,2.161,1.465.846a1.57,1.57,0,0,0,1.42,0,.433.433,0,0,0,0-.82l-1.465-.846a1.569,1.569,0,0,0-1.42,0A.433.433,0,0,0,461.226,239.348Zm-49.018-24.377,1.268.732a1.788,1.788,0,0,0,1.616,0l1.261-.728a.493.493,0,0,0,0-.933l-1.269-.733a1.786,1.786,0,0,0-1.616,0l-1.261.728A.493.493,0,0,0,412.208,214.971Zm6.552,2.853,1.261-.728a.492.492,0,0,0-.005-.933l-1.268-.733a1.785,1.785,0,0,0-1.616,0l-1.26.728a.493.493,0,0,0,0,.933l1.268.732A1.787,1.787,0,0,0,418.761,217.824Zm.783,1.382,1.268.732a1.787,1.787,0,0,0,1.616,0l1.26-.728a.492.492,0,0,0,0-.933l-1.268-.733a1.785,1.785,0,0,0-1.616,0l-1.26.728A.493.493,0,0,0,419.544,219.206Zm3.668,2.118,1.268.732a1.787,1.787,0,0,0,1.616,0l1.26-.728a.492.492,0,0,0,0-.933l-1.268-.732a1.787,1.787,0,0,0-1.616,0l-1.261.728A.493.493,0,0,0,423.212,221.324Zm7.808,1.192-1.268-.733a1.787,1.787,0,0,0-1.616,0l-1.261.728a.492.492,0,0,0,0,.933l1.269.733a1.786,1.786,0,0,0,1.616,0l1.261-.728A.492.492,0,0,0,431.02,222.516Zm3.668,2.117-1.268-.732a1.786,1.786,0,0,0-1.616,0l-1.261.728a.492.492,0,0,0,0,.933l1.268.732a1.785,1.785,0,0,0,1.616,0l1.261-.728A.493.493,0,0,0,434.687,224.633Zm3.668,2.118-1.268-.732a1.787,1.787,0,0,0-1.616,0l-1.26.728a.492.492,0,0,0,0,.933l1.268.733a1.785,1.785,0,0,0,1.616,0l1.261-.728A.493.493,0,0,0,438.355,226.751Zm3.668,2.118-1.268-.732a1.787,1.787,0,0,0-1.616,0l-1.26.728a.493.493,0,0,0,0,.933l1.268.732a1.785,1.785,0,0,0,1.616,0l1.26-.728A.493.493,0,0,0,442.023,228.869Zm3.668,2.118-1.268-.732a1.787,1.787,0,0,0-1.616,0l-1.261.728a.493.493,0,0,0,.005.933l1.268.733a1.785,1.785,0,0,0,1.616,0l1.26-.728A.493.493,0,0,0,445.691,230.987Zm3.668,2.118-1.268-.733a1.785,1.785,0,0,0-1.616,0l-1.261.728a.493.493,0,0,0,0,.933l1.268.732a1.785,1.785,0,0,0,1.616,0l1.261-.728A.492.492,0,0,0,449.359,233.1Zm-.472,3.043,1.268.732a1.787,1.787,0,0,0,1.616,0l1.261-.728a.492.492,0,0,0-.005-.933l-1.268-.733a1.785,1.785,0,0,0-1.616,0l-1.26.728A.493.493,0,0,0,448.887,236.148Zm7.808,1.192-1.268-.733a1.785,1.785,0,0,0-1.616,0l-1.26.728a.493.493,0,0,0,0,.933l1.268.732a1.787,1.787,0,0,0,1.616,0l1.26-.728A.492.492,0,0,0,456.695,237.34Zm5.372,3.1-2.9-1.672a1.787,1.787,0,0,0-1.616,0l-1.26.728a.492.492,0,0,0,.005.933l2.9,1.672a1.787,1.787,0,0,0,1.616,0l1.261-.728A.492.492,0,0,0,462.067,240.441Zm-53.256-23.509,2.9,1.673a1.786,1.786,0,0,0,1.616,0l1.26-.728a.493.493,0,0,0,0-.933l-2.9-1.672a1.787,1.787,0,0,0-1.616,0l-1.261.728A.492.492,0,0,0,408.811,216.932Zm5.3,3.058,1.268.733a1.785,1.785,0,0,0,1.616,0l1.261-.728a.493.493,0,0,0,0-.933l-1.268-.732a1.785,1.785,0,0,0-1.616,0l-1.261.728A.493.493,0,0,0,414.107,219.99Zm4.936,2.85a1.788,1.788,0,0,0,1.616,0l1.261-.728a.493.493,0,0,0-.005-.933l-1.268-.732a1.787,1.787,0,0,0-1.616,0l-1.26.728a.493.493,0,0,0,0,.933Zm3.668,2.117a1.787,1.787,0,0,0,1.616,0l1.26-.728a.492.492,0,0,0,0-.933l-1.268-.733a1.785,1.785,0,0,0-1.616,0l-1.26.728a.493.493,0,0,0,0,.933Zm3.655-.275-1.26.728a.493.493,0,0,0,0,.933l1.268.732a1.787,1.787,0,0,0,1.616,0l1.26-.728a.492.492,0,0,0,0-.933l-1.268-.732A1.785,1.785,0,0,0,426.366,224.682Zm3.746,2.073-1.416.817a.445.445,0,0,0,0,.843l1.424.822a1.613,1.613,0,0,0,1.461,0l1.415-.817a.445.445,0,0,0,0-.843l-1.424-.822A1.615,1.615,0,0,0,430.111,226.755Zm3.668,2.118-1.415.817a.445.445,0,0,0,0,.843l1.424.822a1.615,1.615,0,0,0,1.461,0l1.416-.817a.445.445,0,0,0,0-.843l-1.424-.822A1.616,1.616,0,0,0,433.779,228.873Zm3.668,2.118-1.415.817a.445.445,0,0,0,0,.843l1.424.823a1.615,1.615,0,0,0,1.461,0l1.415-.817a.445.445,0,0,0,0-.843l-1.424-.822A1.613,1.613,0,0,0,437.447,230.99Zm3.668,2.118-1.415.817a.445.445,0,0,0,0,.843l1.424.823a1.616,1.616,0,0,0,1.461,0l1.415-.817a.445.445,0,0,0,0-.843l-1.424-.822A1.613,1.613,0,0,0,441.115,233.108Zm3.668,2.118-1.415.817a.445.445,0,0,0,0,.843l1.424.823a1.615,1.615,0,0,0,1.461,0l1.415-.817a.445.445,0,0,0,0-.843l-1.424-.822A1.613,1.613,0,0,0,444.783,235.226Zm5.142,4.6,1.415-.817a.445.445,0,0,0,0-.843l-1.424-.822a1.613,1.613,0,0,0-1.461,0l-1.416.817a.445.445,0,0,0,0,.843l1.424.822A1.614,1.614,0,0,0,449.925,239.829Zm3.668,2.118,1.416-.817a.445.445,0,0,0-.005-.843l-1.424-.822a1.613,1.613,0,0,0-1.461,0l-1.415.817a.445.445,0,0,0,0,.843l1.424.822A1.613,1.613,0,0,0,453.592,241.946Zm5.155.5-1.424-.822a1.615,1.615,0,0,0-1.461,0l-1.415.817a.445.445,0,0,0,0,.843l1.424.822a1.615,1.615,0,0,0,1.461,0l1.416-.817A.445.445,0,0,0,458.747,242.447Zm-53.412-23.6,4.6,2.655a1.616,1.616,0,0,0,1.461,0l1.415-.817a.445.445,0,0,0,0-.843l-4.6-2.655a1.615,1.615,0,0,0-1.461,0l-1.415.817A.445.445,0,0,0,405.336,218.849Zm6.842,3.95,1.424.822a1.613,1.613,0,0,0,1.461,0l1.416-.817a.445.445,0,0,0,0-.843l-1.424-.822a1.613,1.613,0,0,0-1.461,0l-1.415.817A.445.445,0,0,0,412.178,222.8Zm3.668,2.118,1.424.822a1.613,1.613,0,0,0,1.461,0l1.415-.817a.445.445,0,0,0,0-.843l-1.424-.822a1.613,1.613,0,0,0-1.461,0l-1.415.817A.445.445,0,0,0,415.846,224.917Zm3.668,2.118,1.424.822a1.613,1.613,0,0,0,1.461,0l1.415-.817a.445.445,0,0,0,0-.843l-1.424-.822a1.613,1.613,0,0,0-1.461,0l-1.415.817A.445.445,0,0,0,419.514,227.034Zm6.553,2.943,1.415-.817a.445.445,0,0,0,0-.843l-1.424-.823a1.615,1.615,0,0,0-1.461,0l-1.416.817a.445.445,0,0,0,0,.843l1.424.822A1.613,1.613,0,0,0,426.067,229.977Zm3.668,2.118,1.416-.817a.445.445,0,0,0,0-.843l-1.424-.823a1.615,1.615,0,0,0-1.461,0l-1.416.817a.445.445,0,0,0,0,.843l1.424.822A1.613,1.613,0,0,0,429.734,232.095Zm3.668,2.118,1.415-.817a.445.445,0,0,0,0-.843l-1.424-.822a1.615,1.615,0,0,0-1.461,0l-1.415.817a.445.445,0,0,0,0,.843l1.424.822A1.615,1.615,0,0,0,433.4,234.213Zm3.668,2.118,1.415-.817a.445.445,0,0,0,0-.843l-1.424-.822a1.615,1.615,0,0,0-1.461,0l-1.415.817a.445.445,0,0,0,0,.843l1.424.822A1.615,1.615,0,0,0,437.07,236.33Zm3.668,2.118,1.415-.817a.445.445,0,0,0,0-.843l-1.424-.822a1.613,1.613,0,0,0-1.461,0l-1.415.817a.445.445,0,0,0,0,.843l1.424.823A1.615,1.615,0,0,0,440.738,238.448Zm3.668,2.117,1.415-.817a.445.445,0,0,0,0-.843l-1.424-.822a1.613,1.613,0,0,0-1.46,0l-1.416.817a.445.445,0,0,0,0,.843l1.424.823A1.616,1.616,0,0,0,444.406,240.565Zm.783,1.293,1.424.823a1.615,1.615,0,0,0,1.461,0l1.416-.817a.445.445,0,0,0,0-.843l-1.424-.822a1.613,1.613,0,0,0-1.461,0l-1.415.817A.445.445,0,0,0,445.189,241.858Zm10.162,2.551-3.622-2.091a1.613,1.613,0,0,0-1.461,0l-1.415.817a.445.445,0,0,0,0,.843l3.622,2.091a1.613,1.613,0,0,0,1.461,0l1.416-.817A.445.445,0,0,0,455.351,244.409Zm-53.4-23.5,6.525,3.767a1.822,1.822,0,0,0,1.649,0l1.227-.708a.5.5,0,0,0,0-.953l-6.525-3.767a1.823,1.823,0,0,0-1.65,0l-1.226.708A.5.5,0,0,0,401.953,220.912Zm8.958,5.172,1.235.713a1.823,1.823,0,0,0,1.65,0l1.227-.708a.5.5,0,0,0,0-.953l-1.235-.713a1.824,1.824,0,0,0-1.65,0l-1.227.709A.5.5,0,0,0,410.911,226.084Zm3.668,2.117,1.235.713a1.823,1.823,0,0,0,1.65,0l1.227-.708a.5.5,0,0,0-.005-.953l-1.235-.713a1.823,1.823,0,0,0-1.65,0l-1.227.709A.5.5,0,0,0,414.579,228.2Zm3.668,2.118,1.235.713a1.823,1.823,0,0,0,1.65,0l1.227-.708a.5.5,0,0,0-.005-.953l-1.235-.713a1.824,1.824,0,0,0-1.65,0l-1.226.709A.5.5,0,0,0,418.247,230.319Zm3.668,2.118,1.235.713a1.826,1.826,0,0,0,1.65,0l1.226-.708a.5.5,0,0,0,0-.953l-1.235-.713a1.824,1.824,0,0,0-1.65,0l-1.227.708A.5.5,0,0,0,421.915,232.437Zm3.668,2.118,1.235.713a1.823,1.823,0,0,0,1.65,0l1.227-.708a.5.5,0,0,0,0-.953l-1.235-.713a1.824,1.824,0,0,0-1.65,0l-1.227.708A.5.5,0,0,0,425.583,234.554Zm3.668,2.118,1.235.713a1.824,1.824,0,0,0,1.65,0l1.227-.709a.5.5,0,0,0-.005-.952l-1.234-.713a1.824,1.824,0,0,0-1.65,0l-1.227.708A.5.5,0,0,0,429.25,236.672Zm3.668,2.118,1.235.713a1.824,1.824,0,0,0,1.65,0l1.227-.709a.5.5,0,0,0-.005-.952l-1.235-.713a1.823,1.823,0,0,0-1.65,0l-1.227.708A.5.5,0,0,0,432.918,238.79Zm3.668,2.118,1.235.713a1.824,1.824,0,0,0,1.65,0l1.227-.709a.5.5,0,0,0-.005-.952l-1.235-.713a1.823,1.823,0,0,0-1.65,0l-1.226.708A.5.5,0,0,0,436.586,240.908Zm3.668,2.118,1.235.713a1.823,1.823,0,0,0,1.65,0l1.227-.709a.5.5,0,0,0,0-.953l-1.235-.713a1.823,1.823,0,0,0-1.65,0l-1.227.708A.5.5,0,0,0,440.254,243.025Zm3.668,2.118,1.234.713a1.823,1.823,0,0,0,1.65,0l1.227-.708a.5.5,0,0,0,0-.953l-1.235-.713a1.823,1.823,0,0,0-1.65,0l-1.227.708A.5.5,0,0,0,443.922,245.143Zm7.855,1.219-1.235-.713a1.823,1.823,0,0,0-1.65,0l-1.227.708a.5.5,0,0,0,.005.953l1.235.713a1.823,1.823,0,0,0,1.65,0l1.226-.708A.5.5,0,0,0,451.777,246.362Zm-47.488-23.494-2.862-1.653a1.823,1.823,0,0,0-1.65,0l-1.227.708a.5.5,0,0,0,0,.953l2.862,1.653a1.824,1.824,0,0,0,1.65,0l1.227-.709A.5.5,0,0,0,404.289,222.868Zm3.668,2.117-1.235-.713a1.822,1.822,0,0,0-1.649,0l-1.227.708a.5.5,0,0,0,0,.953l1.235.713a1.823,1.823,0,0,0,1.65,0l1.227-.708A.5.5,0,0,0,407.957,224.985Zm3.668,2.118-1.235-.713a1.823,1.823,0,0,0-1.65,0l-1.227.708a.5.5,0,0,0,.005.953l1.235.713a1.823,1.823,0,0,0,1.65,0l1.226-.708A.5.5,0,0,0,411.625,227.1ZM437.3,241.926l-23.242-13.418a1.824,1.824,0,0,0-1.65,0l-1.227.709a.5.5,0,0,0,.005.952l23.241,13.419a1.824,1.824,0,0,0,1.65,0l1.227-.709A.5.5,0,0,0,437.3,241.926Zm3.668,2.118-1.235-.713a1.822,1.822,0,0,0-1.65,0l-1.227.708a.5.5,0,0,0,0,.953l1.235.713a1.824,1.824,0,0,0,1.65,0l1.227-.709A.5.5,0,0,0,440.968,244.044Zm3.668,2.118-1.235-.713a1.824,1.824,0,0,0-1.65,0l-1.226.709a.5.5,0,0,0,0,.953l1.235.713a1.823,1.823,0,0,0,1.65,0l1.227-.708A.5.5,0,0,0,444.636,246.162Zm3.744,2.162-1.235-.713a1.824,1.824,0,0,0-1.65,0l-1.227.708a.5.5,0,0,0,.005.953l1.235.713a1.824,1.824,0,0,0,1.65,0l1.226-.708A.5.5,0,0,0,448.38,248.324Z" transform="translate(-380.499 -161.749)"/><path class="h" d="M415.507,212.2l3.093,1.786a1.57,1.57,0,0,0,1.42,0,.433.433,0,0,0,0-.82l-3.093-1.786a1.569,1.569,0,0,0-1.42,0A.433.433,0,0,0,415.507,212.2Zm5.3,3.058,1.465.846a1.569,1.569,0,0,0,1.42,0,.433.433,0,0,0,0-.82l-1.465-.846a1.569,1.569,0,0,0-1.42,0A.433.433,0,0,0,420.8,215.253Zm3.668,2.118,1.465.846a1.57,1.57,0,0,0,1.42,0,.433.433,0,0,0,0-.82l-1.465-.846a1.569,1.569,0,0,0-1.42,0A.433.433,0,0,0,424.471,217.371Zm3.668,2.118,1.465.846a1.57,1.57,0,0,0,1.42,0,.433.433,0,0,0,0-.82l-1.465-.846a1.568,1.568,0,0,0-1.42,0A.433.433,0,0,0,428.139,219.488Zm3.668,2.117,1.465.846a1.569,1.569,0,0,0,1.42,0,.433.433,0,0,0,0-.82l-1.465-.846a1.568,1.568,0,0,0-1.42,0A.433.433,0,0,0,431.806,221.606Zm3.668,2.118,1.465.846a1.569,1.569,0,0,0,1.42,0,.433.433,0,0,0,0-.82l-1.465-.846a1.569,1.569,0,0,0-1.42,0A.433.433,0,0,0,435.474,223.723Zm3.668,2.118,1.465.846a1.569,1.569,0,0,0,1.42,0,.433.433,0,0,0,0-.82l-1.465-.846a1.569,1.569,0,0,0-1.42,0A.433.433,0,0,0,439.142,225.841Zm3.668,2.118,1.465.846a1.569,1.569,0,0,0,1.42,0,.433.433,0,0,0,0-.82l-1.465-.846a1.57,1.57,0,0,0-1.42,0A.433.433,0,0,0,442.81,227.959Zm3.668,2.118,1.465.846a1.569,1.569,0,0,0,1.42,0,.433.433,0,0,0,0-.82l-1.465-.846a1.57,1.57,0,0,0-1.42,0A.433.433,0,0,0,446.478,230.076Zm3.668,2.118,1.465.846a1.57,1.57,0,0,0,1.42,0,.433.433,0,0,0,0-.82l-1.465-.846a1.57,1.57,0,0,0-1.42,0A.433.433,0,0,0,450.146,232.194Zm3.668,2.118,1.465.846a1.57,1.57,0,0,0,1.42,0,.433.433,0,0,0,0-.82l-1.465-.846a1.569,1.569,0,0,0-1.42,0A.433.433,0,0,0,453.814,234.312Zm3.668,2.118,1.465.846a1.571,1.571,0,0,0,1.42,0,.433.433,0,0,0,0-.82l-1.465-.846a1.569,1.569,0,0,0-1.42,0A.433.433,0,0,0,457.482,236.43Zm3.744,2.161,1.465.846a1.569,1.569,0,0,0,1.42,0,.433.433,0,0,0,0-.82l-1.465-.846a1.569,1.569,0,0,0-1.42,0A.433.433,0,0,0,461.226,238.591Zm-49.018-24.378,1.268.733a1.787,1.787,0,0,0,1.616,0l1.261-.728a.493.493,0,0,0,0-.933l-1.269-.732a1.785,1.785,0,0,0-1.616,0l-1.261.728A.492.492,0,0,0,412.208,214.213Zm6.552,2.853,1.261-.728a.493.493,0,0,0-.005-.933l-1.268-.732a1.787,1.787,0,0,0-1.616,0l-1.26.728a.492.492,0,0,0,0,.933l1.268.732A1.785,1.785,0,0,0,418.761,217.066Zm.783,1.382,1.268.732a1.785,1.785,0,0,0,1.616,0l1.26-.728a.493.493,0,0,0,0-.933l-1.268-.732a1.787,1.787,0,0,0-1.616,0l-1.26.728A.492.492,0,0,0,419.544,218.449Zm3.668,2.118,1.268.733a1.785,1.785,0,0,0,1.616,0l1.26-.728a.493.493,0,0,0,0-.933l-1.268-.732a1.787,1.787,0,0,0-1.616,0l-1.261.728A.492.492,0,0,0,423.212,220.566Zm7.808,1.192-1.268-.732a1.787,1.787,0,0,0-1.616,0l-1.261.728a.493.493,0,0,0,0,.933l1.269.733a1.785,1.785,0,0,0,1.616,0l1.261-.728A.493.493,0,0,0,431.02,221.759Zm3.668,2.118-1.268-.733a1.784,1.784,0,0,0-1.616,0l-1.261.728a.493.493,0,0,0,0,.933l1.268.732a1.787,1.787,0,0,0,1.616,0l1.261-.728A.492.492,0,0,0,434.687,223.876Zm3.668,2.118-1.268-.733a1.785,1.785,0,0,0-1.616,0l-1.26.728a.493.493,0,0,0,0,.933l1.268.732a1.787,1.787,0,0,0,1.616,0l1.261-.728A.492.492,0,0,0,438.355,225.994Zm3.668,2.118-1.268-.733a1.785,1.785,0,0,0-1.616,0l-1.26.728a.493.493,0,0,0,0,.933l1.268.732a1.787,1.787,0,0,0,1.616,0l1.26-.728A.492.492,0,0,0,442.023,228.112Zm3.668,2.118-1.268-.733a1.785,1.785,0,0,0-1.616,0l-1.261.728a.493.493,0,0,0,.005.933l1.268.732a1.787,1.787,0,0,0,1.616,0l1.26-.728A.492.492,0,0,0,445.691,230.229Zm3.668,2.118-1.268-.733a1.787,1.787,0,0,0-1.616,0l-1.261.728a.493.493,0,0,0,0,.933l1.268.732a1.785,1.785,0,0,0,1.616,0l1.261-.728A.492.492,0,0,0,449.359,232.347Zm-.472,3.043,1.268.732a1.785,1.785,0,0,0,1.616,0l1.261-.728a.493.493,0,0,0-.005-.933l-1.268-.732a1.787,1.787,0,0,0-1.616,0l-1.26.728A.492.492,0,0,0,448.887,235.39Zm7.808,1.192-1.268-.732a1.787,1.787,0,0,0-1.616,0l-1.26.728a.492.492,0,0,0,0,.933l1.268.733a1.785,1.785,0,0,0,1.616,0l1.26-.728A.493.493,0,0,0,456.695,236.582Zm5.372,3.1-2.9-1.673a1.785,1.785,0,0,0-1.616,0l-1.26.728a.493.493,0,0,0,.005.933l2.9,1.672a1.787,1.787,0,0,0,1.616,0l1.261-.728A.492.492,0,0,0,462.067,239.684Zm-53.256-23.509,2.9,1.672a1.787,1.787,0,0,0,1.616,0l1.26-.728a.492.492,0,0,0,0-.933l-2.9-1.672a1.784,1.784,0,0,0-1.616,0l-1.261.728A.493.493,0,0,0,408.811,216.175Zm5.3,3.058,1.268.732a1.787,1.787,0,0,0,1.616,0l1.261-.728a.492.492,0,0,0,0-.933l-1.268-.732a1.785,1.785,0,0,0-1.616,0l-1.261.728A.493.493,0,0,0,414.107,219.233Zm4.936,2.85a1.787,1.787,0,0,0,1.616,0l1.261-.728a.493.493,0,0,0-.005-.933l-1.268-.732a1.785,1.785,0,0,0-1.616,0l-1.26.728a.492.492,0,0,0,0,.933Zm3.668,2.118a1.785,1.785,0,0,0,1.616,0l1.26-.728a.493.493,0,0,0,0-.933l-1.268-.732a1.787,1.787,0,0,0-1.616,0l-1.26.728a.492.492,0,0,0,0,.933Zm3.655-.276-1.26.728a.492.492,0,0,0,0,.933l1.268.733a1.785,1.785,0,0,0,1.616,0l1.26-.728a.493.493,0,0,0,0-.933l-1.268-.732A1.787,1.787,0,0,0,426.366,223.924ZM430.111,226l-1.416.817a.445.445,0,0,0,0,.843l1.424.823a1.615,1.615,0,0,0,1.461,0l1.415-.817a.445.445,0,0,0,0-.843L431.572,226A1.613,1.613,0,0,0,430.111,226Zm3.668,2.118-1.415.817a.445.445,0,0,0,0,.843l1.424.822a1.613,1.613,0,0,0,1.461,0l1.416-.817a.445.445,0,0,0,0-.843l-1.424-.822A1.614,1.614,0,0,0,433.779,228.115Zm3.668,2.118-1.415.817a.445.445,0,0,0,0,.843l1.424.822a1.613,1.613,0,0,0,1.461,0l1.415-.817a.445.445,0,0,0,0-.843l-1.424-.822A1.613,1.613,0,0,0,437.447,230.233Zm3.668,2.118-1.415.817a.445.445,0,0,0,0,.843l1.424.822a1.613,1.613,0,0,0,1.461,0l1.415-.817a.445.445,0,0,0,0-.843l-1.424-.823A1.615,1.615,0,0,0,441.115,232.351Zm3.668,2.118-1.415.817a.445.445,0,0,0,0,.843l1.424.822a1.613,1.613,0,0,0,1.461,0l1.415-.817a.445.445,0,0,0,0-.843l-1.424-.823A1.613,1.613,0,0,0,444.783,234.468Zm5.142,4.6,1.415-.817a.445.445,0,0,0,0-.843l-1.424-.822a1.615,1.615,0,0,0-1.461,0l-1.416.817a.445.445,0,0,0,0,.843l1.424.822A1.616,1.616,0,0,0,449.925,239.071Zm3.668,2.118,1.416-.817a.445.445,0,0,0-.005-.843l-1.424-.822a1.615,1.615,0,0,0-1.461,0l-1.415.817a.445.445,0,0,0,0,.843l1.424.822A1.615,1.615,0,0,0,453.592,241.189Zm5.155.5-1.424-.822a1.613,1.613,0,0,0-1.461,0l-1.415.817a.445.445,0,0,0,0,.843l1.424.822a1.613,1.613,0,0,0,1.461,0l1.416-.817A.445.445,0,0,0,458.747,241.69Zm-53.412-23.6,4.6,2.655a1.614,1.614,0,0,0,1.461,0l1.415-.817a.445.445,0,0,0,0-.843l-4.6-2.655a1.615,1.615,0,0,0-1.461,0l-1.415.817A.445.445,0,0,0,405.336,218.091Zm6.842,3.95,1.424.822a1.613,1.613,0,0,0,1.461,0l1.416-.817a.445.445,0,0,0,0-.843l-1.424-.823a1.615,1.615,0,0,0-1.461,0l-1.415.817A.445.445,0,0,0,412.178,222.042Zm3.668,2.118,1.424.822a1.615,1.615,0,0,0,1.461,0l1.415-.817a.445.445,0,0,0,0-.843l-1.424-.822a1.615,1.615,0,0,0-1.461,0l-1.415.817A.445.445,0,0,0,415.846,224.159Zm3.668,2.118,1.424.822a1.615,1.615,0,0,0,1.461,0l1.415-.817a.445.445,0,0,0,0-.843l-1.424-.822a1.615,1.615,0,0,0-1.461,0l-1.415.817A.445.445,0,0,0,419.514,226.277Zm6.553,2.943,1.415-.817a.445.445,0,0,0,0-.843l-1.424-.822a1.613,1.613,0,0,0-1.461,0l-1.416.817a.445.445,0,0,0,0,.843l1.424.823A1.615,1.615,0,0,0,426.067,229.22Zm3.668,2.117,1.416-.817a.445.445,0,0,0,0-.843l-1.424-.822a1.613,1.613,0,0,0-1.461,0l-1.416.817a.445.445,0,0,0,0,.843l1.424.823A1.613,1.613,0,0,0,429.734,231.337Zm3.668,2.118,1.415-.817a.445.445,0,0,0,0-.843l-1.424-.822a1.613,1.613,0,0,0-1.461,0l-1.415.817a.445.445,0,0,0,0,.843l1.424.822A1.613,1.613,0,0,0,433.4,233.455Zm3.668,2.118,1.415-.817a.445.445,0,0,0,0-.843l-1.424-.822a1.613,1.613,0,0,0-1.461,0l-1.415.817a.445.445,0,0,0,0,.843l1.424.822A1.613,1.613,0,0,0,437.07,235.573Zm3.668,2.118,1.415-.817a.445.445,0,0,0,0-.843l-1.424-.823a1.615,1.615,0,0,0-1.461,0l-1.415.817a.445.445,0,0,0,0,.843l1.424.822A1.613,1.613,0,0,0,440.738,237.69Zm3.668,2.118,1.415-.817a.445.445,0,0,0,0-.843l-1.424-.823a1.616,1.616,0,0,0-1.46,0l-1.416.817a.445.445,0,0,0,0,.843l1.424.822A1.614,1.614,0,0,0,444.406,239.808Zm.783,1.293,1.424.822a1.613,1.613,0,0,0,1.461,0l1.416-.817a.445.445,0,0,0,0-.843l-1.424-.822a1.615,1.615,0,0,0-1.461,0l-1.415.817A.445.445,0,0,0,445.189,241.1Zm10.162,2.551-3.622-2.091a1.615,1.615,0,0,0-1.461,0l-1.415.817a.445.445,0,0,0,0,.843l3.622,2.091a1.615,1.615,0,0,0,1.461,0l1.416-.817A.445.445,0,0,0,455.351,243.651Zm-53.4-23.5,6.525,3.768a1.824,1.824,0,0,0,1.649,0l1.227-.708a.5.5,0,0,0,0-.953l-6.525-3.767a1.824,1.824,0,0,0-1.65,0l-1.226.708A.5.5,0,0,0,401.953,220.154Zm8.958,5.172,1.235.713a1.824,1.824,0,0,0,1.65,0l1.227-.708a.5.5,0,0,0,0-.953l-1.235-.713a1.824,1.824,0,0,0-1.65,0l-1.227.708A.5.5,0,0,0,410.911,225.326Zm3.668,2.118,1.235.713a1.824,1.824,0,0,0,1.65,0l1.227-.708a.5.5,0,0,0-.005-.953l-1.235-.713a1.823,1.823,0,0,0-1.65,0l-1.227.708A.5.5,0,0,0,414.579,227.444Zm3.668,2.118,1.235.713a1.824,1.824,0,0,0,1.65,0l1.227-.709a.5.5,0,0,0-.005-.952l-1.235-.713a1.823,1.823,0,0,0-1.65,0l-1.226.708A.5.5,0,0,0,418.247,229.562Zm3.668,2.118,1.235.713a1.824,1.824,0,0,0,1.65,0l1.226-.709a.5.5,0,0,0,0-.953l-1.235-.713a1.823,1.823,0,0,0-1.65,0l-1.227.708A.5.5,0,0,0,421.915,231.679Zm3.668,2.118,1.235.713a1.823,1.823,0,0,0,1.65,0l1.227-.709a.5.5,0,0,0,0-.953l-1.235-.713a1.823,1.823,0,0,0-1.65,0l-1.227.708A.5.5,0,0,0,425.583,233.8Zm3.668,2.118,1.235.713a1.823,1.823,0,0,0,1.65,0l1.227-.708a.5.5,0,0,0-.005-.953l-1.234-.713a1.824,1.824,0,0,0-1.65,0l-1.227.709A.5.5,0,0,0,429.25,235.915Zm3.668,2.118,1.235.713a1.823,1.823,0,0,0,1.65,0l1.227-.708a.5.5,0,0,0-.005-.953l-1.235-.713a1.823,1.823,0,0,0-1.65,0l-1.227.709A.5.5,0,0,0,432.918,238.033Zm3.668,2.117,1.235.713a1.824,1.824,0,0,0,1.65,0l1.227-.708a.5.5,0,0,0-.005-.953l-1.235-.713a1.824,1.824,0,0,0-1.65,0l-1.226.709A.5.5,0,0,0,436.586,240.15Zm3.668,2.118,1.235.713a1.822,1.822,0,0,0,1.65,0l1.227-.708a.5.5,0,0,0,0-.953l-1.235-.713a1.824,1.824,0,0,0-1.65,0l-1.227.709A.5.5,0,0,0,440.254,242.268Zm3.668,2.118,1.234.713a1.824,1.824,0,0,0,1.65,0l1.227-.708a.5.5,0,0,0,0-.953l-1.235-.713a1.824,1.824,0,0,0-1.65,0l-1.227.708A.5.5,0,0,0,443.922,244.385Zm7.855,1.22-1.235-.713a1.824,1.824,0,0,0-1.65,0l-1.227.708a.5.5,0,0,0,.005.953l1.235.713a1.824,1.824,0,0,0,1.65,0l1.226-.708A.5.5,0,0,0,451.777,245.6ZM404.289,222.11l-2.862-1.653a1.822,1.822,0,0,0-1.65,0l-1.227.708a.5.5,0,0,0,0,.953l2.862,1.653a1.823,1.823,0,0,0,1.65,0l1.227-.708A.5.5,0,0,0,404.289,222.11Zm3.668,2.118-1.235-.713a1.823,1.823,0,0,0-1.649,0l-1.227.708a.5.5,0,0,0,0,.953l1.235.713a1.825,1.825,0,0,0,1.65,0l1.227-.708A.5.5,0,0,0,407.957,224.228Zm3.668,2.118-1.235-.713a1.824,1.824,0,0,0-1.65,0l-1.227.708a.5.5,0,0,0,.005.953l1.235.713a1.824,1.824,0,0,0,1.65,0l1.226-.708A.5.5,0,0,0,411.625,226.346ZM437.3,241.169l-23.242-13.418a1.824,1.824,0,0,0-1.65,0l-1.227.708a.5.5,0,0,0,.005.953l23.241,13.419a1.823,1.823,0,0,0,1.65,0l1.227-.708A.5.5,0,0,0,437.3,241.169Zm3.668,2.118-1.235-.713a1.823,1.823,0,0,0-1.65,0l-1.227.709a.5.5,0,0,0,0,.952l1.235.713a1.823,1.823,0,0,0,1.65,0l1.227-.708A.5.5,0,0,0,440.968,243.287Zm3.668,2.118-1.235-.713a1.824,1.824,0,0,0-1.65,0l-1.226.708a.5.5,0,0,0,0,.953l1.235.713a1.824,1.824,0,0,0,1.65,0l1.227-.708A.5.5,0,0,0,444.636,245.4Zm3.744,2.161-1.235-.713a1.823,1.823,0,0,0-1.65,0l-1.227.708a.5.5,0,0,0,.005.953l1.235.713a1.823,1.823,0,0,0,1.65,0l1.226-.708A.5.5,0,0,0,448.38,247.566Z" transform="translate(-380.499 -161.334)"/><g transform="translate(35.926)"><path class="h" d="M490.587,177.45,442,149.381a8.157,8.157,0,0,1-3.406-6.508V104.757c0-2.508,1.525-3.661,3.406-2.575l48.588,28.069a8.158,8.158,0,0,1,3.406,6.508v38.117C493.993,177.384,492.468,178.536,490.587,177.45Z" transform="translate(-438.592 -101.26)"/><path class="j" d="M493.354,178.163,445.284,150.4a5.792,5.792,0,0,1-2.45-4.852v-38.3a.6.6,0,0,1,.909-.52l.106.062,48.109,27.793a5.238,5.238,0,0,1,2.45,4.852v38.212a.652.652,0,0,1-.975.566Z" transform="translate(-440.921 -103.932)"/><path class="k" d="M491.958,134.578,443.85,106.785l-.106-.062a.6.6,0,0,0-.909.52v38.3a5.792,5.792,0,0,0,2.45,4.852l48.07,27.766.08.046a.652.652,0,0,0,.975-.566V139.43A5.238,5.238,0,0,0,491.958,134.578Zm2.068,43.064a.271.271,0,0,1-.271.269.265.265,0,0,1-.132-.036l-48.148-27.811a5.4,5.4,0,0,1-2.259-4.52v-38.3a.223.223,0,0,1,.222-.221.218.218,0,0,1,.111.032l48.217,27.856a4.939,4.939,0,0,1,2.259,4.52Z" transform="translate(-440.921 -103.932)"/><path class="e" d="M493.119,129.114,444.53,101.045a2.3,2.3,0,0,0-1.993-.292c-.071.028-1.021.532-1.088.569l0,0a2.228,2.228,0,0,1,2.119.234l48.589,28.069a8.158,8.158,0,0,1,3.406,6.508v38.117c0,1.565-.594,2.6-1.5,2.9a.563.563,0,0,0,.3-.1c.043-.025,1.074-.606,1.115-.635a3.145,3.145,0,0,0,1.05-2.673V135.622A8.157,8.157,0,0,0,493.119,129.114Z" transform="translate(-440.159 -100.636)"/><path class="l" d="M493.119,129.114,444.53,101.045a2.3,2.3,0,0,0-1.993-.292c-.071.028-1.021.532-1.088.569l0,0a2.228,2.228,0,0,1,2.119.234l48.589,28.069Z" transform="translate(-440.159 -100.636)"/><path class="m" d="M492.6,130.074l-48.589-28.069a2.26,2.26,0,0,0-2.051-.262,2.516,2.516,0,0,1,1.643.385L492.189,130.2A8.156,8.156,0,0,1,495.6,136.7v38.117c0,1.479-.533,2.482-1.355,2.837,1.051-.167,1.763-1.246,1.763-2.96V136.582A8.157,8.157,0,0,0,492.6,130.074Z" transform="translate(-440.44 -101.165)"/></g></g></g><path class="n" d="M427.284,140.971l-40.618-23.08c-.1,5.407-.01,22.35-.04,27.886-.049,8.964-1.39,16.024-11.738,24.124-3.293,2.577-17.821,10.492-29.609,16.686-4.782,2.513-5.145,3.573-7.564,5.622a47.9,47.9,0,0,1-6.99,4.443l40.349,23.332a47.978,47.978,0,0,0,7.257-4.6c2.418-2.049,2.781-4.233,7.564-6.746,11.788-6.194,31.985-18.6,35.571-20.749,4.6-2.76,5.776-4.5,5.776-11.755C427.243,170.566,427.178,146.279,427.284,140.971Z" transform="translate(-42.145 -9.878)"/><path class="f" d="M428,141.334l-40.618-23.08c-.1,2.586-.01,24.034-.04,29.569-.049,8.964-1.39,11.519-11.738,19.619-3.293,2.577-17.821,10.492-29.609,16.686-4.783,2.513-5.554,5.72-7.973,7.769-2.344,1.985-4.942,2.528-5.994,3.141l40.349,23.331c.754-.447,3.683-1.114,6.261-3.3,2.419-2.049,3.19-5.255,7.973-7.769,11.788-6.194,26.316-14.109,29.609-16.686,10.349-8.1,11.69-10.655,11.739-19.619C427.988,165.431,427.892,143.82,428,141.334Z" transform="translate(-42.86 -10.077)"/><g transform="translate(296.243 115.933)"><path class="o" d="M462.925,136.569l32.862,18.706v10.874l-32.862-18.706V136.569Zm-.651-1.12v12.372l34.164,19.447V154.9l-34.164-19.447Z" transform="translate(-410.601 -135.449)"/><path class="h" d="M462.53,169.486v6.363L477,184.086v-6.363Z" transform="translate(-410.742 -154.133)"/><path class="h" d="M497.539,246.606c8.346-6.533,10.112-8.816,10.48-14.131l-13.974-7.87c-.392,5.2-2.206,7.505-10.467,13.971Z" transform="translate(-422.296 -184.391)"/><g transform="translate(40.102 28.396)"><path class="h" d="M449.661,216.87q-.385.424-.81.857l19.8,11.082q.457-.426.859-.829Z" transform="translate(-443.335 -208.54)"/><path class="h" d="M437.576,227.847q-.463.38-.954.776l19.6,10.969c.046-.035.1-.072.138-.1.288-.225.566-.444.838-.659Z" transform="translate(-436.622 -214.566)"/><path class="h" d="M479.283,210.714c.061-.417.109-.852.144-1.309l-19.536-11c-.086.442-.187.87-.3,1.288Z" transform="translate(-449.231 -198.403)"/><path class="h" d="M441.8,224.31q-.447.389-.925.792L460.517,236.1c.329-.265.65-.525.955-.775Z" transform="translate(-438.957 -212.625)"/><path class="h" d="M456.01,208.505q-.268.5-.579.986l19.957,11.172a10.814,10.814,0,0,0,.57-.991Z" transform="translate(-446.947 -203.948)"/><path class="h" d="M458.288,203.795q-.193.545-.426,1.071l19.9,11.14a10.558,10.558,0,0,0,.338-1.12Z" transform="translate(-448.282 -201.363)"/><path class="h" d="M445.856,220.668q-.421.4-.878.818l19.708,11.032q.482-.409.92-.795Z" transform="translate(-441.209 -210.625)"/><path class="h" d="M453.093,212.843q-.334.455-.71.912l19.895,11.137c.272-.3.52-.6.749-.891Z" transform="translate(-445.274 -206.33)"/></g><path class="h" d="M351.849,279.142a17.239,17.239,0,0,1-2.689,3.054,14.8,14.8,0,0,1-1.446,1.078l34.17,19.631a13.719,13.719,0,0,0,4.058-2.233,12.349,12.349,0,0,0,1.741-2.044Z" transform="translate(-347.714 -214.329)"/><path class="h" d="M379.4,271.25c2.353-1.237,6.856-3.616,11.709-6.249l-14.252-7.962c-4.907,2.664-9.475,5.078-11.852,6.327Z" transform="translate(-357.204 -202.195)"/><g transform="translate(21.373 45.079)"><path class="h" d="M429.869,273.4l1.189-.643-34.773-19.43-1.186.648Z" transform="translate(-395.099 -245.239)"/><path class="h" d="M401.6,250.412l-1.18.651L435.194,270.5l1.184-.645Z" transform="translate(-398.017 -243.637)"/><path class="h" d="M412.123,244.517q-.574.327-1.164.661l34.806,19.456,1.172-.653Z" transform="translate(-403.805 -240.401)"/><path class="h" d="M406.878,247.475l-1.174.656L440.5,267.575l1.179-.649Z" transform="translate(-400.921 -242.024)"/><path class="h" d="M427.461,235.391c-.34.221-.705.454-1.1.7l34.907,19.523q.6-.352,1.135-.674Z" transform="translate(-412.261 -235.391)"/><path class="h" d="M422.447,238.5c-.363.22-.742.447-1.133.679l34.858,19.493c.4-.228.782-.45,1.152-.664Z" transform="translate(-409.49 -237.096)"/><path class="h" d="M417.32,241.529q-.563.329-1.152.668L451,261.669l1.164-.658Z" transform="translate(-406.665 -238.76)"/></g><g transform="translate(23.267 63.721)"><path class="h" d="M405.92,288.25l-1.2.638,18.372,10.268q.507-.357,1.082-.7Z" transform="translate(-402.271 -283.05)"/><path class="h" d="M411.319,285.382l-1.2.64L428.333,296.2l1.206-.635Z" transform="translate(-405.237 -281.475)"/><path class="h" d="M400.505,291.109l-.766.4-.443.232L418.189,302.3q.422-.4.907-.8Z" transform="translate(-399.297 -284.619)"/><path class="h" d="M422.068,279.617l-1.194.645,18.239,10.2,1.2-.639Z" transform="translate(-411.142 -278.311)"/><path class="h" d="M416.7,282.5l-1.2.642,18.228,10.191,1.2-.637Z" transform="translate(-408.194 -279.896)"/><path class="h" d="M427.417,276.721l-1.161.63-.03.016,18.252,10.209,1.2-.641Z" transform="translate(-414.08 -276.721)"/></g><g transform="translate(51.673 23.579)"><path class="h" d="M462.273,189.142l34.216,19.365V207.09l-34.216-19.365Z" transform="translate(-462.273 -187.725)"/><path class="h" d="M498.265,197.259l17.981,10.177v-1.417l-17.981-10.177Z" transform="translate(-482.031 -192.181)"/><path class="h" d="M498.265,189.456v1.534l17.981,10.177v-1.476Z" transform="translate(-482.031 -188.675)"/><path class="h" d="M498.265,203.386l17.981,10.177v-1.417l-17.981-10.177Z" transform="translate(-482.031 -195.544)"/></g></g><g transform="translate(378.792 111.183)"><path class="p" d="M595.516,136.532c-4.24-2.448-8.1-2.817-11-1.444l-2.331,1.321v.012c2.892-1.344,6.732-.963,10.946,1.47,9,5.193,16.287,17.771,16.287,28.093,0,5.01-1.718,8.567-4.515,10.308l1.563-.913c3.278-1.526,5.336-5.27,5.336-10.753C611.8,154.3,604.511,141.726,595.516,136.532Z" transform="translate(-558.976 -130.066)"/><g transform="translate(11.123)"><path class="q" d="M586.632,139.543c-8.995-5.193-16.287-1.036-16.287,9.286s7.292,22.9,16.287,28.093,16.287,1.036,16.287-9.286S595.627,144.736,586.632,139.543Z" transform="translate(-563.599 -131.718)"/><g transform="translate(11.633 5.45)"><path class="r" d="M592.821,139.238c-4.562-2.634-8.685-2.861-11.641-1.1,2.938-1.608,6.961-1.324,11.4,1.239,8.995,5.193,16.287,17.771,16.287,28.093,0,5.087-1.772,8.676-4.645,10.387,3.015-1.651,4.887-5.3,4.887-10.524C609.108,157.009,601.817,144.431,592.821,139.238Z" transform="translate(-581.18 -137.002)"/></g><ellipse class="j" cx="13.257" cy="22.962" rx="13.257" ry="22.962" transform="matrix(0.863, -0.505, 0.505, 0.863, 0, 13.381)"/><ellipse class="s" cx="12.539" cy="21.719" rx="12.539" ry="21.719" transform="matrix(0.863, -0.505, 0.505, 0.863, 1.247, 14.092)"/><ellipse class="i" cx="10.731" cy="18.588" rx="10.731" ry="18.588" transform="translate(4.387 15.882) rotate(-30.311)"/><ellipse class="s" cx="8.698" cy="15.066" rx="8.698" ry="15.066" transform="matrix(0.863, -0.505, 0.505, 0.863, 7.92, 17.897)"/><ellipse class="i" cx="6.778" cy="11.74" rx="6.778" ry="11.74" transform="matrix(0.863, -0.505, 0.505, 0.863, 11.257, 19.799)"/><ellipse class="s" cx="4.97" cy="8.609" rx="4.97" ry="8.609" transform="translate(14.397 21.59) rotate(-30.311)"/><path class="h" d="M587.943,178.459c-8.508-4.912-15.405-16.809-15.405-26.572,0-4.661,1.573-7.991,4.142-9.667-2.709,1.622-4.379,5.013-4.379,9.815,0,9.763,6.9,21.66,15.405,26.572,4.446,2.567,8.452,2.718,11.264.884C596.172,181.166,592.265,180.954,587.943,178.459Z" transform="translate(-564.672 -134.416)"/><path class="h" d="M593.686,179.95c-5.9-3.408-10.686-11.66-10.686-18.433,0-3.246,1.1-5.559,2.895-6.717-1.935,1.1-3.133,3.478-3.133,6.865,0,6.773,4.784,15.025,10.686,18.433,3.073,1.774,5.843,1.882,7.792.624C599.307,181.823,596.636,181.653,593.686,179.95Z" transform="translate(-570.415 -141.322)"/><path class="h" d="M599.26,181.482a13.456,13.456,0,0,1-6.106-10.533,4.392,4.392,0,0,1,1.571-3.784c-1.116.625-1.808,1.986-1.808,3.932a13.456,13.456,0,0,0,6.106,10.533c1.8,1.04,3.418,1.079,4.536.3C602.455,182.55,600.937,182.45,599.26,181.482Z" transform="translate(-575.989 -148.11)"/><path class="t" d="M605.641,180c0,2.375-1.678,3.331-3.747,2.137a8.258,8.258,0,0,1-3.747-6.463c0-2.375,1.678-3.331,3.747-2.137A8.257,8.257,0,0,1,605.641,180Z" transform="translate(-578.86 -151.327)"/><path class="u" d="M606.617,183.31c0,.141-.1.2-.223.127a.49.49,0,0,1-.223-.384c0-.141.1-.2.223-.127A.492.492,0,0,1,606.617,183.31Z" transform="translate(-583.266 -156.744)"/><path class="v" d="M603.475,173.542a2.789,2.789,0,0,0-2.448-.368,2.979,2.979,0,0,1,2.2.451,8.258,8.258,0,0,1,3.747,6.463,2.484,2.484,0,0,1-1.3,2.5c.938-.24,1.549-1.155,1.549-2.587A8.257,8.257,0,0,0,603.475,173.542Z" transform="translate(-580.442 -151.328)"/></g><g transform="translate(0 26.294)"><path class="o" d="M532.727,220.881l-1.389-.187a.7.7,0,0,1-.092-1.376l7.786-2.128Z" transform="translate(-530.729 -201.865)"/><path class="w" d="M532.784,220.745l-1.389-.187a.7.7,0,0,1-.583-.894.7.7,0,0,0,.528,1.03l1.389.187,6.306-3.691-.333.091Z" transform="translate(-530.731 -201.865)"/><path class="f" d="M531.415,220.679l1.389.187,6.027-3.528-.088.024-5.918,3.464-1.389-.187a.7.7,0,0,1-.583-.894c-.008.016-.015.032-.022.048A.7.7,0,0,0,531.415,220.679Z" transform="translate(-530.772 -201.946)"/><g transform="translate(27.709)"><path class="o" d="M598.938,183.4a.071.071,0,0,1-.028.064,9.364,9.364,0,0,1-2.722,2.194,22.112,22.112,0,0,1-3.2,1.707c-.074.042-.027-.051-.139-.115a.891.891,0,0,1-.4-.7c0-.127-.117-.128-.046-.17a25.532,25.532,0,0,1,3.084-1.912,9.07,9.07,0,0,1,3.286-1.253.072.072,0,0,1,.071.008A.222.222,0,0,1,598.938,183.4Z" transform="translate(-592.277 -183.213)"/><path class="w" d="M592.97,190.944c0,.257-.181.359-.4.231a.892.892,0,0,1-.4-.7c0-.257.181-.36.4-.231A.892.892,0,0,1,592.97,190.944Z" transform="translate(-592.161 -187.044)"/></g><g transform="translate(0.897 3.191)"><path class="b" d="M560.369,191.007a.272.272,0,0,1-.109.245L533.5,206.926c-.07.039-.025-.05-.131-.111a.851.851,0,0,1-.386-.666c0-.121-.112-.122-.043-.162l26.772-15.676a.276.276,0,0,1,.269.03A.851.851,0,0,1,560.369,191.007Z" transform="translate(-532.828 -190.288)"/><path class="e" d="M533.489,225.763c0,.245-.173.343-.386.22a.851.851,0,0,1-.386-.666c0-.245.173-.344.386-.221A.851.851,0,0,1,533.489,225.763Z" transform="translate(-532.717 -209.367)"/></g><path class="w" d="M533.5,219.217l6.441-3.71-5.027-.412a2.174,2.174,0,0,0-1.9,3.5Z" transform="translate(-531.732 -200.71)"/><path class="o" d="M533.724,219.172l6.441-3.711-5.027-.411a2.174,2.174,0,0,0-1.9,3.5Z" transform="translate(-531.856 -200.685)"/><path class="f" d="M533.336,218.586a2.174,2.174,0,0,1,1.9-3.5l4.881.4.05-.029-5.027-.411a2.174,2.174,0,0,0-1.9,3.5l.483.627.044-.026Z" transform="translate(-531.856 -200.685)"/><path class="w" d="M535.549,221.473l.158.568a1.818,1.818,0,0,0,3.285.489l3-4.71Z" transform="translate(-533.375 -202.211)"/><path class="o" d="M535.77,221.293l.158.568a1.818,1.818,0,0,0,3.285.489l3-4.71Z" transform="translate(-533.496 -202.112)"/><path class="f" d="M539.268,222.255a1.818,1.818,0,0,1-3.285-.489l-.143-.513-.07.04.158.568a1.818,1.818,0,0,0,3.285.489l3-4.71-.01.005Z" transform="translate(-533.496 -202.112)"/></g></g><g transform="translate(253.95 99.897)"><path class="r" d="M398.989,151.031l5.139-5.42a1.163,1.163,0,0,1,1.012-.373.971.971,0,0,1,.353.132L409.908,148a1.277,1.277,0,0,1,.623,1.1v4.824a1.251,1.251,0,0,1-.052.354,1.751,1.751,0,0,1-1.372,1.181l-7,1.338Z" transform="translate(-333.568 -124.78)"/><path class="b" d="M402.231,160.094v2.929a.733.733,0,0,1-1.1.635l-2.534-1.463a.733.733,0,0,1-.367-.635v-2.977a.733.733,0,0,1,1.109-.63l2.534,1.511A.732.732,0,0,1,402.231,160.094Z" transform="translate(-333.152 -131.709)"/><g transform="translate(54.647 26.712)"><path class="e" d="M389.35,163.025a1.261,1.261,0,0,1-.528,1.145l-10.1,5.562c-.413.231-.657-.009-1.332-.4a4.677,4.677,0,0,1-2.255-3.557c0-.611-.168-.81.227-.988.03-.014,10.172-5.6,10.2-5.608a1.9,1.9,0,0,1,1.524.287A4.677,4.677,0,0,1,389.35,163.025Z" transform="translate(-375.105 -159.119)"/><path d="M383.29,173.707c0,1.259-1.021,1.691-2.281.964a4.73,4.73,0,0,1-2.281-3.6c0-1.259,1.021-1.691,2.281-.964A4.731,4.731,0,0,1,383.29,173.707Z" transform="translate(-377.094 -164.958)"/></g><g transform="translate(23.174 24.294)"><path class="h" d="M316.269,198.32v21.115l-10.941-6.315V191.8Z" transform="translate(-305.328 -174.639)"/><path class="b" d="M316.435,200.394l-9.411-5.613v19.536l9.411,5.432Z" transform="translate(-306.259 -176.278)"/><path class="i" d="M329.518,185.291v21.115l29.563-17.021V168.06Z" transform="translate(-318.607 -161.61)"/><path class="r" d="M359.247,190.563V171.011l-28.033,16.34V206.7Z" transform="translate(-319.538 -163.229)"/><path class="c" d="M345.8,160.21,316.239,177.44l-10.911-6.525,29.615-17.157Z" transform="translate(-305.328 -153.759)"/><path class="b" d="M346.129,161.282l-9.355-5.558-28.1,16.28,9.408,5.626Z" transform="translate(-307.163 -154.838)"/></g><g transform="translate(46.224 33.71)"><path class="h" d="M357.931,196.927v11.15l-1.5-.847v-11.2Z" transform="translate(-356.429 -186.377)"/><path class="i" d="M359.742,186.258v11.15l16.645-9.614v-11.2Z" transform="translate(-358.247 -175.708)"/><path class="c" d="M374.569,175.516l-16.645,9.668-1.494-.9,16.659-9.649Z" transform="translate(-356.429 -174.634)"/></g><g transform="translate(27.897 14.555)"><path class="h" d="M323.424,160.325v14.718l-7.626-4.4V155.777Z" transform="translate(-315.798 -145.128)"/><path class="e" d="M332.659,152.837v14.718L350.978,157V142.135Z" transform="translate(-325.054 -137.639)"/><path class="x" d="M341.722,136.663l-18.319,10.7-7.605-4.548,18.355-10.65Z" transform="translate(-315.798 -132.167)"/></g><g transform="translate(34.282 0)"><ellipse class="h" cx="13.522" cy="7.65" rx="13.522" ry="7.65" transform="translate(0 21.613) rotate(-53.051)"/><ellipse class="i" cx="13.522" cy="7.65" rx="13.522" ry="7.65" transform="matrix(0.601, -0.799, 0.799, 0.601, 0.723, 21.939)"/><path class="j" d="M341.69,127.089c0,2.435.875,4.16,2.329,5.049.049.03,6.575,3.74,6.625,3.768,1.821,1.018,2.9-.04,5.87-1.757,5.49-3.17,9.94-10.189,9.94-15.679,0-2.7.74-3.57-1-4.355-.131-.059-6.962-3.922-7.1-3.969-1.769-.6-4.129-.232-6.72,1.264C346.141,114.58,341.69,121.6,341.69,127.089Z" transform="translate(-336.397 -105.372)"/><ellipse class="h" cx="13.522" cy="7.65" rx="13.522" ry="7.65" transform="translate(6.61 25.205) rotate(-53.051)"/><ellipse class="i" cx="13.522" cy="7.65" rx="13.522" ry="7.65" transform="translate(7.282 25.631) rotate(-53.051)"/><ellipse class="e" cx="11.492" cy="6.502" rx="11.492" ry="6.502" transform="matrix(0.601, -0.799, 0.799, 0.601, 9.441, 24.744)"/><path class="b" d="M376.028,121.079c1.841.522,3.009,2.194,3.009,4.815,0,4.774-3.87,10.878-8.644,13.634a7.966,7.966,0,0,1-5.165,1.27c1.513.429,3.481.082,5.635-1.161,4.773-2.756,8.644-8.861,8.644-13.634C379.507,123.165,378.139,121.436,376.028,121.079Z" transform="translate(-349.318 -111.525)"/><g transform="translate(18.472 16.215)"><path class="h" d="M370.908,140.5a1.5,1.5,0,0,0,.629,1.364l1.2.679c.492.275.782-.011,1.585-.475A5.565,5.565,0,0,0,377,137.83c0-.728.2-.964-.27-1.176-.036-.016-1.287-.721-1.324-.733a2.264,2.264,0,0,0-1.815.341A5.567,5.567,0,0,0,370.908,140.5Z" transform="translate(-370.908 -135.846)"/><path class="i" d="M373.477,141.964c0,1.482,1.2,1.99,2.684,1.134a5.565,5.565,0,0,0,2.684-4.234c0-1.482-1.2-1.99-2.684-1.134A5.568,5.568,0,0,0,373.477,141.964Z" transform="translate(-372.318 -136.652)"/><path class="r" d="M374.682,142.381c0,1.171.949,1.573,2.121.9a4.4,4.4,0,0,0,2.121-3.346c0-1.171-.95-1.573-2.121-.9A4.4,4.4,0,0,0,374.682,142.381Z" transform="translate(-372.98 -137.416)"/><path class="j" d="M378.59,138.737a1.2,1.2,0,0,1,.456,1.049,4.4,4.4,0,0,1-2.121,3.346,1.983,1.983,0,0,1-1.23.315,1.569,1.569,0,0,0,1.664-.152,4.4,4.4,0,0,0,2.121-3.346A1.074,1.074,0,0,0,378.59,138.737Z" transform="translate(-373.536 -137.433)"/></g></g><g transform="translate(20.902 49.381)"><path class="e" d="M313.772,217.02a2.156,2.156,0,0,1-.9,1.958l-1.717.976c-.707.395-1.124-.016-2.277-.682a8,8,0,0,1-3.856-6.082c0-1.045-.287-1.385.388-1.689.051-.023,1.848-1.035,1.9-1.054a3.255,3.255,0,0,1,2.607.49A8,8,0,0,1,313.772,217.02Z" transform="translate(-302.853 -209.906)"/><ellipse class="i" cx="2.9" cy="5.126" rx="2.9" ry="5.126" transform="matrix(0.799, -0.601, 0.601, 0.799, 0, 3.487)"/></g><g transform="translate(15.912 51.765)"><path class="r" d="M302.21,220.28a1.813,1.813,0,0,1-.76,1.647l-7.015,3.94c-.594.332-.945-.013-1.915-.573a6.725,6.725,0,0,1-3.243-5.115c0-.88-.241-1.165.327-1.421.043-.019,7.125-3.99,7.171-4.005a2.735,2.735,0,0,1,2.192.412A6.726,6.726,0,0,1,302.21,220.28Z" transform="translate(-289.227 -214.663)"/></g><g transform="translate(1.313 53.85)"><path class="r" d="M256.862,219.395l18.381-.092a1.2,1.2,0,0,1,.784.1l3.4,2.025a.982.982,0,0,1,.479.844v3.711a1.972,1.972,0,0,1-.488,1.063L270.425,242.7Z" transform="translate(-256.862 -219.285)"/></g><path class="j" d="M376.16,194.182v-6.153l-8.884,5.114v6.191Z" transform="translate(-316.159 -148.277)"/><path class="e" d="M369.992,193.946v-.827l-2.145,1.283v.822Z" transform="translate(-316.473 -151.071)"/><path class="h" d="M370.292,194.066v-.827l-2.145,1.283v.822Z" transform="translate(-316.638 -151.137)"/><path class="e" d="M376.4,190.157v-.827l-2.145,1.283v.822Z" transform="translate(-319.989 -148.991)"/><path class="h" d="M376.7,190.277v-.827l-2.145,1.283v.822Z" transform="translate(-320.154 -149.057)"/><path class="e" d="M382.832,186.368v-.827l-2.145,1.283v.822Z" transform="translate(-323.521 -146.911)"/><path class="h" d="M383.132,186.488v-.827l-2.145,1.283v.822Z" transform="translate(-323.686 -146.977)"/><path class="e" d="M369.992,211.718v-.827l-2.145,1.283V213Z" transform="translate(-316.473 -160.826)"/><path class="h" d="M370.292,211.838v-.827l-2.145,1.283v.822Z" transform="translate(-316.638 -160.893)"/><path class="e" d="M376.4,207.929V207.1l-2.145,1.283v.822Z" transform="translate(-319.989 -158.747)"/><path class="h" d="M376.7,208.049v-.827l-2.145,1.283v.822Z" transform="translate(-320.154 -158.813)"/><path class="e" d="M382.832,204.14v-.827l-2.145,1.283v.822Z" transform="translate(-323.521 -156.667)"/><path class="h" d="M383.132,204.26v-.827l-2.145,1.283v.822Z" transform="translate(-323.686 -156.733)"/><path class="p" d="M375.852,188.206v5.831l-8.577,4.974v.323l8.885-5.153v-6.153Z" transform="translate(-316.159 -148.277)"/><g transform="translate(60.707 39.55)"><path class="e" d="M388.538,188.468a1.05,1.05,0,0,1,.477-.822.331.331,0,0,1,.345-.03l.256.139-.093.158c0,.009,0,.018,0,.027a1.051,1.051,0,0,1-.477.823l-.036.019-.077.13-.215-.119A.309.309,0,0,1,388.538,188.468Z" transform="translate(-388.538 -187.58)"/><path class="h" d="M389.088,188.767c0,.3.213.424.477.272a1.05,1.05,0,0,0,.477-.822c0-.3-.214-.424-.477-.272A1.05,1.05,0,0,0,389.088,188.767Z" transform="translate(-388.84 -187.744)"/></g><g transform="translate(60.707 41.8)"><path class="e" d="M388.538,193.456a1.051,1.051,0,0,1,.477-.823.331.331,0,0,1,.345-.029l.256.138-.093.158c0,.009,0,.017,0,.027a1.05,1.05,0,0,1-.477.822l-.036.019-.077.13-.215-.119A.308.308,0,0,1,388.538,193.456Z" transform="translate(-388.538 -192.568)"/><path class="h" d="M389.088,193.755c0,.3.213.424.477.272a1.051,1.051,0,0,0,.477-.823c0-.3-.214-.424-.477-.272A1.051,1.051,0,0,0,389.088,193.755Z" transform="translate(-388.84 -192.732)"/></g><g transform="translate(60.707 43.92)"><path class="e" d="M388.538,198.157a1.05,1.05,0,0,1,.477-.822.331.331,0,0,1,.345-.029l.256.138-.093.158c0,.009,0,.018,0,.027a1.051,1.051,0,0,1-.477.823l-.036.019-.077.13-.215-.119A.309.309,0,0,1,388.538,198.157Z" transform="translate(-388.538 -197.269)"/><path class="h" d="M389.088,198.456c0,.3.213.424.477.272a1.05,1.05,0,0,0,.477-.822c0-.3-.214-.424-.477-.272A1.051,1.051,0,0,0,389.088,198.456Z" transform="translate(-388.84 -197.433)"/></g><g transform="translate(62.307 38.758)"><path class="e" d="M392.086,186.712a1.052,1.052,0,0,1,.477-.823.332.332,0,0,1,.345-.029l.255.139-.093.158c0,.009,0,.018,0,.027a1.051,1.051,0,0,1-.477.823l-.037.019-.077.13-.214-.119A.309.309,0,0,1,392.086,186.712Z" transform="translate(-392.086 -185.824)"/><path class="h" d="M392.636,187.011c0,.3.214.424.477.272a1.05,1.05,0,0,0,.477-.822c0-.3-.213-.424-.477-.272A1.05,1.05,0,0,0,392.636,187.011Z" transform="translate(-392.388 -185.988)"/></g><g transform="translate(62.307 41.008)"><path class="e" d="M392.086,191.7a1.051,1.051,0,0,1,.477-.823.331.331,0,0,1,.345-.029l.255.138-.093.158c0,.009,0,.017,0,.027a1.05,1.05,0,0,1-.477.822l-.037.019-.077.13-.214-.119A.308.308,0,0,1,392.086,191.7Z" transform="translate(-392.086 -190.812)"/><path class="h" d="M392.636,192c0,.3.214.424.477.272a1.051,1.051,0,0,0,.477-.823c0-.3-.213-.424-.477-.272A1.051,1.051,0,0,0,392.636,192Z" transform="translate(-392.388 -190.976)"/></g><g transform="translate(62.307 43.128)"><path class="e" d="M392.086,196.4a1.05,1.05,0,0,1,.477-.822.331.331,0,0,1,.345-.03l.255.139-.093.158c0,.009,0,.018,0,.027a1.051,1.051,0,0,1-.477.823l-.037.019-.077.13-.214-.119A.309.309,0,0,1,392.086,196.4Z" transform="translate(-392.086 -195.513)"/><path class="h" d="M392.636,196.7c0,.3.214.424.477.272a1.05,1.05,0,0,0,.477-.822c0-.3-.213-.424-.477-.272A1.05,1.05,0,0,0,392.636,196.7Z" transform="translate(-392.388 -195.677)"/></g><g transform="translate(49.042 45.717)"><path class="e" d="M362.677,202.14a1.05,1.05,0,0,1,.477-.822.33.33,0,0,1,.345-.029l.255.138-.093.158c0,.009,0,.018,0,.027a1.051,1.051,0,0,1-.477.823l-.037.019-.077.13-.214-.119A.309.309,0,0,1,362.677,202.14Z" transform="translate(-362.677 -201.252)"/><path class="h" d="M363.227,202.439c0,.3.214.424.477.272a1.05,1.05,0,0,0,.477-.822c0-.3-.213-.424-.477-.272A1.051,1.051,0,0,0,363.227,202.439Z" transform="translate(-362.979 -201.416)"/></g><g transform="translate(49.042 47.967)"><path class="e" d="M362.677,207.128a1.051,1.051,0,0,1,.477-.823.331.331,0,0,1,.345-.029l.255.138-.093.158c0,.009,0,.017,0,.027a1.05,1.05,0,0,1-.477.822l-.037.019-.077.13-.214-.119A.308.308,0,0,1,362.677,207.128Z" transform="translate(-362.677 -206.24)"/><path class="h" d="M363.227,207.427c0,.3.214.424.477.272a1.051,1.051,0,0,0,.477-.823c0-.3-.213-.424-.477-.272A1.051,1.051,0,0,0,363.227,207.427Z" transform="translate(-362.979 -206.404)"/></g><g transform="translate(49.042 50.087)"><path class="e" d="M362.677,211.829a1.05,1.05,0,0,1,.477-.822.33.33,0,0,1,.345-.029l.255.138-.093.158c0,.009,0,.018,0,.027a1.051,1.051,0,0,1-.477.823l-.037.019-.077.13-.214-.119A.309.309,0,0,1,362.677,211.829Z" transform="translate(-362.677 -210.941)"/><path class="h" d="M363.227,212.128c0,.3.214.424.477.272a1.05,1.05,0,0,0,.477-.822c0-.3-.213-.424-.477-.272A1.051,1.051,0,0,0,363.227,212.128Z" transform="translate(-362.979 -211.105)"/></g><path class="b" d="M266.7,243.206l-10.238-5.911a6.022,6.022,0,0,1-2.515-4.8V221.677c0-1.852,1.126-2.7,2.515-1.9l10.238,5.911a6.021,6.021,0,0,1,2.515,4.8V241.3C269.217,243.156,268.091,244.008,266.7,243.206Z" transform="translate(-253.95 -165.539)"/><path class="e" d="M267.987,225.69l-10.238-5.911a1.7,1.7,0,0,0-1.46-.217,1.812,1.812,0,0,1,1.27.271l10.238,5.911a6.023,6.023,0,0,1,2.515,4.8v10.813c0,1.125-.417,1.878-1.055,2.118.744-.153,1.245-.939,1.245-2.172V230.495A6.021,6.021,0,0,0,267.987,225.69Z" transform="translate(-255.234 -165.541)"/><path class="k" d="M267.152,243.553l-9.548-5.512a4.759,4.759,0,0,1-1.986-3.8V224.027c0-1.463.889-2.135,1.986-1.5l9.548,5.513a4.757,4.757,0,0,1,1.987,3.8v10.218C269.139,243.514,268.25,244.187,267.152,243.553Z" transform="translate(-254.866 -167.082)"/><g transform="translate(13.883 11.936)"><ellipse class="h" cx="13.522" cy="7.65" rx="13.522" ry="7.65" transform="matrix(0.601, -0.799, 0.799, 0.601, 0, 21.613)"/><ellipse class="i" cx="13.522" cy="7.65" rx="13.522" ry="7.65" transform="matrix(0.601, -0.799, 0.799, 0.601, 0.723, 21.939)"/><path class="j" d="M296.464,153.551c0,2.435.875,4.16,2.329,5.049.049.03,6.575,3.74,6.625,3.768,1.821,1.018,2.9-.04,5.87-1.757,5.49-3.17,9.94-10.189,9.94-15.679,0-2.7.74-3.57-1-4.355-.131-.059-6.962-3.922-7.1-3.969-1.769-.6-4.129-.232-6.72,1.264C300.915,141.042,296.464,148.061,296.464,153.551Z" transform="translate(-291.171 -131.834)"/><ellipse class="h" cx="13.522" cy="7.65" rx="13.522" ry="7.65" transform="matrix(0.601, -0.799, 0.799, 0.601, 6.61, 25.205)"/><ellipse class="i" cx="13.522" cy="7.65" rx="13.522" ry="7.65" transform="translate(7.282 25.631) rotate(-53.051)"/><ellipse class="e" cx="11.492" cy="6.502" rx="11.492" ry="6.502" transform="translate(9.441 24.744) rotate(-53.051)"/><path class="b" d="M330.8,147.541c1.841.522,3.009,2.194,3.009,4.815,0,4.774-3.87,10.878-8.644,13.634A7.967,7.967,0,0,1,320,167.26c1.513.429,3.481.082,5.635-1.161,4.774-2.756,8.644-8.861,8.644-13.634C334.281,149.627,332.913,147.9,330.8,147.541Z" transform="translate(-304.092 -137.987)"/><g transform="translate(18.472 16.215)"><path class="h" d="M325.682,166.957a1.5,1.5,0,0,0,.629,1.364l1.2.679c.492.275.782-.011,1.585-.475a5.565,5.565,0,0,0,2.684-4.234c0-.728.2-.964-.27-1.176-.036-.016-1.287-.721-1.324-.733a2.264,2.264,0,0,0-1.815.341A5.566,5.566,0,0,0,325.682,166.957Z" transform="translate(-325.682 -162.308)"/><path class="i" d="M328.251,168.426c0,1.482,1.2,1.99,2.684,1.134a5.567,5.567,0,0,0,2.684-4.234c0-1.482-1.2-1.99-2.684-1.134A5.568,5.568,0,0,0,328.251,168.426Z" transform="translate(-327.092 -163.114)"/><path class="r" d="M329.456,168.843c0,1.171.949,1.573,2.121.9a4.4,4.4,0,0,0,2.121-3.346c0-1.172-.95-1.573-2.121-.9A4.4,4.4,0,0,0,329.456,168.843Z" transform="translate(-327.754 -163.878)"/><path class="j" d="M333.363,165.2a1.2,1.2,0,0,1,.456,1.049,4.4,4.4,0,0,1-2.121,3.346,1.984,1.984,0,0,1-1.231.315,1.569,1.569,0,0,0,1.665-.152,4.4,4.4,0,0,0,2.121-3.346A1.074,1.074,0,0,0,333.363,165.2Z" transform="translate(-328.309 -163.895)"/></g></g></g><g transform="translate(350.319 120.788)"><path class="o" d="M467.6,146.213l1.051.607a2.067,2.067,0,0,1,.8.789,2.268,2.268,0,0,1,.266,1.115v.514q0,.633-.266.807t-.8-.133l-.337-.195v2.123l-.714-.412Zm1.051,2.954c.117.068.2.081.263.04s.088-.151.088-.329v-.618a.9.9,0,0,0-.088-.43.668.668,0,0,0-.263-.263l-.337-.195v1.6Z" transform="translate(-467.602 -146.213)"/><path class="o" d="M473.157,149.421l1.058.611a2.115,2.115,0,0,1,.8.759,2.074,2.074,0,0,1,.254,1.051v.32q0,.812-.468.758v.015a1.307,1.307,0,0,1,.367.576,2.647,2.647,0,0,1,.107.8v.916c0,.149,0,.272.013.368a1.446,1.446,0,0,0,.065.309l-.727-.419a1.849,1.849,0,0,1-.052-.268c-.009-.08-.013-.216-.013-.41v-.954a1.264,1.264,0,0,0-.1-.557.845.845,0,0,0-.347-.342l-.247-.143v2.235l-.714-.412Zm.974,2.8q.214.124.321.059t.107-.363v-.4a1.038,1.038,0,0,0-.088-.461.672.672,0,0,0-.276-.286l-.325-.187v1.49Z" transform="translate(-470.651 -147.974)"/><path class="o" d="M478.957,152.769l1.947,1.124v.745l-1.233-.712V155.3l.98.566v.745l-.98-.566v1.6l1.233.712v.745l-1.947-1.124Z" transform="translate(-473.835 -149.812)"/><path class="o" d="M484.2,161.187a2.332,2.332,0,0,1-.266-1.126v-.3l.675.39v.358a.763.763,0,0,0,.37.72c.121.07.213.082.276.037s.094-.161.094-.344a1.753,1.753,0,0,0-.129-.652,5.809,5.809,0,0,0-.48-.877,6.937,6.937,0,0,1-.617-1.165,2.572,2.572,0,0,1-.175-.917q0-.618.272-.8t.792.118a1.982,1.982,0,0,1,.776.787,2.347,2.347,0,0,1,.263,1.124v.216l-.675-.39V158.1a.955.955,0,0,0-.091-.443.668.668,0,0,0-.266-.277q-.357-.206-.357.293a1.59,1.59,0,0,0,.133.606,6.129,6.129,0,0,0,.484.875,6.433,6.433,0,0,1,.617,1.168,2.754,2.754,0,0,1,.169.954q0,.641-.276.824t-.8-.12A2.012,2.012,0,0,1,484.2,161.187Z" transform="translate(-476.568 -151.829)"/><path class="o" d="M489.556,164.277a2.327,2.327,0,0,1-.266-1.126v-.3l.675.39v.358a.764.764,0,0,0,.37.72q.181.1.276.037t.094-.344a1.741,1.741,0,0,0-.13-.652,5.806,5.806,0,0,0-.48-.877,6.967,6.967,0,0,1-.617-1.165,2.573,2.573,0,0,1-.175-.917q0-.618.273-.8t.792.119a1.978,1.978,0,0,1,.775.787,2.342,2.342,0,0,1,.263,1.124v.216l-.675-.39v-.268a.961.961,0,0,0-.091-.443.666.666,0,0,0-.266-.276q-.357-.206-.357.293a1.6,1.6,0,0,0,.133.606,6.138,6.138,0,0,0,.484.875,6.473,6.473,0,0,1,.617,1.168,2.769,2.769,0,0,1,.169.954q0,.641-.276.824t-.8-.12A2.009,2.009,0,0,1,489.556,164.277Z" transform="translate(-479.508 -153.526)"/><path class="o" d="M497.219,163.313l1.058.611a2.115,2.115,0,0,1,.8.759,2.071,2.071,0,0,1,.254,1.051v.321q0,.812-.468.758v.015a1.314,1.314,0,0,1,.367.577,2.658,2.658,0,0,1,.107.8v.916c0,.149,0,.272.013.369a1.452,1.452,0,0,0,.065.309l-.727-.42a1.841,1.841,0,0,1-.052-.268c-.009-.079-.013-.216-.013-.41v-.954a1.256,1.256,0,0,0-.1-.557.843.843,0,0,0-.347-.342l-.247-.142v2.235l-.714-.412Zm.974,2.8c.143.083.25.1.321.059s.107-.164.107-.363v-.4a1.037,1.037,0,0,0-.088-.46.669.669,0,0,0-.276-.286l-.325-.188v1.49Z" transform="translate(-483.86 -155.6)"/><path class="o" d="M503.019,166.661l1.947,1.124v.745l-1.233-.712V169.2l.98.566v.745l-.98-.566v1.6l1.233.712V173l-1.947-1.124Z" transform="translate(-487.044 -157.438)"/><path class="o" d="M508.243,169.677l.714.412v4.47l1.175.678v.745l-1.889-1.091Z" transform="translate(-489.912 -159.093)"/><path class="o" d="M513.193,172.536l1.948,1.124v.745l-1.233-.712v1.378l.98.566v.745l-.98-.566v1.6l1.233.712v.745l-1.948-1.124Z" transform="translate(-492.629 -160.663)"/><path class="o" d="M518.74,176.258l.967.558.74,5.641-.714-.412-.13-1.111v.015l-.811-.469-.13.945-.662-.382Zm.779,3.936-.318-2.761-.013-.008-.312,2.4Z" transform="translate(-495.268 -162.706)"/><path class="o" d="M524.138,184.243a2.328,2.328,0,0,1-.266-1.126v-.3l.675.39v.358a.764.764,0,0,0,.37.72q.181.1.276.037t.094-.344a1.741,1.741,0,0,0-.13-.652,5.826,5.826,0,0,0-.48-.877,6.947,6.947,0,0,1-.617-1.164,2.573,2.573,0,0,1-.175-.917q0-.618.272-.8t.792.118a1.98,1.98,0,0,1,.776.787,2.347,2.347,0,0,1,.263,1.124v.216l-.675-.39v-.268a.955.955,0,0,0-.091-.443.668.668,0,0,0-.266-.277q-.357-.206-.357.293a1.59,1.59,0,0,0,.133.606,6.121,6.121,0,0,0,.484.875,6.475,6.475,0,0,1,.617,1.168,2.769,2.769,0,0,1,.169.954q0,.641-.276.824t-.8-.12A2.011,2.011,0,0,1,524.138,184.243Z" transform="translate(-498.491 -164.486)"/><path class="o" d="M529.5,181.949l1.947,1.124v.745l-1.233-.712v1.378l.98.566v.745l-.98-.566v1.6l1.233.712v.745l-1.947-1.124Z" transform="translate(-501.58 -165.83)"/></g><g transform="translate(355.159 164.693)"><g transform="translate(39.775 19.107)"><path class="j" d="M578.591,302.529l-.021-.161c-.442-3.464-2.011-6.111-2.011-9.359v-3.895l-5.546-3.2-2.982,1.776s4.1,7.856,3.646,10.85a3.917,3.917,0,0,0,1.778,3.067l.049.028.515,4.363,3.913-2.262A1.158,1.158,0,0,0,578.591,302.529Z" transform="translate(-567.347 -285.912)"/><path class="r" d="M571.65,308.2l-3.357-1.939a3.918,3.918,0,0,1-1.778-3.067h0a63,63,0,0,0,.684-9.455v-3.9l5.546,3.2v3.894a79.951,79.951,0,0,0,.663,10.084l.021.161C573.428,308.317,572.632,308.772,571.65,308.2Z" transform="translate(-566.515 -288.073)"/><path class="b" d="M574.567,306.866a79.853,79.853,0,0,1-.663-10.084v-3.895l-5.546-3.2v.281L573.609,293v3.895a79.89,79.89,0,0,0,.664,10.084l.02.161a1.244,1.244,0,0,1-.5,1.13c.481-.087.8-.53.8-1.241Z" transform="translate(-567.527 -287.984)"/><g transform="translate(1.882 6.922)"><path class="p" d="M575.646,304.162l-.474,3.847,1.034-.6v-3.588Z" transform="translate(-573.149 -302.667)"/><path class="j" d="M573.187,303.156,572.713,307l-2.025-1.144.474-3.867Z" transform="translate(-570.688 -301.661)"/><path class="b" d="M571.739,301.59l2.025,1.164.557-.338-2.03-1.157Z" transform="translate(-571.265 -301.259)"/></g></g><g transform="translate(34.999)"><path class="j" d="M585.929,257.039c0,2.242-.774,3.83-2.032,4.6-.037.023-6.57,3.87-6.608,3.892-1.308.732-.472-.929-2.459-2.076a15.959,15.959,0,0,1-7.243-12.493c0-2.27-2.1-2.288-.813-3.046.036-.021,6.82-3.908,6.857-3.928,1.305-.707,3.089-.576,5.056.559A15.961,15.961,0,0,1,585.929,257.039Z" transform="translate(-561.652 -243.551)"/><path class="b" d="M573.375,252.92c-1.917-1.107-3.66-1.256-4.955-.608a5.7,5.7,0,0,1,4.33.852,15.96,15.96,0,0,1,7.243,12.493c0,2.39-.88,4.034-2.287,4.738,1.768-.495,2.913-2.254,2.913-4.981A15.959,15.959,0,0,0,573.375,252.92Z" transform="translate(-562.785 -248.149)"/><ellipse class="r" cx="5.895" cy="10.211" rx="5.895" ry="10.211" transform="translate(0 7.416) rotate(-30.311)"/></g><g transform="translate(13.814 4.803)"><path class="i" d="M546.508,267.3c0,2.178-.751,3.721-1.974,4.468l-2.78,1.614a36.986,36.986,0,0,0-15.337,17.069l-.014.032c-2.149,1.2-19.375-27.676-17.265-28.92h.009a37.642,37.642,0,0,0,21.666-4.793l3.746-2.149c1.268-.687,3-.56,4.911.543A15.5,15.5,0,0,1,546.508,267.3Z" transform="translate(-508.96 -254.199)"/></g><g transform="translate(0 9.027)"><path class="r" d="M521.224,293.367c0,3.9-1.347,6.667-3.537,8.005-.065.04-2.1,1.333-2.171,1.371-2.278,1.274-.821-1.617-4.281-3.614-6.963-4.02-12.608-13.756-12.608-21.746,0-3.951-3.653-3.983-1.415-5.3.063-.037,2.539-1.4,2.6-1.433,2.272-1.23,5.377-1,8.8.973C515.579,275.64,521.224,285.377,521.224,293.367Z" transform="translate(-488.298 -267.036)"/><path class="e" d="M508.47,274.387c-3.338-1.927-6.792-1.8-8.391-1.042a10.7,10.7,0,0,1,7.9,1.4c6.963,4.02,12.608,13.756,12.608,21.746,0,4.16-1.9,7.106-4.345,8.331,2.571-.95,4.836-3.94,4.836-8.688C521.077,288.143,515.433,278.407,508.47,274.387Z" transform="translate(-490.27 -268.65)"/><ellipse class="b" cx="10.262" cy="17.774" rx="10.262" ry="17.774" transform="matrix(0.863, -0.505, 0.505, 0.863, 0, 10.358)"/><ellipse class="c" cx="9.593" cy="16.617" rx="9.593" ry="16.617" transform="matrix(0.863, -0.505, 0.505, 0.863, 1.161, 11.02)"/><path class="r" d="M505.835,303.321c-6.51-3.758-11.786-12.86-11.786-20.33,0-3.443,1.123-5.935,2.97-7.257-3.186.582-5.288,3.516-5.288,8.229,0,7.47,5.277,16.572,11.786,20.33,3.509,2.026,6.658,2.083,8.817.537A9.705,9.705,0,0,1,505.835,303.321Z" transform="translate(-485.687 -270.245)"/></g><g transform="translate(18.104 22.167)"><path class="j" d="M525.378,292.7c-.738.6-5.738,4.7-5.748,4.7-.355.209.225.215.225.843a4.414,4.414,0,0,0,2,3.455c.55.318.318.777.68.575.009-.005,5.218-2,6.635-2.539A28.528,28.528,0,0,0,525.378,292.7Z" transform="translate(-519.043 -292.695)"/><path class="b" d="M522.476,306.6c0,1.27-.9,1.781-2,1.142a4.414,4.414,0,0,1-2-3.456c0-1.269.9-1.781,2-1.142A4.414,4.414,0,0,1,522.476,306.6Z" transform="translate(-518.47 -298.278)"/><path class="j" d="M522.612,307.214c0,.872-.617,1.224-1.377.785a3.034,3.034,0,0,1-1.377-2.374c0-.872.617-1.224,1.377-.785A3.034,3.034,0,0,1,522.612,307.214Z" transform="translate(-519.232 -299.258)"/><path class="y" d="M521.456,303.034a1.446,1.446,0,0,0-1.371-.168,1.574,1.574,0,0,1,1.2.235,4.414,4.414,0,0,1,2,3.456,1.361,1.361,0,0,1-.633,1.31c.489-.137.806-.623.806-1.378A4.414,4.414,0,0,0,521.456,303.034Z" transform="translate(-519.357 -298.22)"/></g></g></g></svg>