<svg xmlns="http://www.w3.org/2000/svg" xmlns:xlink="http://www.w3.org/1999/xlink" width="40" height="40" viewBox="0 0 40 40"><defs><style>.a{fill:none;}.b{fill:url(#a);}</style><linearGradient id="a" x1="0.5" x2="0.5" y2="1" gradientUnits="objectBoundingBox"><stop offset="0" stop-color="#fff"/><stop offset="1" stop-color="#fff" stop-opacity="0.678"/></linearGradient></defs><g transform="translate(-244.767 -1004.297)"><rect class="a" width="40" height="40" transform="translate(244.767 1004.297)"/><path class="b" d="M32.955,0H.578A.578.578,0,0,0,0,.578V26.017a.578.578,0,0,0,.578.578H32.955a.578.578,0,0,0,.578-.578V.578A.578.578,0,0,0,32.955,0ZM5.782,25.439H1.155v-5.2H5.782Zm0-6.36H1.155v-5.2H5.782Zm0-6.36H1.155v-5.2H5.782Zm0-6.36H1.155v-5.2H5.782Zm15.342,7.427-6.36,4.047a.578.578,0,0,1-.889-.488V9.254a.578.578,0,0,1,.889-.488l6.36,4.047a.578.578,0,0,1,.176.8.571.571,0,0,1-.176.178ZM32.377,25.439H27.75v-5.2h4.627Zm0-6.36H27.75v-5.2h4.627Zm0-6.36H27.75v-5.2h4.627Zm0-6.36H27.75v-5.2h4.627Z" transform="translate(248 1011)"/></g></svg>