<svg xmlns="http://www.w3.org/2000/svg" xmlns:xlink="http://www.w3.org/1999/xlink" width="75" height="75" viewBox="0 0 75 75"><defs><style>.a{fill:none;}.b{fill:url(#a);}</style><linearGradient id="a" x1="0.5" x2="0.5" y2="1" gradientUnits="objectBoundingBox"><stop offset="0" stop-color="#00c1c5"/><stop offset="1" stop-color="#69dadc"/></linearGradient></defs><g transform="translate(-342.407 -996.535)"><rect class="a" width="75" height="75" transform="translate(342.407 996.535)"/><path class="b" d="M1266.12-362.638l-9.257-19.85-2.215,1.034a9.309,9.309,0,0,1-12.371-4.46,9.309,9.309,0,0,1,4.535-12.344l4.625-2.157a38.744,38.744,0,0,0,16.294-14.26,38.608,38.608,0,0,0,2.753-5.108l1.495-3.362a1.049,1.049,0,0,1,.949-.622,1.049,1.049,0,0,1,.96.6l6.364,13.649,1.674-.781a5.344,5.344,0,0,1,7.093,2.581,5.345,5.345,0,0,1-2.578,7.1l-1.676.781,6.365,13.648a1.053,1.053,0,0,1-.153,1.125,1.061,1.061,0,0,1-.355.269,1.048,1.048,0,0,1-.732.057l-3.537-1.016a38.787,38.787,0,0,0-5.682-1.175,38.744,38.744,0,0,0-13.635.65l2.705,5.8,1.439-.671a3.771,3.771,0,0,1,5,1.822,3.77,3.77,0,0,1-1.82,5.008l-1.439.671,1.857,3.98a3.766,3.766,0,0,1-1.819,5l-5.45,2.54a1.039,1.039,0,0,1-.442.1A1.048,1.048,0,0,1,1266.12-362.638Zm-6.848-20.974-.508.239,8.812,18.9,4.5-2.1a1.665,1.665,0,0,0,.8-2.21l-7.91-16.962A38.924,38.924,0,0,0,1259.273-383.612Zm12.793,4.363-1.44.671,1.412,3.028,1.44-.671a1.671,1.671,0,0,0,.807-2.217,1.675,1.675,0,0,0-1.518-.968A1.652,1.652,0,0,0,1272.066-379.248ZM1247.7-396.358a7.211,7.211,0,0,0-3.521,9.557,7.211,7.211,0,0,0,9.586,3.447l2.217-1.034-6.065-13Zm4.626-2.157-.508.237,6.064,13,.51-.237a40.844,40.844,0,0,1,20.683-3.7l-3.084-6.615a1.048,1.048,0,0,1,.507-1.392,1.048,1.048,0,0,1,1.394.507l3.625,7.778a40.815,40.815,0,0,1,5.419,1.16l1.324.38-15.3-32.8-.56,1.258a40.743,40.743,0,0,1-2.593,4.9l4.075,8.74a1.048,1.048,0,0,1-.507,1.394,1.048,1.048,0,0,1-1.392-.507l-3.533-7.576A40.845,40.845,0,0,1,1252.323-398.515Zm30.489-9.882-1.674.781,2.742,5.881,1.674-.781a3.245,3.245,0,0,0,1.568-4.306,3.249,3.249,0,0,0-2.947-1.878A3.224,3.224,0,0,0,1282.812-408.4Zm-8.079,8.882a1.056,1.056,0,0,1-.828-.878,1.059,1.059,0,0,1,.544-1.073,1.059,1.059,0,0,1,1.2.153,1.057,1.057,0,0,1,.169,1.346,1.055,1.055,0,0,1-.88.474A1.023,1.023,0,0,1,1274.733-399.515Z" transform="translate(-886.413 1426.935)"/></g></svg>