<svg xmlns="http://www.w3.org/2000/svg" xmlns:xlink="http://www.w3.org/1999/xlink" width="75" height="75" viewBox="0 0 75 75"><defs><style>.a{fill:none;}.b{fill:url(#a);}</style><linearGradient id="a" x1="0.5" x2="0.5" y2="1" gradientUnits="objectBoundingBox"><stop offset="0" stop-color="#b8da00"/><stop offset="1" stop-color="#8ea800"/></linearGradient></defs><g transform="translate(-645.853 -1009.799)"><rect class="a" width="75" height="75" transform="translate(645.853 1009.799)"/><g transform="translate(655.9 1019.847)"><path class="b" d="M27.452,0A27.452,27.452,0,1,0,54.9,27.452,27.483,27.483,0,0,0,27.452,0Zm0,53.074A25.622,25.622,0,1,1,53.074,27.452,25.651,25.651,0,0,1,27.452,53.074Z"/><g transform="translate(43.923 7.296)"><path class="b" d="M418.573,96.449c-4.206-2.631-7.143-10.54-7.143-19.233a37.1,37.1,0,0,1,.857-8.061.915.915,0,1,0-1.787-.4,38.981,38.981,0,0,0-.9,8.459c0,9.438,3.216,17.791,8,20.784a.915.915,0,1,0,.97-1.551Z" transform="translate(-409.6 -68.041)"/></g><g transform="translate(0 0.985)"><path class="b" d="M20.637,9.248a.92.92,0,0,0-.588-.032,27.452,27.452,0,1,0,20.36,50.638.918.918,0,0,0,.465-.627l.294-1.472.019-.12a54.983,54.983,0,0,0,.907-8.717C42.093,30.355,33.471,14.412,20.637,9.248Zm18.743,48.1-.215,1.094A25.623,25.623,0,1,1,20.241,11.063C32.23,16.076,40.263,31.235,40.263,48.918A53.541,53.541,0,0,1,39.379,57.347Z" transform="translate(0 -9.182)"/></g><g transform="translate(14.64 44.839)"><path class="b" d="M143.227,420.929a23.771,23.771,0,0,1-5.286-2.646.915.915,0,1,0-1,1.534,25.548,25.548,0,0,0,5.694,2.844.927.927,0,0,0,.3.049.915.915,0,0,0,.295-1.781Z" transform="translate(-136.526 -418.135)"/></g><g transform="translate(7.32 37.516)"><path class="b" d="M72.638,353.856c-.214-.266-.448-.546-.691-.835A15.722,15.722,0,0,1,70,350.356a.915.915,0,1,0-1.634.824,16.96,16.96,0,0,0,2.184,3.02c.233.277.459.546.664.8a.915.915,0,1,0,1.428-1.145Z" transform="translate(-68.264 -349.852)"/></g><g transform="translate(1.638 19.592)"><path class="b" d="M66.712,182.7c-26.789-.213-42.588,8.766-51.13,16.367a.915.915,0,1,0,1.216,1.367c8.3-7.387,23.708-16.121,49.9-15.9H66.7a.915.915,0,0,0,.008-1.83Z" transform="translate(-15.276 -182.698)"/></g><g transform="translate(6.536 9.125)"><path class="b" d="M62.744,85.118c-.279,0-.556-.012-.834-.026a.915.915,0,0,0-.087,1.828c.306.015.612.027.921.027,12.11,0,21.962,11.7,21.962,26.08,0,6.4-1.555,12.072-4.5,16.391a.916.916,0,0,0,1.514,1.03c3.148-4.625,4.812-10.649,4.812-17.421C86.535,97.638,75.862,85.118,62.744,85.118Z" transform="translate(-60.952 -85.092)"/></g></g></g></svg>