<svg xmlns="http://www.w3.org/2000/svg" xmlns:xlink="http://www.w3.org/1999/xlink" width="194.026" height="120.212" viewBox="0 0 194.026 120.212">
  <defs>
    <clipPath id="clip-path">
      <rect width="194.026" height="120.212" fill="none"/>
    </clipPath>
    <linearGradient id="linear-gradient" x1="0.5" x2="0.5" y2="1" gradientUnits="objectBoundingBox">
      <stop offset="0" stop-color="#6b6b6b"/>
      <stop offset="1"/>
    </linearGradient>
    <linearGradient id="linear-gradient-2" x1="0.5" x2="0.5" y2="1" gradientUnits="objectBoundingBox">
      <stop offset="0" stop-color="#828282"/>
      <stop offset="1"/>
    </linearGradient>
    <linearGradient id="linear-gradient-3" x1="0.5" x2="0.5" y2="1" gradientUnits="objectBoundingBox">
      <stop offset="0" stop-color="#fff" stop-opacity="0"/>
      <stop offset="1" stop-color="#fff" stop-opacity="0.129"/>
    </linearGradient>
    <linearGradient id="linear-gradient-4" x1="0.5" x2="0.5" y2="1" gradientUnits="objectBoundingBox">
      <stop offset="0" stop-color="#fff"/>
      <stop offset="1" stop-color="#fff" stop-opacity="0.678"/>
    </linearGradient>
  </defs>
  <g id="Sports" transform="translate(-377.449 -1265.903)">
    <g id="Component_6" data-name="Component 6" transform="translate(377.449 1265.903)" clip-path="url(#clip-path)">
      <g id="Group_1438" data-name="Group 1438">
        <path id="Path_4059" data-name="Path 4059" d="M16,0H178.026a16,16,0,0,1,16,16v88.212a16,16,0,0,1-16,16H16a16,16,0,0,1-16-16V16A16,16,0,0,1,16,0Z" opacity="0.424" fill="url(#linear-gradient)"/>
        <path id="Subtraction_152" data-name="Subtraction 152" d="M168.381,110.628H16a16,16,0,0,1-16-16V16A16,16,0,0,1,16,0H168.381a16,16,0,0,1,16,16V94.628a16,16,0,0,1-16,16ZM16.841.849a16,16,0,0,0-16,16V92.93a16,16,0,0,0,16,16h150.7a16,16,0,0,0,16-16V16.849a16,16,0,0,0-16-16Z" transform="translate(4.822 4.792)" fill="url(#linear-gradient-2)"/>
        <path id="Intersection_1" data-name="Intersection 1" d="M0,103.729V16A16,16,0,0,1,16,0H177.247a16,16,0,0,1,16,16V39.484c-12.108-.417-25.651-1.35-40.471-2.28-21.353-1.339-40.823-.544-64.713-6.945-9.255-2.48-28.026,18.058-46.6,38.6C25.61,86.376,9.9,103.9.362,107.127A16.067,16.067,0,0,1,0,103.729Z" transform="translate(0.39 1.715)" fill="url(#linear-gradient-3)"/>
      </g>
    </g>
    <g id="Group_1528" data-name="Group 1528" transform="translate(0.287 4.412)">
      <rect id="Rectangle_2317" data-name="Rectangle 2317" width="50" height="50" transform="translate(449.713 1278.588)" fill="none"/>
      <path id="Path_3647" class="sports" data-name="Path 3647" d="M11.4,1.336A18.255,18.255,0,1,0,31.152,31.181l.02-.021a18.238,18.238,0,0,0,.021-25.792l-.021-.021A18.279,18.279,0,0,0,11.4,1.336Zm-6.824,24.6A12.521,12.521,0,0,1,2.167,24a17.207,17.207,0,0,1-.555-9.587,15.392,15.392,0,0,1,1.169-1.937c.135-.191.261-.391.41-.574l4.119,2.438v.1a31.732,31.732,0,0,0,.662,6.582.042.042,0,0,0,.005.025L4.784,26.055A2.215,2.215,0,0,1,4.574,25.936Zm12.248,8.47a15.726,15.726,0,0,0,2.193.918,17.112,17.112,0,0,1-9.261-2.243l6.9,1.231C16.711,34.344,16.765,34.377,16.821,34.406ZM16.8,33.158,8.648,31.706A25.469,25.469,0,0,1,6.1,28.013c-.188-.333-.4-.657-.556-1L8.74,22c.071.018.149.036.239.06a52.923,52.923,0,0,0,6.073,1.211c.12.016.219.031.3.04l3.825,6.614q-1,1.4-2.021,2.779C17.043,32.866,16.919,33.013,16.8,33.158ZM30.353,30.34A16.983,16.983,0,0,1,28.295,32.1a15.637,15.637,0,0,0-.617-2.806l4.081-7.615a19.045,19.045,0,0,0,3.216-1.813,1.454,1.454,0,0,0,.328-.312,17.007,17.007,0,0,1-4.951,10.791Zm-.181-9.876q.228.434.452.879L26.684,28.7c-.023,0-.044.01-.067.013a35.917,35.917,0,0,1-6.446.62l-3.935-6.8q.918-1.7,1.821-3.421c.41-.775.81-1.554,1.211-2.334l8.143-.836a45.6,45.6,0,0,1,2.76,4.529Zm-1.651-8.723c-.387,1.02-.8,2.03-1.212,3.043l-7.932.815c-.1-.125-.193-.246-.3-.366q-1.4-1.591-2.821-3.172c.008-.011.017-.019.025-.028l-1.141-1.139,2.209-6.648a3.129,3.129,0,0,1,.46-.091c1.2-.122,2.4-.26,3.606-.328a17.747,17.747,0,0,1,2.23-.015l5.464,6.155C28.923,10.565,28.738,11.162,28.521,11.742Zm1.833-5.581a17.026,17.026,0,0,1,3.5,5.068,17.358,17.358,0,0,0-3.26-1.752c-.179-.074-.362-.139-.547-.2L24.667,3.217a7.219,7.219,0,0,0,.065-.789,17.015,17.015,0,0,1,5.621,3.737ZM12.791,2.11c.021.016.031.029.043.032a13.677,13.677,0,0,1,3.4,1.792l-2.063,6.213-.03.011c-.422.175-.853.328-1.268.52A36.432,36.432,0,0,0,7.92,13.352L3.849,10.943a1.22,1.22,0,0,1,.071-.371c.273-.728.543-1.461.851-2.175a16.289,16.289,0,0,1,.806-1.6c.194-.214.395-.426.6-.633a16.993,16.993,0,0,1,6.648-4.117Z" transform="translate(456.451 1285.332)" fill="url(#linear-gradient-4)"/>
    </g>
    <text id="SPORTS-2" data-name="SPORTS" transform="translate(473.097 1357)" fill="#fff" font-size="15" font-family="Lato-Regular, Lato"><tspan x="-27.574" y="0">SPORTS</tspan></text>
  </g>
</svg>
