<svg xmlns="http://www.w3.org/2000/svg" xmlns:xlink="http://www.w3.org/1999/xlink" width="40" height="40" viewBox="0 0 40 40"><defs><style>.a{fill:none;}.b{fill:url(#a);}</style><linearGradient id="a" x1="0.5" x2="0.5" y2="1" gradientUnits="objectBoundingBox"><stop offset="0" stop-color="#fff"/><stop offset="1" stop-color="#fff" stop-opacity="0.678"/></linearGradient></defs><g transform="translate(-244.389 -1115.384)"><rect class="a" width="40" height="40" transform="translate(244.389 1115.384)"/><path class="b" d="M9.6,1.126a15.383,15.383,0,1,0,16.646,25.15l.017-.018a15.369,15.369,0,0,0,.018-21.735L26.268,4.5A15.4,15.4,0,0,0,9.6,1.126Zm-5.75,20.73a10.551,10.551,0,0,1-2.028-1.632,14.5,14.5,0,0,1-.467-8.079,12.97,12.97,0,0,1,.985-1.632c.114-.161.22-.329.346-.484l3.471,2.054v.087a26.74,26.74,0,0,0,.558,5.547.036.036,0,0,0,0,.021L4.031,21.956A1.867,1.867,0,0,1,3.854,21.855Zm10.321,7.137a13.251,13.251,0,0,0,1.848.774,14.42,14.42,0,0,1-7.8-1.89l5.818,1.037C14.082,28.941,14.128,28.968,14.175,28.993Zm-.021-1.051L7.287,26.718a21.462,21.462,0,0,1-2.144-3.112c-.158-.281-.335-.553-.468-.846l2.69-4.219c.059.015.126.03.2.051a44.6,44.6,0,0,0,5.118,1.021c.1.014.185.026.257.034l3.224,5.574q-.839,1.18-1.7,2.342C14.362,27.7,14.258,27.819,14.154,27.941Zm11.424-2.374a14.311,14.311,0,0,1-1.735,1.479,13.177,13.177,0,0,0-.52-2.365l3.439-6.417a16.048,16.048,0,0,0,2.71-1.528,1.226,1.226,0,0,0,.277-.263,14.331,14.331,0,0,1-4.172,9.093Zm-.153-8.322q.192.366.381.741l-3.32,6.2-.057.011A30.267,30.267,0,0,1,17,24.717l-3.316-5.733q.774-1.437,1.535-2.883c.346-.653.683-1.31,1.021-1.967l6.862-.7a38.427,38.427,0,0,1,2.326,3.816Zm-1.392-7.35c-.326.86-.674,1.711-1.021,2.564l-6.684.687c-.08-.105-.162-.207-.25-.308Q14.895,11.5,13.7,10.164c.007-.009.015-.016.021-.024l-.961-.96,1.861-5.6a2.637,2.637,0,0,1,.388-.077c1.012-.1,2.024-.219,3.039-.277a14.955,14.955,0,0,1,1.879-.012l4.6,5.187C24.372,8.9,24.217,9.406,24.034,9.895Zm1.544-4.7a14.347,14.347,0,0,1,2.949,4.271A14.627,14.627,0,0,0,25.78,7.986c-.151-.062-.305-.117-.461-.171l-4.532-5.1a6.083,6.083,0,0,0,.055-.665A14.338,14.338,0,0,1,25.578,5.2Zm-14.8-3.414c.018.013.026.024.037.027a11.525,11.525,0,0,1,2.867,1.51L11.944,8.551l-.026.009c-.356.147-.718.277-1.069.439a30.7,30.7,0,0,0-4.175,2.253l-3.43-2.03a1.028,1.028,0,0,1,.06-.313c.23-.613.457-1.231.717-1.833A13.727,13.727,0,0,1,4.7,5.728c.163-.181.333-.359.507-.533a14.319,14.319,0,0,1,5.6-3.469Z" transform="translate(249 1120)"/></g></svg>