<svg xmlns="http://www.w3.org/2000/svg" xmlns:xlink="http://www.w3.org/1999/xlink" width="141.004" height="80.886" viewBox="0 0 141.004 80.886"><defs><style>.a{fill:url(#a);}.b{fill:url(#b);}.c{fill:url(#c);}.d{fill:url(#d);}.e{fill:#ef2110;stroke:rgba(236,142,142,0.94);}.f{stroke:none;}.g{fill:none;}</style><linearGradient id="a" x1="0.5" x2="0.5" y2="1" gradientUnits="objectBoundingBox"><stop offset="0" stop-color="#111" stop-opacity="0"/><stop offset="1"/></linearGradient><linearGradient id="b" x1="0.5" x2="0.5" y2="1" gradientUnits="objectBoundingBox"><stop offset="0" stop-color="#878787" stop-opacity="0"/><stop offset="1" stop-color="#757575"/></linearGradient><radialGradient id="c" cx="0.5" cy="0.5" r="0.5" gradientUnits="objectBoundingBox"><stop offset="0" stop-color="#ff210e" stop-opacity="0"/><stop offset="1" stop-color="#cf4338"/></radialGradient><radialGradient id="d" cx="0.5" cy="0.5" r="4.565" gradientTransform="matrix(0.111, 0, 0, -0.695, 0.444, 0.848)" gradientUnits="objectBoundingBox"><stop offset="0" stop-color="#ff210e"/><stop offset="1" stop-color="#cf4338" stop-opacity="0"/></radialGradient></defs><g transform="translate(-1142 -83.035)"><path class="a" d="M28.9,0h76.121V50.886H0Z" transform="translate(1162.978 98.035)"/><path class="b" d="M7.21,50.888v0H0L34.643,0h7.21L7.212,50.886Z" transform="translate(1157.733 97.379)"/><path class="c" d="M1.967,0H126a0,0,0,0,1,0,0V3.933a0,0,0,0,1,0,0H1.967A1.967,1.967,0,0,1,0,1.967v0A1.967,1.967,0,0,1,1.967,0Z" transform="translate(1142 146.954)"/><path class="d" d="M1.311,0H23.6a0,0,0,0,1,0,0V2.622a0,0,0,0,1,0,0H1.311A1.311,1.311,0,0,1,0,1.311v0A1.311,1.311,0,0,1,1.311,0Z" transform="matrix(-0.839, 0.545, -0.545, -0.839, 1264.364, 141.65)"/><path class="d" d="M1.311,0H23.6a0,0,0,0,1,0,0V2.622a0,0,0,0,1,0,0H1.311A1.311,1.311,0,0,1,0,1.311v0A1.311,1.311,0,0,1,1.311,0Z" transform="matrix(-0.839, 0.545, -0.545, -0.839, 1257.152, 141.65)"/><path class="d" d="M1.311,0H23.6a0,0,0,0,1,0,0V2.622a0,0,0,0,1,0,0H1.311A1.311,1.311,0,0,1,0,1.311v0A1.311,1.311,0,0,1,1.311,0Z" transform="matrix(-0.839, 0.545, -0.545, -0.839, 1249.941, 141.65)"/><path class="d" d="M1.311,0H23.6a0,0,0,0,1,0,0V2.622a0,0,0,0,1,0,0H1.311A1.311,1.311,0,0,1,0,1.311v0A1.311,1.311,0,0,1,1.311,0Z" transform="matrix(-0.839, 0.545, -0.545, -0.839, 1241.923, 141.65)"/><g class="e" transform="translate(1153.145 146.954)"><circle class="f" cx="1.967" cy="1.967" r="1.967"/><circle class="g" cx="1.967" cy="1.967" r="1.467"/></g><g class="e" transform="translate(1163.838 146.954)"><circle class="f" cx="1.967" cy="1.967" r="1.967"/><circle class="g" cx="1.967" cy="1.967" r="1.467"/></g><g class="e" transform="translate(1176.157 146.954)"><circle class="f" cx="1.967" cy="1.967" r="1.967"/><circle class="g" cx="1.967" cy="1.967" r="1.467"/></g><g class="e" transform="translate(1188.476 146.954)"><circle class="f" cx="1.967" cy="1.967" r="1.967"/><circle class="g" cx="1.967" cy="1.967" r="1.467"/></g><g class="e" transform="translate(1200.795 146.954)"><circle class="f" cx="1.967" cy="1.967" r="1.967"/><circle class="g" cx="1.967" cy="1.967" r="1.467"/></g><g class="e" transform="translate(1213.114 146.954)"><circle class="f" cx="1.967" cy="1.967" r="1.967"/><circle class="g" cx="1.967" cy="1.967" r="1.467"/></g></g></svg>