<svg xmlns="http://www.w3.org/2000/svg" xmlns:xlink="http://www.w3.org/1999/xlink" width="239" height="107.621" viewBox="0 0 239 107.621"><defs><style>.a{fill:none;}.b{fill:url(#a);}.c{fill:url(#b);}.d{fill:url(#c);}.e{fill:url(#d);}.f{clip-path:url(#h);}.g{fill:#ef2110;stroke:rgba(236,142,142,0.94);}.h{stroke:none;}</style><linearGradient id="a" x1="0.5" x2="0.5" y2="1" gradientUnits="objectBoundingBox"><stop offset="0" stop-color="#111" stop-opacity="0"/><stop offset="1"/></linearGradient><linearGradient id="b" x1="0.5" x2="0.5" y2="1" gradientUnits="objectBoundingBox"><stop offset="0" stop-color="#878787" stop-opacity="0"/><stop offset="1" stop-color="#757575"/></linearGradient><radialGradient id="c" cx="0.5" cy="0.5" r="0.5" gradientUnits="objectBoundingBox"><stop offset="0" stop-color="#ff210e" stop-opacity="0"/><stop offset="1" stop-color="#cf4338"/></radialGradient><radialGradient id="d" cx="0.5" cy="0.5" r="4.565" gradientTransform="matrix(0.111, 0, 0, -0.695, 0.444, 0.848)" gradientUnits="objectBoundingBox"><stop offset="0" stop-color="#ff210e"/><stop offset="1" stop-color="#cf4338" stop-opacity="0"/></radialGradient><clipPath id="h"><rect class="a" width="127" height="6"/></clipPath></defs><g transform="translate(-1142 -83.379)"><path class="b" d="M52.842,0H192V77.621H0Z" transform="translate(1174 98.379)"/><path class="c" d="M-12523,48.625v0h-11L-12481.157-29h11L-12523,48.622Z" transform="translate(13700 126.379)"/><path class="d" d="M3,0H224a0,0,0,0,1,0,0V6a0,0,0,0,1,0,0H3A3,3,0,0,1,0,3V3A3,3,0,0,1,3,0Z" transform="translate(1142 173)"/><path class="e" d="M2,0H36a0,0,0,0,1,0,0V4a0,0,0,0,1,0,0H2A2,2,0,0,1,0,2V2A2,2,0,0,1,2,0Z" transform="matrix(-0.839, 0.545, -0.545, -0.839, 1360.448, 164.909)"/><path class="e" d="M2,0H36a0,0,0,0,1,0,0V4a0,0,0,0,1,0,0H2A2,2,0,0,1,0,2V2A2,2,0,0,1,2,0Z" transform="matrix(-0.839, 0.545, -0.545, -0.839, 1349.448, 164.909)"/><path class="e" d="M2,0H36a0,0,0,0,1,0,0V4a0,0,0,0,1,0,0H2A2,2,0,0,1,0,2V2A2,2,0,0,1,2,0Z" transform="matrix(-0.839, 0.545, -0.545, -0.839, 1338.448, 164.909)"/><path class="e" d="M2,0H36a0,0,0,0,1,0,0V4a0,0,0,0,1,0,0H2A2,2,0,0,1,0,2V2A2,2,0,0,1,2,0Z" transform="matrix(-0.839, 0.545, -0.545, -0.839, 1327.448, 164.909)"/><g class="f" transform="translate(1159 173)"><g transform="translate(-1215 -182)"><g class="g" transform="translate(1215 182)"><circle class="h" cx="3" cy="3" r="3"/><circle class="a" cx="3" cy="3" r="2.5"/></g></g><g transform="translate(-1193 -182)"><g class="g" transform="translate(1215 182)"><circle class="h" cx="3" cy="3" r="3"/><circle class="a" cx="3" cy="3" r="2.5"/></g></g><g transform="translate(-1171 -182)"><g class="g" transform="translate(1215 182)"><circle class="h" cx="3" cy="3" r="3"/><circle class="a" cx="3" cy="3" r="2.5"/></g></g><g transform="translate(-1149 -182)"><g class="g" transform="translate(1215 182)"><circle class="h" cx="3" cy="3" r="3"/><circle class="a" cx="3" cy="3" r="2.5"/></g></g><g transform="translate(-1127 -182)"><g class="g" transform="translate(1215 182)"><circle class="h" cx="3" cy="3" r="3"/><circle class="a" cx="3" cy="3" r="2.5"/></g></g><g transform="translate(-1105 -182)"><g class="g" transform="translate(1215 182)"><circle class="h" cx="3" cy="3" r="3"/><circle class="a" cx="3" cy="3" r="2.5"/></g></g></g></g></svg>